<svg width="172" height="35" viewBox="0 0 172 35" fill="none" xmlns="http://www.w3.org/2000/svg">
<path d="M0 17.4891C0 26.5095 6.60814 33.9191 15.1108 34.9546V0.0236511C6.60814 1.05915 0 8.46875 0 17.4891Z" fill="#7950ED"/>
<path d="M34.3038 17.4885C34.3038 8.42209 27.628 0.966469 19.0352 0V35H34.2812V17.9717C34.3038 17.8107 34.3038 17.6496 34.3038 17.4885Z" fill="#7950ED"/>
<path d="M49.5166 17.5115C51.366 17.5115 52.629 18.4089 53.3056 19.3754V17.6956H56.2376V29.4083H53.3056V27.7055C52.629 28.718 51.3209 29.6154 49.4941 29.6154C46.5847 29.6154 44.2617 27.1762 44.2617 23.5174C44.2617 19.8586 46.5847 17.5115 49.5166 17.5115ZM50.2609 20.1118C48.7047 20.1118 47.2388 21.3084 47.2388 23.5174C47.2388 25.7265 48.7047 27.0151 50.2609 27.0151C51.8622 27.0151 53.3056 25.7955 53.3056 23.5634C53.3056 21.3314 51.8622 20.1118 50.2609 20.1118Z" fill="#121242"/>
<path d="M75.2505 22.9421C75.2505 21.0782 74.2356 20.1118 72.7019 20.1118C71.1458 20.1118 70.1309 21.0782 70.1309 22.9421V29.4083H67.2215V22.9421C67.2215 21.0782 66.2066 20.1118 64.6729 20.1118C63.0942 20.1118 62.0793 21.0782 62.0793 22.9421V29.4083H59.1699V17.6956H62.0793V19.1223C62.801 18.1558 64.0189 17.5345 65.4623 17.5345C67.244 17.5345 68.71 18.3169 69.4994 19.7666C70.2436 18.432 71.7547 17.5345 73.4462 17.5345C76.1977 17.5345 78.1599 19.3064 78.1599 22.551V29.4313H75.2505V22.9421Z" fill="#121242"/>
<path d="M87.7218 17.5115C90.6763 17.5115 92.9767 19.8586 92.9767 23.5174C92.9767 27.1762 90.6763 29.6154 87.7218 29.6154C85.9175 29.6154 84.632 28.6949 83.9328 27.7515V35H81.0234V17.6956H83.9328V19.3984C84.6094 18.3859 85.9401 17.5115 87.7218 17.5115ZM86.955 20.1118C85.3988 20.1118 83.9328 21.3314 83.9328 23.5634C83.9328 25.7955 85.3988 27.0151 86.955 27.0151C88.5337 27.0151 89.9997 25.7495 89.9997 23.5174C89.9997 21.2853 88.5337 20.1118 86.955 20.1118Z" fill="#121242"/>
<path d="M95.1875 13.7607H98.0969V29.4313H95.1875V13.7607Z" fill="#121242"/>
<path d="M100.735 14.5661C100.735 13.5996 101.48 12.8402 102.517 12.8402C103.532 12.8402 104.299 13.5996 104.299 14.5661C104.299 15.5325 103.532 16.2919 102.517 16.2919C101.48 16.2919 100.735 15.5325 100.735 14.5661ZM101.051 17.6956H103.96V29.4083H101.051V17.6956Z" fill="#121242"/>
<path d="M111.854 17.5115C114.719 17.5115 116.636 19.0302 117.267 21.6535H114.132C113.794 20.664 113.027 20.0197 111.832 20.0197C110.208 20.0197 109.125 21.2623 109.125 23.5634C109.125 25.8416 110.208 27.0842 111.832 27.0842C113.027 27.0842 113.771 26.5319 114.132 25.4734H117.267C116.636 27.9816 114.719 29.6154 111.854 29.6154C108.539 29.6154 106.171 27.2452 106.171 23.5634C106.171 19.8817 108.539 17.5115 111.854 17.5115Z" fill="#121242"/>
<path d="M124.011 17.5115C125.86 17.5115 127.123 18.4089 127.8 19.3754V17.6956H130.732V29.4083H127.8V27.7055C127.123 28.718 125.815 29.6154 123.988 29.6154C121.079 29.6154 118.756 27.1762 118.756 23.5174C118.756 19.8586 121.079 17.5115 124.011 17.5115ZM124.755 20.1118C123.199 20.1118 121.733 21.3084 121.733 23.5174C121.733 25.7265 123.199 27.0151 124.755 27.0151C126.356 27.0151 127.8 25.7955 127.8 23.5634C127.8 21.3314 126.356 20.1118 124.755 20.1118Z" fill="#121242"/>
<path d="M134.136 20.1348H132.761V17.6956H134.136V14.7962H137.068V17.6956H139.639V20.1348H137.046V25.7955C137.046 26.5779 137.362 26.9231 138.264 26.9231H139.617V29.4313H137.79C135.602 29.4313 134.114 28.4878 134.114 25.7955V20.1348H134.136Z" fill="#121242"/>
<path d="M141.512 14.5661C141.512 13.5996 142.256 12.8402 143.293 12.8402C144.308 12.8402 145.075 13.5996 145.075 14.5661C145.075 15.5325 144.308 16.2919 143.293 16.2919C142.256 16.2919 141.512 15.5325 141.512 14.5661ZM141.827 17.6956H144.737V29.4083H141.827V17.6956Z" fill="#121242"/>
<path d="M152.788 29.6154C149.473 29.6154 146.97 27.2452 146.97 23.5634C146.97 19.8586 149.563 17.5115 152.879 17.5115C156.194 17.5115 158.788 19.8586 158.788 23.5634C158.788 27.2452 156.149 29.6154 152.788 29.6154ZM152.788 27.0381C154.322 27.0381 155.788 25.8876 155.788 23.5634C155.788 21.2163 154.367 20.0888 152.811 20.0888C151.255 20.0888 149.879 21.2163 149.879 23.5634C149.924 25.8876 151.232 27.0381 152.788 27.0381Z" fill="#121242"/>
<path d="M169.072 22.9421C169.072 21.0552 168.057 20.0427 166.524 20.0427C164.945 20.0427 163.93 21.0552 163.93 22.9421V29.4083H161.021V17.6956H163.93V19.1453C164.674 18.1558 165.915 17.5115 167.403 17.5115C170.087 17.5115 171.981 19.2834 171.981 22.5279V29.4083H169.072V22.9421Z" fill="#121242"/>
</svg>
