<svg width="498" height="102" viewBox="0 0 498 102" fill="none" xmlns="http://www.w3.org/2000/svg">
<path d="M0 50.9683C0 77.2563 19.1349 98.8499 43.7556 101.868V0.0689697C19.1349 3.08672 0 24.6804 0 50.9683Z" fill="#7950ED"/>
<path d="M99.3312 50.9664C99.3312 24.5444 80.0003 2.81657 55.1183 0V102H99.2659V52.3747C99.3312 51.9053 99.3312 51.4359 99.3312 50.9664Z" fill="#7950ED"/>
<path d="M143.384 51.0336C148.739 51.0336 152.396 53.649 154.356 56.4655V51.5701H162.845V85.7042H154.356V80.7417C152.396 83.6923 148.609 86.3077 143.319 86.3077C134.894 86.3077 128.167 79.1992 128.167 68.5365C128.167 57.8738 134.894 51.0336 143.384 51.0336ZM145.539 58.6115C141.033 58.6115 136.788 62.0987 136.788 68.5365C136.788 74.9744 141.033 78.7298 145.539 78.7298C150.176 78.7298 154.356 75.1756 154.356 68.6707C154.356 62.1657 150.176 58.6115 145.539 58.6115Z" fill="#15192C"/>
<path d="M217.9 66.86C217.9 61.428 214.961 58.6115 210.52 58.6115C206.014 58.6115 203.075 61.428 203.075 66.86V85.7042H194.65V66.86C194.65 61.428 191.712 58.6115 187.271 58.6115C182.699 58.6115 179.76 61.428 179.76 66.86V85.7042H171.336V51.57H179.76V55.7278C181.85 52.9113 185.377 51.1006 189.557 51.1006C194.716 51.1006 198.961 53.3807 201.246 57.6055C203.402 53.716 207.777 51.1006 212.675 51.1006C220.643 51.1006 226.324 56.2643 226.324 65.7199V85.7712H217.9V66.86Z" fill="#15192C"/>
<path d="M254.014 51.0336C262.569 51.0336 269.231 57.8738 269.231 68.5365C269.231 79.1992 262.569 86.3077 254.014 86.3077C248.79 86.3077 245.067 83.6253 243.042 80.8758V102H234.618V51.5701H243.042V56.5326C245.002 53.5819 248.855 51.0336 254.014 51.0336ZM251.794 58.6115C247.287 58.6115 243.042 62.1657 243.042 68.6706C243.042 75.1756 247.287 78.7298 251.794 78.7298C256.365 78.7298 260.61 75.0414 260.61 68.5365C260.61 62.0316 256.365 58.6115 251.794 58.6115Z" fill="#15192C"/>
<path d="M275.631 40.1026H284.055V85.7712H275.631V40.1026Z" fill="#15192C"/>
<path d="M291.695 42.4497C291.695 39.6332 293.851 37.4201 296.855 37.4201C299.793 37.4201 302.014 39.6332 302.014 42.4497C302.014 45.2663 299.793 47.4793 296.855 47.4793C293.851 47.4793 291.695 45.2663 291.695 42.4497ZM292.61 51.57H301.034V85.7041H292.61V51.57Z" fill="#15192C"/>
<path d="M323.892 51.0336C332.186 51.0336 337.737 55.4596 339.566 63.1046H330.488C329.509 60.2209 327.288 58.3432 323.827 58.3432C319.125 58.3432 315.99 61.9645 315.99 68.6707C315.99 75.3097 319.125 78.931 323.827 78.931C327.288 78.931 329.443 77.3215 330.488 74.2367H339.566C337.737 81.5464 332.186 86.3077 323.892 86.3077C314.292 86.3077 307.435 79.4004 307.435 68.6707C307.435 57.9409 314.292 51.0336 323.892 51.0336Z" fill="#15192C"/>
<path d="M359.093 51.0336C364.448 51.0336 368.105 53.649 370.065 56.4655V51.5701H378.555V85.7042H370.065V80.7417C368.105 83.6923 364.318 86.3077 359.028 86.3077C350.603 86.3077 343.877 79.1992 343.877 68.5365C343.877 57.8738 350.603 51.0336 359.093 51.0336ZM361.248 58.6115C356.742 58.6115 352.497 62.0987 352.497 68.5365C352.497 74.9744 356.742 78.7298 361.248 78.7298C365.885 78.7298 370.065 75.1756 370.065 68.6707C370.065 62.1657 365.885 58.6115 361.248 58.6115Z" fill="#15192C"/>
<path d="M388.415 58.6785H384.431V51.57H388.415V43.1203H396.905V51.57H404.35V58.6785H396.84V75.1755C396.84 77.4556 397.754 78.4615 400.366 78.4615H404.285V85.7712H398.995C392.66 85.7712 388.35 83.0217 388.35 75.1755V58.6785H388.415Z" fill="#15192C"/>
<path d="M409.771 42.4497C409.771 39.6332 411.926 37.4201 414.93 37.4201C417.869 37.4201 420.089 39.6332 420.089 42.4497C420.089 45.2663 417.869 47.4793 414.93 47.4793C411.926 47.4793 409.771 45.2663 409.771 42.4497ZM410.685 51.57H419.109V85.7041H410.685V51.57Z" fill="#15192C"/>
<path d="M442.424 86.3077C432.824 86.3077 425.575 79.4004 425.575 68.6707C425.575 57.8738 433.085 51.0336 442.685 51.0336C452.285 51.0336 459.796 57.8738 459.796 68.6707C459.796 79.4004 452.155 86.3077 442.424 86.3077ZM442.424 78.7969C446.865 78.7969 451.11 75.4438 451.11 68.6707C451.11 61.8304 446.995 58.5444 442.489 58.5444C437.983 58.5444 433.999 61.8304 433.999 68.6707C434.13 75.4438 437.918 78.7969 442.424 78.7969Z" fill="#15192C"/>
<path d="M489.576 66.86C489.576 61.361 486.637 58.4103 482.196 58.4103C477.624 58.4103 474.686 61.361 474.686 66.86V85.7042H466.261V51.5701H474.686V55.7949C476.841 52.9113 480.433 51.0336 484.743 51.0336C492.514 51.0336 498 56.1973 498 65.6529V85.7042H489.576V66.86Z" fill="#15192C"/>
<path d="M143.384 51.0336C148.739 51.0336 152.396 53.649 154.356 56.4655V51.5701H162.845V85.7042H154.356V80.7417C152.396 83.6923 148.609 86.3077 143.319 86.3077C134.894 86.3077 128.167 79.1992 128.167 68.5365C128.167 57.8738 134.894 51.0336 143.384 51.0336ZM145.539 58.6115C141.033 58.6115 136.788 62.0987 136.788 68.5365C136.788 74.9744 141.033 78.7298 145.539 78.7298C150.176 78.7298 154.356 75.1756 154.356 68.6707C154.356 62.1657 150.176 58.6115 145.539 58.6115Z" fill="#15192C"/>
<path d="M217.9 66.86C217.9 61.428 214.961 58.6115 210.52 58.6115C206.014 58.6115 203.075 61.428 203.075 66.86V85.7042H194.65V66.86C194.65 61.428 191.712 58.6115 187.271 58.6115C182.699 58.6115 179.76 61.428 179.76 66.86V85.7042H171.336V51.57H179.76V55.7278C181.85 52.9113 185.377 51.1006 189.557 51.1006C194.716 51.1006 198.961 53.3807 201.246 57.6055C203.402 53.716 207.777 51.1006 212.675 51.1006C220.643 51.1006 226.324 56.2643 226.324 65.7199V85.7712H217.9V66.86Z" fill="#15192C"/>
<path d="M254.014 51.0336C262.569 51.0336 269.231 57.8738 269.231 68.5365C269.231 79.1992 262.569 86.3077 254.014 86.3077C248.79 86.3077 245.067 83.6253 243.042 80.8758V102H234.618V51.5701H243.042V56.5326C245.002 53.5819 248.855 51.0336 254.014 51.0336ZM251.794 58.6115C247.287 58.6115 243.042 62.1657 243.042 68.6706C243.042 75.1756 247.287 78.7298 251.794 78.7298C256.365 78.7298 260.61 75.0414 260.61 68.5365C260.61 62.0316 256.365 58.6115 251.794 58.6115Z" fill="#15192C"/>
<path d="M275.631 40.1026H284.055V85.7712H275.631V40.1026Z" fill="#15192C"/>
<path d="M291.695 42.4497C291.695 39.6332 293.851 37.4201 296.855 37.4201C299.793 37.4201 302.014 39.6332 302.014 42.4497C302.014 45.2663 299.793 47.4793 296.855 47.4793C293.851 47.4793 291.695 45.2663 291.695 42.4497ZM292.61 51.57H301.034V85.7041H292.61V51.57Z" fill="#15192C"/>
<path d="M323.892 51.0336C332.186 51.0336 337.737 55.4596 339.566 63.1046H330.488C329.509 60.2209 327.288 58.3432 323.827 58.3432C319.125 58.3432 315.99 61.9645 315.99 68.6707C315.99 75.3097 319.125 78.931 323.827 78.931C327.288 78.931 329.443 77.3215 330.488 74.2367H339.566C337.737 81.5464 332.186 86.3077 323.892 86.3077C314.292 86.3077 307.435 79.4004 307.435 68.6707C307.435 57.9409 314.292 51.0336 323.892 51.0336Z" fill="#15192C"/>
<path d="M359.093 51.0336C364.448 51.0336 368.105 53.649 370.065 56.4655V51.5701H378.555V85.7042H370.065V80.7417C368.105 83.6923 364.318 86.3077 359.028 86.3077C350.603 86.3077 343.877 79.1992 343.877 68.5365C343.877 57.8738 350.603 51.0336 359.093 51.0336ZM361.248 58.6115C356.742 58.6115 352.497 62.0987 352.497 68.5365C352.497 74.9744 356.742 78.7298 361.248 78.7298C365.885 78.7298 370.065 75.1756 370.065 68.6707C370.065 62.1657 365.885 58.6115 361.248 58.6115Z" fill="#15192C"/>
<path d="M388.415 58.6785H384.431V51.57H388.415V43.1203H396.905V51.57H404.35V58.6785H396.84V75.1755C396.84 77.4556 397.754 78.4615 400.366 78.4615H404.285V85.7712H398.995C392.66 85.7712 388.35 83.0217 388.35 75.1755V58.6785H388.415Z" fill="#15192C"/>
<path d="M409.771 42.4497C409.771 39.6332 411.926 37.4201 414.93 37.4201C417.869 37.4201 420.089 39.6332 420.089 42.4497C420.089 45.2663 417.869 47.4793 414.93 47.4793C411.926 47.4793 409.771 45.2663 409.771 42.4497ZM410.685 51.57H419.109V85.7041H410.685V51.57Z" fill="#15192C"/>
<path d="M442.424 86.3077C432.824 86.3077 425.575 79.4004 425.575 68.6707C425.575 57.8738 433.085 51.0336 442.685 51.0336C452.285 51.0336 459.796 57.8738 459.796 68.6707C459.796 79.4004 452.155 86.3077 442.424 86.3077ZM442.424 78.7969C446.865 78.7969 451.11 75.4438 451.11 68.6707C451.11 61.8304 446.995 58.5444 442.489 58.5444C437.983 58.5444 433.999 61.8304 433.999 68.6707C434.13 75.4438 437.918 78.7969 442.424 78.7969Z" fill="#15192C"/>
<path d="M489.576 66.86C489.576 61.361 486.637 58.4103 482.196 58.4103C477.624 58.4103 474.686 61.361 474.686 66.86V85.7042H466.261V51.5701H474.686V55.7949C476.841 52.9113 480.433 51.0336 484.743 51.0336C492.514 51.0336 498 56.1973 498 65.6529V85.7042H489.576V66.86Z" fill="#15192C"/>
</svg>
