<svg version="1.1" id="Layer_1" xmlns="http://www.w3.org/2000/svg" xmlns:xlink="http://www.w3.org/1999/xlink" x="0px" y="0px"
	 width="18" height="19" viewBox="0 0 250 250" enable-background="new 0 0 250 250" xml:space="preserve">
<path fill="#15192C" opacity="1.000000" stroke="none" 
	d="
M143.000000,251.000000 
	C95.333336,251.000000 48.166672,251.000000 1.000006,251.000000 
	C1.000004,167.666672 1.000004,84.333351 1.000002,1.000018 
	C84.333321,1.000012 167.666641,1.000012 250.999969,1.000006 
	C250.999969,84.333321 250.999969,167.666641 250.999985,250.999969 
	C215.166672,251.000000 179.333328,251.000000 143.000000,251.000000 
M138.770523,48.322319 
	C133.311447,46.472176 127.866341,44.512989 121.182236,45.933720 
	C118.447929,46.680267 115.713615,47.426819 112.439850,48.106594 
	C112.222794,48.383488 112.005745,48.660385 111.272743,49.096298 
	C110.851662,49.425854 110.430580,49.755405 109.278542,49.965111 
	C99.777260,54.240017 90.286591,58.538746 80.769455,62.778057 
	C76.988396,64.462296 73.073578,65.859406 69.350594,67.658249 
	C60.384098,71.990623 56.236740,79.288574 55.968750,89.205902 
	C55.578506,103.647583 58.548222,117.449577 63.146473,131.646011 
	C63.780842,132.763641 64.415207,133.881287 65.030289,135.742752 
	C66.849472,139.897827 68.668663,144.052902 70.674461,148.926285 
	C73.459740,153.954926 76.245026,158.983551 79.157043,164.694077 
	C82.183357,169.106827 85.209679,173.519577 88.358406,178.468872 
	C88.943596,179.153748 89.528786,179.838638 90.163940,180.785614 
	C90.163940,180.785614 90.408913,180.891418 90.699448,181.431870 
	C92.375587,183.323334 94.051727,185.214783 95.993500,187.747162 
	C99.641418,191.175201 103.289337,194.603226 107.243286,198.633011 
	C121.233368,209.551590 130.624451,209.565079 144.429169,198.683365 
	C144.951263,198.271805 145.485733,197.869308 145.964645,197.410614 
	C175.525070,169.099121 192.376053,134.605621 195.786591,93.790031 
	C196.330643,87.278969 195.858673,80.423180 190.768646,74.393028 
	C189.171341,73.025604 187.574051,71.658180 185.354370,69.914085 
	C182.907089,68.601707 180.459824,67.289330 177.503510,65.442482 
	C175.002548,64.608459 172.501587,63.774437 169.475693,62.460506 
	C166.316116,61.331532 163.156525,60.202553 159.302521,58.807945 
	C156.565964,57.468430 153.829407,56.128918 150.642502,54.277699 
	C146.878082,52.474068 143.113678,50.670437 138.770523,48.322319 
z"/>
<path fill="#8889FB" opacity="1.000000" stroke="none" 
	d="
M159.996948,59.073578 
	C163.156525,60.202553 166.316116,61.331532 169.755707,63.065407 
	C170.942368,65.198273 171.675446,66.870033 172.795197,68.221413 
	C174.594360,70.392754 176.897827,72.171562 178.545242,74.438171 
	C182.217453,79.490578 181.442184,81.546196 175.477112,83.302124 
	C172.612137,84.145493 169.563324,84.489594 166.826065,85.615051 
	C161.420044,87.837799 156.534332,88.000633 151.495743,84.395477 
	C149.001160,82.610580 145.767105,81.709671 142.736038,80.903404 
	C141.643372,80.612747 140.165894,81.768791 138.529755,82.112495 
	C127.399612,76.464172 118.350586,77.973656 109.199097,86.365051 
	C108.976509,83.404541 108.209274,80.588631 109.014648,78.334618 
	C112.067215,69.791389 115.629181,61.430164 119.250061,53.000072 
	C119.499512,52.999283 119.998413,52.997715 120.372177,52.928268 
	C127.468590,49.579060 133.159332,52.475578 139.027802,55.566311 
	C143.675705,58.014214 148.586868,60.067024 153.570618,61.726116 
	C155.895340,62.500023 159.060852,62.839859 159.996948,59.073578 
z"/>
<path fill="#8586F8" opacity="1.000000" stroke="none" 
	d="
M138.864014,82.264633 
	C140.165894,81.768791 141.643372,80.612747 142.736038,80.903404 
	C145.767105,81.709671 149.001160,82.610580 151.495743,84.395477 
	C156.534332,88.000633 161.420044,87.837799 166.826065,85.615051 
	C169.563324,84.489594 172.612137,84.145493 175.477112,83.302124 
	C181.442184,81.546196 182.217453,79.490578 178.545242,74.438171 
	C176.897827,72.171562 174.594360,70.392754 172.795197,68.221413 
	C171.675446,66.870033 170.942368,65.198273 170.018188,63.305359 
	C172.501587,63.774437 175.002548,64.608459 177.771973,66.072609 
	C178.835602,68.109238 179.326843,69.866821 180.477386,70.862740 
	C186.091919,75.722748 186.716568,81.857140 185.633118,88.624382 
	C185.215393,91.233475 185.173874,93.905220 185.004044,96.551178 
	C183.872147,114.186569 179.484329,130.958054 171.543533,146.755203 
	C170.954300,147.927444 169.528702,148.679245 168.491913,149.626511 
	C167.682159,148.311798 166.232346,147.024765 166.174072,145.677551 
	C165.929932,140.031677 165.746506,134.337219 166.228088,128.719482 
	C166.665039,123.622498 165.228180,119.414787 162.847672,115.030983 
	C160.954727,111.545059 159.516647,107.493088 159.134598,103.569923 
	C158.245224,94.437103 150.817200,85.590530 142.445892,84.832893 
	C141.136108,84.097145 140.070251,83.533585 138.956146,82.796295 
	C138.907883,82.622574 138.864014,82.264641 138.864014,82.264633 
z"/>
<path fill="#797AE3" opacity="1.000000" stroke="none" 
	d="
M185.976746,70.290764 
	C187.574051,71.658180 189.171341,73.025604 190.896759,75.104843 
	C194.340363,86.647781 193.137909,97.817772 191.277939,108.421242 
	C189.205200,120.237518 185.504303,132.065750 180.580780,143.020782 
	C171.126816,164.056061 159.405609,183.777405 139.966034,197.591431 
	C131.366272,203.702515 119.037064,205.470215 114.374321,199.034180 
	C118.221497,198.684799 121.608864,198.349716 125.407074,198.008347 
	C128.686905,197.262466 131.762131,196.955475 134.387161,195.704132 
	C143.084198,191.558151 150.217484,185.389160 155.838211,177.570114 
	C156.792038,176.243240 157.864273,173.942093 157.324570,172.889664 
	C156.748871,171.767075 154.333771,171.107971 152.708328,171.081985 
	C142.730835,170.922501 132.749023,171.051834 122.769974,170.952835 
	C120.845337,170.933746 118.926506,170.329102 117.347137,169.763306 
	C119.657166,169.354950 121.624207,169.036514 123.593086,169.024734 
	C133.229965,168.967010 142.870193,169.133850 152.503632,168.941025 
	C160.244690,168.786072 162.346420,166.804016 163.370117,160.043716 
	C166.446426,161.296402 168.462555,160.655746 169.980423,157.997696 
	C181.598923,137.651672 188.470642,115.902306 190.080978,92.450157 
	C190.620575,84.591759 188.971222,77.375084 185.976746,70.290764 
z"/>
<path fill="#8182F1" opacity="1.000000" stroke="none" 
	d="
M185.665558,70.102425 
	C188.971222,77.375084 190.620575,84.591759 190.080978,92.450157 
	C188.470642,115.902306 181.598923,137.651672 169.980423,157.997696 
	C168.462555,160.655746 166.446426,161.296402 163.368942,159.577835 
	C163.013779,147.362335 163.011597,135.680908 163.172226,123.825851 
	C163.219070,123.101166 163.103088,122.550117 162.908096,121.695526 
	C161.903961,120.578865 160.978851,119.765747 160.036514,118.595634 
	C159.347153,117.157539 158.675018,116.076439 157.774841,114.659698 
	C157.357346,112.049858 157.203232,109.772049 156.971909,107.502106 
	C156.217148,100.095566 152.687592,90.667091 145.271454,88.924011 
	C144.359375,88.199295 143.684875,87.606049 142.982727,86.674538 
	C142.866684,85.892540 142.778259,85.448807 142.689850,85.005081 
	C150.817200,85.590530 158.245224,94.437103 159.134598,103.569923 
	C159.516647,107.493088 160.954727,111.545059 162.847672,115.030983 
	C165.228180,119.414787 166.665039,123.622498 166.228088,128.719482 
	C165.746506,134.337219 165.929932,140.031677 166.174072,145.677551 
	C166.232346,147.024765 167.682159,148.311798 168.491913,149.626511 
	C169.528702,148.679245 170.954300,147.927444 171.543533,146.755203 
	C179.484329,130.958054 183.872147,114.186569 185.004044,96.551178 
	C185.173874,93.905220 185.215393,91.233475 185.633118,88.624382 
	C186.716568,81.857140 186.091919,75.722748 180.477386,70.862740 
	C179.326843,69.866821 178.835602,68.109238 178.026489,66.339844 
	C180.459824,67.289330 182.907089,68.601707 185.665558,70.102425 
z"/>
<path fill="#6667C8" opacity="1.000000" stroke="none" 
	d="
M113.914513,199.048492 
	C119.037064,205.470215 131.366272,203.702515 139.966034,197.591431 
	C159.405609,183.777405 171.126816,164.056061 180.580780,143.020782 
	C185.504303,132.065750 189.205200,120.237518 191.277939,108.421242 
	C193.137909,97.817772 194.340363,86.647781 191.012207,75.407166 
	C195.858673,80.423180 196.330643,87.278969 195.786591,93.790031 
	C192.376053,134.605621 175.525070,169.099121 145.964645,197.410614 
	C145.485733,197.869308 144.951263,198.271805 144.429169,198.683365 
	C130.624451,209.565079 121.233368,209.551590 107.492340,198.314606 
	C109.799095,198.346985 111.856804,198.697739 113.914513,199.048492 
z"/>
<path fill="#ACADFE" opacity="1.000000" stroke="none" 
	d="
M112.979309,48.173367 
	C115.713615,47.426819 118.447929,46.680267 121.416977,46.291763 
	C121.096130,47.420677 120.540558,48.191540 119.643600,49.039375 
	C115.860634,51.398911 112.419060,53.681477 108.636185,56.041473 
	C102.532578,59.423149 96.770264,62.727398 90.630905,66.089828 
	C87.505638,66.771622 84.757431,67.395233 81.665092,68.083397 
	C75.613205,70.846481 69.581581,74.009064 69.289360,80.938187 
	C68.799873,92.545059 69.155205,104.223381 69.833626,115.831970 
	C70.345642,124.593246 71.917534,133.292572 72.765556,142.021057 
	C72.345329,142.021622 72.177238,142.020569 71.857697,141.676483 
	C70.141228,137.553726 68.576210,133.773987 67.009705,129.545441 
	C66.357445,124.554611 65.237320,120.022118 65.144730,115.468727 
	C64.877388,102.321053 65.023987,89.164970 65.004745,76.006378 
	C65.001457,76.000580 65.014793,76.007439 65.340042,75.943542 
	C67.107086,74.584274 68.548874,73.288902 69.995331,71.996582 
	C70.000000,71.999634 69.994278,71.988930 70.289665,71.910324 
	C71.061073,71.223946 71.537094,70.616180 72.257919,70.004997 
	C72.502716,70.001579 72.992287,69.992966 73.287712,69.915085 
	C74.066177,69.234650 74.549217,68.632088 75.410416,68.003189 
	C83.004341,65.072670 90.426796,62.582291 97.362755,59.117908 
	C101.940262,56.831535 105.818291,53.144733 110.009506,50.084961 
	C110.430580,49.755405 110.851662,49.425854 111.744675,48.914047 
	C112.503265,48.589935 112.757500,48.403793 112.979309,48.173367 
z"/>
<path fill="#BDBEF6" opacity="1.000000" stroke="none" 
	d="
M109.644028,50.025036 
	C105.818291,53.144733 101.940262,56.831535 97.362755,59.117908 
	C90.426796,62.582291 83.004341,65.072670 75.110977,68.074829 
	C73.953018,68.779526 73.472656,69.386246 72.992287,69.992966 
	C72.992287,69.992966 72.502716,70.001579 71.961380,70.082687 
	C70.944786,70.772171 70.469528,71.380547 69.994278,71.988930 
	C69.994278,71.988930 70.000000,71.999634 69.637177,72.015923 
	C67.854500,73.357285 66.434647,74.682358 65.014786,76.007431 
	C65.014793,76.007439 65.001457,76.000580 64.697281,76.190918 
	C63.262119,79.880630 61.300697,83.344048 61.147346,86.885750 
	C60.558655,100.481667 60.975311,114.056213 64.489799,127.362190 
	C64.760193,128.385910 63.636833,129.777756 63.161293,130.998505 
	C58.548222,117.449577 55.578506,103.647583 55.968750,89.205902 
	C56.236740,79.288574 60.384098,71.990623 69.350594,67.658249 
	C73.073578,65.859406 76.988396,64.462296 80.769455,62.778057 
	C90.286591,58.538746 99.777260,54.240017 109.644028,50.025036 
z"/>
<path fill="#B7B8FC" opacity="1.000000" stroke="none" 
	d="
M63.153885,131.322266 
	C63.636833,129.777756 64.760193,128.385910 64.489799,127.362190 
	C60.975311,114.056213 60.558655,100.481667 61.147346,86.885750 
	C61.300697,83.344048 63.262119,79.880630 64.700577,76.196716 
	C65.023987,89.164970 64.877388,102.321053 65.144730,115.468727 
	C65.237320,120.022118 66.357445,124.554611 67.005798,129.927979 
	C66.352112,132.172516 65.700844,133.585709 65.049576,134.998917 
	C64.415207,133.881287 63.780842,132.763641 63.153885,131.322266 
z"/>
<path fill="#9294EE" opacity="1.000000" stroke="none" 
	d="
M88.235992,177.932327 
	C85.209679,173.519577 82.183357,169.106827 79.410645,164.233185 
	C79.784302,161.861465 79.904350,159.950623 80.343674,158.129639 
	C82.441757,159.816833 84.220573,161.414215 86.017807,163.376282 
	C88.024109,165.495819 90.011993,167.250656 92.019318,169.371033 
	C94.023666,173.491104 96.008583,177.245621 97.568428,180.999649 
	C94.898537,180.963257 92.653725,180.927338 90.408913,180.891418 
	C90.408913,180.891418 90.163940,180.785614 90.271942,180.341187 
	C89.665291,179.241959 88.950638,178.587143 88.235992,177.932327 
z"/>
<path fill="#8C8DFC" opacity="1.000000" stroke="none" 
	d="
M159.649734,58.940762 
	C159.060852,62.839859 155.895340,62.500023 153.570618,61.726116 
	C148.586868,60.067024 143.675705,58.014214 139.027802,55.566311 
	C133.159332,52.475578 127.468590,49.579060 120.469193,52.618721 
	C121.128960,51.254436 122.065483,50.130253 123.455948,49.002663 
	C126.938972,49.001808 129.968063,49.004364 133.109467,49.332279 
	C137.476852,51.691509 141.646027,53.950268 146.037491,55.626801 
	C147.415237,56.152786 149.390884,55.112682 151.092850,54.789406 
	C153.829407,56.128918 156.565964,57.468430 159.649734,58.940762 
z"/>
<path fill="#7F80E1" opacity="1.000000" stroke="none" 
	d="
M114.374321,199.034180 
	C111.856804,198.697739 109.799095,198.346985 107.339325,198.013733 
	C103.289337,194.603226 99.641418,191.175201 96.232773,187.460785 
	C99.980492,188.450623 103.488937,189.726837 107.342995,191.074768 
	C113.457817,193.435852 119.227020,195.725250 124.996231,198.014648 
	C121.608864,198.349716 118.221497,198.684799 114.374321,199.034180 
z"/>
<path fill="#A1A2EB" opacity="1.000000" stroke="none" 
	d="
M80.024399,158.039795 
	C79.904350,159.950623 79.784302,161.861465 79.347282,163.892242 
	C76.245026,158.983551 73.459740,153.954926 70.931931,148.449249 
	C71.462646,145.987991 71.735901,144.003738 72.009155,142.019501 
	C72.177238,142.020569 72.345329,142.021622 73.008118,142.267334 
	C74.235756,144.129044 74.844986,145.817734 75.730675,147.346252 
	C77.050919,149.624695 78.566193,151.790131 79.997940,154.406540 
	C80.006401,155.886215 80.015404,156.962997 80.024399,158.039795 
z"/>
<path fill="#898BE6" opacity="1.000000" stroke="none" 
	d="
M106.997391,191.003052 
	C103.488937,189.726837 99.980492,188.450623 96.099960,187.140320 
	C94.051727,185.214783 92.375587,183.323334 90.554184,181.161652 
	C92.653725,180.927338 94.898537,180.963257 97.886688,181.058838 
	C99.752281,181.749619 100.874527,182.380737 102.144485,183.315811 
	C103.860588,186.080872 105.428993,188.541962 106.997391,191.003052 
z"/>
<path fill="#B0B1F5" opacity="1.000000" stroke="none" 
	d="
M71.857704,141.676483 
	C71.735901,144.003738 71.462646,145.987991 70.838623,148.090103 
	C68.668663,144.052902 66.849472,139.897827 65.039932,135.370834 
	C65.700844,133.585709 66.352112,132.172516 67.007286,130.376770 
	C68.576210,133.773987 70.141228,137.553726 71.857704,141.676483 
z"/>
<path fill="#9192FB" opacity="1.000000" stroke="none" 
	d="
M150.867676,54.533554 
	C149.390884,55.112682 147.415237,56.152786 146.037491,55.626801 
	C141.646027,53.950268 137.476852,51.691509 133.473907,49.346840 
	C135.600433,48.979626 137.474838,48.923218 139.349258,48.866806 
	C143.113678,50.670437 146.878082,52.474068 150.867676,54.533554 
z"/>
<path fill="#9C9DFD" opacity="1.000000" stroke="none" 
	d="
M139.059891,48.594563 
	C137.474838,48.923218 135.600433,48.979626 133.361572,49.021477 
	C129.968063,49.004364 126.938972,49.001808 123.191872,49.031639 
	C121.644226,49.030148 120.814606,48.996277 119.984978,48.962402 
	C120.540558,48.191540 121.096130,47.420677 121.804932,46.409111 
	C127.866341,44.512989 133.311447,46.472176 139.059891,48.594563 
z"/>
<path fill="#898BE6" opacity="1.000000" stroke="none" 
	d="
M88.297195,178.200592 
	C88.950638,178.587143 89.665291,179.241959 90.246964,180.210144 
	C89.528786,179.838638 88.943596,179.153748 88.297195,178.200592 
z"/>
<path fill="#BDBEF6" opacity="1.000000" stroke="none" 
	d="
M112.709579,48.139980 
	C112.757500,48.403793 112.503265,48.589935 112.002655,48.834541 
	C112.005745,48.660385 112.222794,48.383488 112.709579,48.139980 
z"/>
<path fill="#8C8DFC" opacity="1.000000" stroke="none" 
	d="
M119.000610,53.000862 
	C115.629181,61.430164 112.067215,69.791389 109.014648,78.334618 
	C108.209274,80.588631 108.976509,83.404541 109.073685,86.661636 
	C105.016701,92.910645 104.452560,99.290977 104.781319,105.882507 
	C104.901711,108.296280 104.520706,109.960350 101.889351,111.452301 
	C99.933723,112.561142 98.209076,115.722961 98.060616,118.076286 
	C97.538513,126.352219 97.741501,134.673889 97.320503,142.935455 
	C95.995758,141.134033 94.478691,139.471970 94.144318,137.598770 
	C93.097183,131.732422 92.303383,125.804184 91.757843,119.868095 
	C90.045647,101.237488 89.945915,83.079803 104.712631,68.407295 
	C107.166298,65.969284 107.622292,61.520775 109.000717,58.000668 
	C109.000000,58.000000 109.001831,58.001526 109.350006,57.938110 
	C112.798988,56.250084 115.899796,54.625473 119.000610,53.000862 
z"/>
<path fill="#FAFAFC" opacity="1.000000" stroke="none" 
	d="
M97.669334,142.978210 
	C97.741501,134.673889 97.538513,126.352219 98.060616,118.076286 
	C98.209076,115.722961 99.933723,112.561142 101.889351,111.452301 
	C104.520706,109.960350 104.901711,108.296280 104.781319,105.882507 
	C104.452560,99.290977 105.016701,92.910645 109.251175,87.064255 
	C118.350586,77.973656 127.399612,76.464172 138.529755,82.112503 
	C138.864014,82.264641 138.907883,82.622574 139.020325,83.130867 
	C140.425308,84.763710 141.717850,85.888260 143.010376,87.012810 
	C143.684875,87.606049 144.359375,88.199295 145.356537,89.268250 
	C146.007706,90.851791 146.336227,91.959618 146.498138,93.269730 
	C146.206024,93.977615 146.080505,94.483215 145.769135,95.211624 
	C145.716492,96.300552 145.849701,97.166679 145.984375,98.489639 
	C145.900299,103.921234 147.051254,109.157417 142.606003,113.159889 
	C142.023514,113.684349 142.173370,115.022163 141.518219,115.984337 
	C136.038879,115.997635 131.025345,116.009857 125.578796,116.017502 
	C120.515488,116.363609 115.875496,116.619560 111.257637,117.091843 
	C106.719185,117.556015 104.115654,120.448395 104.025764,125.023430 
	C103.940742,129.350449 104.013557,133.680542 104.014786,138.466309 
	C104.000427,142.274597 103.988243,145.625900 103.557083,148.982773 
	C101.462601,148.987320 99.787079,148.986267 98.051437,148.558777 
	C97.883987,146.414291 97.776665,144.696243 97.669334,142.978210 
M140.325256,93.570099 
	C140.344421,92.786697 140.632553,91.881752 140.341843,91.238380 
	C136.789581,83.376854 125.856178,80.104759 118.196793,84.546577 
	C109.236465,89.742836 105.716431,97.761993 108.244530,108.217018 
	C108.513550,109.329529 111.023880,109.900078 113.313911,110.720406 
	C115.508522,110.617386 117.703140,110.514374 120.825806,110.639862 
	C123.791580,110.678688 126.757286,110.743561 129.723145,110.751785 
	C141.897430,110.785545 143.273056,109.054276 140.712173,96.925827 
	C140.508514,95.961311 140.171707,95.024910 140.325256,93.570099 
z"/>
<path fill="#9192FB" opacity="1.000000" stroke="none" 
	d="
M119.250061,53.000072 
	C115.899796,54.625473 112.798988,56.250084 109.347931,57.598698 
	C108.990959,56.869816 108.984222,56.416931 108.977478,55.964043 
	C112.419060,53.681477 115.860634,51.398911 119.643600,49.039375 
	C120.814606,48.996277 121.644226,49.030148 122.737930,49.035042 
	C122.065483,50.130253 121.128960,51.254436 120.095428,52.688168 
	C119.998413,52.997715 119.499512,52.999283 119.250061,53.000072 
z"/>
<path fill="#DADEEB" opacity="1.000000" stroke="none" 
	d="
M142.982727,86.674538 
	C141.717850,85.888260 140.425308,84.763710 139.068604,83.304596 
	C140.070251,83.533585 141.136108,84.097145 142.445892,84.832893 
	C142.778259,85.448807 142.866684,85.892540 142.982727,86.674538 
z"/>
<path fill="#8586F6" opacity="1.000000" stroke="none" 
	d="
M107.343002,191.074753 
	C105.428993,188.541962 103.860588,186.080872 102.438919,183.114807 
	C106.011993,179.362061 104.945915,175.990280 103.233818,172.290497 
	C101.746666,169.076767 98.355110,166.072845 101.410606,161.938873 
	C102.143654,162.004120 102.561417,162.056381 103.057404,162.463135 
	C103.944389,167.915878 107.108467,169.670395 112.052071,169.316833 
	C113.095436,169.731155 114.044746,169.860779 115.329170,169.993774 
	C116.111183,169.996277 116.558090,169.995422 117.004997,169.994568 
	C118.926506,170.329102 120.845337,170.933746 122.769974,170.952835 
	C132.749023,171.051834 142.730835,170.922501 152.708328,171.081985 
	C154.333771,171.107971 156.748871,171.767075 157.324570,172.889664 
	C157.864273,173.942093 156.792038,176.243240 155.838211,177.570114 
	C150.217484,185.389160 143.084198,191.558151 134.387161,195.704132 
	C131.762131,196.955475 128.686905,197.262466 125.407074,198.008347 
	C119.227020,195.725250 113.457817,193.435852 107.343002,191.074753 
z"/>
<path fill="#7879DB" opacity="1.000000" stroke="none" 
	d="
M111.958023,169.032135 
	C107.108467,169.670395 103.944389,167.915878 103.458076,162.420181 
	C104.846611,162.070374 105.912689,162.118027 107.014038,162.530716 
	C107.974579,167.094315 111.356949,166.963028 114.502197,166.978027 
	C126.775261,167.036530 139.048965,167.046432 151.322021,166.989319 
	C158.278610,166.956955 160.937881,164.285172 160.979065,157.329269 
	C161.044830,146.217316 161.017014,135.104828 161.358795,123.993454 
	C162.129028,123.996071 162.569229,123.997780 163.009415,123.999489 
	C163.011597,135.680908 163.013779,147.362335 163.017120,159.509644 
	C162.346420,166.804016 160.244690,168.786072 152.503632,168.941025 
	C142.870193,169.133850 133.229965,168.967010 123.593086,169.024734 
	C121.624207,169.036514 119.657166,169.354950 117.347137,169.763306 
	C116.558090,169.995422 116.111183,169.996277 115.078194,169.784332 
	C113.647415,169.391739 112.802719,169.211945 111.958023,169.032135 
z"/>
<path fill="#7879DB" opacity="1.000000" stroke="none" 
	d="
M146.664734,93.067451 
	C146.336227,91.959618 146.007706,90.851791 145.594116,89.399719 
	C152.687592,90.667091 156.217148,100.095566 156.971909,107.502106 
	C157.203232,109.772049 157.357346,112.049858 157.773285,114.996223 
	C157.998093,116.116974 157.996429,116.565559 157.667725,117.009811 
	C156.904541,116.999313 156.468353,116.993164 155.948334,116.654839 
	C155.221024,114.899414 154.577576,113.476158 154.166412,111.742798 
	C155.607666,104.650032 152.768372,97.351379 147.890717,95.029068 
	C147.776276,95.060463 147.540665,95.089287 147.569519,94.793335 
	C147.287155,94.020744 146.975952,93.544098 146.664734,93.067451 
z"/>
<path fill="#7879DB" opacity="1.000000" stroke="none" 
	d="
M160.053726,118.952629 
	C160.978851,119.765747 161.903961,120.578865 162.578613,121.695663 
	C161.888519,121.999306 161.448868,121.999268 160.742523,121.830750 
	C159.991058,120.772850 159.506271,119.883446 159.279633,118.986107 
	C159.709778,118.969658 159.881744,118.961143 160.053726,118.952629 
z"/>
<path fill="#797AE3" opacity="1.000000" stroke="none" 
	d="
M161.009232,121.999229 
	C161.448868,121.999268 161.888519,121.999306 162.657623,121.999207 
	C163.103088,122.550117 163.219070,123.101166 163.172226,123.825851 
	C162.569229,123.997780 162.129028,123.996071 161.350403,123.661392 
	C161.011063,122.885361 161.010147,122.442291 161.009232,121.999229 
z"/>
<path fill="#797AE3" opacity="1.000000" stroke="none" 
	d="
M160.036514,118.595634 
	C159.881744,118.961143 159.709778,118.969658 159.216385,118.707710 
	C158.594910,117.962883 158.294846,117.488518 157.994751,117.014153 
	C157.996429,116.565559 157.998093,116.116974 158.001312,115.331863 
	C158.675018,116.076439 159.347153,117.157539 160.036514,118.595634 
z"/>
<path fill="#9698FD" opacity="1.000000" stroke="none" 
	d="
M108.636185,56.041473 
	C108.984222,56.416931 108.990959,56.869816 108.999763,57.662113 
	C109.001831,58.001526 109.000000,58.000000 108.693626,58.148300 
	C103.117355,62.836266 98.067200,67.669739 92.510422,71.825851 
	C87.769661,75.371643 86.156517,80.298904 85.265427,85.516052 
	C84.403656,90.561546 83.932579,95.766861 84.105164,100.874420 
	C84.373489,108.815216 85.084450,116.763054 86.051804,124.653481 
	C87.866814,139.458038 89.999390,154.223663 91.999886,169.005493 
	C90.011993,167.250656 88.024109,165.495819 86.011520,162.964905 
	C80.783714,137.748825 78.653801,113.004135 79.079918,88.057579 
	C79.217033,80.030067 81.281662,72.561043 89.222664,68.280212 
	C89.996834,67.862877 90.421211,66.796661 91.007957,66.031647 
	C96.770264,62.727398 102.532578,59.423149 108.636185,56.041473 
z"/>
<path fill="#9C9DFD" opacity="1.000000" stroke="none" 
	d="
M90.630905,66.089828 
	C90.421211,66.796661 89.996834,67.862877 89.222664,68.280212 
	C81.281662,72.561043 79.217033,80.030067 79.079918,88.057579 
	C78.653801,113.004135 80.783714,137.748825 85.993103,162.600204 
	C84.220573,161.414215 82.441757,159.816833 80.343674,158.129639 
	C80.015404,156.962997 80.006401,155.886215 79.996918,153.980362 
	C76.655212,131.848312 73.371010,110.543465 74.950386,88.850388 
	C75.199135,85.433769 74.419044,81.711922 75.533340,78.646988 
	C76.922989,74.824699 79.783684,71.537231 82.009216,68.018845 
	C84.757431,67.395233 87.505638,66.771622 90.630905,66.089828 
z"/>
<path fill="#A2A3FD" opacity="1.000000" stroke="none" 
	d="
M81.665092,68.083389 
	C79.783684,71.537231 76.922989,74.824699 75.533340,78.646988 
	C74.419044,81.711922 75.199135,85.433769 74.950386,88.850388 
	C73.371010,110.543465 76.655212,131.848312 79.997452,153.577484 
	C78.566193,151.790131 77.050919,149.624695 75.730675,147.346252 
	C74.844986,145.817734 74.235756,144.129044 73.260254,142.265747 
	C71.917534,133.292572 70.345642,124.593246 69.833626,115.831970 
	C69.155205,104.223381 68.799873,92.545059 69.289360,80.938187 
	C69.581581,74.009064 75.613205,70.846481 81.665092,68.083389 
z"/>
<path fill="#B7B8FC" opacity="1.000000" stroke="none" 
	d="
M65.340042,75.943542 
	C66.434647,74.682358 67.854500,73.357285 69.632507,72.012863 
	C68.548874,73.288902 67.107086,74.584274 65.340042,75.943542 
z"/>
<path fill="#B7B8FC" opacity="1.000000" stroke="none" 
	d="
M70.289665,71.910324 
	C70.469528,71.380547 70.944786,70.772171 71.716583,70.086105 
	C71.537094,70.616180 71.061073,71.223946 70.289665,71.910324 
z"/>
<path fill="#B7B8FC" opacity="1.000000" stroke="none" 
	d="
M73.287712,69.915085 
	C73.472656,69.386246 73.953018,68.779526 74.732819,68.101166 
	C74.549217,68.632088 74.066177,69.234650 73.287712,69.915085 
z"/>
<path fill="#9192FB" opacity="1.000000" stroke="none" 
	d="
M92.019318,169.371033 
	C89.999390,154.223663 87.866814,139.458038 86.051804,124.653481 
	C85.084450,116.763054 84.373489,108.815216 84.105164,100.874420 
	C83.932579,95.766861 84.403656,90.561546 85.265427,85.516052 
	C86.156517,80.298904 87.769661,75.371643 92.510422,71.825851 
	C98.067200,67.669739 103.117355,62.836266 108.694336,58.148968 
	C107.622292,61.520775 107.166298,65.969284 104.712631,68.407295 
	C89.945915,83.079803 90.045647,101.237488 91.757843,119.868095 
	C92.303383,125.804184 93.097183,131.732422 94.144318,137.598770 
	C94.478691,139.471970 95.995758,141.134033 97.320503,142.935455 
	C97.776665,144.696243 97.883987,146.414291 97.986977,148.972717 
	C98.035301,151.203705 98.087959,152.594299 98.088219,154.316132 
	C98.058571,155.093124 98.081337,155.538849 98.063095,156.327606 
	C98.623398,157.815659 99.224709,158.960693 99.967331,160.345947 
	C100.437538,161.032761 100.766426,161.479340 101.095322,161.925919 
	C98.355110,166.072845 101.746666,169.076767 103.233818,172.290497 
	C104.945915,175.990280 106.011993,179.362061 102.291214,182.810837 
	C100.874527,182.380737 99.752281,181.749619 98.311768,181.059326 
	C96.008583,177.245621 94.023666,173.491104 92.019318,169.371033 
z"/>
<path fill="#EBEEF3" opacity="1.000000" stroke="none" 
	d="
M98.104095,155.984589 
	C98.081337,155.538849 98.058571,155.093124 98.455933,154.313583 
	C102.347649,154.118332 103.446388,151.837830 103.976059,148.977188 
	C103.988243,145.625900 104.000427,142.274597 104.353821,138.352051 
	C105.694145,135.613220 107.108337,133.538803 107.619316,131.261688 
	C109.648438,122.219284 109.682137,122.411827 118.515945,120.776527 
	C121.215439,120.276794 123.524139,117.666046 126.011818,116.022072 
	C131.025345,116.009857 136.038879,115.997635 141.922638,115.988586 
	C146.479309,116.204903 148.940659,114.934250 149.432159,110.814575 
	C150.531372,111.004341 151.253738,111.200829 151.978455,111.784698 
	C151.619934,117.636368 149.862915,119.441132 142.924652,118.869461 
	C134.936172,118.211243 129.433228,120.985733 125.852753,128.248489 
	C125.706749,128.382721 125.382622,128.154068 125.054832,128.138092 
	C124.175896,128.428741 123.624756,128.735367 123.068077,129.063873 
	C123.062538,129.085770 123.017448,129.088318 122.831848,129.146469 
	C122.402481,129.324432 122.238441,129.513397 122.138367,129.919983 
	C122.122604,130.068481 121.824081,130.077179 121.424850,130.046524 
	C117.857605,129.770218 116.235008,130.914047 115.844406,134.389221 
	C115.607231,136.499390 114.114220,138.519196 112.991920,140.468201 
	C110.824944,144.231369 108.175072,147.756561 106.371849,151.677704 
	C104.594994,155.541504 102.577827,157.820053 98.104095,155.984589 
z"/>
<path fill="#797BD2" opacity="1.000000" stroke="none" 
	d="
M119.897751,110.411346 
	C117.703140,110.514374 115.508522,110.617386 112.756752,110.296707 
	C112.117714,106.565460 111.780807,103.240379 112.006668,99.953972 
	C112.487480,92.958107 117.369827,87.720474 124.397774,86.243675 
	C130.183334,85.027939 135.713043,87.921684 138.749512,94.173286 
	C137.454239,94.609856 136.494629,94.927422 135.522842,94.970444 
	C124.496170,95.458618 120.537895,99.353333 119.897751,110.411346 
z"/>
<path fill="#898BF4" opacity="1.000000" stroke="none" 
	d="
M120.361778,110.525604 
	C120.537895,99.353333 124.496170,95.458618 135.522842,94.970444 
	C136.494629,94.927422 137.454239,94.609856 138.952332,94.217522 
	C139.485168,94.015244 139.896774,94.075439 139.896774,94.075439 
	C140.171707,95.024910 140.508514,95.961311 140.712173,96.925827 
	C143.273056,109.054276 141.897430,110.785545 129.723145,110.751785 
	C126.757286,110.743561 123.791580,110.678688 120.361778,110.525604 
z"/>
<path fill="#E1E5ED" opacity="1.000000" stroke="none" 
	d="
M140.111023,93.822769 
	C139.896774,94.075439 139.485168,94.015244 139.282349,93.971008 
	C135.713043,87.921684 130.183334,85.027939 124.397774,86.243675 
	C117.369827,87.720474 112.487480,92.958107 112.006668,99.953972 
	C111.780807,103.240379 112.117714,106.565460 112.347015,110.297531 
	C111.023880,109.900078 108.513550,109.329529 108.244530,108.217018 
	C105.716431,97.761993 109.236465,89.742836 118.196793,84.546577 
	C125.856178,80.104759 136.789581,83.376854 140.341843,91.238380 
	C140.632553,91.881752 140.344421,92.786697 140.111023,93.822769 
z"/>
<path fill="#F1F3F7" opacity="1.000000" stroke="none" 
	d="
M125.578796,116.017502 
	C123.524139,117.666046 121.215439,120.276794 118.515945,120.776527 
	C109.682137,122.411827 109.648438,122.219284 107.619316,131.261688 
	C107.108337,133.538803 105.694145,135.613220 104.355988,137.895050 
	C104.013557,133.680542 103.940742,129.350449 104.025764,125.023430 
	C104.115654,120.448395 106.719185,117.556015 111.257637,117.091843 
	C115.875496,116.619560 120.515488,116.363609 125.578796,116.017502 
z"/>
<path fill="#F1F3F7" opacity="1.000000" stroke="none" 
	d="
M149.055313,110.821304 
	C148.940659,114.934250 146.479309,116.204903 142.388458,115.987503 
	C142.173370,115.022163 142.023514,113.684349 142.606003,113.159889 
	C147.051254,109.157417 145.900299,103.921234 146.262573,98.489616 
	C146.909775,98.035301 147.280243,98.037827 147.715271,98.483002 
	C148.205002,102.890877 148.630157,106.856087 149.055313,110.821304 
z"/>
<path fill="#F1F3F7" opacity="1.000000" stroke="none" 
	d="
M103.557083,148.982773 
	C103.446388,151.837830 102.347649,154.118332 98.508347,153.982330 
	C98.087959,152.594299 98.035301,151.203705 98.047104,149.399170 
	C99.787079,148.986267 101.462601,148.987320 103.557083,148.982773 
z"/>
<path fill="#E1E5ED" opacity="1.000000" stroke="none" 
	d="
M147.650696,98.040344 
	C147.280243,98.037827 146.909775,98.035301 146.261124,98.032791 
	C145.849701,97.166679 145.716492,96.300552 146.034286,95.225677 
	C146.837097,95.041054 147.188873,95.065170 147.540665,95.089279 
	C147.540665,95.089287 147.776276,95.060463 147.837891,95.409119 
	C147.816574,96.518631 147.733643,97.279488 147.650696,98.040344 
z"/>
<path fill="#DADEEB" opacity="1.000000" stroke="none" 
	d="
M147.569519,94.793335 
	C147.188873,95.065170 146.837097,95.041054 146.220154,95.002884 
	C146.080505,94.483215 146.206024,93.977615 146.498138,93.269730 
	C146.975952,93.544098 147.287155,94.020744 147.569519,94.793335 
z"/>
<path fill="#BFC7DA" opacity="1.000000" stroke="none" 
	d="
M101.410599,161.938873 
	C100.766426,161.479340 100.437538,161.032761 100.409630,160.308105 
	C104.839111,159.682236 108.964119,159.094070 113.096786,159.034195 
	C123.247849,158.887100 133.402802,159.034576 143.555466,158.962433 
	C149.690689,158.918839 151.911560,156.624039 151.990112,150.447372 
	C152.053589,145.454697 151.563904,140.404861 152.165375,135.483749 
	C152.727997,130.880569 154.402740,126.413345 155.680359,122.353363 
	C155.774002,132.946289 155.804230,143.072266 155.766647,153.197983 
	C155.740753,160.181091 153.973694,161.880936 146.811890,161.930176 
	C133.534286,162.021469 120.256493,162.088531 106.978775,162.165665 
	C105.912689,162.118027 104.846611,162.070374 103.379852,162.065674 
	C102.561417,162.056381 102.143654,162.004120 101.410599,161.938873 
z"/>
<path fill="#797AE3" opacity="1.000000" stroke="none" 
	d="
M112.052071,169.316833 
	C112.802719,169.211945 113.647415,169.391739 114.743088,169.780975 
	C114.044746,169.860779 113.095436,169.731155 112.052071,169.316833 
z"/>
<path fill="#6E6FC5" opacity="1.000000" stroke="none" 
	d="
M107.014038,162.530716 
	C120.256493,162.088531 133.534286,162.021469 146.811890,161.930176 
	C153.973694,161.880936 155.740753,160.181091 155.766647,153.197983 
	C155.804230,143.072266 155.774002,132.946289 155.736008,121.948059 
	C155.810272,119.712791 155.921219,118.349899 156.032166,116.987007 
	C156.468353,116.993164 156.904541,116.999313 157.667740,117.009811 
	C158.294846,117.488518 158.594910,117.962883 158.958221,118.715645 
	C159.506271,119.883446 159.991058,120.772850 160.742523,121.830750 
	C161.010147,122.442291 161.011063,122.885361 161.020355,123.660492 
	C161.017014,135.104828 161.044830,146.217316 160.979065,157.329269 
	C160.937881,164.285172 158.278610,166.956955 151.322021,166.989319 
	C139.048965,167.046432 126.775261,167.036530 114.502197,166.978027 
	C111.356949,166.963028 107.974579,167.094315 107.014038,162.530716 
z"/>
<path fill="#E0E3F0" opacity="1.000000" stroke="none" 
	d="
M155.948318,116.654839 
	C155.921219,118.349899 155.810272,119.712791 155.643677,121.480988 
	C154.402740,126.413345 152.727997,130.880569 152.165375,135.483749 
	C151.563904,140.404861 152.053589,145.454697 151.990112,150.447372 
	C151.911560,156.624039 149.690689,158.918839 143.555466,158.962433 
	C133.402802,159.034576 123.247849,158.887100 113.096786,159.034195 
	C108.964119,159.094070 104.839111,159.682236 100.268311,160.067886 
	C99.224709,158.960693 98.623398,157.815659 98.063095,156.327606 
	C102.577827,157.820053 104.594994,155.541504 106.371849,151.677704 
	C108.175072,147.756561 110.824944,144.231369 112.991920,140.468201 
	C114.114220,138.519196 115.607231,136.499390 115.844406,134.389221 
	C116.235008,130.914047 117.857605,129.770218 121.349701,130.391434 
	C121.196381,132.936966 120.157211,135.164764 120.373184,137.263367 
	C120.697372,140.413513 121.605606,143.599731 122.854301,146.518738 
	C123.496643,148.020309 125.401932,149.896957 126.756218,149.912720 
	C128.026428,149.927521 129.820190,147.931686 130.481064,146.424805 
	C131.302689,144.551422 130.751419,142.076477 131.571320,140.201675 
	C134.797546,132.824646 133.619751,130.041534 125.998756,128.114258 
	C129.433228,120.985733 134.936172,118.211243 142.924652,118.869461 
	C149.862915,119.441132 151.619934,117.636368 152.235718,111.819374 
	C152.971817,111.662079 153.452972,111.857491 153.934143,112.052902 
	C154.577576,113.476158 155.221024,114.899414 155.948318,116.654839 
z"/>
<path fill="#7373CE" opacity="1.000000" stroke="none" 
	d="
M154.166412,111.742798 
	C153.452972,111.857491 152.971817,111.662079 152.233368,111.431992 
	C151.253738,111.200829 150.531372,111.004341 149.432159,110.814575 
	C148.630157,106.856087 148.205002,102.890877 147.715271,98.483002 
	C147.733643,97.279488 147.816574,96.518631 147.952332,95.377724 
	C152.768372,97.351379 155.607666,104.650032 154.166412,111.742798 
z"/>
<path fill="#140F71" opacity="1.000000" stroke="none" 
	d="
M125.852753,128.248489 
	C133.619751,130.041534 134.797546,132.824646 131.571320,140.201675 
	C130.751419,142.076477 131.302689,144.551422 130.481064,146.424805 
	C129.820190,147.931686 128.026428,149.927521 126.756218,149.912720 
	C125.401932,149.896957 123.496643,148.020309 122.854301,146.518738 
	C121.605606,143.599731 120.697372,140.413513 120.373184,137.263367 
	C120.157211,135.164764 121.196381,132.936966 121.748932,130.422089 
	C121.824081,130.077179 122.122604,130.068481 122.362671,129.936615 
	C122.967636,129.697754 123.105873,129.458939 123.017448,129.088318 
	C123.017448,129.088318 123.062538,129.085770 123.393082,129.102936 
	C124.276627,128.798080 124.829620,128.476074 125.382622,128.154068 
	C125.382622,128.154068 125.706749,128.382721 125.852753,128.248489 
z"/>
<path fill="#E0E3F0" opacity="1.000000" stroke="none" 
	d="
M125.054832,128.138092 
	C124.829620,128.476074 124.276627,128.798080 123.398621,129.081055 
	C123.624756,128.735367 124.175896,128.428741 125.054832,128.138092 
z"/>
<path fill="#E0E3F0" opacity="1.000000" stroke="none" 
	d="
M122.831848,129.146469 
	C123.105873,129.458939 122.967636,129.697754 122.378433,129.788116 
	C122.238441,129.513397 122.402481,129.324432 122.831848,129.146469 
z"/>
</svg>