<svg width="124" height="125" viewBox="0 0 124 125" fill="none" xmlns="http://www.w3.org/2000/svg">
<path d="M30 35.2896C31.9285 35.2005 33.8206 35.1648 35.6763 35.0222C44.9913 34.3267 53.7787 31.9195 61.7474 27.0158C62.2932 26.677 62.6389 26.7126 63.1665 27.0336C70.0072 31.2062 77.4846 33.6135 85.4351 34.612C88.2551 34.9687 91.1296 35.04 93.986 35.2362C94.1679 35.254 94.3498 35.254 94.6591 35.2718C94.7501 36.8232 94.8956 38.3567 94.9502 39.8902C95.114 45.5963 94.8956 51.2846 93.9678 56.9194C92.7852 64.0699 90.8021 70.9529 87.2908 77.3723C83.0882 85.0578 77.1571 91.067 69.2612 95.097C67.2054 96.1491 64.9858 96.8802 62.839 97.7182C62.6207 97.8074 62.3296 97.7896 62.1112 97.7004C51.3226 93.4565 42.6808 86.7875 37.3319 76.4808C35.0396 72.112 33.5841 67.4223 32.5471 62.6256C31.3827 57.1691 30.7823 51.6591 30.4548 46.0956C30.2547 42.7076 30.1455 39.3196 30 35.9138C30 35.6998 30 35.4858 30 35.2896Z" stroke="#8F5BFF"/>
<path fill-rule="evenodd" clip-rule="evenodd" d="M75.5 68.5C75.5 65.0845 74.1302 61.989 71.91 59.7329V52.1774C71.91 46.8318 67.6777 42.5 62.455 42.5C57.2322 42.5 53 46.8318 53 52.1774C53 52.4539 53.1801 52.6382 53.4502 52.6382C53.7204 52.6382 53.9005 52.4539 53.9005 52.1774C53.9005 47.3848 57.7725 43.4217 62.545 43.4217C67.2275 43.4217 71.0995 47.2926 71.0995 52.1774V58.9788C68.9179 57.1211 66.0899 56 63 56C56.0964 56 50.5 61.5964 50.5 68.5C50.5 75.4036 56.0964 81 63 81C69.9036 81 75.5 75.4036 75.5 68.5ZM63 57C56.6487 57 51.5 62.1487 51.5 68.5C51.5 74.8513 56.6487 80 63 80C69.3513 80 74.5 74.8513 74.5 68.5C74.5 62.1487 69.3513 57 63 57ZM55.5 68.5C55.5 64.3579 58.8579 61 63 61C67.1421 61 70.5 64.3579 70.5 68.5C70.5 72.6421 67.1421 76 63 76C58.8579 76 55.5 72.6421 55.5 68.5ZM63 60C58.3056 60 54.5 63.8056 54.5 68.5C54.5 73.1944 58.3056 77 63 77C67.6944 77 71.5 73.1944 71.5 68.5C71.5 63.8056 67.6944 60 63 60Z" fill="white"/>
</svg>
