<svg width="55" height="54" viewBox="0 0 55 54" fill="none" xmlns="http://www.w3.org/2000/svg">
<path d="M44.122 27V47H11.3415V27" stroke="white" stroke-linecap="round" stroke-linejoin="round"/>
<path d="M27.7317 46.3175L27.7317 26.415" stroke="white" stroke-linecap="round" stroke-linejoin="round"/>
<path d="M27.6829 17H18.6829C17.3568 17 16.085 16.4732 15.1473 15.5355C14.2096 14.5978 13.6829 13.3261 13.6829 12C13.6829 10.6739 14.2096 9.40215 15.1473 8.46447C16.085 7.52678 17.3568 7 18.6829 7C25.6829 7 27.6829 17 27.6829 17Z" stroke="#8D64FF" stroke-linecap="round" stroke-linejoin="round"/>
<path d="M27.6829 17H36.6829C38.0089 17 39.2807 16.4732 40.2184 15.5355C41.1561 14.5978 41.6829 13.3261 41.6829 12C41.6829 10.6739 41.1561 9.40215 40.2184 8.46447C39.2807 7.52678 38.0089 7 36.6829 7C29.6829 7 27.6829 17 27.6829 17Z" stroke="#8D64FF" stroke-linecap="round" stroke-linejoin="round"/>
<path d="M46.4634 17.0488H9V26.4147H46.4634V17.0488Z" stroke="#8D64FF" stroke-linecap="round" stroke-linejoin="round"/>
</svg>
