<svg width="64" height="34" viewBox="0 0 64 34" fill="none" xmlns="http://www.w3.org/2000/svg">
<path fill-rule="evenodd" clip-rule="evenodd" d="M23.9766 27.6711H27.8386H27.857V6H24.4547V19.9536C24.4547 21.3252 24.5099 22.3127 24.6019 22.8796H24.5467C24.418 22.6419 24.1605 22.1847 23.7376 21.5446L13.9171 6H9.81609V27.6711H13.1999V13.4614C13.1999 11.9435 13.1631 10.9377 13.0896 10.4805H13.1815C13.347 10.9194 13.5677 11.34 13.8252 11.7424L23.9766 27.6711ZM2.62527 27.4148C3.02985 27.7988 3.54479 28 4.13327 28C4.74015 28 5.25508 27.8172 5.65967 27.4148C6.08264 26.9942 6.30333 26.5187 6.30333 25.9701C6.30333 25.4032 6.08264 24.9277 5.65967 24.5253C5.23668 24.1229 4.74015 23.9219 4.13327 23.9219C3.54479 23.9219 3.04825 24.1229 2.62527 24.5253C2.20229 24.9277 2 25.4032 2 25.9701C2 26.537 2.20229 27.0125 2.62527 27.4148ZM44.4445 27.6711H32.5093V6H43.9663V9.05407H36.0401V15.1988H43.3411V18.2345H36.0401V24.6352H44.4445V27.6711ZM55.2951 9.05407H61.4008V6H45.6771V9.05407H51.7643V27.6711H55.2951V9.05407Z" fill="white"/>
</svg>
