<svg width="111" height="34" viewBox="0 0 111 34" fill="none" xmlns="http://www.w3.org/2000/svg">
<path fill-rule="evenodd" clip-rule="evenodd" d="M58.3188 2.0001C58.2401 2.00015 58.1627 2.02071 58.0944 2.05975C58.0265 2.0995 57.97 2.15627 57.9307 2.22446C57.8913 2.29265 57.8704 2.36991 57.8701 2.44863V13.8888C57.8701 14.0012 57.8178 14.1018 57.7206 14.1581C57.673 14.1858 57.6188 14.2005 57.5636 14.2005C57.5084 14.2005 57.4542 14.1858 57.4066 14.1581L55.5372 13.0814C55.4008 13.0025 55.2461 12.961 55.0885 12.961C54.931 12.961 54.7764 13.0025 54.64 13.0814L47.1777 17.3881C46.8987 17.5492 46.7292 17.8588 46.7292 18.1809V26.7947C46.7292 27.1164 46.8989 27.4112 47.1777 27.5722L54.64 31.8792C54.7762 31.9583 54.931 32 55.0885 32C55.2461 32 55.4009 31.9583 55.5372 31.8792L62.9995 27.5722C63.1361 27.4936 63.2495 27.3803 63.3284 27.2437C63.4072 27.1073 63.4485 26.9524 63.4482 26.7947V5.32002C63.448 5.15869 63.4051 5.00031 63.3237 4.86104C63.2421 4.72177 63.1252 4.6066 62.9848 4.52729L58.543 2.04478C58.4735 2.00592 58.3962 1.99906 58.3188 2.0001ZM10.3147 12.7524C10.1725 12.758 10.0387 12.7829 9.91104 12.8569L2.44854 17.1639C2.31184 17.2425 2.19834 17.3557 2.11957 17.4923C2.0408 17.6289 1.99955 17.7838 2 17.9415L2.01497 29.5017C2.01497 29.6623 2.0979 29.8117 2.23923 29.8903C2.30699 29.931 2.38455 29.9525 2.4636 29.9525C2.54265 29.9525 2.62021 29.931 2.68797 29.8903L7.11447 27.3482C7.39486 27.1815 7.57797 26.8917 7.57797 26.5704V21.1718C7.57797 20.8497 7.74736 20.5541 8.02671 20.394L9.91083 19.3025C10.0471 19.2233 10.202 19.182 10.3596 19.1827C10.5134 19.1827 10.6713 19.2212 10.8081 19.3025L12.6924 20.394C12.8293 20.4726 12.9429 20.5858 13.0217 20.7224C13.1005 20.8591 13.1417 21.0141 13.1412 21.1718V26.5702C13.1412 26.8915 13.3262 27.1834 13.6047 27.3479L18.0312 29.8903C18.099 29.931 18.1765 29.9525 18.2556 29.9525C18.3345 29.9525 18.4121 29.931 18.4799 29.8903C18.5481 29.8508 18.6048 29.7942 18.6441 29.7259C18.6836 29.6577 18.7044 29.5802 18.7044 29.5014L18.719 17.9415C18.7198 17.7837 18.6788 17.6287 18.5999 17.4919C18.5211 17.3553 18.4074 17.2421 18.2704 17.1639L10.8081 12.8569C10.6819 12.7829 10.5477 12.7582 10.4045 12.7524H10.3147ZM77.3708 12.8569C77.2149 12.8569 77.0621 12.8964 76.9223 12.9767L69.46 17.2836C69.3234 17.3623 69.2099 17.4755 69.1311 17.6121C69.0523 17.7486 69.011 17.9036 69.0112 18.0612V26.675C69.0112 26.999 69.1937 27.2925 69.4747 27.4527L76.8774 31.6699C77.1507 31.8258 77.4845 31.8377 77.7597 31.6845L82.2461 29.1872C82.3884 29.1082 82.4846 28.9606 82.4853 28.7985C82.486 28.7196 82.4657 28.6419 82.4262 28.5735C82.3868 28.505 82.3297 28.4485 82.2611 28.4096L74.7538 24.1026C74.6133 24.0225 74.5145 23.8601 74.5145 23.6988V21.0072C74.5145 20.8461 74.6144 20.6985 74.7538 20.6183L77.0867 19.2723C77.1549 19.2328 77.2322 19.212 77.3111 19.212C77.3899 19.212 77.4672 19.2328 77.5354 19.2723L79.868 20.6183C79.9365 20.6575 79.9931 20.7142 80.0326 20.7825C80.0721 20.8507 80.0927 20.9281 80.0926 21.007V23.1305C80.0924 23.2093 80.113 23.2868 80.1524 23.3551C80.1917 23.4234 80.2485 23.4799 80.3168 23.5193C80.4567 23.6001 80.6259 23.6003 80.7653 23.5193L85.237 20.9176C85.3733 20.8387 85.4867 20.7253 85.5654 20.5888C85.6442 20.4523 85.6856 20.2975 85.6858 20.1399V18.0613C85.6858 17.7403 85.5153 17.4449 85.237 17.2836L77.8196 12.9767C77.6832 12.8978 77.5283 12.8563 77.3708 12.8569ZM55.0586 19.2875C55.0977 19.2875 55.1433 19.297 55.1782 19.3172L57.7356 20.7977C57.805 20.8378 57.8553 20.9121 57.8553 20.992V23.9531C57.8553 24.0335 57.8055 24.1075 57.7356 24.1476L55.1782 25.6281C55.1441 25.6475 55.1055 25.6578 55.0661 25.6578C55.0268 25.6578 54.9882 25.6475 54.954 25.6281L52.3969 24.1476C52.3273 24.1072 52.2772 24.0335 52.2772 23.9531V20.992C52.2772 20.9118 52.3274 20.8382 52.3969 20.7977L54.954 19.3174C54.9855 19.2979 55.0216 19.2874 55.0586 19.2875ZM98.9955 12.8271C99.2181 12.7012 99.4696 12.6477 99.7281 12.6477C99.9869 12.6477 100.24 12.7014 100.461 12.8275L107.505 16.8951C107.961 17.1584 108.237 17.6535 108.237 18.181V26.3016C108.237 26.8289 107.961 27.3226 107.505 27.5875L100.461 31.6403C100.238 31.7691 99.9856 31.8362 99.7283 31.8346C99.4711 31.8357 99.2182 31.7686 98.9955 31.6401L96.6327 30.2496C96.2823 30.0531 96.4575 29.9906 96.5729 29.9503C97.0413 29.7877 97.1352 29.7549 97.6347 29.4719C97.6622 29.4569 97.6931 29.4491 97.7244 29.4491C97.7557 29.4491 97.7866 29.4569 97.8141 29.4719L99.6235 30.5485C99.6895 30.5844 99.7726 30.5844 99.8329 30.5485L106.877 26.4959C106.942 26.4584 106.981 26.3791 106.981 26.3016V18.1812C106.981 18.1017 106.929 18.0269 106.862 17.9867L99.8329 13.9341C99.8011 13.9156 99.7651 13.9058 99.7282 13.9058C99.6915 13.9058 99.6553 13.9156 99.6235 13.9341L92.595 17.9865C92.5267 18.0256 92.4754 18.1039 92.4754 18.1809V26.3013C92.4754 26.3789 92.5273 26.444 92.595 26.4807L94.5093 27.6023C95.5549 28.1249 96.1991 27.503 96.1991 26.8846V18.8688C96.1991 18.7555 96.2954 18.6744 96.4085 18.6744H97.2908C97.402 18.6744 97.5 18.7555 97.5 18.8688V26.8846C97.5 28.2799 96.7445 29.0827 95.4213 29.0827H95.4029C95.0045 29.0828 94.6717 29.083 93.7915 28.6492L91.952 27.5873C91.4962 27.3239 91.2192 26.8286 91.2192 26.3013V18.181C91.2192 17.6533 91.4962 17.1574 91.952 16.8947L98.9955 12.8271ZM98.4125 20.7235C98.4125 19.3038 99.607 18.4502 101.613 18.4502C103.867 18.4502 104.986 19.2396 105.127 20.9177C105.133 20.9758 105.105 21.0242 105.067 21.0672C105.028 21.1075 104.974 21.1421 104.918 21.1421H104.005C103.911 21.1421 103.83 21.0691 103.811 20.9776C103.592 20.003 103.058 19.6912 101.613 19.6912C99.9949 19.6912 99.8182 20.2562 99.8182 20.6786C99.8182 21.1901 100.026 21.3316 102.211 21.6208C104.373 21.9065 105.411 22.3145 105.411 23.8339C105.411 25.3668 104.126 26.2415 101.897 26.2415C98.8179 26.2415 98.1732 24.8398 98.1732 23.6545C98.1732 23.5418 98.2703 23.445 98.3825 23.445H99.2948C99.3964 23.445 99.4731 23.5252 99.4893 23.6246C99.6263 24.5505 100.035 25.0153 101.897 25.0153C103.379 25.0153 104.005 24.68 104.005 23.8937C104.005 23.4405 103.826 23.1023 101.523 22.8767C99.5981 22.6863 98.4125 22.2632 98.4125 20.7235ZM32.2845 12.9319C32.4236 12.8516 32.5776 12.8121 32.733 12.8121C32.8905 12.8118 33.0453 12.8531 33.1817 12.9319L40.6441 17.2238C40.9229 17.3845 41.0926 17.6942 41.0926 18.0164V26.6302C41.0928 26.7878 41.0516 26.9427 40.9728 27.0793C40.894 27.2159 40.7807 27.3292 40.6441 27.4079L33.1817 31.7147C33.0455 31.7939 32.8907 31.8356 32.7331 31.8356C32.5755 31.8356 32.4207 31.7939 32.2845 31.7147L24.8221 27.4079C24.5432 27.2466 24.3734 26.9524 24.3734 26.6302V18.0164C24.3734 17.6946 24.543 17.3845 24.8221 17.2238L32.2845 12.9319ZM77.2678 20.5139C77.2946 20.4989 77.3276 20.4989 77.3573 20.4989H77.3617C77.389 20.4989 77.4068 20.4988 77.4322 20.5136L78.8677 21.3513C78.8944 21.3663 78.9167 21.3879 78.9324 21.4141C78.9482 21.4403 78.9569 21.4702 78.9575 21.5008V23.1459C78.9569 23.1764 78.9482 23.2062 78.9324 23.2325C78.9167 23.2587 78.8944 23.2803 78.8677 23.2953L77.4322 24.118C77.379 24.1492 77.3216 24.1492 77.2678 24.118L75.8321 23.2954C75.7781 23.2645 75.7423 23.2077 75.7423 23.1459V21.501C75.7429 21.4703 75.7515 21.4404 75.7672 21.4141C75.783 21.3878 75.8054 21.3661 75.8321 21.3513L77.2678 20.5139Z" fill="white"/>
</svg>
