<svg width="354" height="354" viewBox="0 0 354 354" fill="none" xmlns="http://www.w3.org/2000/svg">
<path opacity="0.4545" d="M177.004 290.876C239.894 290.876 290.877 239.894 290.877 177.003C290.877 114.113 239.894 63.1298 177.004 63.1298C114.113 63.1298 63.1304 114.113 63.1304 177.003C63.1304 239.894 114.113 290.876 177.004 290.876Z" stroke="white" stroke-opacity="0.1" stroke-miterlimit="10"/>
<path opacity="0.3636" d="M176.996 306.407C248.464 306.407 306.401 248.47 306.401 177.002C306.401 105.533 248.464 47.5968 176.996 47.5968C105.527 47.5968 47.5907 105.533 47.5907 177.002C47.5907 248.47 105.527 306.407 176.996 306.407Z" stroke="white" stroke-opacity="0.1" stroke-miterlimit="10"/>
<path opacity="0.2727" d="M177.017 321.938C257.063 321.938 321.953 257.048 321.953 177.001C321.953 96.955 257.063 32.0647 177.017 32.0647C96.9705 32.0647 32.0801 96.955 32.0801 177.001C32.0801 257.048 96.9705 321.938 177.017 321.938Z" stroke="white" stroke-opacity="0.1" stroke-miterlimit="10"/>
<path opacity="0.1818" d="M177.008 335.936C265.632 335.936 337.476 264.092 337.476 175.468C337.476 86.8437 265.632 14.9996 177.008 14.9996C88.3838 14.9996 16.5397 86.8437 16.5397 175.468C16.5397 264.092 88.3838 335.936 177.008 335.936Z" stroke="white" stroke-opacity="0.1" stroke-miterlimit="10"/>
<path opacity="0.0909091" d="M177 353C274.202 353 353 274.202 353 177C353 79.7979 274.202 1 177 1C79.7979 1 1 79.7979 1 177C1 274.202 79.7979 353 177 353Z" stroke="white" stroke-opacity="0.1" stroke-miterlimit="10"/>
<path d="M287.349 130.808C290.872 130.598 293.556 127.572 293.344 124.05C293.132 120.528 290.104 117.844 286.581 118.055C283.058 118.266 280.373 121.292 280.586 124.814C280.798 128.335 283.826 131.019 287.349 130.808Z" fill="#F85B6E"/>
<path d="M236.2 48.8386C235.649 50.4231 233.939 51.2494 232.354 50.6976C230.768 50.1458 229.941 48.4368 230.493 46.8522C231.044 45.2676 232.754 44.4414 234.339 44.9932C235.872 45.5266 236.752 47.254 236.2 48.8386Z" fill="#20A4F3"/>
<path d="M48.7485 256.655C48.4428 257.795 47.2851 258.463 46.1437 258.157C45.0023 257.852 44.3337 256.694 44.6394 255.554C44.945 254.413 46.1027 253.745 47.2441 254.051C48.3475 254.346 49.0541 255.514 48.7485 256.655Z" fill="#53DBEE"/>
<circle cx="176.835" cy="177.165" r="99.8353" fill="#15192C"/>
<mask id="mask0_1_3171" style="mask-type:alpha" maskUnits="userSpaceOnUse" x="77" y="77" width="200" height="200">
<circle cx="176.835" cy="176.835" r="99.8353" fill="#22273C"/>
</mask>
<g mask="url(#mask0_1_3171)">
<path d="M109.511 297.533L107.8 191.322L169.472 176.836L241.905 186.77L243.14 297.533L177.762 318.367L109.511 297.533Z" stroke="#515873"/>
<path d="M107.354 191.204L92.2672 214.194L163.392 238.621L179.916 203.417M107.354 191.204L169.858 176.835L242.42 186.894M107.354 191.204L179.916 203.417M179.916 203.417L196.44 238.621L258.944 209.883L242.42 186.894M179.916 203.417L242.42 186.894" stroke="#515873"/>
<path d="M180.636 203.418L109.511 191.205L170.578 176.836L241.703 186.894L180.636 203.418Z" stroke="#515873"/>
<path d="M92.2672 214.194L107.354 191.204L169.858 176.835L242.42 186.894L258.944 209.883L196.44 238.621L179.916 203.417L163.392 238.621L92.2672 214.194Z" fill="#15192C"/>
<path d="M107.354 191.204L92.2672 214.194L163.392 238.621L179.916 203.417M107.354 191.204L169.858 176.835L242.42 186.894M107.354 191.204L179.916 203.417M179.916 203.417L196.44 238.621L258.944 209.883L242.42 186.894M179.916 203.417L242.42 186.894" stroke="#515873"/>
<path d="M107.354 191.204L92.2672 214.194L163.392 238.621L179.916 203.417M107.354 191.204L169.858 176.835L242.42 186.894M107.354 191.204L179.916 203.417M179.916 203.417L196.44 238.621L258.944 209.883L242.42 186.894M179.916 203.417L242.42 186.894" stroke="#515873"/>
<path d="M179.918 204.136L178.481 318.366" stroke="#515873"/>
<circle cx="154.817" cy="155.07" r="2.06952" fill="#2C3249"/>
<path d="M152.66 198.347C152.708 198.066 152.811 197.797 152.963 197.555C153.115 197.313 153.313 197.104 153.546 196.939C153.779 196.774 154.042 196.656 154.321 196.593C154.599 196.53 154.887 196.522 155.169 196.57C155.45 196.618 155.72 196.721 155.961 196.873C156.203 197.025 156.412 197.223 156.577 197.456C156.742 197.689 156.86 197.952 156.923 198.231C156.987 198.509 156.994 198.797 156.946 199.079L154.803 198.713L152.66 198.347Z" fill="#AA8BFF"/>
<circle cx="161.575" cy="171.828" r="0.827808" fill="#AA8BFF"/>
<circle cx="178.783" cy="159.781" r="0.827808" fill="#AA8BFF"/>
<circle cx="204.789" cy="126.185" r="2" fill="#AA8BFF"/>
<circle cx="135.565" cy="129.88" r="0.827808" fill="#AA8BFF"/>
<circle cx="192.856" cy="150.675" r="1.65562" fill="#2C3249"/>
</g>
<path d="M168.719 111.773C168.479 112.541 169.059 113.278 169.857 113.384C170.659 113.49 171.367 112.908 171.686 112.164C172.442 110.405 174.129 109.551 176.356 109.846C179.082 110.206 180.603 112.167 180.237 114.933C179.683 119.117 176.319 119.446 172.483 118.938C171.948 118.868 171.46 119.251 171.402 119.788L171.062 122.953C170.983 123.697 171.511 124.369 172.252 124.467C172.99 124.565 173.673 124.058 173.793 123.323L174.113 121.371C178.823 121.994 182.496 120.369 183.164 115.32C183.745 110.929 181.078 107.797 176.67 107.213C172.789 106.7 169.745 108.48 168.719 111.773ZM173.596 129.676C173.756 128.466 172.971 127.412 171.861 127.265C170.683 127.109 169.651 127.923 169.491 129.133C169.331 130.343 170.116 131.397 171.293 131.553C172.404 131.7 173.436 130.886 173.596 129.676Z" fill="#80869D"/>
<path d="M132.082 157.334C132.255 157.619 132.644 157.637 132.893 157.416C133.145 157.193 133.153 156.813 133.011 156.509C132.688 155.814 132.888 155.067 133.58 154.453C134.433 153.696 135.448 153.736 136.195 154.579C137.326 155.853 136.511 156.991 135.31 158.056C135.143 158.205 135.131 158.462 135.284 158.626L136.143 159.546C136.355 159.773 136.709 159.789 136.941 159.583C137.172 159.378 137.199 159.027 137.001 158.789L136.499 158.187C137.973 156.878 138.476 155.303 137.111 153.766C135.924 152.428 134.238 152.438 132.859 153.662C131.649 154.736 131.363 156.15 132.082 157.334ZM138.903 160.534C138.576 160.165 138.039 160.134 137.692 160.442C137.323 160.769 137.291 161.306 137.618 161.674C137.946 162.043 138.482 162.075 138.851 161.748C139.198 161.439 139.23 160.902 138.903 160.534Z" fill="#80869D"/>
<path d="M207.386 162.57C207.137 162.886 207.28 163.333 207.636 163.521C207.994 163.71 208.426 163.559 208.71 163.271C209.358 162.612 210.285 162.523 211.271 163.045C212.486 163.688 212.869 164.851 212.233 166.051C211.273 167.865 209.643 167.425 207.933 166.52C207.695 166.394 207.399 166.489 207.279 166.73L206.603 168.089C206.437 168.424 206.568 168.831 206.898 169.006C207.227 169.18 207.635 169.062 207.82 168.738L208.288 167.918C210.388 169.029 212.379 168.931 213.538 166.741C214.547 164.837 213.824 162.937 211.859 161.897C210.136 160.985 208.419 161.258 207.386 162.57ZM206.653 171.622C206.931 171.097 206.741 170.478 206.246 170.216C205.721 169.938 205.101 170.128 204.824 170.653C204.546 171.178 204.736 171.798 205.261 172.076C205.756 172.338 206.375 172.147 206.653 171.622Z" fill="#80869D"/>
<path d="M176.521 202.422C176.774 200.963 176.437 199.463 175.585 198.252C174.732 197.041 173.433 196.218 171.974 195.965C170.515 195.712 169.015 196.048 167.804 196.901C166.593 197.754 165.771 199.053 165.517 200.512L171.019 201.467L176.521 202.422Z" fill="#2C3249"/>
<circle cx="193.684" cy="191.238" r="1.65562" fill="#80869D"/>
</svg>

