<svg width="222" height="222" viewBox="0 0 222 222" fill="none" xmlns="http://www.w3.org/2000/svg">
<path opacity="0.4545" d="M111.002 182.173C150.309 182.173 182.173 150.308 182.173 111.002C182.173 71.6953 150.309 39.8311 111.002 39.8311C71.6958 39.8311 39.8315 71.6953 39.8315 111.002C39.8315 150.308 71.6958 182.173 111.002 182.173Z" stroke="white" stroke-opacity="0.1" stroke-miterlimit="10"/>
<path opacity="0.3636" d="M110.997 191.879C155.665 191.879 191.875 155.669 191.875 111.001C191.875 66.3334 155.665 30.123 110.997 30.123C66.3295 30.123 30.1191 66.3334 30.1191 111.001C30.1191 155.669 66.3295 191.879 110.997 191.879Z" stroke="white" stroke-opacity="0.1" stroke-miterlimit="10"/>
<path opacity="0.2727" d="M111.01 201.586C161.039 201.586 201.596 161.029 201.596 111C201.596 60.9715 161.039 20.415 111.01 20.415C60.9815 20.415 20.425 60.9715 20.425 111C20.425 161.029 60.9815 201.586 111.01 201.586Z" stroke="white" stroke-opacity="0.1" stroke-miterlimit="10"/>
<path opacity="0.1818" d="M111.005 210.335C166.395 210.335 211.298 165.432 211.298 110.042C211.298 54.6521 166.395 9.74951 111.005 9.74951C55.615 9.74951 10.7124 54.6521 10.7124 110.042C10.7124 165.432 55.615 210.335 111.005 210.335Z" stroke="white" stroke-opacity="0.1" stroke-miterlimit="10"/>
<path opacity="0.0909091" d="M111 221C171.751 221 221 171.751 221 111C221 50.2487 171.751 1 111 1C50.2487 1 1 50.2487 1 111C1 171.751 50.2487 221 111 221Z" stroke="white" stroke-opacity="0.1" stroke-miterlimit="10"/>
<path d="M186.476 84.224C188.682 84.0919 190.362 82.1972 190.229 79.9921C190.096 77.7869 188.2 76.1064 185.994 76.2384C183.788 76.3705 182.108 78.2652 182.241 80.4703C182.373 82.6754 184.269 84.356 186.476 84.224Z" fill="#F85B6E"/>
<path d="M147.488 28.0176C147.031 29.3294 145.616 30.0133 144.304 29.5566C142.991 29.0998 142.306 27.685 142.763 26.3733C143.219 25.0616 144.635 24.3776 145.947 24.8344C147.216 25.2759 147.944 26.7059 147.488 28.0176Z" fill="#20A4F3"/>
<path d="M30.3834 167.968C30.0959 169.041 29.0067 169.669 27.9329 169.382C26.8591 169.094 26.2301 168.005 26.5176 166.932C26.8052 165.859 27.8943 165.23 28.9682 165.518C30.0062 165.796 30.671 166.894 30.3834 167.968Z" fill="#53DBEE"/>
<circle cx="110.897" cy="111.103" r="62.3971" fill="#15192C"/>
<rect x="76" y="81" width="70" height="4.41176" rx="2.20588" fill="#22273C"/>
<rect x="76" y="101.294" width="8.75" height="4.41176" rx="2.20588" fill="#22273C"/>
<rect x="86.5" y="101.294" width="18.375" height="4.41176" rx="2.20588" fill="#22273C"/>
<rect x="76" y="92.4707" width="8.75" height="4.41176" rx="2.20588" fill="#22273C"/>
<rect x="86.5" y="92.4707" width="34.125" height="4.41176" rx="2.20588" fill="#22273C"/>
<rect x="76" y="110.118" width="8.75" height="4.41176" rx="2.20588" fill="#22273C"/>
<rect x="86.5" y="110.118" width="59.5" height="4.41176" rx="2.20588" fill="#22273C"/>
<rect x="76" y="118.941" width="8.75" height="4.41176" rx="2.20588" fill="#22273C"/>
<rect x="86.5" y="118.941" width="46.375" height="4.41176" rx="2.20588" fill="#22273C"/>
<rect x="76" y="127.765" width="8.75" height="4.41176" rx="2.20588" fill="#22273C"/>
<rect x="86.5" y="127.765" width="52.5" height="4.41176" rx="2.20588" fill="#22273C"/>
<rect x="76" y="136.588" width="8.75" height="4.41176" rx="2.20588" fill="#22273C"/>
<rect x="86.5" y="136.588" width="35.875" height="4.41176" rx="2.20588" fill="#22273C"/>
</svg>
