<svg width="222" height="222" viewBox="0 0 222 222" fill="none" xmlns="http://www.w3.org/2000/svg">
<path opacity="0.4545" d="M111.002 182.173C150.309 182.173 182.173 150.308 182.173 111.002C182.173 71.6953 150.309 39.8311 111.002 39.8311C71.6957 39.8311 39.8315 71.6953 39.8315 111.002C39.8315 150.308 71.6957 182.173 111.002 182.173Z" stroke="white" stroke-opacity="0.1" stroke-miterlimit="10"/>
<path opacity="0.3636" d="M110.997 191.879C155.665 191.879 191.875 155.669 191.875 111.001C191.875 66.3334 155.665 30.123 110.997 30.123C66.3296 30.123 30.1192 66.3334 30.1192 111.001C30.1192 155.669 66.3296 191.879 110.997 191.879Z" stroke="white" stroke-opacity="0.1" stroke-miterlimit="10"/>
<path opacity="0.2727" d="M111.01 201.586C161.039 201.586 201.596 161.029 201.596 111C201.596 60.9715 161.039 20.415 111.01 20.415C60.9815 20.415 20.425 60.9715 20.425 111C20.425 161.029 60.9815 201.586 111.01 201.586Z" stroke="white" stroke-opacity="0.1" stroke-miterlimit="10"/>
<path opacity="0.1818" d="M111.005 210.335C166.395 210.335 211.298 165.432 211.298 110.042C211.298 54.6521 166.395 9.74951 111.005 9.74951C55.615 9.74951 10.7124 54.6521 10.7124 110.042C10.7124 165.432 55.615 210.335 111.005 210.335Z" stroke="white" stroke-opacity="0.1" stroke-miterlimit="10"/>
<path opacity="0.0909091" d="M111 221C171.751 221 221 171.751 221 111C221 50.2487 171.751 1 111 1C50.2487 1 1 50.2487 1 111C1 171.751 50.2487 221 111 221Z" stroke="white" stroke-opacity="0.1" stroke-miterlimit="10"/>
<path d="M186.476 84.224C188.682 84.0919 190.362 82.1972 190.229 79.9921C190.096 77.7869 188.2 76.1064 185.994 76.2384C183.788 76.3705 182.108 78.2652 182.241 80.4703C182.373 82.6754 184.269 84.356 186.476 84.224Z" fill="#F85B6E"/>
<path d="M147.488 28.0176C147.031 29.3294 145.616 30.0133 144.304 29.5566C142.991 29.0998 142.306 27.685 142.763 26.3733C143.219 25.0616 144.635 24.3776 145.947 24.8344C147.216 25.2759 147.944 26.7059 147.488 28.0176Z" fill="#20A4F3"/>
<path d="M30.3834 167.968C30.0959 169.041 29.0067 169.669 27.9329 169.382C26.8591 169.094 26.2301 168.005 26.5176 166.932C26.8052 165.859 27.8943 165.23 28.9682 165.518C30.0062 165.796 30.671 166.894 30.3834 167.968Z" fill="#53DBEE"/>
<circle cx="110.897" cy="111.103" r="62.3971" fill="#15192C"/>
<path d="M111 81C107.691 81 105 83.6906 105 87C105 90.3094 107.691 93 111 93C114.309 93 117 90.3094 117 87C117 83.6906 114.309 81 111 81ZM105.488 93.3L97.575 105.45C96.8953 105.183 96.1734 105 95.4 105C92.0906 105 89.4 107.691 89.4 111C89.4 114.309 92.0906 117 95.4 117C98.7094 117 101.4 114.309 101.4 111C101.4 109.327 100.706 107.813 99.6 106.725L107.475 94.6125C106.739 94.2703 106.088 93.825 105.488 93.3ZM116.513 93.3C115.913 93.825 115.261 94.2703 114.525 94.6125L122.4 106.725C121.294 107.813 120.6 109.327 120.6 111C120.6 114.309 123.291 117 126.6 117C129.909 117 132.6 114.309 132.6 111C132.6 107.691 129.909 105 126.6 105C125.827 105 125.105 105.183 124.425 105.45L116.513 93.3ZM91.5375 118.463L87.8625 129.075C87.5766 129.033 87.2953 129 87 129C83.6906 129 81 131.691 81 135C81 138.309 83.6906 141 87 141C90.3094 141 93 138.309 93 135C93 132.839 91.8281 130.959 90.1125 129.9L93.825 119.25C93.0234 119.095 92.2406 118.828 91.5375 118.463ZM99.2625 118.463C98.5594 118.828 97.7766 119.095 96.975 119.25L100.725 129.863C98.9859 130.913 97.8 132.825 97.8 135C97.8 138.309 100.491 141 103.8 141C107.109 141 109.8 138.309 109.8 135C109.8 131.691 107.109 129 103.8 129C103.528 129 103.275 129.038 103.013 129.075L99.2625 118.463ZM122.738 118.463L118.988 129.075C118.725 129.038 118.472 129 118.2 129C114.891 129 112.2 131.691 112.2 135C112.2 138.309 114.891 141 118.2 141C121.509 141 124.2 138.309 124.2 135C124.2 132.825 123.014 130.913 121.275 129.863L125.025 119.25C124.223 119.095 123.441 118.828 122.738 118.463ZM130.463 118.463C129.759 118.828 128.977 119.095 128.175 119.25L131.888 129.9C130.172 130.959 129 132.839 129 135C129 138.309 131.691 141 135 141C138.309 141 141 138.309 141 135C141 131.691 138.309 129 135 129C134.705 129 134.423 129.033 134.138 129.075L130.463 118.463Z" fill="#22273C"/>
</svg>
