<svg width="48" height="49" viewBox="0 0 48 49" fill="none" xmlns="http://www.w3.org/2000/svg">
    <path d="M29 6.5H15.744C14.781 6.5 14 7.281 14 8.244V15.503H29V6.5Z" fill="#169154"/>
    <path d="M14 33.554V40.756C14 41.719 14.781 42.5 15.743 42.5H29V33.554H14Z" fill="#18482A"/>
    <path d="M14 15.5029H29V24.5049H14V15.5029Z" fill="#0C8045"/>
    <path d="M14 24.5049H29V33.5549H14V24.5049Z" fill="#17472A"/>
    <path d="M42.256 6.5H29V15.503H44V8.244C44 7.281 43.219 6.5 42.256 6.5Z" fill="#29C27F"/>
    <path d="M29 33.554V42.5H42.257C43.219 42.5 44 41.719 44 40.757V33.555H29V33.554Z" fill="#27663F"/>
    <path d="M29 15.5029H44V24.5049H29V15.5029Z" fill="#19AC65"/>
    <path d="M29 24.5049H44V33.5549H29V24.5049Z" fill="#129652"/>
    <path d="M22.319 34.5H5.681C4.753 34.5 4 33.747 4 32.819V16.181C4 15.253 4.753 14.5 5.681 14.5H22.319C23.247 14.5 24 15.253 24 16.181V32.819C24 33.747 23.247 34.5 22.319 34.5Z" fill="#0C7238"/>
    <path d="M9.807 19.5H12.193L14.129 23.254L16.175 19.5H18.404L15.333 24.5L18.474 29.5H16.123L14.013 25.57L11.912 29.5H9.526L12.719 24.482L9.807 19.5Z" fill="white"/>
</svg>
