<svg width="48" height="49" viewBox="0 0 48 49" fill="none" xmlns="http://www.w3.org/2000/svg">
    <path d="M29 6.5H15.744C14.781 6.5 14 7.281 14 8.244V15.503H29V6.5Z" fill="#169154"/>
    <path d="M14 33.554V40.756C14 41.719 14.781 42.5 15.743 42.5H29V33.554H14Z" fill="#18482A"/>
    <path d="M14 15.5029H29V24.5049H14V15.5029Z" fill="#0C8045"/>
    <path d="M14 24.5049H29V33.5549H14V24.5049Z" fill="#17472A"/>
    <path d="M42.256 6.5H29V15.503H44V8.244C44 7.281 43.219 6.5 42.256 6.5Z" fill="#29C27F"/>
    <path d="M29 33.554V42.5H42.257C43.219 42.5 44 41.719 44 40.757V33.555H29V33.554Z" fill="#27663F"/>
    <path d="M29 15.5029H44V24.5049H29V15.5029Z" fill="#19AC65"/>
    <path d="M29 24.5049H44V33.5549H29V24.5049Z" fill="#129652"/>
    <path d="M22.319 34.5H5.681C4.753 34.5 4 33.747 4 32.819V16.181C4 15.253 4.753 14.5 5.681 14.5H22.319C23.247 14.5 24 15.253 24 16.181V32.819C24 33.747 23.247 34.5 22.319 34.5Z" fill="#0C7238"/>
    <path d="M9.807 19.5H12.193L14.129 23.254L16.175 19.5H18.404L15.333 24.5L18.474 29.5H16.123L14.013 25.57L11.912 29.5H9.526L12.719 24.482L9.807 19.5Z" fill="white"/>
    <mask id="path-11-outside-1_163_4029" maskUnits="userSpaceOnUse" x="22" y="13.5" width="17" height="18" fill="black">
    <rect fill="white" x="22" y="13.5" width="17" height="18"/>
    <path fill-rule="evenodd" clip-rule="evenodd" d="M28 29.5V28.4635C28 27.6447 24.7998 25.3634 24.7998 25.3634C24.3581 25.0352 24 24.3277 24 23.7704V20.1667C24 19.0213 24.8955 18.0926 26 18.0926V21.2037H27V16.3644C27 15.8868 27.373 15.5 27.8335 15.5C28.754 15.5 29.5 16.2736 29.5 17.2282V16.8829C29.5 16.4053 29.873 16.0185 30.3335 16.0185C31.254 16.0185 32 16.7921 32 17.7467V17.4014C32 16.9239 32.373 16.537 32.8335 16.5C33.754 16.537 34.5 17.3107 34.5 18.2653V17.9199C34.5 17.4424 34.873 17.0556 35.3335 17.0556C36.254 17.0556 37 17.8292 37 18.7838V23.5043C37 24.0542 36.7627 24.8812 36.4745 25.3573C36.4745 25.3573 35 27.6447 35 28.4635V29.5H28Z"/>
    </mask>
    <path fill-rule="evenodd" clip-rule="evenodd" d="M28 29.5V28.4635C28 27.6447 24.7998 25.3634 24.7998 25.3634C24.3581 25.0352 24 24.3277 24 23.7704V20.1667C24 19.0213 24.8955 18.0926 26 18.0926V21.2037H27V16.3644C27 15.8868 27.373 15.5 27.8335 15.5C28.754 15.5 29.5 16.2736 29.5 17.2282V16.8829C29.5 16.4053 29.873 16.0185 30.3335 16.0185C31.254 16.0185 32 16.7921 32 17.7467V17.4014C32 16.9239 32.373 16.537 32.8335 16.5C33.754 16.537 34.5 17.3107 34.5 18.2653V17.9199C34.5 17.4424 34.873 17.0556 35.3335 17.0556C36.254 17.0556 37 17.8292 37 18.7838V23.5043C37 24.0542 36.7627 24.8812 36.4745 25.3573C36.4745 25.3573 35 27.6447 35 28.4635V29.5H28Z" fill="white"/>
    <path d="M28 29.5H26.8V30.7H28V29.5ZM24.7998 25.3634L24.0841 26.3266L24.0936 26.3337L24.1033 26.3406L24.7998 25.3634ZM26 18.0926H27.2V16.8926H26V18.0926ZM26 21.2037H24.8V22.4037H26V21.2037ZM27 21.2037V22.4037H28.2V21.2037H27ZM32.8335 16.5L32.8817 15.301L32.8094 15.2981L32.7373 15.3039L32.8335 16.5ZM36.4745 25.3573L37.4831 26.0074L37.4923 25.9932L37.5011 25.9787L36.4745 25.3573ZM35 29.5V30.7H36.2V29.5H35ZM29.2 29.5V28.4635H26.8V29.5H29.2ZM29.2 28.4635C29.2 28.017 29.0016 27.6547 28.8816 27.4616C28.7401 27.234 28.5617 27.017 28.3867 26.8251C28.034 26.4384 27.5872 26.0369 27.1722 25.6879C26.751 25.3338 26.3334 25.0095 26.0232 24.7752C25.8675 24.6576 25.7374 24.5615 25.6456 24.4944C25.5997 24.4608 25.5632 24.4344 25.5378 24.4161C25.5252 24.4069 25.5152 24.3998 25.5083 24.3948C25.5048 24.3923 25.502 24.3903 25.5 24.3889C25.4991 24.3882 25.4983 24.3876 25.4977 24.3872C25.4973 24.387 25.4971 24.3868 25.4969 24.3866C25.4968 24.3866 25.4967 24.3865 25.4966 24.3865C25.4965 24.3864 25.4964 24.3863 24.7998 25.3634C24.1033 26.3406 24.1032 26.3405 24.1032 26.3405C24.1031 26.3405 24.1031 26.3405 24.1031 26.3405C24.1031 26.3404 24.1031 26.3405 24.1032 26.3405C24.1034 26.3406 24.1037 26.3409 24.1043 26.3413C24.1054 26.3421 24.1072 26.3434 24.1098 26.3452C24.1149 26.3489 24.123 26.3547 24.1337 26.3625C24.1552 26.378 24.1875 26.4014 24.2291 26.4318C24.3123 26.4926 24.4322 26.5811 24.5765 26.6902C24.8664 26.9092 25.2488 27.2064 25.6277 27.5249C26.0126 27.8486 26.3659 28.171 26.6133 28.4423C26.7383 28.5793 26.8099 28.6749 26.8434 28.7288C26.8984 28.8172 26.8 28.7053 26.8 28.4635H29.2ZM25.5156 24.4003C25.4827 24.3758 25.3909 24.2818 25.3061 24.1133C25.2215 23.9451 25.2 23.8145 25.2 23.7704H22.8C22.8 24.2836 22.9576 24.7854 23.1624 25.1923C23.3671 25.599 23.6753 26.0228 24.0841 26.3266L25.5156 24.4003ZM25.2 23.7704V20.1667H22.8V23.7704H25.2ZM25.2 20.1667C25.2 19.6425 25.599 19.2926 26 19.2926V16.8926C24.192 16.8926 22.8 18.4 22.8 20.1667H25.2ZM24.8 18.0926V21.2037H27.2V18.0926H24.8ZM26 22.4037H27V20.0037H26V22.4037ZM28.2 21.2037V16.3644H25.8V21.2037H28.2ZM28.2 16.3644C28.2 16.508 28.0765 16.7 27.8335 16.7V14.3C26.6695 14.3 25.8 15.2656 25.8 16.3644H28.2ZM27.8335 16.7C28.0505 16.7 28.3 16.8949 28.3 17.2282H30.7C30.7 15.6524 29.4575 14.3 27.8335 14.3V16.7ZM30.7 17.2282V16.8829H28.3V17.2282H30.7ZM30.7 16.8829C30.7 17.0266 30.5765 17.2185 30.3335 17.2185V14.8185C29.1695 14.8185 28.3 15.7841 28.3 16.8829H30.7ZM30.3335 17.2185C30.5505 17.2185 30.8 17.4134 30.8 17.7467H33.2C33.2 16.1709 31.9575 14.8185 30.3335 14.8185V17.2185ZM33.2 17.7467V17.4014H30.8V17.7467H33.2ZM33.2 17.4014C33.2 17.5653 33.0765 17.6843 32.9297 17.6961L32.7373 15.3039C31.6695 15.3897 30.8 16.2824 30.8 17.4014H33.2ZM32.7853 17.699C33.0503 17.7097 33.3 17.9426 33.3 18.2653H35.7C35.7 16.6787 34.4577 15.3644 32.8817 15.301L32.7853 17.699ZM35.7 18.2653V17.9199H33.3V18.2653H35.7ZM35.7 17.9199C35.7 18.0636 35.5765 18.2556 35.3335 18.2556V15.8556C34.1695 15.8556 33.3 16.8211 33.3 17.9199H35.7ZM35.3335 18.2556C35.5505 18.2556 35.8 18.4504 35.8 18.7838H38.2C38.2 17.208 36.9575 15.8556 35.3335 15.8556V18.2556ZM35.8 18.7838V23.5043H38.2V18.7838H35.8ZM35.8 23.5043C35.8 23.6318 35.768 23.8601 35.6912 24.13C35.6148 24.3984 35.52 24.6168 35.448 24.7358L37.5011 25.9787C37.7172 25.6217 37.8852 25.1886 37.9995 24.787C38.1134 24.3869 38.2 23.9267 38.2 23.5043H35.8ZM36.4745 25.3573C35.4659 24.7071 35.4659 24.7072 35.4658 24.7073C35.4658 24.7074 35.4657 24.7075 35.4656 24.7075C35.4655 24.7077 35.4654 24.7079 35.4652 24.7082C35.4649 24.7087 35.4645 24.7093 35.464 24.7101C35.463 24.7116 35.4617 24.7137 35.46 24.7164C35.4566 24.7216 35.4519 24.729 35.4459 24.7385C35.4338 24.7573 35.4167 24.7843 35.3952 24.8186C35.3522 24.887 35.2915 24.9846 35.2189 25.1038C35.0744 25.3414 34.8802 25.6696 34.6844 26.0277C34.4906 26.382 34.2846 26.7851 34.1238 27.1686C33.9845 27.5007 33.8 27.9948 33.8 28.4635H36.2C36.2 28.5228 36.1998 28.4239 36.337 28.0969C36.4526 27.8212 36.6153 27.4989 36.7902 27.179C36.963 26.8629 37.1374 26.5681 37.2693 26.3511C37.335 26.2432 37.3895 26.1556 37.4271 26.0958C37.4459 26.0659 37.4605 26.0429 37.4701 26.0279C37.4748 26.0204 37.4784 26.0148 37.4806 26.0114C37.4817 26.0097 37.4825 26.0085 37.4829 26.0078C37.4831 26.0075 37.4832 26.0073 37.4833 26.0072C37.4833 26.0072 37.4833 26.0072 37.4833 26.0072C37.4833 26.0072 37.4832 26.0073 37.4832 26.0073C37.4832 26.0074 37.4831 26.0074 36.4745 25.3573ZM33.8 28.4635V29.5H36.2V28.4635H33.8ZM35 28.3H28V30.7H35V28.3Z" fill="#363B3E" mask="url(#path-11-outside-1_163_4029)"/>
</svg>
