<svg width="124" height="125" viewBox="0 0 124 125" fill="none" xmlns="http://www.w3.org/2000/svg">
<path d="M61.5 78.5H61V79H61.5V78.5ZM70.8536 78.8536C71.0488 78.6583 71.0488 78.3417 70.8536 78.1464L67.6716 74.9645C67.4763 74.7692 67.1597 74.7692 66.9645 74.9645C66.7692 75.1597 66.7692 75.4763 66.9645 75.6716L69.7929 78.5L66.9645 81.3284C66.7692 81.5237 66.7692 81.8403 66.9645 82.0355C67.1597 82.2308 67.4763 82.2308 67.6716 82.0355L70.8536 78.8536ZM61.5 42.5H62V42H61.5V42.5ZM61.5 79H70.5V78H61.5V79ZM53 43H61.5V42H53V43ZM61 42.5V78.5H62V42.5H61Z" fill="white"/>
<rect x="4.5" y="18" width="39" height="49" stroke="#8F5BFF"/>
<line x1="4" y1="27" x2="44" y2="27" stroke="#8F5BFF"/>
<rect x="79.5" y="57" width="39" height="49" stroke="#8F5BFF"/>
<line x1="79" y1="66" x2="119" y2="66" stroke="#8F5BFF"/>
</svg>
