<svg width="300" height="300" viewBox="0 0 300 300" fill="none" xmlns="http://www.w3.org/2000/svg">
<g clip-path="url(#clip0)">
<path d="M98.7278 98.8064L80.9862 102.494C79.8098 102.739 78.7824 103.458 78.1299 104.493C77.4774 105.529 77.2533 106.796 77.5069 108.016L85.1555 144.813C85.4091 146.033 86.1195 147.106 87.1306 147.796C88.1417 148.485 89.3706 148.735 90.547 148.491L117.159 142.959C118.336 142.715 119.363 141.996 120.016 140.96C120.668 139.925 120.892 138.658 120.639 137.438L114.902 109.84L98.7278 98.8064Z" stroke="white" stroke-linecap="round" stroke-linejoin="round"/>
<path d="M98.7285 98.8066L101.597 112.606L114.903 109.84" stroke="white" stroke-linecap="round" stroke-linejoin="round"/>
<path d="M108.423 123.182L90.6816 126.87" stroke="white" stroke-linecap="round" stroke-linejoin="round"/>
<path d="M110.335 132.382L92.5938 136.069" stroke="white" stroke-linecap="round" stroke-linejoin="round"/>
<path d="M93.2049 116.749L90.9872 117.21L88.7695 117.671" stroke="white" stroke-linecap="round" stroke-linejoin="round"/>
</g>
<g clip-path="url(#clip1)">
<path d="M119.651 200.126L128.906 183.427L112.207 174.173" stroke="white" stroke-width="2" stroke-linecap="round" stroke-linejoin="round"/>
<path d="M94.9045 179.136L85.6499 195.835L102.349 205.09" stroke="white" stroke-width="2" stroke-linecap="round" stroke-linejoin="round"/>
</g>
<g clip-path="url(#clip2)">
<path d="M149.276 87.8346C151.083 87.8346 152.548 86.3698 152.548 84.5628C152.548 82.7559 151.083 81.291 149.276 81.291C147.469 81.291 146.004 82.7559 146.004 84.5628C146.004 86.3698 147.469 87.8346 149.276 87.8346Z" stroke="white" stroke-linecap="round" stroke-linejoin="round"/>
<path d="M157.344 87.8349C157.199 88.1638 157.156 88.5287 157.22 88.8825C157.284 89.2363 157.453 89.5627 157.704 89.8198L157.77 89.8852C157.973 90.0878 158.133 90.3283 158.243 90.5931C158.353 90.8579 158.41 91.1418 158.41 91.4284C158.41 91.715 158.353 91.9989 158.243 92.2637C158.133 92.5285 157.973 92.769 157.77 92.9716C157.567 93.1744 157.327 93.3353 157.062 93.4451C156.797 93.5548 156.513 93.6113 156.227 93.6113C155.94 93.6113 155.656 93.5548 155.391 93.4451C155.127 93.3353 154.886 93.1744 154.683 92.9716L154.618 92.9062C154.361 92.6547 154.034 92.4861 153.681 92.4219C153.327 92.3578 152.962 92.4011 152.633 92.5463C152.31 92.6845 152.035 92.9141 151.842 93.2067C151.648 93.4993 151.544 93.8421 151.542 94.1931V94.3785C151.542 94.957 151.313 95.5118 150.904 95.9208C150.495 96.3299 149.94 96.5597 149.361 96.5597C148.783 96.5597 148.228 96.3299 147.819 95.9208C147.41 95.5118 147.18 94.957 147.18 94.3785V94.2803C147.172 93.9193 147.055 93.5693 146.845 93.2756C146.635 92.9819 146.341 92.7582 146.002 92.6335C145.673 92.4883 145.308 92.445 144.955 92.5092C144.601 92.5733 144.274 92.742 144.017 92.9934L143.952 93.0589C143.749 93.2617 143.509 93.4225 143.244 93.5323C142.979 93.6421 142.695 93.6986 142.409 93.6986C142.122 93.6986 141.838 93.6421 141.573 93.5323C141.309 93.4225 141.068 93.2617 140.865 93.0589C140.663 92.8563 140.502 92.6157 140.392 92.3509C140.282 92.0861 140.226 91.8023 140.226 91.5157C140.226 91.229 140.282 90.9452 140.392 90.6804C140.502 90.4156 140.663 90.175 140.865 89.9724L140.931 89.907C141.182 89.65 141.351 89.3235 141.415 88.9697C141.479 88.6159 141.436 88.2511 141.291 87.9221C141.153 87.5995 140.923 87.3244 140.63 87.1307C140.338 86.9369 139.995 86.8329 139.644 86.8315H139.459C138.88 86.8315 138.325 86.6017 137.916 86.1926C137.507 85.7836 137.277 85.2288 137.277 84.6503C137.277 84.0718 137.507 83.517 137.916 83.108C138.325 82.6989 138.88 82.4691 139.459 82.4691H139.557C139.918 82.4606 140.268 82.3438 140.561 82.1337C140.855 81.9237 141.079 81.6301 141.204 81.2912C141.349 80.9623 141.392 80.5974 141.328 80.2436C141.264 79.8898 141.095 79.5634 140.844 79.3063L140.778 79.2409C140.575 79.0383 140.414 78.7978 140.305 78.533C140.195 78.2682 140.138 77.9843 140.138 77.6977C140.138 77.4111 140.195 77.1272 140.305 76.8624C140.414 76.5976 140.575 76.3571 140.778 76.1545C140.981 75.9517 141.221 75.7908 141.486 75.681C141.751 75.5713 142.035 75.5148 142.321 75.5148C142.608 75.5148 142.892 75.5713 143.157 75.681C143.421 75.7908 143.662 75.9517 143.865 76.1545L143.93 76.2199C144.187 76.4714 144.514 76.64 144.867 76.7042C145.221 76.7683 145.586 76.725 145.915 76.5798H146.002C146.325 76.4416 146.6 76.212 146.794 75.9194C146.987 75.6268 147.091 75.284 147.093 74.933V74.7476C147.093 74.1691 147.323 73.6143 147.732 73.2053C148.141 72.7962 148.695 72.5664 149.274 72.5664C149.852 72.5664 150.407 72.7962 150.816 73.2053C151.225 73.6143 151.455 74.1691 151.455 74.7476V74.8458C151.457 75.1967 151.561 75.5396 151.754 75.8322C151.948 76.1248 152.223 76.3543 152.546 76.4926C152.875 76.6378 153.24 76.6811 153.593 76.6169C153.947 76.5528 154.274 76.3841 154.531 76.1327L154.596 76.0672C154.799 75.8644 155.039 75.7036 155.304 75.5938C155.569 75.484 155.853 75.4275 156.139 75.4275C156.426 75.4275 156.71 75.484 156.975 75.5938C157.239 75.7036 157.48 75.8644 157.683 76.0672C157.885 76.2698 158.046 76.5104 158.156 76.7752C158.266 77.04 158.322 77.3238 158.322 77.6105C158.322 77.8971 158.266 78.1809 158.156 78.4457C158.046 78.7105 157.885 78.9511 157.683 79.1537L157.617 79.2191C157.366 79.4761 157.197 79.8026 157.133 80.1564C157.069 80.5102 157.112 80.875 157.257 81.204V81.2912C157.395 81.6138 157.625 81.8889 157.918 82.0827C158.21 82.2765 158.553 82.3804 158.904 82.3818H159.089C159.668 82.3818 160.223 82.6116 160.632 83.0207C161.041 83.4298 161.271 83.9846 161.271 84.5631C161.271 85.1415 161.041 85.6963 160.632 86.1054C160.223 86.5145 159.668 86.7443 159.089 86.7443H158.991C158.64 86.7457 158.297 86.8496 158.005 87.0434C157.712 87.2372 157.483 87.5123 157.344 87.8349V87.8349Z" stroke="white" stroke-linecap="round" stroke-linejoin="round"/>
</g>
<path d="M203.386 37.4995C203.584 37.3012 203.82 37.1439 204.079 37.0366C204.338 36.9293 204.616 36.874 204.896 36.874C205.177 36.874 205.454 36.9293 205.713 37.0366C205.972 37.1439 206.208 37.3012 206.406 37.4995C206.604 37.6978 206.762 37.9332 206.869 38.1923C206.976 38.4514 207.032 38.7291 207.032 39.0096C207.032 39.29 206.976 39.5677 206.869 39.8268C206.762 40.0859 206.604 40.3213 206.406 40.5196L196.213 50.7126L192.061 51.8451L193.193 47.6925L203.386 37.4995Z" stroke="white" stroke-linecap="round" stroke-linejoin="round"/>
<g clip-path="url(#clip3)">
<path d="M108.519 53.3681L113.297 45.4426L105.371 40.665" stroke="white" stroke-linecap="round" stroke-linejoin="round"/>
<path d="M96.9023 42.764L92.1247 50.6894L100.05 55.467" stroke="white" stroke-linecap="round" stroke-linejoin="round"/>
</g>
<path d="M200.656 109.297C210.469 110.081 218.635 108.065 218.897 104.794C219.158 101.523 211.415 98.2359 201.603 97.4519C191.79 96.6678 183.624 98.6837 183.363 101.955C183.101 105.225 190.844 108.512 200.656 109.297Z" stroke="white" stroke-linecap="round" stroke-linejoin="round"/>
<path d="M217.792 118.612C217.53 121.889 209.422 123.903 199.552 123.114C189.681 122.326 181.996 119.049 182.258 115.772" stroke="white" stroke-linecap="round" stroke-linejoin="round"/>
<path d="M183.361 101.954L181.153 129.592C180.891 132.869 188.576 136.145 198.447 136.934C208.317 137.722 216.425 135.708 216.687 132.431L218.895 104.793" stroke="white" stroke-linecap="round" stroke-linejoin="round"/>
<mask id="path-16-inside-1" fill="white">
<path d="M241.167 242.293L146.492 273.736V121.158L241.167 135.938V242.293Z"/>
</mask>
<path d="M241.167 242.293L146.492 273.736V121.158L241.167 135.938V242.293Z" fill="#373D57"/>
<path d="M241.167 242.293L241.482 243.242L242.167 243.015V242.293H241.167ZM146.492 273.736H145.492V275.122L146.807 274.685L146.492 273.736ZM146.492 121.158L146.646 120.17L145.492 119.99V121.158H146.492ZM241.167 135.938H242.167V135.082L241.321 134.95L241.167 135.938ZM240.852 241.344L146.177 272.787L146.807 274.685L241.482 243.242L240.852 241.344ZM147.492 273.736V121.158H145.492V273.736H147.492ZM146.338 122.146L241.013 136.926L241.321 134.95L146.646 120.17L146.338 122.146ZM240.167 135.938V242.293H242.167V135.938H240.167Z" fill="#8D64FF" mask="url(#path-16-inside-1)"/>
<mask id="path-18-inside-2" fill="white">
<path fill-rule="evenodd" clip-rule="evenodd" d="M146.493 273.736L46.3086 245.771V132.75L146.493 121.158V273.736ZM95.4158 158.44C111.75 160.227 125.114 176.316 125.114 194.191C125.114 212.067 111.75 226.368 95.4158 224.58C79.0819 222.793 65.7178 206.704 65.7178 188.829C65.7178 170.953 79.0819 156.652 95.4158 158.44Z"/>
</mask>
<path fill-rule="evenodd" clip-rule="evenodd" d="M146.493 273.736L46.3086 245.771V132.75L146.493 121.158V273.736ZM95.4158 158.44C111.75 160.227 125.114 176.316 125.114 194.191C125.114 212.067 111.75 226.368 95.4158 224.58C79.0819 222.793 65.7178 206.704 65.7178 188.829C65.7178 170.953 79.0819 156.652 95.4158 158.44Z" fill="#373D57"/>
<path d="M46.3086 245.771H45.3086V246.53L46.0397 246.734L46.3086 245.771ZM146.493 273.736L146.224 274.699L147.493 275.053V273.736H146.493ZM46.3086 132.75L46.1937 131.757L45.3086 131.859V132.75H46.3086ZM146.493 121.158H147.493V120.036L146.378 120.165L146.493 121.158ZM95.4158 158.44L95.307 159.434L95.4158 158.44ZM95.4158 224.58L95.307 225.574L95.4158 224.58ZM46.0397 246.734L146.224 274.699L146.762 272.773L46.5775 244.808L46.0397 246.734ZM45.3086 132.75V245.771H47.3086V132.75H45.3086ZM146.378 120.165L46.1937 131.757L46.4235 133.743L146.608 122.152L146.378 120.165ZM147.493 273.736V121.158H145.493V273.736H147.493ZM126.114 194.191C126.114 175.874 112.431 159.296 95.5246 157.446L95.307 159.434C111.068 161.159 124.114 176.757 124.114 194.191H126.114ZM95.307 225.574C112.373 227.442 126.114 212.512 126.114 194.191H124.114C124.114 211.622 111.126 225.294 95.5246 223.586L95.307 225.574ZM64.7178 188.829C64.7178 207.146 78.4002 223.724 95.307 225.574L95.5246 223.586C79.7635 221.861 66.7178 206.263 66.7178 188.829H64.7178ZM95.5246 157.446C78.4587 155.578 64.7178 170.508 64.7178 188.829H66.7178C66.7178 171.398 79.7051 157.726 95.307 159.434L95.5246 157.446Z" fill="#8D64FF" mask="url(#path-18-inside-2)"/>
<g filter="url(#filter0_i)">
<path d="M125.115 194.191C125.115 176.316 111.751 160.227 95.4167 158.44C79.0828 156.652 65.7188 170.953 65.7188 188.829C65.7188 206.704 79.0828 222.793 95.4167 224.58C111.751 226.368 125.115 212.067 125.115 194.191Z" fill="#1F2336" fill-opacity="0.75"/>
</g>
<path d="M124.615 194.191C124.615 176.536 111.41 160.693 95.3623 158.937C79.3944 157.189 66.2188 171.175 66.2188 188.829C66.2188 206.484 79.4237 222.327 95.4711 224.083C111.439 225.831 124.615 211.845 124.615 194.191Z" stroke="url(#paint0_linear)" stroke-miterlimit="10" stroke-linecap="round" stroke-linejoin="round"/>
<path d="M145.249 254.697L47.5977 230.536" stroke="url(#paint1_linear)" stroke-width="2" stroke-miterlimit="10"/>
<path d="M147.766 254.697L239.88 228.522" stroke="url(#paint2_linear)" stroke-width="2" stroke-miterlimit="10"/>
<g filter="url(#filter1_i)">
<path d="M167.95 258.087C167.95 259.536 166.645 260.84 165.05 260.985C163.455 261.13 162.15 259.971 162.15 258.522C162.15 257.073 163.455 255.768 165.05 255.624C166.645 255.479 167.95 256.638 167.95 258.087Z" fill="#A98BF6"/>
</g>
<g filter="url(#filter2_i)">
<path d="M181.434 254.175C181.434 255.624 180.129 256.928 178.534 257.073C176.94 257.218 175.635 256.059 175.635 254.61C175.635 253.161 176.94 251.857 178.534 251.712C180.129 251.712 181.434 252.726 181.434 254.175Z" fill="#A98BF6"/>
</g>
<g filter="url(#filter3_i)">
<path d="M194.483 250.408C194.483 251.857 193.178 253.161 191.583 253.306C189.988 253.451 188.684 252.292 188.684 250.843C188.684 249.394 189.988 248.09 191.583 247.945C193.178 247.8 194.483 248.959 194.483 250.408Z" fill="#A98BF6"/>
</g>
<defs>
<filter id="filter0_i" x="65.7188" y="158.288" width="60.396" height="67.443" filterUnits="userSpaceOnUse" color-interpolation-filters="sRGB">
<feFlood flood-opacity="0" result="BackgroundImageFix"/>
<feBlend mode="normal" in="SourceGraphic" in2="BackgroundImageFix" result="shape"/>
<feColorMatrix in="SourceAlpha" type="matrix" values="0 0 0 0 0 0 0 0 0 0 0 0 0 0 0 0 0 0 127 0" result="hardAlpha"/>
<feOffset dx="2" dy="2"/>
<feGaussianBlur stdDeviation="0.5"/>
<feComposite in2="hardAlpha" operator="arithmetic" k2="-1" k3="1"/>
<feColorMatrix type="matrix" values="0 0 0 0 0.133333 0 0 0 0 0.152941 0 0 0 0 0.235294 0 0 0 0.25 0"/>
<feBlend mode="normal" in2="shape" result="effect1_innerShadow"/>
</filter>
<filter id="filter1_i" x="162.15" y="255.611" width="6.29936" height="5.88573" filterUnits="userSpaceOnUse" color-interpolation-filters="sRGB">
<feFlood flood-opacity="0" result="BackgroundImageFix"/>
<feBlend mode="normal" in="SourceGraphic" in2="BackgroundImageFix" result="shape"/>
<feColorMatrix in="SourceAlpha" type="matrix" values="0 0 0 0 0 0 0 0 0 0 0 0 0 0 0 0 0 0 127 0" result="hardAlpha"/>
<feOffset dx="0.5" dy="0.5"/>
<feGaussianBlur stdDeviation="0.5"/>
<feComposite in2="hardAlpha" operator="arithmetic" k2="-1" k3="1"/>
<feColorMatrix type="matrix" values="0 0 0 0 0.0571944 0 0 0 0 0.0229557 0 0 0 0 0.136865 0 0 0 0.24 0"/>
<feBlend mode="normal" in2="shape" result="effect1_innerShadow"/>
</filter>
<filter id="filter2_i" x="175.635" y="251.712" width="6.29936" height="5.87352" filterUnits="userSpaceOnUse" color-interpolation-filters="sRGB">
<feFlood flood-opacity="0" result="BackgroundImageFix"/>
<feBlend mode="normal" in="SourceGraphic" in2="BackgroundImageFix" result="shape"/>
<feColorMatrix in="SourceAlpha" type="matrix" values="0 0 0 0 0 0 0 0 0 0 0 0 0 0 0 0 0 0 127 0" result="hardAlpha"/>
<feOffset dx="0.5" dy="0.5"/>
<feGaussianBlur stdDeviation="0.5"/>
<feComposite in2="hardAlpha" operator="arithmetic" k2="-1" k3="1"/>
<feColorMatrix type="matrix" values="0 0 0 0 0.0571944 0 0 0 0 0.0229557 0 0 0 0 0.136865 0 0 0 0.24 0"/>
<feBlend mode="normal" in2="shape" result="effect1_innerShadow"/>
</filter>
<filter id="filter3_i" x="188.684" y="247.933" width="6.29938" height="5.88574" filterUnits="userSpaceOnUse" color-interpolation-filters="sRGB">
<feFlood flood-opacity="0" result="BackgroundImageFix"/>
<feBlend mode="normal" in="SourceGraphic" in2="BackgroundImageFix" result="shape"/>
<feColorMatrix in="SourceAlpha" type="matrix" values="0 0 0 0 0 0 0 0 0 0 0 0 0 0 0 0 0 0 127 0" result="hardAlpha"/>
<feOffset dx="0.5" dy="0.5"/>
<feGaussianBlur stdDeviation="0.5"/>
<feComposite in2="hardAlpha" operator="arithmetic" k2="-1" k3="1"/>
<feColorMatrix type="matrix" values="0 0 0 0 0.0571944 0 0 0 0 0.0229557 0 0 0 0 0.136865 0 0 0 0.24 0"/>
<feBlend mode="normal" in2="shape" result="effect1_innerShadow"/>
</filter>
<linearGradient id="paint0_linear" x1="64.2087" y1="185.47" x2="111.021" y2="185.47" gradientUnits="userSpaceOnUse">
<stop stop-color="#8D64FF"/>
<stop offset="1" stop-color="#373D57" stop-opacity="0"/>
</linearGradient>
<linearGradient id="paint1_linear" x1="46.5909" y1="234.192" x2="263.318" y2="260.732" gradientUnits="userSpaceOnUse">
<stop stop-color="#2C3043"/>
<stop offset="1" stop-color="#2E3142"/>
</linearGradient>
<linearGradient id="paint2_linear" x1="145.517" y1="231.859" x2="356.375" y2="254.423" gradientUnits="userSpaceOnUse">
<stop stop-color="#2C3043"/>
<stop offset="1" stop-color="#2E3142"/>
</linearGradient>
<clipPath id="clip0">
<rect width="54.3624" height="56.3758" fill="white" transform="translate(66.7246 100.66) rotate(-11.7422)"/>
</clipPath>
<clipPath id="clip1">
<rect width="54" height="54" fill="white" transform="translate(73.8809 171.122) rotate(-16.0048)"/>
</clipPath>
<clipPath id="clip2">
<rect width="26.1745" height="26.1745" fill="white" transform="translate(136.188 71.4756)"/>
</clipPath>
<clipPath id="clip3">
<rect width="26.1745" height="26.1745" fill="white" transform="translate(86.8594 38.5107) rotate(-13.9178)"/>
</clipPath>
</defs>
</svg>
