<svg width="35" height="35" viewBox="0 0 35 35" fill="none" xmlns="http://www.w3.org/2000/svg">
<path fill-rule="evenodd" clip-rule="evenodd" d="M9.77026 3.76082C10.2628 3.27322 10.9301 3 11.625 3H20.2037C20.3349 3 20.4609 3.05152 20.5545 3.14343L26.6453 9.1283C26.8506 9.19042 27 9.38071 27 9.60582C27 9.61944 26.9995 9.63292 26.9984 9.64625C26.9994 9.65931 26.9999 9.67246 26.9999 9.68566V22.4303C26.9999 23.1218 26.7224 23.7842 26.2297 24.2719C25.7371 24.7595 25.0699 25.0327 24.375 25.0327H20.04C19.7638 25.0327 19.54 24.8094 19.54 24.5338C19.54 24.2583 19.7638 24.0349 20.04 24.0349H24.375C24.8072 24.0349 25.221 23.8649 25.5254 23.5635C25.8297 23.2623 25.9999 22.8546 25.9999 22.4303V10.1048H20.04C19.7639 10.1048 19.54 9.88138 19.54 9.60582V3.99786H11.625C11.1927 3.99786 10.779 4.16788 10.4745 4.46924C10.1702 4.77046 10 5.17816 10 5.60242V22.4303C10 22.8546 10.1702 23.2623 10.4745 23.5635C10.779 23.8649 11.1927 24.0349 11.625 24.0349H15.79C16.0661 24.0349 16.29 24.2583 16.29 24.5338C16.29 24.8094 16.0661 25.0327 15.79 25.0327H11.625C10.9301 25.0327 10.2628 24.7595 9.77026 24.2719C9.27754 23.7842 9 23.1218 9 22.4303V5.60242C9 4.91091 9.27754 4.24855 9.77026 3.76082ZM20.54 4.52964V9.1069H25.1983L20.54 4.52964ZM17.9995 22.8476C18.2756 22.8476 18.4995 23.0709 18.4995 23.3465L18.4995 30.2968L20.4794 28.3211C20.6746 28.1263 20.9912 28.1263 21.1865 28.3211C21.3817 28.516 21.3817 28.8319 21.1865 29.0267L18.3532 31.8539C18.158 32.0487 17.8414 32.0487 17.6461 31.8539L14.8129 29.0267C14.6177 28.8319 14.6177 28.516 14.8129 28.3211C15.0082 28.1263 15.3248 28.1263 15.52 28.3211L17.4995 30.2963L17.4995 23.3465C17.4995 23.0709 17.7233 22.8476 17.9995 22.8476Z" fill="white"/>
<path fill-rule="evenodd" clip-rule="evenodd" d="M21.9472 18.2293L18.625 11.6705C18.5837 11.5898 18.5197 11.5209 18.4398 11.4713C18.3599 11.4216 18.267 11.3929 18.171 11.3883C18.0748 11.3823 17.9787 11.4009 17.8931 11.4422C17.8075 11.4834 17.7357 11.5457 17.6856 11.6222L14.0822 17.0477C14.0275 17.1297 13.9989 17.2244 14 17.3209C14.0011 17.4173 14.0317 17.5115 14.0883 17.5924L15.85 20.1285C15.9166 20.2237 16.0146 20.2964 16.1293 20.3356C16.244 20.3748 16.3692 20.3785 16.4863 20.3461L21.5988 18.9403C21.6757 18.9193 21.747 18.8833 21.8077 18.8346C21.8684 18.7859 21.9171 18.7256 21.9506 18.6578C21.9836 18.5904 22.0005 18.5172 21.9999 18.4431C21.9994 18.3691 21.9812 18.2962 21.9472 18.2293ZM21.2034 18.5106L16.8652 19.7031C16.7329 19.7397 16.6059 19.6331 16.6334 19.5089L18.1833 12.6098C18.2123 12.4807 18.404 12.4603 18.4646 12.5797L21.3338 18.2439C21.3465 18.2691 21.3532 18.2966 21.3533 18.3245C21.3535 18.3523 21.3471 18.3799 21.3347 18.4052C21.3223 18.4306 21.3041 18.4531 21.2814 18.4713C21.2587 18.4895 21.2322 18.5029 21.2034 18.5106Z" fill="white"/>
</svg>
