<svg width="150" height="150" viewBox="0 0 150 150" fill="none" xmlns="http://www.w3.org/2000/svg">
<g clip-path="url(#clip0_3216_9222)">
<circle opacity="0.5" cx="75" cy="74.83" r="74.75" stroke="#373D57" stroke-width="0.5"/>
<circle opacity="0.7" cx="75" cy="74.8297" r="67.3636" stroke="#373D57" stroke-width="0.5"/>
<circle cx="75.4736" cy="74.3568" r="59.8826" stroke="#373D57" stroke-width="0.5"/>
<circle cx="75.5682" cy="74.2618" r="53.0303" fill="#15192C"/>
<circle cx="133.125" cy="121.705" r="4.375" fill="#FFBD70"/>
<circle cx="18.125" cy="91.705" r="3.125" fill="#53DBEE"/>
<circle cx="61.875" cy="8.7471" r="1.875" fill="#F685A1"/>
<g filter="url(#filter0_d_3216_9222)">
<path d="M36.6471 80.2323L43.3991 127.438C44.2143 133.138 49.5089 137.096 55.2167 136.272L98.5733 129.734C102.945 129.103 106.044 125.147 105.605 120.758L99.908 63.7702C99.5983 60.6704 96.876 58.3781 93.7636 58.5968L82.0523 59.4152C76.7992 59.7823 72.6295 63.9747 72.2984 69.2223C72.1912 70.9193 70.8829 72.297 69.191 72.4938L39.9246 75.9857C37.8304 76.2294 36.3492 78.1486 36.6471 80.2327V80.2323Z" fill="#7950ED"/>
<g style="mix-blend-mode:multiply" opacity="0.4" filter="url(#filter1_f_3216_9222)">
<path d="M109.884 117.18L116.369 81.1775C116.709 79.2904 115.289 77.5752 113.522 77.736L59.9746 82.4932C58.1287 82.6616 56.6258 84.1694 56.3287 86.151L49.8579 129.316C49.6054 130.002 49.2496 130.669 48.4698 130.945C47.3793 131.331 46.1896 130.533 46.0929 130.7C45.9772 130.899 47.407 132.57 49.5984 133.46C51.4513 134.213 53.134 134.139 54.115 134.01C71.7551 131.241 83.3243 129.152 100.964 126.384C105.441 125.681 109.018 121.99 109.884 117.179V117.18Z" fill="url(#paint0_linear_3216_9222)" style="mix-blend-mode:multiply"/>
</g>
<path style="mix-blend-mode:multiply" opacity="0.4" d="M36.6471 80.2323L43.3991 127.438C44.2143 133.138 49.5089 137.096 55.2167 136.272L98.5733 129.734C102.945 129.103 106.044 125.147 105.605 120.758L99.908 63.7702C99.5983 60.6704 96.876 58.3781 93.7636 58.5968L82.0523 59.4152C76.7992 59.7823 72.6295 63.9747 72.2984 69.2223C72.1912 70.9193 70.8829 72.297 69.191 72.4938L39.9246 75.9857C37.8304 76.2294 36.3492 78.1482 36.6471 80.2323Z" fill="url(#paint1_linear_3216_9222)"/>
</g>
<g filter="url(#filter2_f_3216_9222)">
<path d="M112.402 83.3149L95.3386 93.3807C93.7299 94.257 91.4499 93.5183 90.1435 91.6661L75.9422 74.3005C74.6684 72.4938 74.9028 70.436 76.4542 69.5274L94.6268 60.1284C95.7959 59.43 97.7769 60.2014 98.8813 61.7621L112.555 79.195C113.671 80.7726 113.542 82.4721 112.402 83.3149Z" fill="#341786"/>
</g>
<path d="M130.761 67.859L100.775 88.8292C97.9493 90.6546 93.9478 89.1211 91.6575 85.2702L66.75 49.1653C64.5162 45.4085 64.9315 41.1274 67.6565 39.235L99.5888 19.6493C101.643 18.1948 105.119 19.7962 107.056 23.0417L131.036 59.2891C132.994 62.5691 132.769 66.1237 130.761 67.8595L130.761 67.859Z" fill="#D0CDE7"/>
<path d="M130.685 67.8493L100.681 88.8259C97.8539 90.6508 93.8505 89.1158 91.5592 85.2634L66.6353 49.1399C64.4005 45.3811 64.8153 41.0985 67.5413 39.2057L99.4952 19.6131C101.55 18.1581 105.028 19.7615 106.966 23.0085L130.961 59.2759C132.919 62.5575 132.701 66.1325 130.686 67.8493L130.685 67.8493Z" fill="#D2CFE8"/>
<path d="M130.61 67.8394L100.586 88.8229C97.7584 90.6478 93.7534 89.1113 91.4611 85.2569L66.5209 49.1143C64.2846 45.3536 64.6989 41.0695 67.4259 39.1766L99.4013 19.5777C101.457 18.1226 104.936 19.7271 106.875 22.9761L130.885 59.2635C132.844 62.5471 132.632 66.1422 130.61 67.8394Z" fill="#D3D0E8"/>
<path d="M130.535 67.8296L100.492 88.8195C97.6626 90.6444 93.6561 89.1063 91.3624 85.2499L66.4062 49.0888C64.1689 45.326 64.5828 41.0404 67.3102 39.147L99.3072 19.5412C101.363 18.0857 104.845 19.6916 106.784 22.9427L130.809 59.2502C132.77 62.5353 132.563 66.1508 130.535 67.8291L130.535 67.8296Z" fill="#D4D1E9"/>
<path d="M130.459 67.819L100.396 88.8152C97.5664 90.6396 93.5585 89.1001 91.2637 85.2421L66.2912 49.0625C64.0524 45.2982 64.4663 41.0106 67.1947 39.1172L99.2132 19.5051C101.27 18.0496 104.753 19.657 106.694 22.9095L130.733 59.2371C132.695 62.5237 132.495 66.1597 130.459 67.819Z" fill="#D6D3EA"/>
<path d="M130.384 67.809L100.302 88.8121C97.4717 90.6365 93.4617 89.0954 91.1655 85.2355L66.1766 49.0368C63.9368 45.2705 64.3497 40.9814 67.0791 39.088L99.1191 19.4695C101.177 18.014 104.661 19.6224 106.603 22.877L130.658 59.2246C132.621 62.5132 132.426 66.1692 130.384 67.8095L130.384 67.809Z" fill="#D7D4EB"/>
<path d="M130.309 67.7992L100.208 88.8087C97.376 90.6331 93.3646 89.0905 91.0669 85.2286L66.0616 49.0113C63.8203 45.243 64.2332 40.9524 66.9637 39.0586L99.0252 19.4332C101.083 17.9772 104.569 19.5876 106.512 22.8436L130.582 59.2113C132.546 62.5014 132.357 66.1779 130.309 67.7992L130.309 67.7992Z" fill="#D8D5EB"/>
<path d="M130.234 67.7889L100.113 88.8053C97.2802 90.6297 93.2673 89.0856 90.9686 85.2217L65.9474 48.9859C63.7046 45.2156 64.1175 40.9235 66.8485 39.0296L98.9315 19.3979C100.99 17.9419 104.478 19.5533 106.422 22.8113L130.506 59.1991C132.471 62.4906 132.289 66.1877 130.234 67.7894L130.234 67.7889Z" fill="#DAD7EC"/>
<path d="M130.158 67.7788L100.018 88.8016C97.1843 90.6254 93.1693 89.0799 90.8696 85.2144L65.8321 48.96C63.5883 45.1877 64.0007 40.8941 66.7322 38.9998L98.8368 19.3612C100.896 17.9047 104.385 19.5176 106.331 22.7777L130.43 59.1854C132.396 62.479 132.22 66.1961 130.158 67.7788L130.158 67.7788Z" fill="#DBD8ED"/>
<path d="M130.083 67.7691L99.9227 88.7982C97.0881 90.6221 93.0717 89.075 90.771 85.2081L65.7171 48.9346C63.4719 45.1604 63.8838 40.8653 66.6167 38.9709L98.7428 19.3259C100.803 17.8695 104.294 19.4839 106.24 22.7454L130.354 59.1732C132.321 62.4683 132.151 66.2059 130.082 67.7696L130.083 67.7691Z" fill="#DCD9EE"/>
<path d="M130.008 67.7587L99.8284 88.7947C96.9928 90.6186 92.975 89.07 90.6728 85.201L65.6024 48.909C63.3562 45.1327 63.7676 40.8361 66.5011 38.9413L98.6487 19.2895C100.709 17.833 104.202 19.4484 106.149 22.712L130.278 59.1598C132.246 62.4564 132.082 66.2144 130.007 67.7592L130.008 67.7587Z" fill="#DEDBEE"/>
<path d="M129.932 67.7488L99.733 88.7912C96.8965 90.6146 92.8771 89.0645 90.5739 85.1941L65.4877 48.8835C63.24 45.1057 63.6514 40.8071 66.3858 38.9123L98.555 19.2541C100.617 17.7971 104.11 19.4145 106.059 22.6796L130.203 59.1475C132.172 62.4456 132.014 66.2241 129.932 67.7498L129.932 67.7488Z" fill="#DFDCEF"/>
<path d="M129.857 67.7389L99.6391 88.7877C96.802 90.611 92.7807 89.0594 90.476 85.187L65.3734 48.8573C63.1242 45.0775 63.5356 40.7774 66.2706 38.8826L98.4613 19.2175C100.523 17.7606 104.019 19.379 105.968 22.6461L130.127 59.134C132.097 62.4341 131.945 66.2327 129.857 67.7389L129.857 67.7389Z" fill="#E0DDF0"/>
<path d="M129.782 67.7288L99.544 88.7845C96.706 90.6078 92.6831 89.0547 90.3775 85.1803L65.2584 48.8321C63.0083 45.0503 63.4187 40.7487 66.1552 38.8534L98.3674 19.1819C100.43 17.7244 103.927 19.3444 105.878 22.6135L130.051 59.1215C132.022 62.4231 131.877 66.2421 129.782 67.7293L129.782 67.7288Z" fill="#E2DFF1"/>
<path d="M129.706 67.7186L99.4489 88.7806C96.6098 90.6035 92.5855 89.0489 90.2784 85.1729L65.1435 48.8061C62.8918 45.0223 63.3022 40.7187 66.0392 38.8239L98.273 19.1456C100.337 17.6882 103.835 19.3096 105.787 22.5797L129.975 59.1077C131.947 62.4108 131.808 66.2504 129.706 67.7186Z" fill="#E3E0F1"/>
<path d="M129.631 67.7084L99.3546 88.7773C96.5146 90.6002 92.4882 89.0441 90.1801 85.1661L65.0288 48.7803C62.7761 44.9945 63.1861 40.6894 65.9236 38.7941L98.1789 19.1094C100.243 17.6519 103.743 19.2744 105.696 22.5465L129.899 59.0941C131.872 62.3992 131.739 66.2582 129.63 67.7079L129.631 67.7084Z" fill="#E4E1F2"/>
<path d="M129.555 67.6985L99.2593 88.7738C96.4183 90.5966 92.3904 89.039 90.0813 85.1591L64.9137 48.7547C62.6595 44.9669 63.069 40.6603 65.8079 38.765L98.0848 19.0735C100.15 17.6155 103.651 19.24 105.605 22.5135L129.824 59.0812C131.798 62.3878 131.671 66.2673 129.556 67.698L129.555 67.6985Z" fill="#E6E3F3"/>
<path d="M129.48 67.6883L99.165 88.7699C96.323 90.5927 92.2936 89.0336 89.983 85.1517L64.799 48.7287C62.5433 44.9389 62.9528 40.6308 65.6923 38.7355L97.9906 19.0376C100.056 17.5797 103.559 19.2052 105.515 22.4807L129.748 59.0684C131.723 62.3765 131.602 66.2765 129.48 67.6878L129.48 67.6883Z" fill="#E7E4F4"/>
<path d="M129.405 67.6783L99.0703 88.7669C96.2273 90.5892 92.1965 89.0286 89.8849 85.1456L64.6849 48.7036C62.4283 44.9123 62.8373 40.6022 65.5778 38.7064L97.8972 19.0021C99.9633 17.5437 103.468 19.1707 105.425 22.4483L129.673 59.056C131.649 62.3661 131.534 66.2861 129.406 67.6783L129.405 67.6783Z" fill="#E8E5F4"/>
<path d="M129.33 67.6684L98.9753 88.7633C96.1318 90.5856 92.099 89.0234 89.7859 85.1385L64.5696 48.6779C62.3114 44.8846 62.7204 40.573 65.4614 38.6772L97.8023 18.9661C99.8695 17.5077 103.376 19.1362 105.333 22.4152L129.596 59.043C131.573 62.3546 131.464 66.2951 129.329 67.6684L129.33 67.6684Z" fill="#EAE7F5"/>
<path d="M129.518 67.6175L99.1442 88.7188C96.2997 90.5411 92.2654 88.9775 89.9513 85.0905L64.7186 48.6114C62.4595 44.8161 62.8675 40.503 65.61 38.6067L97.9724 18.8892C100.04 17.4308 102.619 17.3188 105 20.4551L129.784 58.9892C131.762 62.3023 131.659 66.2633 129.518 67.6175Z" fill="#EBE8F6"/>
<path d="M115.49 52.7779L92.912 39.4007C92.3437 39.0668 91.6394 39.0712 91.0775 39.4121C90.5087 39.7455 90.1733 40.3685 90.2072 41.0287L91.2612 64.0789C91.2915 64.791 91.7306 65.4225 92.3874 65.6989L102.442 69.9715C103.22 70.2989 104.118 70.0755 104.65 69.4224L115.971 55.565C116.317 55.1444 116.464 54.5936 116.372 54.0552C116.28 53.5205 115.957 53.0529 115.49 52.7767L115.49 52.7779ZM113.999 55.0239L104.392 66.7816C104.099 67.1409 103.53 67.0612 103.353 66.6374L93.5999 43.0477C93.4173 42.6063 93.9078 42.1834 94.3192 42.4267L113.818 53.979C113.993 54.0835 114.114 54.2596 114.149 54.4607C114.184 54.6618 114.129 54.8678 113.999 55.0244L113.999 55.0239Z" fill="url(#paint2_linear_3216_9222)"/>
<path d="M116.562 119.169L123.72 82.5532C124.096 80.6339 122.528 78.8895 120.577 79.0531L61.4679 83.8913C59.4303 84.0625 57.7713 85.596 57.4433 87.6113L50.3003 131.512C50.0216 132.209 49.6289 132.888 48.7681 133.168C47.5643 133.56 46.2511 132.75 46.1443 132.919C46.0166 133.122 47.5949 134.821 50.0139 135.727C52.0593 136.492 53.9167 136.417 54.9997 136.285C74.472 133.47 87.243 131.345 106.715 128.53C111.656 127.815 115.605 124.061 116.562 119.168V119.169Z" fill="#7950ED"/>
<path style="mix-blend-mode:soft-light" opacity="0.4" d="M116.562 119.169L123.72 82.5532C124.096 80.6339 122.528 78.8895 120.577 79.0531L61.4679 83.8913C59.4303 84.0625 57.7713 85.596 57.4433 87.6113L50.3003 131.512C50.0216 132.209 49.6289 132.888 48.7681 133.168C47.5643 133.56 46.2511 132.75 46.1443 132.919C46.0166 133.122 47.5949 134.821 50.0139 135.727C52.0593 136.492 53.9167 136.417 54.9997 136.285C74.472 133.47 87.243 131.345 106.715 128.53C111.656 127.815 115.605 124.061 116.562 119.168V119.169Z" fill="url(#paint3_radial_3216_9222)"/>
<path d="M116.562 119.169L123.72 82.5532C124.096 80.6339 122.528 78.8895 120.577 79.0531L61.4679 83.8913C59.4303 84.0625 57.7713 85.596 57.4433 87.6113L50.3003 131.512C50.0216 132.209 49.6289 132.888 48.7681 133.168C47.5643 133.56 46.2511 132.75 46.1443 132.919C46.0166 133.122 47.5949 134.821 50.0139 135.727C52.0593 136.492 53.9167 136.417 54.9997 136.285C74.472 133.47 87.243 131.345 106.715 128.53C111.656 127.815 115.605 124.061 116.562 119.168V119.169Z" fill="url(#paint4_linear_3216_9222)" style="mix-blend-mode:multiply"/>
</g>
<defs>
<filter id="filter0_d_3216_9222" x="33.609" y="46.5823" width="105.811" height="103.798" filterUnits="userSpaceOnUse" color-interpolation-filters="sRGB">
<feFlood flood-opacity="0" result="BackgroundImageFix"/>
<feColorMatrix in="SourceAlpha" type="matrix" values="0 0 0 0 0 0 0 0 0 0 0 0 0 0 0 0 0 0 127 0" result="hardAlpha"/>
<feOffset dx="10" dy="1"/>
<feGaussianBlur stdDeviation="6.5"/>
<feComposite in2="hardAlpha" operator="out"/>
<feColorMatrix type="matrix" values="0 0 0 0 0 0 0 0 0 0 0 0 0 0 0 0 0 0 0.25 0"/>
<feBlend mode="normal" in2="BackgroundImageFix" result="effect1_dropShadow_3216_9222"/>
<feBlend mode="normal" in="SourceGraphic" in2="effect1_dropShadow_3216_9222" result="shape"/>
</filter>
<filter id="filter1_f_3216_9222" x="30.0864" y="61.7255" width="102.334" height="88.3666" filterUnits="userSpaceOnUse" color-interpolation-filters="sRGB">
<feFlood flood-opacity="0" result="BackgroundImageFix"/>
<feBlend mode="normal" in="SourceGraphic" in2="BackgroundImageFix" result="shape"/>
<feGaussianBlur stdDeviation="8" result="effect1_foregroundBlur_3216_9222"/>
</filter>
<filter id="filter2_f_3216_9222" x="58.1203" y="42.8696" width="72.2075" height="67.8784" filterUnits="userSpaceOnUse" color-interpolation-filters="sRGB">
<feFlood flood-opacity="0" result="BackgroundImageFix"/>
<feBlend mode="normal" in="SourceGraphic" in2="BackgroundImageFix" result="shape"/>
<feGaussianBlur stdDeviation="8.5" result="effect1_foregroundBlur_3216_9222"/>
</filter>
<linearGradient id="paint0_linear_3216_9222" x1="77.2201" y1="76.1561" x2="86.1214" y2="131.432" gradientUnits="userSpaceOnUse">
<stop stop-color="#A787FF"/>
<stop offset="1" stop-color="#7950ED"/>
</linearGradient>
<linearGradient id="paint1_linear_3216_9222" x1="62.2424" y1="53.9248" x2="79.5865" y2="130.937" gradientUnits="userSpaceOnUse">
<stop stop-color="#A787FF"/>
<stop offset="0.463542" stop-color="#B79DFF"/>
<stop offset="0.98" stop-color="#7950ED"/>
</linearGradient>
<linearGradient id="paint2_linear_3216_9222" x1="116.706" y1="53.4281" x2="79.6813" y2="59.388" gradientUnits="userSpaceOnUse">
<stop stop-color="#7950ED"/>
<stop offset="1" stop-color="#A787FF"/>
</linearGradient>
<radialGradient id="paint3_radial_3216_9222" cx="0" cy="0" r="1" gradientUnits="userSpaceOnUse" gradientTransform="translate(64.5508 75.5955) rotate(-4.5829) scale(81.1756 81.0511)">
<stop stop-color="#A787FF"/>
<stop offset="1" stop-color="#7950ED"/>
</radialGradient>
<linearGradient id="paint4_linear_3216_9222" x1="80.5046" y1="77.4462" x2="88.8774" y2="133.879" gradientUnits="userSpaceOnUse">
<stop stop-color="#A787FF"/>
<stop offset="0.588542" stop-color="#9877F2"/>
<stop offset="1" stop-color="#7950ED"/>
</linearGradient>
<clipPath id="clip0_3216_9222">
<rect width="150" height="150" fill="white"/>
</clipPath>
</defs>
</svg>
