<svg width="101" height="100" viewBox="0 0 101 100" fill="none" xmlns="http://www.w3.org/2000/svg">
<path d="M56.1426 71H68.8926C70.5502 71 72.1399 70.3468 73.312 69.1841C74.4841 68.0213 75.1426 66.4443 75.1426 64.8V27.2353L56.6241 9H31.3926C29.735 9 28.1453 9.65321 26.9732 10.8159C25.8011 11.9787 25.1426 13.5557 25.1426 15.2V64.8C25.1426 66.4443 25.8011 68.0213 26.9732 69.1841C28.1453 70.3468 29.735 71 31.3926 71H43.6426" stroke="#B5B9CB" stroke-linecap="round" stroke-linejoin="round"/>
<path d="M56.1426 9V27H75.1426" stroke="#B5B9CB" stroke-linecap="round" stroke-linejoin="round"/>
<path d="M54.327 52.9996H56.199L51.111 44.6236L56.223 36.2236H54.351L50.247 43.2076L45.999 36.2236H44.127L49.191 44.5516L44.127 52.9996H45.999L50.055 45.9916L54.327 52.9996Z" fill="#B5B9CB"/>
<path d="M50.1426 67L50.1426 92" stroke="#8F5BFF" stroke-linecap="round" stroke-linejoin="round"/>
<path d="M60.6426 82L50.1426 92.5L39.6426 82" stroke="#8F5BFF" stroke-linecap="round" stroke-linejoin="round"/>
</svg>
