<svg width="40" height="40" viewBox="0 0 40 40" fill="none" xmlns="http://www.w3.org/2000/svg">
    <path d="M22.4 28.4668H27.5C28.163 28.4668 28.7989 28.2055 29.2678 27.7404C29.7366 27.2753 30 26.6445 30 25.9868V10.9609L22.5926 3.66675H12.5C11.837 3.66675 11.2011 3.92803 10.7322 4.39312C10.2634 4.85821 10 5.48901 10 6.14675V25.9868C10 26.6445 10.2634 27.2753 10.7322 27.7404C11.2011 28.2055 11.837 28.4668 12.5 28.4668H17.4" stroke="#A3A8B8" stroke-linecap="round" stroke-linejoin="round"/>
    <path d="M22.4001 3.66675V10.8667H30.0001" stroke="#A3A8B8" stroke-linecap="round" stroke-linejoin="round"/>
    <path d="M21.8307 21.0669H22.6561L20.4127 18.0712L22.6667 15.0669H21.8413L20.0318 17.5647L18.1587 15.0669H17.3333L19.5661 18.0454L17.3333 21.0669H18.1587L19.9471 18.5605L21.8307 21.0669Z" fill="#A3A8B8"/>
    <path d="M19.9997 27.0669L19.9997 36.4002" stroke="#A3A8B8" stroke-linecap="round" stroke-linejoin="round"/>
    <path d="M23.3331 33.3479L19.9999 36.6811L16.6667 33.3479" stroke="#A3A8B8" stroke-linecap="round" stroke-linejoin="round"/>
</svg>
