<svg width="222" height="222" viewBox="0 0 222 222" fill="none" xmlns="http://www.w3.org/2000/svg">
<path opacity="0.4545" d="M111.002 182.173C150.309 182.173 182.173 150.309 182.173 111.002C182.173 71.6954 150.309 39.8312 111.002 39.8312C71.6958 39.8312 39.8315 71.6954 39.8315 111.002C39.8315 150.309 71.6958 182.173 111.002 182.173Z" stroke="white" stroke-opacity="0.1" stroke-miterlimit="10"/>
<path opacity="0.3636" d="M110.997 191.879C155.665 191.879 191.875 155.669 191.875 111.001C191.875 66.3333 155.665 30.1229 110.997 30.1229C66.3295 30.1229 30.1191 66.3333 30.1191 111.001C30.1191 155.669 66.3295 191.879 110.997 191.879Z" stroke="white" stroke-opacity="0.1" stroke-miterlimit="10"/>
<path opacity="0.2727" d="M111.01 201.586C161.039 201.586 201.596 161.03 201.596 111.001C201.596 60.9718 161.039 20.4153 111.01 20.4153C60.9815 20.4153 20.425 60.9718 20.425 111.001C20.425 161.03 60.9815 201.586 111.01 201.586Z" stroke="white" stroke-opacity="0.1" stroke-miterlimit="10"/>
<path opacity="0.1818" d="M111.005 210.335C166.395 210.335 211.298 165.432 211.298 110.042C211.298 54.6523 166.395 9.74969 111.005 9.74969C55.615 9.74969 10.7124 54.6523 10.7124 110.042C10.7124 165.432 55.615 210.335 111.005 210.335Z" stroke="white" stroke-opacity="0.1" stroke-miterlimit="10"/>
<path opacity="0.0909091" d="M111 221C171.751 221 221 171.751 221 111C221 50.2487 171.751 1 111 1C50.2487 1 1 50.2487 1 111C1 171.751 50.2487 221 111 221Z" stroke="white" stroke-opacity="0.1" stroke-miterlimit="10"/>
<path d="M186.476 84.224C188.682 84.0919 190.362 82.1972 190.229 79.9921C190.096 77.7869 188.2 76.1064 185.994 76.2384C183.788 76.3705 182.108 78.2652 182.241 80.4703C182.373 82.6754 184.269 84.356 186.476 84.224Z" fill="#F85B6E"/>
<path d="M147.488 28.0177C147.031 29.3294 145.616 30.0134 144.304 29.5567C142.991 29.0999 142.306 27.6851 142.763 26.3734C143.219 25.0617 144.635 24.3777 145.947 24.8345C147.216 25.276 147.944 26.706 147.488 28.0177Z" fill="#20A4F3"/>
<path d="M30.3834 167.968C30.0959 169.041 29.0067 169.669 27.9329 169.382C26.8591 169.094 26.2301 168.005 26.5176 166.932C26.8052 165.859 27.8943 165.23 28.9682 165.518C30.0062 165.796 30.671 166.894 30.3834 167.968Z" fill="#53DBEE"/>
<circle cx="110.897" cy="111.103" r="62.3971" fill="#15192C"/>
<path d="M110.022 137C110.574 137 111.022 136.552 111.022 136C111.022 135.447 110.574 135 110.022 135V137ZM106.218 120.654C106.77 120.654 107.218 120.206 107.218 119.654C107.218 119.101 106.77 118.654 106.218 118.654V120.654ZM110.022 135H92V137H110.022V135ZM92 87H126.142V85H92V87ZM126.142 87V102.308H128.142V87H126.142ZM92 103.308V87H90V103.308H92ZM126.142 102.308H91V104.308H126.142V102.308ZM92 135V119.654H90V135H92ZM92 119.654V103.308H90V119.654H92ZM91 120.654H106.218V118.654H91V120.654ZM126.142 102.308V102.308V104.308C127.246 104.308 128.142 103.412 128.142 102.308H126.142ZM126.142 87H128.142C128.142 85.8954 127.246 85 126.142 85V87ZM92 85C90.8954 85 90 85.8954 90 87H92V87V85ZM92 135H92H90C90 136.104 90.8954 137 92 137V135Z" fill="#2C3249"/>
<path d="M123.337 118.692V124.461L127.902 126.769M123.337 135.999C129.64 135.999 134.75 130.833 134.75 124.461C134.75 118.088 129.64 112.922 123.337 112.922C117.033 112.922 111.923 118.088 111.923 124.461C111.923 130.833 117.033 135.999 123.337 135.999Z" stroke="#2C3249" stroke-width="2" stroke-linecap="round" stroke-linejoin="round"/>
<circle cx="102.719" cy="94.5937" r="2.34374" fill="#2C3249"/>
<circle cx="110.327" cy="94.5937" r="2.34374" fill="#2C3249"/>
<circle cx="117.936" cy="94.5937" r="2.34374" fill="#2C3249"/>
</svg>
