<svg width="124" height="125" viewBox="0 0 124 125" fill="none" xmlns="http://www.w3.org/2000/svg">
<path d="M30 35.2896C31.9285 35.2005 33.8206 35.1648 35.6763 35.0222C44.9913 34.3267 53.7787 31.9195 61.7474 27.0158C62.2932 26.677 62.6389 26.7126 63.1665 27.0336C70.0072 31.2062 77.4846 33.6135 85.4351 34.612C88.2551 34.9687 91.1296 35.04 93.986 35.2362C94.1679 35.254 94.3498 35.254 94.6591 35.2718C94.7501 36.8232 94.8956 38.3567 94.9502 39.8902C95.114 45.5963 94.8956 51.2846 93.9678 56.9194C92.7852 64.0699 90.8021 70.9529 87.2908 77.3723C83.0882 85.0578 77.1571 91.067 69.2612 95.097C67.2054 96.1491 64.9858 96.8802 62.839 97.7182C62.6207 97.8074 62.3296 97.7896 62.1112 97.7004C51.3226 93.4565 42.6808 86.7875 37.3319 76.4808C35.0396 72.112 33.5841 67.4223 32.5471 62.6256C31.3827 57.1691 30.7823 51.6591 30.4548 46.0956C30.2547 42.7076 30.1455 39.3196 30 35.9138C30 35.6998 30 35.4858 30 35.2896Z" stroke="#8F5BFF"/>
<path d="M71.4492 59.853V52.589C71.4515 50.3373 70.617 48.1651 69.1077 46.494C67.5985 44.8229 65.5222 43.7723 63.2818 43.546C61.0415 43.3197 58.797 43.9339 56.9841 45.2694C55.1711 46.6049 53.9191 48.5664 53.471 50.7731" stroke="#7E89AD" stroke-linecap="round" stroke-linejoin="round"/>
<circle cx="63" cy="68.5" r="12" stroke="#7E89AD"/>
<circle cx="63" cy="68.5" r="8" stroke="#7E89AD"/>
</svg>
