<svg width="100" height="100" viewBox="0 0 100 100" fill="none" xmlns="http://www.w3.org/2000/svg">
<path d="M80.7808 50V87.037H20.0762V50" stroke="#B5B9CB" stroke-linecap="round" stroke-linejoin="round"/>
<path d="M50.4277 85.7724L50.4277 48.916" stroke="#B5B9CB" stroke-linecap="round" stroke-linejoin="round"/>
<path d="M50.338 31.4814H33.6714C31.2157 31.4814 28.8605 30.5059 27.1241 28.7694C25.3876 27.033 24.4121 24.6779 24.4121 22.2221C24.4121 19.7664 25.3876 17.4113 27.1241 15.6749C28.8605 13.9384 31.2157 12.9629 33.6714 12.9629C46.6343 12.9629 50.338 31.4814 50.338 31.4814Z" stroke="#8D64FF" stroke-linecap="round" stroke-linejoin="round"/>
<path d="M50.3379 31.4814H67.0046C69.4603 31.4814 71.8154 30.5059 73.5518 28.7694C75.2883 27.033 76.2638 24.6779 76.2638 22.2221C76.2638 19.7664 75.2883 17.4113 73.5518 15.6749C71.8154 13.9384 69.4603 12.9629 67.0046 12.9629C54.0416 12.9629 50.3379 31.4814 50.3379 31.4814Z" stroke="#8D64FF" stroke-linecap="round" stroke-linejoin="round"/>
<path d="M85.1169 31.5713H15.7402V48.9155H85.1169V31.5713Z" stroke="#8D64FF" stroke-linecap="round" stroke-linejoin="round"/>
</svg>
