<svg width="252" height="251" viewBox="0 0 252 251" fill="none" xmlns="http://www.w3.org/2000/svg">
<path opacity="0.4545" d="M126 206.75C170.873 206.75 207.25 170.373 207.25 125.5C207.25 80.6269 170.873 44.25 126 44.25C81.1269 44.25 44.75 80.6269 44.75 125.5C44.75 170.373 81.1269 206.75 126 206.75Z" stroke="white" stroke-opacity="0.25" stroke-miterlimit="10"/>
<path opacity="0.3636" d="M126 217.375C176.741 217.375 217.875 176.241 217.875 125.5C217.875 74.7588 176.741 33.625 126 33.625C75.2588 33.625 34.125 74.7588 34.125 125.5C34.125 176.241 75.2588 217.375 126 217.375Z" stroke="white" stroke-opacity="0.25" stroke-miterlimit="10"/>
<path opacity="0.2727" d="M126 228.625C182.954 228.625 229.125 182.454 229.125 125.5C229.125 68.5456 182.954 22.375 126 22.375C69.0456 22.375 22.875 68.5456 22.875 125.5C22.875 182.454 69.0456 228.625 126 228.625Z" stroke="white" stroke-opacity="0.25" stroke-miterlimit="10"/>
<path opacity="0.1818" d="M126 239.25C188.822 239.25 239.75 188.322 239.75 125.5C239.75 62.6776 188.822 11.75 126 11.75C63.1776 11.75 12.25 62.6776 12.25 125.5C12.25 188.322 63.1776 239.25 126 239.25Z" stroke="white" stroke-opacity="0.25" stroke-miterlimit="10"/>
<path opacity="0.0909091" d="M126 250.5C195.036 250.5 251 194.536 251 125.5C251 56.4644 195.036 0.5 126 0.5C56.9644 0.5 1 56.4644 1 125.5C1 194.536 56.9644 250.5 126 250.5Z" stroke="white" stroke-opacity="0.25" stroke-miterlimit="10"/>
<circle cx="126" cy="125.5" r="70" fill="#7950ED"/>
<path d="M210.474 92.105C212.679 91.973 214.359 90.0784 214.226 87.8733C214.093 85.6681 212.198 83.9875 209.993 84.1195C207.788 84.2515 206.108 86.1461 206.241 88.3513C206.373 90.5564 208.269 92.237 210.474 92.105Z" fill="#F85B6E"/>
<path d="M45.3566 126.168C47.0112 126.069 48.2717 124.648 48.172 122.995C48.0724 121.341 46.6503 120.08 44.9958 120.179C43.3413 120.278 42.0808 121.699 42.1804 123.353C42.2801 125.007 43.7021 126.267 45.3566 126.168Z" fill="#FFBD70"/>
<path d="M174.437 34.2043C174.072 35.2537 172.94 35.8009 171.89 35.4355C170.84 35.0701 170.292 33.9382 170.657 32.8889C171.023 31.8395 172.155 31.2923 173.205 31.6577C174.22 32.011 174.802 33.155 174.437 34.2043Z" fill="#20A4F3"/>
<path d="M198.219 214.602C198.036 215.127 197.47 215.4 196.945 215.218C196.42 215.035 196.146 214.469 196.329 213.944C196.511 213.42 197.077 213.146 197.602 213.329C198.11 213.505 198.401 214.077 198.219 214.602Z" fill="white"/>
<path d="M47.9533 204.418C47.2344 207.101 44.5127 208.672 41.8296 207.953C39.1464 207.234 37.5751 204.513 38.294 201.83C39.013 199.146 41.7346 197.575 44.4178 198.294C47.0115 198.989 48.6722 201.735 47.9533 204.418Z" fill="#31C587"/>
</svg>
