<svg width="124" height="125" viewBox="0 0 124 125" fill="none" xmlns="http://www.w3.org/2000/svg">
<line x1="45" y1="62" x2="58" y2="62" stroke="white"/>
<line x1="66" y1="62" x2="78" y2="62" stroke="white"/>
<circle cx="62" cy="62.5" r="4.5" stroke="white"/>
<circle cx="100" cy="62.5" r="22" stroke="#8F5BFF"/>
<g clip-path="url(#clip0)">
<path fill-rule="evenodd" clip-rule="evenodd" d="M100.051 51.4551C94.2379 51.4551 89.5386 56.1757 89.5386 62.0153C89.5386 66.6835 92.5496 70.6349 96.7268 72.0336C97.2489 72.1385 97.4404 71.8063 97.4404 71.5266C97.4404 71.2818 97.423 70.4426 97.423 69.5684C94.499 70.1978 93.8898 68.3096 93.8898 68.3096C93.4199 67.0857 92.7237 66.771 92.7237 66.771C91.7664 66.1241 92.7933 66.1241 92.7933 66.1241C93.855 66.194 94.4119 67.2081 94.4119 67.2081C95.3518 68.8166 96.866 68.362 97.4752 68.0823C97.5622 67.4004 97.8407 66.9283 98.1366 66.6661C95.8043 66.4213 93.3502 65.5121 93.3502 61.4559C93.3502 60.3019 93.768 59.3578 94.4293 58.6235C94.3249 58.3612 93.9594 57.2772 94.5338 55.8261C94.5338 55.8261 95.4214 55.5463 97.423 56.9101C98.2584 56.6828 99.1635 56.5604 100.051 56.5604C100.939 56.5604 101.844 56.6828 102.679 56.9101C104.681 55.5463 105.568 55.8261 105.568 55.8261C106.143 57.2772 105.777 58.3612 105.673 58.6235C106.352 59.3578 106.752 60.3019 106.752 61.4559C106.752 65.5121 104.298 66.4038 101.948 66.6661C102.331 66.9983 102.662 67.6277 102.662 68.6243C102.662 70.0405 102.644 71.1769 102.644 71.5266C102.644 71.8063 102.836 72.1385 103.358 72.0336C107.535 70.6349 110.546 66.6835 110.546 62.0153C110.564 56.1757 105.847 51.4551 100.051 51.4551Z" fill="#B7BAC7"/>
<path d="M93.5244 66.6137C93.507 66.6661 93.42 66.6836 93.3504 66.6486C93.2807 66.6137 93.2285 66.5437 93.2633 66.4913C93.2807 66.4388 93.3678 66.4213 93.4374 66.4563C93.507 66.4913 93.5418 66.5612 93.5244 66.6137Z" fill="#B7BAC7"/>
<path d="M93.942 67.0856C93.8898 67.1381 93.7854 67.1031 93.7331 67.0332C93.6635 66.9632 93.6461 66.8583 93.6983 66.8059C93.7505 66.7534 93.8376 66.7884 93.9072 66.8583C93.9768 66.9458 93.9942 67.0507 93.942 67.0856Z" fill="#B7BAC7"/>
<path d="M94.3598 67.6976C94.2902 67.7501 94.1857 67.6976 94.1335 67.6102C94.0639 67.5228 94.0639 67.4004 94.1335 67.3654C94.2031 67.313 94.3076 67.3654 94.3598 67.4528C94.4294 67.5402 94.4294 67.6451 94.3598 67.6976Z" fill="#B7BAC7"/>
<path d="M94.9341 68.2922C94.8819 68.3621 94.7601 68.3446 94.6557 68.2572C94.5686 68.1698 94.5338 68.0474 94.6034 67.9949C94.6557 67.925 94.7775 67.9425 94.8819 68.0299C94.9689 68.0998 94.9864 68.2222 94.9341 68.2922Z" fill="#B7BAC7"/>
<path d="M95.7173 68.6242C95.6999 68.7116 95.5781 68.7466 95.4562 68.7116C95.3344 68.6767 95.2648 68.5718 95.2822 68.5018C95.2996 68.4144 95.4214 68.3794 95.5433 68.4144C95.6651 68.4494 95.7347 68.5368 95.7173 68.6242Z" fill="#B7BAC7"/>
<path d="M96.5701 68.6942C96.5701 68.7816 96.4657 68.8516 96.3438 68.8516C96.222 68.8516 96.1176 68.7816 96.1176 68.6942C96.1176 68.6068 96.222 68.5369 96.3438 68.5369C96.4657 68.5369 96.5701 68.6068 96.5701 68.6942Z" fill="#B7BAC7"/>
<path d="M97.3708 68.5543C97.3882 68.6417 97.3011 68.7292 97.1793 68.7467C97.0575 68.7641 96.953 68.7117 96.9356 68.6243C96.9182 68.5368 97.0052 68.4494 97.1271 68.4319C97.2489 68.4145 97.3533 68.4669 97.3708 68.5543Z" fill="#B7BAC7"/>
</g>
<circle cx="23" cy="62.5" r="22" stroke="#8F5BFF"/>
<path d="M12.343 61.85C12.343 66.9431 16.1392 71.1057 21.0304 71.6933V52.0067C16.1392 52.5944 12.343 56.7815 12.343 61.85Z" fill="#B7BAC7"/>
<path d="M32.0542 61.85C32.0542 56.757 28.2094 52.5454 23.2939 52.0067V71.7178H32.0542V62.1439C32.0542 62.0459 32.0542 61.948 32.0542 61.85Z" fill="#B7BAC7"/>
<defs>
<clipPath id="clip0">
<rect width="21.0251" height="20.596" fill="white" transform="translate(89.5386 51.4551)"/>
</clipPath>
</defs>
</svg>
