<svg width="73" height="75" viewBox="0 0 73 75" fill="none" xmlns="http://www.w3.org/2000/svg">
<path d="M36 55.5555C49.8071 55.5555 61 44.3627 61 30.5555C61 16.7484 49.8071 5.55554 36 5.55554C22.1929 5.55554 11 16.7484 11 30.5555C11 44.3627 22.1929 55.5555 36 55.5555Z" fill="#F4F4F7"/>
<path d="M35.3672 50.0948C35.8155 51.8009 35.9924 53.5663 35.8862 55.3317C35.8626 55.699 35.8508 56.0189 35.7683 56.3507C35.6975 56.6351 35.6031 56.872 35.3908 57.0379C35.3318 57.0853 35.1784 57.1445 35.0604 57.1682C34.8481 57.1919 34.6358 57.1682 34.4234 57.1445C34.1049 57.109 33.7628 57.0497 33.4325 56.955C32.819 56.7772 32.2999 56.4573 32.005 55.8886C31.7101 55.3317 31.6039 54.6327 31.2972 54.0521C30.9197 53.3531 30.2473 52.9621 29.4805 52.808C28.7726 52.6659 28.0058 52.6895 27.3216 52.9621C26.5548 53.2701 25.9532 53.827 25.67 54.6208C25.4105 55.3317 25.4695 56.1967 25.9296 56.8128C26.0475 56.9668 26.2363 57.0497 26.4132 56.9431C26.5666 56.8602 26.661 56.6114 26.543 56.4573C26.1773 55.9715 26.1419 55.391 26.3542 54.8104C26.4368 54.5616 26.6138 54.3009 26.8025 54.1114C27.0267 53.8981 27.3098 53.7204 27.5929 53.6137C28.2418 53.3768 28.9614 53.3768 29.6102 53.5663C29.9287 53.6611 30.2355 53.8151 30.4596 54.0758C30.6248 54.2654 30.7663 54.5616 30.8607 54.8104C31.0967 55.4502 31.2382 56.1256 31.6629 56.6587C32.1112 57.2393 32.8072 57.5355 33.5032 57.7014C33.8572 57.7843 34.2229 57.8317 34.5886 57.8673C34.9897 57.9028 35.4144 57.8673 35.7447 57.6422C36.3463 57.2275 36.4879 56.4573 36.5469 55.7701C36.7238 53.8033 36.5351 51.8009 36.0396 49.8933C35.9334 49.4668 35.2492 49.6564 35.3672 50.0948Z" fill="#7950ED"/>
<path d="M27.0151 52.9621C25.5287 52.2038 23.7591 52.1209 22.1901 52.6659C20.5031 53.2464 19.1465 54.4787 18.4977 56.1611C17.8016 57.9621 18.2263 60.0119 19.5358 61.4218C20.8335 62.8081 22.8744 63.2701 24.6675 62.6896C25.1158 62.5355 25.5523 62.3223 25.9416 62.0498C26.1421 61.9076 26.3309 61.7536 26.5314 61.6351C26.7438 61.5166 26.9561 61.4573 27.1921 61.4455C27.7583 61.41 28.3246 61.4337 28.8908 61.4337C29.4807 61.4337 30.0823 61.4337 30.6722 61.4337C33.008 61.4337 35.3556 61.4337 37.6914 61.4218C38.8711 61.4218 40.039 61.4218 41.2187 61.4218C42.363 61.4218 43.4956 61.41 44.6399 61.4692C45.7606 61.5166 46.8695 61.6351 47.9666 61.8839C49.0166 62.1209 50.0901 62.5711 51.1872 62.3223C52.0838 62.1209 52.7208 61.4218 53.0511 60.5924C53.4051 59.7038 53.3343 58.7085 53.0276 57.8081C52.8506 57.2867 52.6147 56.7891 52.3551 56.3152C52.1192 55.8886 51.8832 55.4621 51.6001 55.0711C51.0457 54.3128 50.267 53.7441 49.2879 53.91C48.875 53.981 48.5211 54.218 48.2969 54.5616C48.0492 54.9408 48.6627 55.2962 48.9104 54.9171C49.0756 54.6564 49.3941 54.5735 49.7008 54.5853C50.0429 54.5972 50.3496 54.7512 50.6092 54.9882C50.9159 55.2725 51.1518 55.628 51.3642 55.9953C51.6119 56.41 51.8596 56.8365 52.0602 57.2749C52.4377 58.0687 52.709 58.981 52.5321 59.8578C52.3905 60.545 52.0012 61.2322 51.3288 61.5284C50.4204 61.9194 49.3705 61.4929 48.4857 61.2678C47.4594 61.0071 46.3976 60.8649 45.3477 60.7938C43.1888 60.6398 41.0064 60.7109 38.8475 60.7109C36.6297 60.7109 34.4118 60.7109 32.194 60.7228C31.0969 60.7228 29.9998 60.7228 28.9026 60.7228C28.3482 60.7228 27.7937 60.6991 27.2392 60.7346C26.7202 60.7583 26.2955 60.9242 25.8708 61.2322C25.5287 61.481 25.1866 61.7299 24.7855 61.8957C24.408 62.0498 23.9951 62.1682 23.594 62.2038C22.7564 62.2867 21.8834 62.1564 21.1402 61.7654C19.7245 61.0071 18.8162 59.4194 18.887 57.8081C18.9577 56.1374 19.9959 54.6327 21.4233 53.8152C22.6974 53.0806 24.2546 52.8436 25.6702 53.2109C26.0242 53.3057 26.3545 53.4242 26.673 53.59C27.0623 53.7915 27.428 53.1754 27.0151 52.9621Z" fill="#7950ED"/>
<path d="M48.8632 57.4526C49.2407 56.0663 49.5239 54.218 48.0964 53.3175C47.4712 52.9265 46.6572 52.8199 45.9258 52.891C45.2415 52.9621 44.5455 53.1635 43.991 53.5782C43.3658 54.0284 42.9883 54.6564 42.8821 55.4265C42.7878 56.1967 42.9057 57.0261 42.4102 57.6777C42.2097 57.9384 41.9148 58.1161 41.6081 58.1635C41.4665 58.1872 41.3367 58.1754 41.2069 58.128C41.0654 58.0806 40.971 58.0095 40.8648 57.9028C40.8059 57.8436 40.8176 57.8555 40.7587 57.7725C40.7233 57.7133 40.6879 57.6422 40.6525 57.5711C40.6761 57.6303 40.6289 57.5118 40.6289 57.5118C40.6171 57.4763 40.6053 57.4408 40.5935 57.4052C40.5699 57.3341 40.5581 57.2512 40.5345 57.1801C40.5109 57.0498 40.4991 56.9194 40.4873 56.7536C40.4755 56.5758 40.4755 56.3981 40.4873 56.2204C40.5699 54.0758 40.6997 51.9431 40.8176 49.7986C40.8294 49.609 40.6525 49.4431 40.4637 49.4431C40.2632 49.4431 40.1216 49.609 40.1098 49.7986C40.0154 51.718 39.9093 53.6493 39.8149 55.5687C39.7795 56.2796 39.6969 57.0616 39.9565 57.7488C40.216 58.4479 40.8294 58.9455 41.5963 58.8744C42.4574 58.7915 43.0591 58.1517 43.3422 57.3697C43.4838 56.9668 43.5192 56.5403 43.531 56.1137C43.5428 55.9005 43.5428 55.6872 43.5664 55.4858C43.5782 55.391 43.6017 55.2962 43.6253 55.2014C43.6371 55.154 43.6489 55.1185 43.6607 55.0711C43.6607 55.0592 43.7079 54.9408 43.6961 54.9763C43.9321 54.4313 44.4393 54.0403 44.9702 53.8389C45.5719 53.6019 46.2089 53.5308 46.8341 53.6374C47.2116 53.6967 47.6009 53.827 47.8959 54.0758C48.1672 54.3246 48.3206 54.609 48.4031 54.9645C48.5683 55.6991 48.3677 56.5284 48.1672 57.2749C48.061 57.7014 48.7453 57.891 48.8632 57.4526Z" fill="#7950ED"/>
<path d="M22.0957 56.8128C21.0694 56.9076 20.5857 58.0806 20.8924 58.9929C21.2581 60.083 22.485 60.4858 23.5114 60.628C24.0658 60.7109 24.9152 60.5806 24.9034 59.846C24.9034 59.3839 24.1956 59.3839 24.1956 59.846C24.1956 59.9052 24.1956 59.846 24.1956 59.846C24.1956 59.846 24.1838 59.9052 24.1956 59.8578C24.2074 59.8104 24.1602 59.8934 24.1956 59.8578C24.231 59.8223 24.1838 59.8697 24.1838 59.8697C24.1838 59.8697 24.231 59.846 24.1838 59.8697C24.1602 59.8815 24.1484 59.8934 24.1248 59.9052C24.172 59.8815 24.0658 59.9171 24.0422 59.9289C23.9125 59.9645 23.7355 59.9526 23.594 59.9408C23.1929 59.8815 22.7564 59.7868 22.4025 59.609C22.0485 59.4431 21.7536 59.218 21.5767 58.8626C21.5649 58.827 21.5767 58.8626 21.5767 58.8744C21.5649 58.8507 21.5649 58.827 21.5531 58.8152C21.5413 58.7796 21.5295 58.7441 21.5177 58.6967C21.5059 58.6612 21.5059 58.6138 21.4941 58.5782C21.5059 58.6375 21.4941 58.519 21.4941 58.5071C21.4941 58.4597 21.4941 58.4123 21.4941 58.365C21.4941 58.3413 21.5059 58.2465 21.4941 58.2702C21.4941 58.2939 21.5059 58.2109 21.5059 58.1872C21.5177 58.1398 21.5295 58.1043 21.5413 58.0569C21.5767 57.9266 21.6592 57.7844 21.7536 57.6896C21.7654 57.6777 21.8598 57.6067 21.8008 57.6422C21.8362 57.6185 21.8716 57.5948 21.907 57.583C21.966 57.5474 21.9188 57.5711 21.907 57.583C21.9306 57.5711 21.9542 57.5711 21.9778 57.5593C21.9896 57.5593 22.0132 57.5474 22.025 57.5474C22.1193 57.5237 21.966 57.5474 22.0603 57.5356C22.2491 57.5237 22.4143 57.3815 22.4143 57.1801C22.4496 56.9905 22.2845 56.7891 22.0957 56.8128Z" fill="#7950ED"/>
<path d="M53.2637 51.173C53.2755 51.1848 53.2873 51.1848 53.3109 51.1967C53.3227 51.1967 53.3227 51.2085 53.3344 51.2085C53.3698 51.2204 53.2873 51.173 53.2991 51.173C53.3227 51.173 53.3698 51.2322 53.3816 51.244C53.3816 51.244 53.3934 51.2559 53.3934 51.2677C53.417 51.2914 53.358 51.2204 53.358 51.2322C53.3698 51.2322 53.3816 51.2677 53.3816 51.2677C53.4052 51.3033 53.417 51.327 53.4406 51.3625C53.4642 51.4099 53.417 51.2796 53.4288 51.3388C53.4288 51.3507 53.4406 51.3744 53.4406 51.3862C53.4524 51.4218 53.4642 51.4573 53.4642 51.4929C53.476 51.5521 53.4524 51.4099 53.4642 51.4573C53.4642 51.4692 53.4642 51.4929 53.4642 51.5047C53.4642 51.5403 53.4642 51.5758 53.4642 51.6232V51.6706C53.4642 51.6706 53.476 51.5877 53.476 51.6113C53.476 51.6232 53.476 51.6232 53.476 51.635C53.4642 51.6706 53.4642 51.7061 53.4524 51.7417C53.4524 51.7535 53.4406 51.7891 53.4406 51.7891C53.4406 51.7891 53.476 51.7061 53.4642 51.7417C53.4642 51.7535 53.4524 51.7535 53.4524 51.7654C53.4406 51.8009 53.417 51.8246 53.3934 51.8602C53.3698 51.9076 53.4524 51.8009 53.4052 51.8365C53.3934 51.8483 53.3816 51.8602 53.3698 51.872C53.358 51.8839 53.3462 51.8957 53.3344 51.9076C53.3344 51.9076 53.3227 51.9194 53.3109 51.9194C53.2873 51.9431 53.3934 51.8602 53.3344 51.8957C53.3109 51.9194 53.2755 51.9312 53.2519 51.9431C53.2401 51.9431 53.2401 51.9549 53.2283 51.9549C53.1929 51.9668 53.2755 51.9312 53.2755 51.9312C53.2755 51.9431 53.2283 51.9431 53.2165 51.9549C53.1929 51.9549 53.1811 51.9668 53.1575 51.9668C53.1457 51.9668 53.1457 51.9668 53.1339 51.9668C53.0985 51.9786 53.1929 51.9549 53.1929 51.9549C53.1929 51.9668 53.0985 51.9549 53.0867 51.9549C53.0749 51.9549 53.0395 51.9549 53.0277 51.9549C53.0277 51.9549 53.1103 51.9668 53.0749 51.9668C53.0631 51.9668 53.0631 51.9668 53.0513 51.9668C53.0159 51.9549 52.9805 51.9549 52.9451 51.9431C52.9216 51.9431 52.9098 51.9313 52.8862 51.9194C52.8272 51.8957 52.9569 51.9549 52.9098 51.9312C52.8744 51.9194 52.8508 51.8957 52.8154 51.8839C52.8036 51.872 52.7918 51.8602 52.7682 51.8602C52.7092 51.8128 52.8154 51.9076 52.78 51.872C52.7564 51.8483 52.721 51.8246 52.6974 51.8009C52.6856 51.7891 52.6738 51.7772 52.662 51.7654C52.6384 51.7417 52.6974 51.8128 52.6974 51.8009C52.6856 51.8009 52.6856 51.7772 52.6738 51.7772C52.6502 51.7417 52.6384 51.718 52.6148 51.6824L52.603 51.6587C52.603 51.6469 52.6384 51.7417 52.6266 51.7061C52.6266 51.6824 52.6148 51.6706 52.603 51.6469C52.603 51.635 52.5912 51.6113 52.5912 51.5995C52.5912 51.5876 52.5912 51.5876 52.5912 51.5758C52.5794 51.5403 52.5912 51.6587 52.603 51.6232C52.603 51.5877 52.603 51.5521 52.603 51.5166C52.603 51.4336 52.5912 51.5876 52.603 51.5284C52.603 51.5047 52.6148 51.4929 52.6148 51.4692C52.6148 51.4573 52.6266 51.4336 52.6266 51.4218C52.6384 51.3862 52.603 51.4692 52.603 51.4692C52.603 51.4573 52.6148 51.4573 52.6148 51.4455C52.6384 51.4099 52.6502 51.3744 52.6738 51.3388C52.7092 51.2796 52.6266 51.3862 52.662 51.3507C52.6738 51.3388 52.6856 51.3151 52.6974 51.3033C52.7328 51.2677 52.7682 51.2441 52.7918 51.2085C52.7918 51.2085 52.721 51.2559 52.7564 51.2322C52.7682 51.2322 52.78 51.2204 52.78 51.2085C52.7918 51.1967 52.8154 51.1848 52.8272 51.173C52.8508 51.1611 52.8744 51.1493 52.8862 51.1374C52.9334 51.1137 52.8036 51.1611 52.8744 51.1374C52.9098 51.1256 52.9569 51.1137 52.9923 51.1019C53.0041 51.1019 53.0159 51.1019 53.0277 51.09C53.0631 51.0782 52.9451 51.09 52.9805 51.09C53.0041 51.09 53.0159 51.09 53.0395 51.09C53.0631 51.09 53.0749 51.09 53.0985 51.09C53.1693 51.09 53.0277 51.0782 53.0867 51.09C53.1103 51.09 53.1339 51.1019 53.1575 51.1019C53.1811 51.1137 53.2637 51.1374 53.1575 51.1019C53.2519 51.1374 53.3344 51.1611 53.4288 51.1374C53.5114 51.1137 53.6058 51.0545 53.6412 50.9715C53.7238 50.8175 53.7002 50.5687 53.5114 50.4858C53.2637 50.3791 53.0159 50.3554 52.7564 50.4147C52.5441 50.4739 52.3317 50.6042 52.1783 50.7583C51.848 51.1137 51.7419 51.6469 52.0132 52.0734C52.2491 52.4407 52.6974 52.6895 53.1339 52.654C53.3816 52.6303 53.6058 52.5355 53.7827 52.3578C53.9361 52.2156 54.0423 52.0142 54.0777 51.8009C54.1838 51.3151 54.0069 50.7583 53.5586 50.5095C53.3934 50.4147 53.1693 50.4621 53.0749 50.6398C53.0395 50.8531 53.0867 51.0782 53.2637 51.173Z" fill="#7950ED"/>
<path d="M37.8921 52.6777C37.8921 53.5663 37.8921 54.4431 37.8921 55.3317C37.8921 55.7938 38.5999 55.7938 38.5999 55.3317C38.5999 54.4431 38.5999 53.5663 38.5999 52.6777C38.5999 52.2156 37.8921 52.2156 37.8921 52.6777Z" fill="#7950ED"/>
<path d="M36.5483 51.7062C39.356 51.7062 41.6682 49.6209 42.0457 46.9194H31.0391C31.4402 49.6209 33.7524 51.7062 36.5483 51.7062Z" fill="#144BC1"/>
<path d="M45.7856 38.3768C47.6967 31.2559 47.8618 20.3673 37.1265 9.54975L36.4423 8.86255L35.7345 9.5853C25.1643 20.4384 25.4003 31.2441 27.4058 38.3412C23.8549 39.3483 21.4483 43.2464 21 47.0379H31.0511H42.0577H52.1088C51.6605 43.2701 49.2893 39.4194 45.7856 38.3768ZM36.4659 18.5545C38.5422 18.5663 40.2056 20.2251 40.2174 22.2749C40.2292 24.3365 38.554 26.0308 36.5131 26.0426C34.4722 26.0545 32.7734 24.372 32.7616 22.3223C32.7498 20.2725 34.4132 18.5663 36.4659 18.5545Z" fill="#144BC1"/>
<path d="M37.7071 12.8961C38.4546 13.0503 39.1016 13.4147 39.6191 13.9613C39.8635 14.2275 40.0647 14.5078 40.2372 14.8582C40.3666 15.1245 40.496 15.573 40.5248 15.8533C40.5535 16.0775 40.7116 16.2737 40.956 16.2737C41.1717 16.2737 41.4161 16.0775 41.3873 15.8533C41.1861 14.0453 39.7772 12.4616 37.9371 12.0832C37.7071 12.0412 37.4771 12.1533 37.4052 12.3775C37.3477 12.5878 37.4771 12.84 37.7071 12.8961Z" fill="white"/>
<path d="M46.722 38.1602C46.3926 40.4992 45.529 42.7338 44.2291 44.5612C43.8551 45.0833 43.4545 45.574 43.0182 46.0231C42.9114 46.1379 42.9203 46.3468 43.0182 46.4616C43.1251 46.5869 43.2853 46.5765 43.3922 46.4616C44.9681 44.8222 46.1611 42.6712 46.8111 40.3217C46.9891 39.6743 47.1316 39.006 47.2295 38.3273C47.2562 38.1602 47.1939 37.9931 47.0425 37.9409C46.9268 37.8991 46.7487 37.9931 46.722 38.1602Z" fill="white"/>
<path d="M28.3553 38.3538C29.0901 40.5176 29.9857 42.6379 31.0535 44.682C31.352 45.2583 31.662 45.8237 31.9949 46.3891C32.2131 46.7588 32.7986 46.4326 32.592 46.0629C31.4668 44.1057 30.4909 42.0725 29.6757 39.9739C29.4461 39.3759 29.2279 38.7779 29.0213 38.169C28.9639 38.0059 28.7802 37.8972 28.5964 37.9407C28.4242 37.995 28.2979 38.1799 28.3553 38.3538Z" fill="white"/>
</svg>
