<svg width="768" height="208" viewBox="0 0 768 208" fill="none" xmlns="http://www.w3.org/2000/svg">
<mask id="mask0" mask-type="alpha" maskUnits="userSpaceOnUse" x="0" y="-1" width="768" height="209">
<rect y="-1" width="768" height="209" fill="white"/>
</mask>
<g mask="url(#mask0)">
<rect y="-1" width="768" height="213" fill="white"/>
<path d="M767.902 600.516C767.807 183.732 430.786 -160.84 0.00154098 -204.824L0.297859 1093.93L768.016 1093.75L767.908 624.562C767.906 616.546 767.904 608.531 767.902 600.516Z" fill="#121242"/>
<path d="M789.049 262L790 0L780.495 0C637.915 0 521 116.761 521 261.051L789.049 262Z" fill="#41CADD"/>
<path d="M154 123.5C154 19.948 65.351 -64 -44 -64L-44 311C65.3509 311 154 227.052 154 123.5Z" fill="#A787FF"/>
<path d="M206 -54.4823C205.74 -52.7997 196.001 -52.9291 194.832 -52.9291C169.9 -51.6348 144.708 -52.4114 119.776 -52.9291C103.154 -53.3174 84.8444 -52.0231 68.4826 -55C64.0675 -27.9488 65.1064 1.04391 65.1064 28.354C65.1064 46.9922 65.3661 66.6658 67.9632 85.1745C68.4826 88.1515 100.037 82.1976 103.803 81.1622C114.841 78.0558 125.489 73.5257 135.358 67.5718C177.821 42.3326 206.129 -5.16881 206 -54.4823Z" stroke="white" stroke-width="4" stroke-miterlimit="10"/>
<path d="M800.224 315.111C783.804 318.295 766.952 319.091 750.244 317.499C733.68 315.907 717.259 312 701.776 305.921C693.998 302.882 686.508 299.263 679.306 295.066C672.176 290.942 665.406 286.165 659.717 280.159C648.338 268.147 643.081 251.792 640.2 235.8C637.463 220.458 637.247 204.538 639.696 189.197C642.144 173.783 647.114 158.804 654.748 145.272C662.166 132.174 672.032 120.668 683.843 111.478C695.438 102.36 708.833 95.485 723.021 91.5049C730.007 89.4787 737.281 88.1762 744.554 87.742C751.756 87.2354 759.318 87.3078 766.448 88.6827C768.32 89.0446 770.265 89.6235 771.633 90.9984C772.93 92.301 773.506 94.0377 773.866 95.7745C774.298 97.8007 774.37 99.8269 774.514 101.853C774.658 104.241 774.874 106.557 775.018 108.945C775.666 118.569 776.386 128.121 777.035 137.746C777.395 142.45 777.683 147.153 778.043 151.929C778.403 151.567 778.763 151.206 779.123 150.844C761.911 149.541 743.546 148.311 727.342 155.692C715.027 161.337 706.025 172.336 701.704 185.145C697.526 197.519 697.815 211.63 703.792 223.353C709.698 234.931 720.932 242.891 733.248 246.22C745.563 249.549 759.318 248.391 770.265 241.589C771.633 240.721 772.93 239.852 774.154 238.839C773.506 238.55 772.93 238.333 772.281 238.043C772.786 258.667 775.018 279.291 778.907 299.625C779.987 305.414 781.284 311.131 782.652 316.848C783.012 318.223 785.029 317.644 784.741 316.269C779.915 296.296 776.747 275.962 775.234 255.483C774.802 249.694 774.514 243.905 774.37 238.115C774.37 237.102 773.218 236.813 772.497 237.319C762.775 244.99 749.74 247.233 737.785 245.062C725.758 242.891 714.307 236.234 707.537 225.813C700.623 215.176 699.327 201.716 702.424 189.559C705.52 177.329 713.154 166.113 724.029 159.745C738.577 151.206 756.221 151.495 772.497 152.581C774.586 152.725 776.747 152.87 778.835 153.015C779.411 153.087 779.987 152.508 779.915 151.929C779.195 142.015 778.547 132.174 777.827 122.26C777.467 117.339 777.107 112.346 776.747 107.425C776.602 104.892 776.386 102.432 776.242 99.8992C776.098 98.0901 775.954 96.2086 775.522 94.4719C774.514 90.7089 772.065 88.1762 768.32 87.0907C764.719 86.0776 760.831 85.8605 757.086 85.6434C749.596 85.2092 742.106 85.6434 734.688 86.8013C719.852 89.1893 705.521 94.689 692.701 102.649C679.81 110.609 668.575 121.102 659.645 133.404C650.355 146.285 643.729 161.12 639.84 176.533C635.951 192.019 634.727 208.157 636.167 224.077C636.887 232.109 638.255 240.069 640.344 247.885C642.505 256.062 645.529 264.094 649.922 271.403C658.925 285.731 673.544 295.139 688.596 302.447C704.008 309.973 720.5 315.184 737.425 318.006C754.205 320.828 771.489 321.262 788.413 319.164C792.591 318.657 796.696 318.006 800.801 317.21C802.169 316.92 801.593 314.822 800.224 315.111Z" fill="white" stroke="white"/>
</g>
</svg>
