<svg width="237" height="27" viewBox="0 0 237 27" fill="none" xmlns="http://www.w3.org/2000/svg">
<path d="M0.853633 13.7C0.853633 12.464 1.12963 11.36 1.68163 10.388C2.24563 9.404 3.00763 8.642 3.96763 8.102C4.93963 7.55 6.02563 7.274 7.22563 7.274C8.62963 7.274 9.85963 7.634 10.9156 8.354C11.9716 9.074 12.7096 10.07 13.1296 11.342H10.2316C9.94363 10.742 9.53563 10.292 9.00763 9.992C8.49163 9.692 7.89163 9.542 7.20763 9.542C6.47563 9.542 5.82163 9.716 5.24563 10.064C4.68163 10.4 4.23763 10.88 3.91363 11.504C3.60163 12.128 3.44563 12.86 3.44563 13.7C3.44563 14.528 3.60163 15.26 3.91363 15.896C4.23763 16.52 4.68163 17.006 5.24563 17.354C5.82163 17.69 6.47563 17.858 7.20763 17.858C7.89163 17.858 8.49163 17.708 9.00763 17.408C9.53563 17.096 9.94363 16.64 10.2316 16.04H13.1296C12.7096 17.324 11.9716 18.326 10.9156 19.046C9.87163 19.754 8.64163 20.108 7.22563 20.108C6.02563 20.108 4.93963 19.838 3.96763 19.298C3.00763 18.746 2.24563 17.984 1.68163 17.012C1.12963 16.04 0.853633 14.936 0.853633 13.7ZM19.71 20.162C18.75 20.162 17.886 19.952 17.118 19.532C16.35 19.1 15.744 18.494 15.3 17.714C14.868 16.934 14.652 16.034 14.652 15.014C14.652 13.994 14.874 13.094 15.318 12.314C15.774 11.534 16.392 10.934 17.172 10.514C17.952 10.082 18.822 9.866 19.782 9.866C20.742 9.866 21.612 10.082 22.392 10.514C23.172 10.934 23.784 11.534 24.228 12.314C24.684 13.094 24.912 13.994 24.912 15.014C24.912 16.034 24.678 16.934 24.21 17.714C23.754 18.494 23.13 19.1 22.338 19.532C21.558 19.952 20.682 20.162 19.71 20.162ZM19.71 17.966C20.166 17.966 20.592 17.858 20.988 17.642C21.396 17.414 21.72 17.078 21.96 16.634C22.2 16.19 22.32 15.65 22.32 15.014C22.32 14.066 22.068 13.34 21.564 12.836C21.072 12.32 20.466 12.062 19.746 12.062C19.026 12.062 18.42 12.32 17.928 12.836C17.448 13.34 17.208 14.066 17.208 15.014C17.208 15.962 17.442 16.694 17.91 17.21C18.39 17.714 18.99 17.966 19.71 17.966ZM26.1126 14.978C26.1126 13.97 26.3106 13.076 26.7066 12.296C27.1146 11.516 27.6666 10.916 28.3626 10.496C29.0586 10.076 29.8326 9.866 30.6846 9.866C31.3326 9.866 31.9506 10.01 32.5386 10.298C33.1266 10.574 33.5946 10.946 33.9426 11.414V6.68H36.4986V20H33.9426V18.524C33.6306 19.016 33.1926 19.412 32.6286 19.712C32.0646 20.012 31.4106 20.162 30.6666 20.162C29.8266 20.162 29.0586 19.946 28.3626 19.514C27.6666 19.082 27.1146 18.476 26.7066 17.696C26.3106 16.904 26.1126 15.998 26.1126 14.978ZM33.9606 15.014C33.9606 14.402 33.8406 13.88 33.6006 13.448C33.3606 13.004 33.0366 12.668 32.6286 12.44C32.2206 12.2 31.7826 12.08 31.3146 12.08C30.8466 12.08 30.4146 12.194 30.0186 12.422C29.6226 12.65 29.2986 12.986 29.0466 13.43C28.8066 13.862 28.6866 14.378 28.6866 14.978C28.6866 15.578 28.8066 16.106 29.0466 16.562C29.2986 17.006 29.6226 17.348 30.0186 17.588C30.4266 17.828 30.8586 17.948 31.3146 17.948C31.7826 17.948 32.2206 17.834 32.6286 17.606C33.0366 17.366 33.3606 17.03 33.6006 16.598C33.8406 16.154 33.9606 15.626 33.9606 15.014ZM48.2298 14.798C48.2298 15.158 48.2058 15.482 48.1578 15.77H40.8678C40.9278 16.49 41.1798 17.054 41.6238 17.462C42.0678 17.87 42.6138 18.074 43.2618 18.074C44.1978 18.074 44.8638 17.672 45.2598 16.868H47.9778C47.6898 17.828 47.1378 18.62 46.3218 19.244C45.5058 19.856 44.5038 20.162 43.3158 20.162C42.3558 20.162 41.4918 19.952 40.7238 19.532C39.9678 19.1 39.3738 18.494 38.9418 17.714C38.5218 16.934 38.3118 16.034 38.3118 15.014C38.3118 13.982 38.5218 13.076 38.9418 12.296C39.3618 11.516 39.9498 10.916 40.7058 10.496C41.4618 10.076 42.3318 9.866 43.3158 9.866C44.2638 9.866 45.1098 10.07 45.8538 10.478C46.6098 10.886 47.1918 11.468 47.5998 12.224C48.0198 12.968 48.2298 13.826 48.2298 14.798ZM45.6198 14.078C45.6078 13.43 45.3738 12.914 44.9178 12.53C44.4618 12.134 43.9038 11.936 43.2438 11.936C42.6198 11.936 42.0918 12.128 41.6598 12.512C41.2398 12.884 40.9818 13.406 40.8858 14.078H45.6198ZM68.1822 10.028L65.2662 20H62.5482L60.7302 13.034L58.9122 20H56.1762L53.2422 10.028H55.7982L57.5622 17.624L59.4702 10.028H62.1342L64.0062 17.606L65.7702 10.028H68.1822ZM70.8237 8.84C70.3797 8.84 70.0077 8.702 69.7077 8.426C69.4197 8.138 69.2757 7.784 69.2757 7.364C69.2757 6.944 69.4197 6.596 69.7077 6.32C70.0077 6.032 70.3797 5.888 70.8237 5.888C71.2677 5.888 71.6337 6.032 71.9217 6.32C72.2217 6.596 72.3717 6.944 72.3717 7.364C72.3717 7.784 72.2217 8.138 71.9217 8.426C71.6337 8.702 71.2677 8.84 70.8237 8.84ZM72.0657 10.028V20H69.5457V10.028H72.0657ZM77.4895 12.098V16.922C77.4895 17.258 77.5675 17.504 77.7235 17.66C77.8915 17.804 78.1675 17.876 78.5515 17.876H79.7215V20H78.1375C76.0135 20 74.9515 18.968 74.9515 16.904V12.098H73.7635V10.028H74.9515V7.562H77.4895V10.028H79.7215V12.098H77.4895ZM87.15 9.884C87.906 9.884 88.578 10.052 89.166 10.388C89.754 10.712 90.21 11.198 90.534 11.846C90.87 12.482 91.038 13.25 91.038 14.15V20H88.518V14.492C88.518 13.7 88.32 13.094 87.924 12.674C87.528 12.242 86.988 12.026 86.304 12.026C85.608 12.026 85.056 12.242 84.648 12.674C84.252 13.094 84.054 13.7 84.054 14.492V20H81.534V6.68H84.054V11.27C84.378 10.838 84.81 10.502 85.35 10.262C85.89 10.01 86.49 9.884 87.15 9.884ZM94.5504 20.126C94.0944 20.126 93.7164 19.988 93.4164 19.712C93.1284 19.424 92.9844 19.07 92.9844 18.65C92.9844 18.23 93.1284 17.882 93.4164 17.606C93.7164 17.318 94.0944 17.174 94.5504 17.174C94.9944 17.174 95.3604 17.318 95.6484 17.606C95.9364 17.882 96.0804 18.23 96.0804 18.65C96.0804 19.07 95.9364 19.424 95.6484 19.712C95.3604 19.988 94.9944 20.126 94.5504 20.126ZM94.5504 12.674C94.0944 12.674 93.7164 12.536 93.4164 12.26C93.1284 11.972 92.9844 11.618 92.9844 11.198C92.9844 10.778 93.1284 10.43 93.4164 10.154C93.7164 9.866 94.0944 9.722 94.5504 9.722C94.9944 9.722 95.3604 9.866 95.6484 10.154C95.9364 10.43 96.0804 10.778 96.0804 11.198C96.0804 11.618 95.9364 11.972 95.6484 12.26C95.3604 12.536 94.9944 12.674 94.5504 12.674Z" fill="white"/>
<path fill-rule="evenodd" clip-rule="evenodd" d="M125.087 19.7916H127.901H127.914V4H125.435V14.1679C125.435 15.1674 125.475 15.887 125.542 16.3001H125.502C125.408 16.1269 125.221 15.7937 124.912 15.3273L117.756 4H114.768V19.7916H117.234V9.43711C117.234 8.33103 117.207 7.59809 117.153 7.26493H117.22C117.341 7.58476 117.502 7.89127 117.689 8.18445L125.087 19.7916ZM109.528 19.6049C109.823 19.8848 110.198 20.0313 110.627 20.0313C111.069 20.0313 111.444 19.8981 111.739 19.6049C112.047 19.2984 112.208 18.9519 112.208 18.5521C112.208 18.139 112.047 17.7925 111.739 17.4994C111.431 17.2062 111.069 17.0596 110.627 17.0596C110.198 17.0596 109.836 17.2062 109.528 17.4994C109.22 17.7925 109.072 18.139 109.072 18.5521C109.072 18.9652 109.22 19.3117 109.528 19.6049ZM140.001 19.7916H131.304V4H139.653V6.22549H133.877V10.7031H139.197V12.9153H133.877V17.5795H140.001V19.7916ZM147.908 6.22549H152.357V4H140.9V6.22549H145.335V19.7916H147.908V6.22549Z" fill="white"/>
<path fill-rule="evenodd" clip-rule="evenodd" d="M202.829 6.59567e-05C202.775 0.000101631 202.722 0.0141453 202.675 0.0408139C202.629 0.0679704 202.59 0.106749 202.563 0.15333C202.537 0.19991 202.522 0.252686 202.522 0.306457V8.12127C202.522 8.19793 202.486 8.26665 202.42 8.30513C202.387 8.3241 202.35 8.33409 202.313 8.33409C202.275 8.33409 202.238 8.3241 202.205 8.30513L200.929 7.56968C200.835 7.51578 200.73 7.48741 200.622 7.48741C200.514 7.48741 200.409 7.51578 200.316 7.56968L195.218 10.5116C195.028 10.6217 194.912 10.8331 194.912 11.0531V16.9372C194.912 17.1569 195.028 17.3583 195.218 17.4683L200.316 20.4104C200.409 20.4644 200.514 20.4929 200.622 20.4929C200.73 20.4929 200.835 20.4644 200.929 20.4104L206.026 17.4683C206.119 17.4146 206.197 17.3372 206.251 17.2439C206.304 17.1507 206.333 17.0448 206.333 16.9372V2.2679C206.332 2.15769 206.303 2.0495 206.247 1.95437C206.192 1.85923 206.112 1.78056 206.016 1.72639L202.982 0.0305914C202.934 0.00404137 202.881 -0.000643938 202.829 6.59567e-05ZM170.037 7.34492C169.94 7.34876 169.849 7.3658 169.761 7.41634L164.664 10.3584C164.57 10.4121 164.493 10.4895 164.439 10.5827C164.385 10.676 164.357 10.7819 164.357 10.8896L164.368 18.7863C164.368 18.8961 164.424 18.9981 164.521 19.0518C164.567 19.0796 164.62 19.0943 164.674 19.0943C164.728 19.0943 164.781 19.0796 164.827 19.0518L167.851 17.3153C168.043 17.2014 168.168 17.0035 168.168 16.784V13.0962C168.168 12.8761 168.283 12.6742 168.474 12.5649L169.761 11.8193C169.854 11.7651 169.96 11.7369 170.068 11.7375C170.173 11.7375 170.281 11.7637 170.374 11.8193L171.661 12.5649C171.755 12.6185 171.832 12.6959 171.886 12.7892C171.94 12.8826 171.968 12.9885 171.968 13.0962V16.7838C171.968 17.0033 172.094 17.2027 172.285 17.3151L175.308 19.0518C175.355 19.0796 175.408 19.0943 175.462 19.0943C175.516 19.0943 175.569 19.0796 175.615 19.0518C175.661 19.0248 175.7 18.9861 175.727 18.9395C175.754 18.8929 175.768 18.84 175.768 18.7862L175.778 10.8896C175.779 10.7818 175.751 10.6759 175.697 10.5825C175.643 10.4892 175.565 10.4118 175.472 10.3584L170.374 7.41634C170.288 7.3658 170.196 7.3489 170.098 7.34492H170.037ZM215.843 7.41634C215.737 7.41634 215.632 7.44332 215.537 7.49812L210.439 10.4402C210.346 10.4939 210.268 10.5713 210.214 10.6646C210.161 10.7578 210.132 10.8637 210.133 10.9714V16.8554C210.133 17.0767 210.257 17.2772 210.449 17.3867L215.506 20.2674C215.693 20.3739 215.921 20.382 216.109 20.2774L219.173 18.5715C219.271 18.5175 219.336 18.4167 219.337 18.306C219.337 18.2521 219.323 18.199 219.296 18.1523C219.269 18.1055 219.23 18.0669 219.183 18.0403L214.055 15.0983C213.959 15.0435 213.892 14.9326 213.892 14.8224V12.9838C213.892 12.8737 213.96 12.7729 214.055 12.7181L215.649 11.7987C215.695 11.7717 215.748 11.7575 215.802 11.7575C215.856 11.7575 215.909 11.7717 215.955 11.7987L217.549 12.7181C217.596 12.7449 217.634 12.7836 217.661 12.8302C217.688 12.8769 217.702 12.9298 217.702 12.9836V14.4342C217.702 14.4881 217.716 14.541 217.743 14.5876C217.77 14.6342 217.809 14.6729 217.855 14.6997C217.951 14.755 218.067 14.7551 218.162 14.6997L221.216 12.9226C221.31 12.8687 221.387 12.7912 221.441 12.6979C221.494 12.6047 221.523 12.4989 221.523 12.3913V10.9715C221.523 10.7521 221.406 10.5504 221.216 10.4402L216.15 7.49812C216.056 7.44424 215.951 7.41593 215.843 7.41634ZM200.602 11.809C200.628 11.809 200.659 11.8156 200.683 11.8293L202.43 12.8406C202.478 12.868 202.512 12.9187 202.512 12.9734V14.996C202.512 15.051 202.478 15.1015 202.43 15.1289L200.683 16.1402C200.66 16.1536 200.634 16.1606 200.607 16.1606C200.58 16.1606 200.553 16.1536 200.53 16.1402L198.783 15.1289C198.736 15.1014 198.702 15.051 198.702 14.996V12.9734C198.702 12.9186 198.736 12.8683 198.783 12.8406L200.53 11.8295C200.552 11.8161 200.576 11.8091 200.602 11.8092L200.602 11.809ZM230.615 7.39588C230.767 7.30984 230.939 7.27335 231.115 7.27335L231.116 7.27349C231.292 7.27349 231.465 7.30998 231.616 7.39616L236.428 10.1747C236.739 10.3546 236.928 10.6928 236.928 11.0531V16.6002C236.928 16.9604 236.739 17.2976 236.428 17.4787L231.616 20.2471C231.464 20.3351 231.291 20.3809 231.116 20.3799C230.94 20.3806 230.767 20.3348 230.615 20.247L229.001 19.2971C228.762 19.163 228.881 19.1202 228.96 19.0927C229.28 18.9816 229.344 18.9592 229.685 18.7658C229.704 18.7556 229.725 18.7503 229.747 18.7503C229.768 18.7503 229.789 18.7556 229.808 18.7658L231.044 19.5013C231.089 19.5259 231.146 19.5259 231.187 19.5013L235.998 16.733C236.043 16.7074 236.07 16.6532 236.07 16.6002V11.0533C236.07 10.9989 236.034 10.9479 235.988 10.9204L231.187 8.15206C231.165 8.13938 231.141 8.1327 231.115 8.1327C231.09 8.1327 231.066 8.13938 231.044 8.15206L226.243 10.9202C226.196 10.9469 226.161 11.0004 226.161 11.053V16.6001C226.161 16.653 226.197 16.6975 226.243 16.7226L227.55 17.4887C228.265 17.8458 228.705 17.4209 228.705 16.9985V11.5229C228.705 11.4455 228.77 11.3902 228.848 11.3902H229.45C229.526 11.3902 229.593 11.4455 229.593 11.5229V16.9985C229.593 17.9516 229.077 18.5001 228.173 18.5001L228.161 18.5001C227.889 18.5001 227.661 18.5002 227.06 18.2039L225.804 17.4785C225.492 17.2986 225.303 16.9603 225.303 16.6001V11.0531C225.303 10.6926 225.492 10.3539 225.804 10.1744L230.615 7.39588ZM230.217 12.7898C230.217 11.8201 231.033 11.237 232.403 11.237C233.943 11.237 234.707 11.7763 234.804 12.9226C234.807 12.9622 234.789 12.9953 234.763 13.0247C234.736 13.0522 234.699 13.0758 234.661 13.0758H234.038C233.973 13.0758 233.918 13.026 233.905 12.9635C233.755 12.2977 233.39 12.0848 232.403 12.0848C231.298 12.0848 231.177 12.4707 231.177 12.7592C231.177 13.1086 231.319 13.2053 232.812 13.4028C234.289 13.598 234.998 13.8767 234.998 14.9146C234.998 15.9617 234.12 16.5592 232.597 16.5592C230.494 16.5592 230.054 15.6017 230.054 14.792C230.054 14.7151 230.12 14.6489 230.197 14.6489H230.82C230.889 14.6489 230.942 14.7037 230.953 14.7716C231.046 15.4041 231.326 15.7216 232.597 15.7216C233.609 15.7216 234.038 15.4926 234.038 14.9554C234.038 14.6458 233.915 14.4148 232.342 14.2607C231.027 14.1307 230.217 13.8416 230.217 12.7898ZM185.045 7.46756C185.14 7.41276 185.245 7.38578 185.351 7.38578C185.459 7.38553 185.565 7.41375 185.658 7.46756L190.755 10.3994C190.946 10.5092 191.062 10.7207 191.062 10.9408V16.8248C191.062 16.9325 191.034 17.0384 190.98 17.1316C190.926 17.2249 190.849 17.3024 190.755 17.3561L185.658 20.2981C185.565 20.3521 185.459 20.3806 185.351 20.3806C185.244 20.3806 185.138 20.3521 185.045 20.2981L179.947 17.3561C179.757 17.2459 179.641 17.0449 179.641 16.8248V10.9408C179.641 10.721 179.757 10.5092 179.947 10.3994L185.045 7.46756ZM215.773 12.6468C215.791 12.6366 215.814 12.6366 215.834 12.6366L215.837 12.6366C215.856 12.6366 215.868 12.6365 215.885 12.6467L216.866 13.2188C216.884 13.2291 216.899 13.2438 216.91 13.2618C216.921 13.2797 216.927 13.3001 216.927 13.3209V14.4447C216.927 14.4656 216.921 14.486 216.91 14.5039C216.899 14.5218 216.884 14.5366 216.866 14.5468L215.885 15.1087C215.849 15.13 215.81 15.13 215.773 15.1087L214.792 14.5469C214.755 14.5258 214.731 14.487 214.731 14.4447V13.3211C214.731 13.3001 214.737 13.2797 214.748 13.2617C214.759 13.2438 214.774 13.229 214.792 13.2188L215.773 12.6468Z" fill="white"/>
</svg>
