<svg width="182" height="27" viewBox="0 0 182 27" fill="none" xmlns="http://www.w3.org/2000/svg">
<path d="M0.996211 13.7C0.996211 12.464 1.27221 11.36 1.82421 10.388C2.38821 9.404 3.15021 8.642 4.11021 8.102C5.08221 7.55 6.16821 7.274 7.36821 7.274C8.77221 7.274 10.0022 7.634 11.0582 8.354C12.1142 9.074 12.8522 10.07 13.2722 11.342H10.3742C10.0862 10.742 9.67821 10.292 9.15021 9.992C8.63421 9.692 8.03421 9.542 7.35021 9.542C6.61821 9.542 5.96421 9.716 5.38821 10.064C4.82421 10.4 4.38021 10.88 4.05621 11.504C3.74421 12.128 3.58821 12.86 3.58821 13.7C3.58821 14.528 3.74421 15.26 4.05621 15.896C4.38021 16.52 4.82421 17.006 5.38821 17.354C5.96421 17.69 6.61821 17.858 7.35021 17.858C8.03421 17.858 8.63421 17.708 9.15021 17.408C9.67821 17.096 10.0862 16.64 10.3742 16.04H13.2722C12.8522 17.324 12.1142 18.326 11.0582 19.046C10.0142 19.754 8.78421 20.108 7.36821 20.108C6.16821 20.108 5.08221 19.838 4.11021 19.298C3.15021 18.746 2.38821 17.984 1.82421 17.012C1.27221 16.04 0.996211 14.936 0.996211 13.7ZM19.8526 20.162C18.8926 20.162 18.0286 19.952 17.2606 19.532C16.4926 19.1 15.8866 18.494 15.4426 17.714C15.0106 16.934 14.7946 16.034 14.7946 15.014C14.7946 13.994 15.0166 13.094 15.4606 12.314C15.9166 11.534 16.5346 10.934 17.3146 10.514C18.0946 10.082 18.9646 9.866 19.9246 9.866C20.8846 9.866 21.7546 10.082 22.5346 10.514C23.3146 10.934 23.9266 11.534 24.3706 12.314C24.8266 13.094 25.0546 13.994 25.0546 15.014C25.0546 16.034 24.8206 16.934 24.3526 17.714C23.8966 18.494 23.2726 19.1 22.4806 19.532C21.7006 19.952 20.8246 20.162 19.8526 20.162ZM19.8526 17.966C20.3086 17.966 20.7346 17.858 21.1306 17.642C21.5386 17.414 21.8626 17.078 22.1026 16.634C22.3426 16.19 22.4626 15.65 22.4626 15.014C22.4626 14.066 22.2106 13.34 21.7066 12.836C21.2146 12.32 20.6086 12.062 19.8886 12.062C19.1686 12.062 18.5626 12.32 18.0706 12.836C17.5906 13.34 17.3506 14.066 17.3506 15.014C17.3506 15.962 17.5846 16.694 18.0526 17.21C18.5326 17.714 19.1326 17.966 19.8526 17.966ZM26.2551 14.978C26.2551 13.97 26.4531 13.076 26.8491 12.296C27.2571 11.516 27.8091 10.916 28.5051 10.496C29.2011 10.076 29.9751 9.866 30.8271 9.866C31.4751 9.866 32.0931 10.01 32.6811 10.298C33.2691 10.574 33.7371 10.946 34.0851 11.414V6.68H36.6411V20H34.0851V18.524C33.7731 19.016 33.3351 19.412 32.7711 19.712C32.2071 20.012 31.5531 20.162 30.8091 20.162C29.9691 20.162 29.2011 19.946 28.5051 19.514C27.8091 19.082 27.2571 18.476 26.8491 17.696C26.4531 16.904 26.2551 15.998 26.2551 14.978ZM34.1031 15.014C34.1031 14.402 33.9831 13.88 33.7431 13.448C33.5031 13.004 33.1791 12.668 32.7711 12.44C32.3631 12.2 31.9251 12.08 31.4571 12.08C30.9891 12.08 30.5571 12.194 30.1611 12.422C29.7651 12.65 29.4411 12.986 29.1891 13.43C28.9491 13.862 28.8291 14.378 28.8291 14.978C28.8291 15.578 28.9491 16.106 29.1891 16.562C29.4411 17.006 29.7651 17.348 30.1611 17.588C30.5691 17.828 31.0011 17.948 31.4571 17.948C31.9251 17.948 32.3631 17.834 32.7711 17.606C33.1791 17.366 33.5031 17.03 33.7431 16.598C33.9831 16.154 34.1031 15.626 34.1031 15.014ZM48.3724 14.798C48.3724 15.158 48.3484 15.482 48.3004 15.77H41.0104C41.0704 16.49 41.3224 17.054 41.7664 17.462C42.2104 17.87 42.7564 18.074 43.4044 18.074C44.3404 18.074 45.0064 17.672 45.4024 16.868H48.1204C47.8324 17.828 47.2804 18.62 46.4644 19.244C45.6484 19.856 44.6464 20.162 43.4584 20.162C42.4984 20.162 41.6344 19.952 40.8664 19.532C40.1104 19.1 39.5164 18.494 39.0844 17.714C38.6644 16.934 38.4544 16.034 38.4544 15.014C38.4544 13.982 38.6644 13.076 39.0844 12.296C39.5044 11.516 40.0924 10.916 40.8484 10.496C41.6044 10.076 42.4744 9.866 43.4584 9.866C44.4064 9.866 45.2524 10.07 45.9964 10.478C46.7524 10.886 47.3344 11.468 47.7424 12.224C48.1624 12.968 48.3724 13.826 48.3724 14.798ZM45.7624 14.078C45.7504 13.43 45.5164 12.914 45.0604 12.53C44.6044 12.134 44.0464 11.936 43.3864 11.936C42.7624 11.936 42.2344 12.128 41.8024 12.512C41.3824 12.884 41.1244 13.406 41.0284 14.078H45.7624ZM68.3248 10.028L65.4088 20H62.6908L60.8728 13.034L59.0548 20H56.3188L53.3848 10.028H55.9408L57.7048 17.624L59.6128 10.028H62.2768L64.1488 17.606L65.9128 10.028H68.3248ZM70.9663 8.84C70.5223 8.84 70.1503 8.702 69.8503 8.426C69.5623 8.138 69.4183 7.784 69.4183 7.364C69.4183 6.944 69.5623 6.596 69.8503 6.32C70.1503 6.032 70.5223 5.888 70.9663 5.888C71.4103 5.888 71.7763 6.032 72.0643 6.32C72.3643 6.596 72.5143 6.944 72.5143 7.364C72.5143 7.784 72.3643 8.138 72.0643 8.426C71.7763 8.702 71.4103 8.84 70.9663 8.84ZM72.2083 10.028V20H69.6883V10.028H72.2083ZM77.6321 12.098V16.922C77.6321 17.258 77.7101 17.504 77.8661 17.66C78.0341 17.804 78.3101 17.876 78.6941 17.876H79.8641V20H78.2801C76.1561 20 75.0941 18.968 75.0941 16.904V12.098H73.9061V10.028H75.0941V7.562H77.6321V10.028H79.8641V12.098H77.6321ZM87.2926 9.884C88.0486 9.884 88.7206 10.052 89.3086 10.388C89.8966 10.712 90.3526 11.198 90.6766 11.846C91.0126 12.482 91.1806 13.25 91.1806 14.15V20H88.6606V14.492C88.6606 13.7 88.4626 13.094 88.0666 12.674C87.6706 12.242 87.1306 12.026 86.4466 12.026C85.7506 12.026 85.1986 12.242 84.7906 12.674C84.3946 13.094 84.1966 13.7 84.1966 14.492V20H81.6766V6.68H84.1966V11.27C84.5206 10.838 84.9526 10.502 85.4926 10.262C86.0326 10.01 86.6326 9.884 87.2926 9.884ZM94.693 20.126C94.237 20.126 93.859 19.988 93.559 19.712C93.271 19.424 93.127 19.07 93.127 18.65C93.127 18.23 93.271 17.882 93.559 17.606C93.859 17.318 94.237 17.174 94.693 17.174C95.137 17.174 95.503 17.318 95.791 17.606C96.079 17.882 96.223 18.23 96.223 18.65C96.223 19.07 96.079 19.424 95.791 19.712C95.503 19.988 95.137 20.126 94.693 20.126ZM94.693 12.674C94.237 12.674 93.859 12.536 93.559 12.26C93.271 11.972 93.127 11.618 93.127 11.198C93.127 10.778 93.271 10.43 93.559 10.154C93.859 9.866 94.237 9.722 94.693 9.722C95.137 9.722 95.503 9.866 95.791 10.154C96.079 10.43 96.223 10.778 96.223 11.198C96.223 11.618 96.079 11.972 95.791 12.26C95.503 12.536 95.137 12.674 94.693 12.674Z" fill="white"/>
<path fill-rule="evenodd" clip-rule="evenodd" d="M147.686 6.59567e-05C147.632 0.000101631 147.579 0.0141453 147.533 0.0408139C147.486 0.0679704 147.448 0.106749 147.421 0.15333C147.394 0.19991 147.38 0.252686 147.38 0.306457V8.12127C147.38 8.19793 147.344 8.26665 147.277 8.30513C147.245 8.3241 147.208 8.33409 147.17 8.33409C147.132 8.33409 147.095 8.3241 147.063 8.30513L145.786 7.56968C145.693 7.51578 145.587 7.48741 145.479 7.48741C145.372 7.48741 145.266 7.51578 145.173 7.56968L140.076 10.5116C139.885 10.6217 139.769 10.8331 139.769 11.0531V16.9372C139.769 17.157 139.885 17.3583 140.076 17.4683L145.173 20.4104C145.266 20.4644 145.372 20.4929 145.479 20.4929C145.587 20.4929 145.693 20.4644 145.786 20.4104L150.883 17.4683C150.977 17.4146 151.054 17.3372 151.108 17.2439C151.162 17.1507 151.19 17.0448 151.19 16.9372V2.2679C151.19 2.15769 151.16 2.0495 151.105 1.95437C151.049 1.85923 150.969 1.78056 150.873 1.72639L147.839 0.0305914C147.792 0.00404137 147.739 -0.000643938 147.686 6.59567e-05ZM114.895 7.34492C114.797 7.34876 114.706 7.3658 114.619 7.41634L109.521 10.3584C109.428 10.4121 109.35 10.4895 109.297 10.5827C109.243 10.676 109.215 10.7819 109.215 10.8896L109.225 18.7863C109.225 18.8961 109.282 18.9981 109.378 19.0518C109.425 19.0796 109.478 19.0943 109.532 19.0943C109.586 19.0943 109.639 19.0796 109.685 19.0518L112.709 17.3153C112.9 17.2014 113.025 17.0035 113.025 16.784V13.0962C113.025 12.8761 113.141 12.6742 113.332 12.5649L114.619 11.8192C114.712 11.7651 114.818 11.7369 114.925 11.7375C115.03 11.7375 115.138 11.7637 115.232 11.8192L116.519 12.5649C116.612 12.6185 116.69 12.6959 116.744 12.7892C116.798 12.8826 116.826 12.9885 116.825 13.0962V16.7838C116.825 17.0033 116.952 17.2027 117.142 17.3151L120.166 19.0518C120.212 19.0796 120.265 19.0943 120.319 19.0943C120.373 19.0943 120.426 19.0796 120.472 19.0518C120.519 19.0248 120.557 18.9861 120.584 18.9395C120.611 18.8929 120.626 18.84 120.626 18.7862L120.635 10.8896C120.636 10.7818 120.608 10.6759 120.554 10.5825C120.5 10.4892 120.423 10.4118 120.329 10.3584L115.232 7.41634C115.145 7.3658 115.054 7.3489 114.956 7.34492H114.895ZM160.7 7.41634C160.594 7.41634 160.49 7.44332 160.394 7.49812L155.297 10.4402C155.203 10.4939 155.126 10.5713 155.072 10.6646C155.018 10.7578 154.99 10.8637 154.99 10.9714V16.8554C154.99 17.0767 155.115 17.2772 155.307 17.3867L160.363 20.2674C160.55 20.3739 160.778 20.382 160.966 20.2774L164.031 18.5715C164.128 18.5175 164.194 18.4167 164.194 18.306C164.195 18.2521 164.181 18.199 164.154 18.1523C164.127 18.1055 164.088 18.0669 164.041 18.0403L158.913 15.0983C158.817 15.0435 158.749 14.9326 158.749 14.8224V12.9838C158.749 12.8737 158.817 12.7729 158.913 12.7181L160.506 11.7987C160.553 11.7717 160.606 11.7575 160.66 11.7575C160.713 11.7575 160.766 11.7717 160.813 11.7987L162.406 12.7181C162.453 12.7449 162.492 12.7836 162.519 12.8302C162.546 12.8769 162.56 12.9298 162.56 12.9836V14.4342C162.559 14.4881 162.574 14.541 162.6 14.5876C162.627 14.6342 162.666 14.6729 162.713 14.6997C162.808 14.755 162.924 14.7551 163.019 14.6997L166.074 12.9226C166.167 12.8687 166.244 12.7912 166.298 12.6979C166.352 12.6047 166.38 12.4989 166.38 12.3913V10.9715C166.38 10.7521 166.264 10.5504 166.074 10.4402L161.007 7.49812C160.914 7.44424 160.808 7.41593 160.7 7.41634ZM145.459 11.809C145.486 11.809 145.517 11.8156 145.541 11.8293L147.288 12.8406C147.335 12.868 147.369 12.9187 147.369 12.9734V14.996C147.369 15.051 147.335 15.1015 147.288 15.1289L145.541 16.1402C145.517 16.1536 145.491 16.1606 145.464 16.1606C145.437 16.1606 145.411 16.1536 145.388 16.1402L143.641 15.1289C143.593 15.1014 143.559 15.051 143.559 14.996V12.9734C143.559 12.9186 143.593 12.8683 143.641 12.8406L145.388 11.8295C145.409 11.8161 145.434 11.8091 145.459 11.8092L145.459 11.809ZM175.472 7.39588C175.624 7.30984 175.796 7.27335 175.973 7.27335L175.973 7.27349C176.15 7.27349 176.323 7.30998 176.473 7.39616L181.285 10.1747C181.596 10.3546 181.785 10.6928 181.785 11.0531V16.6002C181.785 16.9604 181.596 17.2976 181.285 17.4787L176.473 20.2471C176.321 20.3351 176.149 20.3809 175.973 20.3799C175.797 20.3806 175.625 20.3348 175.472 20.247L173.858 19.2971C173.619 19.163 173.739 19.1202 173.817 19.0927C174.137 18.9816 174.202 18.9592 174.543 18.7658C174.562 18.7556 174.583 18.7503 174.604 18.7503C174.625 18.7503 174.647 18.7556 174.665 18.7658L175.901 19.5013C175.946 19.5259 176.003 19.5259 176.044 19.5013L180.856 16.733C180.901 16.7074 180.927 16.6532 180.927 16.6002V11.0533C180.927 10.9989 180.891 10.9479 180.846 10.9204L176.044 8.15206C176.023 8.13938 175.998 8.1327 175.973 8.1327C175.948 8.1327 175.923 8.13938 175.901 8.15206L171.1 10.9202C171.054 10.9469 171.018 11.0004 171.018 11.053V16.6001C171.018 16.653 171.054 16.6975 171.1 16.7226L172.408 17.4887C173.122 17.8458 173.562 17.4209 173.562 16.9985V11.5229C173.562 11.4455 173.628 11.3902 173.705 11.3902H174.308C174.384 11.3902 174.451 11.4455 174.451 11.5229V16.9985C174.451 17.9516 173.935 18.5001 173.031 18.5001L173.018 18.5001C172.746 18.5001 172.519 18.5002 171.917 18.2039L170.661 17.4785C170.35 17.2986 170.16 16.9603 170.16 16.6001V11.0531C170.16 10.6926 170.35 10.3539 170.661 10.1744L175.472 7.39588ZM175.074 12.7898C175.074 11.8201 175.89 11.237 177.26 11.237C178.8 11.237 179.565 11.7763 179.661 12.9226C179.665 12.9622 179.646 12.9953 179.62 13.0247C179.594 13.0522 179.557 13.0758 179.518 13.0758H178.895C178.83 13.0758 178.775 13.026 178.762 12.9635C178.613 12.2977 178.248 12.0848 177.26 12.0848C176.155 12.0848 176.035 12.4707 176.035 12.7592C176.035 13.1086 176.177 13.2053 177.669 13.4028C179.146 13.598 179.855 13.8767 179.855 14.9146C179.855 15.9617 178.977 16.5592 177.455 16.5592C175.351 16.5592 174.911 15.6017 174.911 14.792C174.911 14.7151 174.977 14.6489 175.054 14.6489H175.677C175.747 14.6489 175.799 14.7037 175.81 14.7716C175.904 15.4041 176.183 15.7216 177.455 15.7216C178.467 15.7216 178.895 15.4926 178.895 14.9554C178.895 14.6458 178.772 14.4148 177.199 14.2607C175.884 14.1307 175.074 13.8416 175.074 12.7898ZM129.902 7.46756C129.997 7.41276 130.102 7.38578 130.209 7.38578C130.316 7.38553 130.422 7.41375 130.515 7.46756L135.613 10.3994C135.803 10.5092 135.919 10.7207 135.919 10.9408V16.8248C135.919 16.9325 135.891 17.0384 135.837 17.1316C135.783 17.2249 135.706 17.3024 135.613 17.3561L130.515 20.2981C130.422 20.3521 130.316 20.3806 130.209 20.3806C130.101 20.3806 129.995 20.3521 129.902 20.2981L124.805 17.3561C124.614 17.2459 124.498 17.0449 124.498 16.8248V10.9408C124.498 10.721 124.614 10.5092 124.805 10.3994L129.902 7.46756ZM160.63 12.6468C160.649 12.6366 160.671 12.6366 160.691 12.6366C160.712 12.6366 160.724 12.636 160.743 12.6467L161.723 13.2188C161.741 13.2291 161.757 13.2438 161.767 13.2618C161.778 13.2797 161.784 13.3001 161.784 13.3209V14.4447C161.784 14.4656 161.778 14.486 161.767 14.5039C161.757 14.5218 161.741 14.5366 161.723 14.5468L160.743 15.1087C160.706 15.13 160.667 15.13 160.63 15.1087L159.65 14.5469C159.613 14.5258 159.588 14.487 159.588 14.4447V13.3211C159.589 13.3001 159.594 13.2797 159.605 13.2617C159.616 13.2438 159.631 13.229 159.65 13.2188L160.63 12.6468Z" fill="white"/>
</svg>
