<svg width="1920" height="1080" viewBox="0 0 1920 1080" fill="none" xmlns="http://www.w3.org/2000/svg">
<rect width="1920" height="1080" fill="#F4F4F7"/>
<mask id="mask0" mask-type="alpha" maskUnits="userSpaceOnUse" x="0" y="0" width="1920" height="1080">
<rect width="1920" height="1080" fill="#F4F4F7"/>
</mask>
<g mask="url(#mask0)">
<path opacity="0.5" d="M-369.276 210.816C-377.636 240.667 -353.16 266.337 -313.76 302.156C-294.657 318.871 -58.8497 522.437 -63.6261 527.213C45.0372 418.55 210.412 382.121 354.289 434.052C587.118 518.813 686.201 855.522 535.741 1050.16C500.514 1096.13 495.141 1101.5 535.734 1148.07C562.598 1179.71 599.014 1202.99 628.266 1232.24C681.994 1284.77 737.513 1335.52 799.002 1380.29C1000.8 1302.66 1071.26 992.213 1069.49 801.766C1068.3 666.841 1009.8 512.815 946.528 394.611C884.446 277.601 803.259 176.114 693.413 102.091C448.649 -62.6685 126.861 -87.1252 -140.609 37.0707C-208.074 68.7168 -273.151 108.721 -329.273 157.679C-353.155 177.979 -365.693 195.294 -369.276 210.816Z" stroke="#E7E7EC" stroke-width="2" stroke-miterlimit="10"/>
<path opacity="0.5" d="M2200.83 1163.62C2233.92 1145 2234.95 1101.56 2231.85 1036.41C2229.78 1005.38 2201.87 624.782 2210.14 624.782C2021.96 624.782 1847.22 513.086 1767.6 343.472C1639.39 68.3672 1845.15 -309.126 2143.96 -347.393C2214.27 -356.701 2223.58 -356.701 2228.75 -432.2C2232.88 -482.877 2221.51 -534.588 2221.51 -585.265C2220.48 -677.312 2216.34 -769.358 2201.87 -861.405C1959.92 -968.964 1630.09 -761.084 1466.72 -594.574C1350.92 -476.671 1268.2 -292.579 1220.64 -135.376C1173.08 19.7584 1155.5 177.995 1186.52 337.267C1255.79 692.007 1513.25 991.934 1852.39 1116.04C1938.21 1147.07 2029.19 1168.79 2120.18 1174.99C2158.44 1178.09 2184.29 1173.96 2200.83 1163.62Z" stroke="#E7E7EC" stroke-width="2" stroke-miterlimit="10"/>
<path d="M1821.78 149.249C1861.91 210.107 1842.73 293.531 1778.95 335.578L1633.65 115.188C1697.43 73.1405 1781.66 88.3904 1821.78 149.249Z" fill="white"/>
<path d="M1661.74 214.646C1649.78 200.318 1628.48 198.39 1614.16 210.34C1599.84 222.29 1597.92 243.592 1609.88 257.921C1621.83 272.249 1643.13 274.177 1657.45 262.227C1671.78 250.277 1673.7 228.975 1661.74 214.646Z" fill="#41CADD"/>
<path d="M1708.61 307.152C1717.9 277.06 1727.19 246.968 1736.48 216.875C1734.41 215.66 1731.64 216.244 1729.3 216.818C1700.41 224.163 1671.51 231.508 1642.49 238.812C1668.09 263.122 1687.03 283.361 1711.31 309.136" stroke="#414168" stroke-width="2" stroke-miterlimit="10" stroke-linecap="round" stroke-linejoin="round"/>
</g>
</svg>
