<svg xmlns="http://www.w3.org/2000/svg" viewBox="0 0 50 50"><defs><style>.cls-1{fill:#7950ed;}.cls-2{fill:#fff;}</style></defs><g id="Layer_2" data-name="Layer 2"><circle class="cls-1" cx="25" cy="25" r="25"/><path class="cls-2" d="M37.29,26A15,15,0,0,0,34.68,18c1.89-3.88.57-6.64-.27-7.85A1.6,1.6,0,0,0,33,9.44a7.22,7.22,0,0,0-6.15,4.11c-.53-.06-1.1-.1-1.69-.11a17.76,17.76,0,0,0-1.82.07,7.2,7.2,0,0,0-6.13-4.07,1.57,1.57,0,0,0-1.37.66c-.84,1.19-2.14,3.92-.33,7.74A15.31,15.31,0,0,0,13.09,26a5.32,5.32,0,0,0-3.18,5.31c.62,8.11,13.36,5.73,15.28,5.48,1.92.25,14.69,2.74,15.28-5.48A5.33,5.33,0,0,0,37.29,26Z"/><path class="cls-1" d="M20.66,24.08A.91.91,0,0,1,21.22,23c.4-.08.81.31.91.86a1.18,1.18,0,0,1,0,.53,2.07,2.07,0,0,0,.27-1.66,1.74,1.74,0,0,0-1.93-1.5,1.74,1.74,0,0,0-1.06,2.21,1.77,1.77,0,0,0,1.85,1.51A1.06,1.06,0,0,1,20.66,24.08Z"/><path class="cls-1" d="M29.84,21.28a1.72,1.72,0,0,0-2.07,1.25,2.11,2.11,0,0,0,0,1.38,1.07,1.07,0,0,1,.06-.29c.18-.49.62-.79,1-.66a.87.87,0,0,1,.34,1.14,1,1,0,0,1-.67.67l.11,0a1.71,1.71,0,0,0,2.06-1.25A1.71,1.71,0,0,0,29.84,21.28Z"/><path class="cls-1" d="M12.32,25.75a4,4,0,0,1,.51-.19l.52-.13a5.26,5.26,0,0,1,1.05-.09,6.3,6.3,0,0,1,2.06.37,7,7,0,0,1,1.79,1,4.13,4.13,0,0,1,.39.34l.36.35c.23.25.44.51.65.77-.28-.19-.53-.41-.8-.6l-.41-.27-.21-.13a1.43,1.43,0,0,0-.21-.12l-.42-.24-.44-.19a6.09,6.09,0,0,0-.9-.33,6.58,6.58,0,0,0-1.86-.26,5.86,5.86,0,0,0-.94.06,6.09,6.09,0,0,0-.89.2h0a.31.31,0,0,1-.22-.57Z"/><path class="cls-1" d="M37.87,26.32a6,6,0,0,0-.88-.19l-.45-.05-.46,0a6.15,6.15,0,0,0-1.81.22,5.65,5.65,0,0,0-1.69.74,8.33,8.33,0,0,0-.78.54c-.25.2-.47.43-.73.64l.28-.41.14-.2a.9.9,0,0,1,.15-.19,5.21,5.21,0,0,1,.7-.71,5.4,5.4,0,0,1,1.74-1c.16-.05.32-.11.49-.15l.5-.1.51-.06h.51a4.36,4.36,0,0,1,.51,0l.51.07.49.12a3.79,3.79,0,0,1,.5.18.32.32,0,0,1,.16.4.31.31,0,0,1-.36.17Z"/><path class="cls-1" d="M28.24,29.77a3.89,3.89,0,0,1-.42.19,7.33,7.33,0,0,1-.86.3l-.22.06-.22.05-.43.08-.44,0a1.7,1.7,0,0,1-.22,0h0V28.7c.82-.09,1.24-.92,1.43-1.51a.46.46,0,0,0-.43-.6H24a.46.46,0,0,0-.43.63A2.22,2.22,0,0,0,25,28.68v1.81a7.38,7.38,0,0,1-1.54-.25,10.47,10.47,0,0,1-1.73-.67,4.5,4.5,0,0,0,1.56,1.13,4.8,4.8,0,0,0,1.92.42h.25a1,1,0,0,0,.24,0,4,4,0,0,0,.5-.07l.48-.13a2.92,2.92,0,0,0,.46-.18,5.42,5.42,0,0,0,.84-.49l.19-.15.18-.17c.11-.11.23-.22.33-.34Z"/><path class="cls-1" d="M16.78,10.28a6.24,6.24,0,0,0-.13,6.35,7.08,7.08,0,0,1,2.85-2s-.53-.33-1.62.24S15.84,12.38,16.78,10.28Z"/><path class="cls-1" d="M33.5,10.28a6.26,6.26,0,0,1,.12,6.35,7,7,0,0,0-2.85-2s.53-.33,1.62.24S34.43,12.38,33.5,10.28Z"/><path class="cls-1" d="M34.83,19.14a9.94,9.94,0,0,0-3.69-.6c-3,0-5,0-5.64,1.5a2.43,2.43,0,0,1-.71,0c-.61-1.47-2.64-1.49-5.64-1.51a9.94,9.94,0,0,0-3.69.6,2.11,2.11,0,0,0-1.09,2.15c.51,3.74,1,4.28,1.14,4.46.63.73,2.29,1,3.86,1a7,7,0,0,0,3.23-.57,9.08,9.08,0,0,0,2.12-3.88,1.37,1.37,0,0,1,.85,0,9.08,9.08,0,0,0,2.12,3.88,7,7,0,0,0,3.23.57c1.57,0,3.23-.28,3.86-1,.16-.18.64-.72,1.14-4.46A2.11,2.11,0,0,0,34.83,19.14ZM22,25.35c-.61.44-4.92.61-5.7-.29-.16-.18-.52-1.21-.89-3.91A1.06,1.06,0,0,1,16,20.06a9.34,9.34,0,0,1,3.2-.48c2.93,0,4.47.08,4.73,1C24.18,21.7,22.61,24.89,22,25.35Zm12.9-4.2c-.37,2.7-.73,3.73-.89,3.91-.78.9-5.09.73-5.7.29s-2.19-3.65-1.89-4.76c.26-.93,1.8-1,4.73-1h.08a9.09,9.09,0,0,1,3.12.48A1.06,1.06,0,0,1,34.89,21.15Z"/></g></svg>