<svg xmlns="http://www.w3.org/2000/svg" viewBox="0 0 239.81 239.81"><defs><style>.cls-1{fill:#7950ed;}.cls-2{fill:#fff;}</style></defs><g id="Layer_2" data-name="Layer 2"><circle class="cls-1" cx="119.91" cy="119.91" r="119.91"/><path class="cls-2" d="M120.82,64.45c-56.82-.74-58.06,55-58,60.41-7.86,4.11-16.32,11.69-15.26,25.46,3,38.89,64.08,27.46,73.3,26.3,9.22,1.16,70.45,13.14,73.31-26.3,1-13.77-7.41-21.35-15.26-25.46,0-5.41-2.68-59.48-58.05-60.41"/><path class="cls-1" d="M59.09,123.53a15,15,0,0,1,2.46-.94c.81-.26,1.64-.43,2.47-.62a26.61,26.61,0,0,1,5-.44,29.35,29.35,0,0,1,9.87,1.79,33,33,0,0,1,8.59,4.91,15.62,15.62,0,0,1,1.86,1.59l1.76,1.68q1.62,1.81,3.11,3.71c-1.33-.93-2.54-2-3.84-2.86l-2-1.3-1-.65c-.32-.22-.68-.38-1-.57-.69-.37-1.37-.74-2-1.12s-1.41-.64-2.11-1A33.47,33.47,0,0,0,78,126.17a33.13,33.13,0,0,0-8.93-1.25,32.06,32.06,0,0,0-4.49.31,28.56,28.56,0,0,0-4.28,1l-.15,0a1.46,1.46,0,0,1-1-2.71Z"/><path class="cls-1" d="M181.65,126.22a30.42,30.42,0,0,0-4.23-.88c-.73-.12-1.46-.17-2.19-.26s-1.46-.1-2.19-.12a29.58,29.58,0,0,0-8.68,1,28.65,28.65,0,0,0-8.11,3.55,34.62,34.62,0,0,0-3.72,2.61c-1.22.93-2.27,2.06-3.49,3.06.41-.65.85-1.3,1.3-2l.68-1a5.92,5.92,0,0,1,.72-.93,27.66,27.66,0,0,1,3.37-3.39,25.48,25.48,0,0,1,8.36-4.84,24.28,24.28,0,0,1,2.34-.72c.8-.17,1.6-.36,2.41-.51l2.44-.27c.81,0,1.63,0,2.45-.06s1.63.08,2.44.14,1.63.2,2.43.37,1.59.35,2.38.58a17.3,17.3,0,0,1,2.37.84,1.46,1.46,0,0,1,.76,1.92,1.44,1.44,0,0,1-1.71.83Z"/><path class="cls-1" d="M115.09,127.53H126.6a2.21,2.21,0,0,1,2.1,2.89c-1,3-3.16,7.28-7.59,7.28s-6.85-4.15-8.07-7.14A2.21,2.21,0,0,1,115.09,127.53Z"/><path class="cls-1" d="M120.84,148.2a1,1,0,0,1-1-1v-12a1,1,0,0,1,2,0v12A1,1,0,0,1,120.84,148.2Z"/><path class="cls-1" d="M104.16,141.84a51.76,51.76,0,0,0,8.29,3.19,32.71,32.71,0,0,0,8.45,1.24l1.06,0c.35,0,.7-.05,1.05-.07.7-.07,1.41-.07,2.11-.19s1.39-.26,2.1-.37a5.4,5.4,0,0,0,1-.24l1-.29a33.58,33.58,0,0,0,4.12-1.44,18.54,18.54,0,0,0,2-.92c.68-.33,1.37-.65,2.09-.94-.52.56-1.06,1.09-1.62,1.63l-.85.79a7,7,0,0,1-.91.72,20.66,20.66,0,0,1-4.05,2.35,12.57,12.57,0,0,1-2.19.89c-.76.23-1.53.42-2.3.63s-1.58.22-2.37.33a9.55,9.55,0,0,1-1.19.1h-1.2a23,23,0,0,1-9.2-2.05A21.45,21.45,0,0,1,104.16,141.84Z"/><path class="cls-2" d="M113,66.77s-7.34-20.21-30.27-21.48a7.52,7.52,0,0,0-6.58,3.18c-4,5.76-10.4,19-1.3,37.66Z"/><path class="cls-1" d="M80.47,49.31a30,30,0,0,0-.61,30.47S85.41,73,93.55,70.23c0,0-2.57-1.59-7.78,1.12S76,59.36,80.47,49.31Z"/><path class="cls-2" d="M128.17,66.77s7.34-20.21,30.27-21.48A7.53,7.53,0,0,1,165,48.47c4,5.76,10.39,19,1.3,37.66Z"/><path class="cls-1" d="M160.66,49.31a30,30,0,0,1,.61,30.47s-5.55-6.82-13.69-9.55c0,0,2.56-1.59,7.78,1.12S165.16,59.36,160.66,49.31Z"/><ellipse class="cls-1" cx="100.22" cy="110.47" rx="7.39" ry="9.13" transform="translate(-22.77 26.08) rotate(-13.33)"/><ellipse class="cls-2" cx="102.63" cy="114.83" rx="3.59" ry="4.84" transform="translate(-18.9 20.23) rotate(-10.31)"/><ellipse class="cls-1" cx="140.06" cy="110.53" rx="9.02" ry="7.29" transform="translate(-11.4 204.83) rotate(-70.18)"/><ellipse class="cls-2" cx="136.52" cy="114.43" rx="4.56" ry="3.39" transform="translate(-17.42 204.08) rotate(-70.18)"/><path class="cls-1" d="M92.89,128.34c-7.54,0-15.47-1.35-18.51-4.84-.75-.86-3-3.47-5.47-21.37h0a10.16,10.16,0,0,1,5.25-10.34c3.12-1.64,11-2.9,17.71-2.87,15.15.12,25.17.2,27.47,8.49,2.13,7.69-6.52,25-10.93,28.2C106.17,127.24,99.69,128.34,92.89,128.34Zm-19-26.89c1.76,13,3.52,17.89,4.28,18.76,3.74,4.29,24.4,3.47,27.32,1.35s10.53-17.5,9-22.81c-1.24-4.45-8.63-4.72-22.69-4.83-6.15,0-13.2,1.17-15.34,2.29a5.12,5.12,0,0,0-2.62,5.24Z"/><path class="cls-1" d="M148.32,128.34c-6.8,0-13.28-1.1-15.52-2.73-4.41-3.19-13.06-20.51-10.93-28.2,2.3-8.29,12.31-8.37,27.47-8.49,6.66-.07,14.59,1.23,17.7,2.87a10.15,10.15,0,0,1,5.26,10.34h0c-2.44,17.9-4.72,20.51-5.47,21.37C163.79,127,155.86,128.34,148.32,128.34Zm1.43-34.42h-.37c-14.06.11-21.45.38-22.69,4.83-1.48,5.31,6.06,20.65,9.05,22.81s23.58,2.94,27.32-1.35c.76-.87,2.52-5.8,4.28-18.76h0a5.12,5.12,0,0,0-2.62-5.24C162.62,95.11,155.84,93.92,149.75,93.92Z"/><path class="cls-1" d="M115.1,95s4.37,2.9,11.48,0c0,0-4,5.16-.6,14.12,0,0-4.92-5.48-10.88,0C115.1,109.11,119.59,98.38,115.1,95Z"/></g></svg>