<svg width="987" height="986" viewBox="0 0 987 986" fill="none" xmlns="http://www.w3.org/2000/svg">
<path d="M638.156 964.112C585.183 980.013 532.632 987.378 478.906 985.519C374.606 981.911 280.123 949.422 197.089 886.257C103.632 815.163 41.0208 722.495 14.9155 607.728C-21.7444 446.559 12.9597 300.841 119.054 173.892C195.444 82.4884 294.011 26.3602 411.466 7.54945C564.237 -16.9172 701.009 21.3845 818.385 123.013C904.54 197.609 957.598 292.192 978.272 404.084C998.146 511.652 984.034 615.508 934.412 713.035C871.268 837.136 772.61 920.873 638.156 964.112ZM197.212 359.724C199.945 378.8 202.671 397.877 205.443 416.947C205.525 417.506 205.995 418.121 206.46 418.482C206.964 418.874 207.675 418.999 209.285 419.626C211.767 417.29 214.612 414.666 217.398 411.983C254.898 375.874 307.566 372.299 350.131 397.728C384.458 418.235 403.578 448.699 404.625 489.546C405.158 510.322 402.622 530.686 398.261 550.943C390.565 586.691 381.931 622.256 377.811 658.7C373.463 697.155 377.378 734.426 392.952 770.103C396.602 778.462 400.613 786.756 408.987 793.501C408.987 784.278 408.404 776.609 409.092 769.056C411.568 741.859 415.236 714.841 424.134 688.835C438.656 646.39 460.711 609.091 497.228 581.609C513.185 569.601 529.074 557.498 544.822 545.217C579.63 518.071 606.724 484.778 623.283 443.647C646.779 385.287 647.063 326.749 621.413 269.009C580.318 176.504 478.321 125.334 384.276 141.108C297.911 155.594 224.695 219.604 204.223 306.924C200.449 323.023 199.487 339.782 197.212 359.724ZM664.579 815.483C654.343 807.816 642.967 802.505 630.9 798.325C624.041 795.95 617.043 793.17 611.095 789.121C592.801 776.669 586.889 751.935 596.767 732.216C600.216 725.331 607.184 723.926 613.282 729.112C617.839 732.987 621.835 737.576 626.628 741.104C633.868 746.431 641.635 747.522 644.997 743.916C650.344 738.181 648.832 731.292 646.256 725.137C643.708 719.053 639.956 713.446 636.491 707.777C627.362 692.84 640.71 673.56 654.368 673.104C660.357 672.904 666.358 672.897 672.335 672.513C679.63 672.045 687.035 671.925 694.163 670.504C712.756 666.797 724.281 652.959 724.635 633.858C725.228 601.912 710.214 579.228 682.091 565.038C675.027 561.473 667.285 559.251 659.496 556.274C657.748 552.078 656.091 547.745 654.154 543.542C651.841 538.524 648.702 534.394 642.519 533.884C635.287 533.287 631.681 537.924 628.645 543.345C627.021 546.246 625.542 549.238 624.157 552.262C614.551 573.249 610.517 595.271 611.35 618.339C611.609 625.483 613.55 632.848 610.401 640.805C607.718 640.805 605.104 641.205 602.654 640.742C583.778 637.17 565.445 640.503 547.439 645.578C507.707 656.779 478.365 681.89 455.794 715.655C444.943 731.887 437.178 749.471 433.486 768.723C423.899 818.716 455.696 857.564 506.694 857.796C554.685 858.015 602.677 857.851 650.669 857.828C654.664 857.826 658.73 858.052 662.642 857.417C677.671 854.983 684.674 840.015 676.563 827.257C674.133 823.434 670.199 820.568 664.579 815.483Z" fill="#7A51EE"/>
</svg>
