<svg width="101" height="18" viewBox="0 0 101 18" fill="none" xmlns="http://www.w3.org/2000/svg">
<path d="M4.15551 4.17041C5.61797 4.17041 6.61672 4.88009 7.15176 5.64436V4.31599H9.47029V13.5782H7.15176V12.2316C6.61672 13.0323 5.5823 13.742 4.13768 13.742C1.83699 13.742 0 11.8131 0 8.91979C0 6.02649 1.83698 4.17041 4.15551 4.17041ZM4.74406 6.22666C3.51346 6.22666 2.3542 7.17289 2.3542 8.91979C2.3542 10.6667 3.51346 11.6857 4.74406 11.6857C6.01033 11.6857 7.15176 10.7213 7.15176 8.95619C7.15176 7.19109 6.01033 6.22666 4.74406 6.22666Z" fill="#121242"/>
<path d="M24.5053 8.46486C24.5053 6.99091 23.7027 6.22665 22.49 6.22665C21.2594 6.22665 20.4568 6.99091 20.4568 8.46486V13.5782H18.1561V8.46486C18.1561 6.99091 17.3535 6.22665 16.1408 6.22665C14.8923 6.22665 14.0898 6.99091 14.0898 8.46486V13.5782H11.7891V4.31598H14.0898V5.44418C14.6605 4.67991 15.6236 4.1886 16.765 4.1886C18.1739 4.1886 19.3332 4.80729 19.9574 5.95369C20.546 4.89828 21.7409 4.1886 23.0785 4.1886C25.2544 4.1886 26.806 5.58976 26.806 8.15551V13.5964H24.5053V8.46486Z" fill="#121242"/>
<path d="M34.3677 4.17041C36.7041 4.17041 38.5233 6.02649 38.5233 8.91979C38.5233 11.8131 36.7041 13.742 34.3677 13.742C32.941 13.742 31.9244 13.0141 31.3715 12.268V18H29.0708V4.31599H31.3715V5.66255C31.9065 4.86189 32.9588 4.17041 34.3677 4.17041ZM33.7614 6.22666C32.5308 6.22666 31.3715 7.19109 31.3715 8.95618C31.3715 10.7213 32.5308 11.6857 33.7614 11.6857C35.0098 11.6857 36.1691 10.6849 36.1691 8.91979C36.1691 7.15469 35.0098 6.22666 33.7614 6.22666Z" fill="#121242"/>
<path d="M40.271 1.20435H42.5717V13.5964H40.271V1.20435Z" fill="#121242"/>
<path d="M44.6582 1.8412C44.6582 1.07694 45.2468 0.47644 46.0672 0.47644C46.8697 0.47644 47.4761 1.07694 47.4761 1.8412C47.4761 2.60547 46.8697 3.20597 46.0672 3.20597C45.2468 3.20597 44.6582 2.60547 44.6582 1.8412ZM44.9079 4.31598H47.2086V13.5782H44.9079V4.31598Z" fill="#121242"/>
<path d="M53.4509 4.17041C55.7159 4.17041 57.2319 5.3714 57.7312 7.44585H55.2522C54.9847 6.66338 54.3783 6.15387 53.4331 6.15387C52.149 6.15387 51.2929 7.1365 51.2929 8.95619C51.2929 10.7577 52.149 11.7403 53.4331 11.7403C54.3783 11.7403 54.9669 11.3036 55.2522 10.4665H57.7312C57.2319 12.45 55.7159 13.742 53.4509 13.742C50.8292 13.742 48.9565 11.8677 48.9565 8.95619C48.9565 6.04469 50.8292 4.17041 53.4509 4.17041Z" fill="#121242"/>
<path d="M63.0637 4.17041C64.5262 4.17041 65.5249 4.88009 66.06 5.64436V4.31599H68.3785V13.5782H66.06V12.2316C65.5249 13.0323 64.4905 13.742 63.0459 13.742C60.7452 13.742 58.9082 11.8131 58.9082 8.91979C58.9082 6.02649 60.7452 4.17041 63.0637 4.17041ZM63.6523 6.22666C62.4217 6.22666 61.2624 7.17289 61.2624 8.91979C61.2624 10.6667 62.4217 11.6857 63.6523 11.6857C64.9185 11.6857 66.06 10.7213 66.06 8.95619C66.06 7.19109 64.9185 6.22666 63.6523 6.22666Z" fill="#121242"/>
<path d="M71.0713 6.24486H69.9834V4.316H71.0713V2.02319H73.3898V4.316H75.423V6.24486H73.372V10.7213C73.372 11.34 73.6217 11.6129 74.3351 11.6129H75.4052V13.5964H73.9605C72.2306 13.5964 71.0535 12.8503 71.0535 10.7213V6.24486H71.0713Z" fill="#121242"/>
<path d="M76.9038 1.8412C76.9038 1.07694 77.4924 0.47644 78.3128 0.47644C79.1153 0.47644 79.7217 1.07694 79.7217 1.8412C79.7217 2.60547 79.1153 3.20597 78.3128 3.20597C77.4924 3.20597 76.9038 2.60547 76.9038 1.8412ZM77.1535 4.31598H79.4542V13.5782H77.1535V4.31598Z" fill="#121242"/>
<path d="M85.8211 13.742C83.1994 13.742 81.2197 11.8677 81.2197 8.95619C81.2197 6.02649 83.2707 4.17041 85.8924 4.17041C88.5142 4.17041 90.5652 6.02649 90.5652 8.95619C90.5652 11.8677 88.4785 13.742 85.8211 13.742ZM85.8211 11.7039C87.0339 11.7039 88.1931 10.7941 88.1931 8.95619C88.1931 7.10011 87.0695 6.20846 85.8389 6.20846C84.6083 6.20846 83.5204 7.10011 83.5204 8.95619C83.5561 10.7941 84.5905 11.7039 85.8211 11.7039Z" fill="#121242"/>
<path d="M98.6976 8.46487C98.6976 6.97272 97.895 6.17206 96.6823 6.17206C95.4338 6.17206 94.6313 6.97272 94.6313 8.46487V13.5782H92.3306V4.31599H94.6313V5.46239C95.2198 4.67992 96.2007 4.17041 97.3778 4.17041C99.5002 4.17041 100.998 5.57157 100.998 8.13732V13.5782H98.6976V8.46487Z" fill="#121242"/>
</svg>
