<svg width="116" height="32" viewBox="0 0 116 32" fill="none" xmlns="http://www.w3.org/2000/svg">
<path fill-rule="evenodd" clip-rule="evenodd" d="M18.8961 15.2761C17.8513 16.6475 16.4649 17.7523 14.7369 18.5523L22.3521 31.9998C18.0879 31.9998 14.1482 29.7232 12.0191 26.0286L11.8378 25.7141L8.93014 20.0951H8.88996L7.96588 17.9999C7.21458 16.5614 10.2706 14.3999 11.8378 13.5999L13.5256 16.5614L15.0415 6.75014C15.1349 6.14505 14.6676 5.59878 14.0553 5.59745L6.39846 5.58092L8.37176 8.79995C6.84471 9.56185 5.5306 10.7999 4.71884 11.9999L0.40374 4.49541C-0.746258 2.49542 0.697411 0 3.00446 0H8.84977C11.1805 0 13.2099 0.342855 14.958 1.04761C16.706 1.75237 18.0522 2.81903 19.0368 4.24759C20.0012 5.6952 20.4834 7.50472 20.4834 9.69518C20.4834 12.038 19.9409 13.9047 18.8961 15.2761ZM106.986 30.3787C107.953 31.4596 109.376 32 111.253 32H115.05L115.52 27.648H114.069C112.988 27.648 112.234 27.5911 111.808 27.4774C111.409 27.3351 111.139 27.0507 110.997 26.624C110.883 26.1689 110.826 25.3725 110.826 24.2347V14.5921H115.52V10.2401H110.826V4.99216L105.536 5.54682V10.2401H102.976L102.506 14.5921H105.536V26.4107C105.536 27.9467 106.019 29.2693 106.986 30.3787ZM55.4889 32C53.128 32 51.0942 31.5165 49.3876 30.5493C47.7094 29.5538 46.4436 28.2169 45.5903 26.5387C44.7369 24.8605 44.3103 22.9974 44.3103 20.9494C44.3103 18.873 44.7369 16.9956 45.5903 15.3174C46.4436 13.6108 47.7236 12.2739 49.4302 11.3068C51.1369 10.3112 53.2133 9.81346 55.6595 9.81346C57.8497 9.81346 59.7555 10.2686 61.3768 11.1788L60.9502 15.4454C59.4142 14.649 57.8213 14.2508 56.1715 14.2508C54.152 14.2508 52.5733 14.8623 51.4356 16.0854C50.2978 17.3085 49.7289 18.9299 49.7289 20.9494C49.7289 22.8836 50.312 24.4907 51.4782 25.7707C52.6444 27.0223 54.1947 27.648 56.1289 27.648C57.7502 27.648 59.3715 27.1787 60.9928 26.24L61.4622 30.72C60.6942 31.1182 59.784 31.4311 58.7315 31.6587C57.7075 31.8862 56.6266 32 55.4889 32ZM33.9147 32C31.44 32 29.3209 31.5022 27.5574 30.5067C25.8223 29.4827 24.5138 28.1316 23.6321 26.4534C22.7787 24.7467 22.3521 22.8552 22.3521 20.7787C22.3521 18.7876 22.7645 16.9672 23.5894 15.3174C24.4143 13.6677 25.6089 12.3592 27.1734 11.3921C28.7378 10.3966 30.6009 9.8988 32.7627 9.8988C34.7538 9.8988 36.432 10.3112 37.7973 11.1361C39.1911 11.961 40.2293 13.0703 40.912 14.4641C41.6231 15.8579 41.9786 17.4223 41.9786 19.1574C41.9786 20.0107 41.8648 20.9778 41.6373 22.0587H27.856C28.1405 23.936 28.88 25.344 30.0747 26.2827C31.2693 27.1929 32.7058 27.648 34.384 27.648C36.688 27.648 38.8213 27.0649 40.784 25.8987L41.04 30.3787C40.1297 30.8622 39.0631 31.2605 37.84 31.5733C36.6453 31.8578 35.3369 32 33.9147 32ZM36.6026 18.4747C36.6026 17.3654 36.2898 16.3841 35.664 15.5308C35.0382 14.6774 34.0711 14.2508 32.7627 14.2508C31.4542 14.2508 30.4018 14.6348 29.6054 15.4028C28.8089 16.1708 28.2685 17.1948 27.984 18.4747H36.6026ZM65.1775 30.2933C66.3721 31.4311 67.8512 32 69.6148 32C70.9232 32 72.1606 31.7867 73.3268 31.36C74.5214 30.9049 75.4601 30.2933 76.1428 29.5253C76.5694 30.2933 77.181 30.9049 77.9774 31.36C78.7738 31.7867 79.7552 32 80.9214 32H82.8414L83.3107 27.648H82.628C82.0592 27.648 81.6467 27.5911 81.3907 27.4774C81.1632 27.3351 80.9925 27.0365 80.8787 26.5814C80.7934 26.0978 80.7507 25.3156 80.7507 24.2347V18.4747C80.7507 15.4881 80.0823 13.3121 78.7454 11.9468C77.437 10.5815 75.5312 9.8988 73.0281 9.8988C70.4397 9.8988 67.8512 10.5246 65.2628 11.7761L65.7321 16.0854C66.8984 15.5165 67.9224 15.1041 68.8041 14.8481C69.7143 14.5921 70.6388 14.4641 71.5774 14.4641C72.9143 14.4641 73.8672 14.7343 74.4361 15.2748C75.0334 15.8152 75.3605 16.7112 75.4174 17.9627C73.7392 18.0196 71.9899 18.2899 70.1694 18.7734C68.349 19.2285 66.7704 20.025 65.4335 21.1627C64.0966 22.2721 63.4282 23.7512 63.4282 25.6C63.4282 27.5627 64.0113 29.1271 65.1775 30.2933ZM73.6681 27.5627C72.9854 27.8187 72.3739 27.9467 71.8334 27.9467C70.8379 27.9467 70.1126 27.7476 69.6575 27.3494C69.2023 26.9227 68.9748 26.2685 68.9748 25.3867C68.9748 24.2205 69.629 23.3103 70.9374 22.6561C72.2459 22.0018 73.7534 21.6321 75.4601 21.5467V26.4107C74.9481 26.8943 74.3508 27.2782 73.6681 27.5627ZM92.3153 32C90.95 32 89.6984 31.872 88.5607 31.616C87.4513 31.36 86.2994 30.9618 85.1047 30.4213L85.574 25.8987C86.7687 26.6098 87.878 27.1502 88.902 27.52C89.9544 27.8614 91.0353 28.032 92.1447 28.032C94.3064 28.032 95.3873 27.3209 95.3873 25.8987C95.3873 25.1307 95.1029 24.5476 94.534 24.1494C93.9651 23.7227 92.9411 23.2249 91.462 22.6561C89.3571 21.8881 87.8069 21.0205 86.8114 20.0534C85.8158 19.0579 85.318 17.721 85.318 16.0428C85.318 14.1939 86.0291 12.7006 87.4513 11.5628C88.8736 10.3966 90.7935 9.81346 93.2113 9.81346C95.6291 9.81346 97.8335 10.3681 99.8246 11.4775L99.3553 16.0001C98.2744 15.2605 97.2504 14.6917 96.2833 14.2934C95.3446 13.8952 94.3491 13.6961 93.2966 13.6961C92.3864 13.6961 91.6753 13.881 91.1633 14.2508C90.6798 14.6205 90.438 15.1468 90.438 15.8294C90.438 16.3699 90.5802 16.8108 90.8647 17.1521C91.1775 17.4934 91.6042 17.8063 92.1447 18.0907C92.6851 18.3467 93.5811 18.7165 94.8326 19.2001C96.9091 19.9965 98.4024 20.8783 99.3126 21.8454C100.223 22.7841 100.678 24.0498 100.678 25.6427C100.678 27.6622 99.9526 29.2267 98.502 30.336C97.0513 31.4453 94.9891 32 92.3153 32Z" fill="url(#paint0_linear)"/>
<defs>
<linearGradient id="paint0_linear" x1="0.00258965" y1="4.26619" x2="12.3902" y2="53.8533" gradientUnits="userSpaceOnUse">
<stop stop-color="#65C59D"/>
<stop offset="0.404697" stop-color="#66C6E4"/>
<stop offset="0.998698" stop-color="#7950ED"/>
</linearGradient>
</defs>
</svg>
