<svg width="222" height="221" viewBox="0 0 222 221" fill="none" xmlns="http://www.w3.org/2000/svg">
<path opacity="0.4545" d="M111.002 181.673C150.308 181.673 182.173 149.808 182.173 110.502C182.173 71.1953 150.308 39.3311 111.002 39.3311C71.6953 39.3311 39.8311 71.1953 39.8311 110.502C39.8311 149.808 71.6953 181.673 111.002 181.673Z" stroke="white" stroke-opacity="0.1" stroke-miterlimit="10"/>
<path opacity="0.3636" d="M110.997 191.379C155.665 191.379 191.875 155.169 191.875 110.501C191.875 65.8334 155.665 29.623 110.997 29.623C66.3295 29.623 30.1191 65.8334 30.1191 110.501C30.1191 155.169 66.3295 191.379 110.997 191.379Z" stroke="white" stroke-opacity="0.1" stroke-miterlimit="10"/>
<path opacity="0.2727" d="M111.01 201.086C161.039 201.086 201.596 160.529 201.596 110.5C201.596 60.4715 161.039 19.915 111.01 19.915C60.9813 19.915 20.4248 60.4715 20.4248 110.5C20.4248 160.529 60.9813 201.086 111.01 201.086Z" stroke="white" stroke-opacity="0.1" stroke-miterlimit="10"/>
<path opacity="0.1818" d="M111.005 209.835C166.395 209.835 211.297 164.932 211.297 109.542C211.297 54.1521 166.395 9.24951 111.005 9.24951C55.6145 9.24951 10.7119 54.1521 10.7119 109.542C10.7119 164.932 55.6145 209.835 111.005 209.835Z" stroke="white" stroke-opacity="0.1" stroke-miterlimit="10"/>
<path opacity="0.0909091" d="M111 220.5C171.751 220.5 221 171.251 221 110.5C221 49.7487 171.751 0.5 111 0.5C50.2487 0.5 1 49.7487 1 110.5C1 171.251 50.2487 220.5 111 220.5Z" stroke="white" stroke-opacity="0.1" stroke-miterlimit="10"/>
<path d="M186.476 83.724C188.682 83.5919 190.362 81.6972 190.229 79.4921C190.096 77.2869 188.2 75.6064 185.994 75.7384C183.788 75.8705 182.108 77.7652 182.241 79.9703C182.373 82.1754 184.269 83.856 186.476 83.724Z" fill="#F85B6E"/>
<path d="M147.488 27.5176C147.031 28.8294 145.616 29.5133 144.304 29.0566C142.991 28.5998 142.307 27.185 142.763 25.8733C143.22 24.5616 144.635 23.8776 145.947 24.3344C147.216 24.7759 147.944 26.2059 147.488 27.5176Z" fill="#20A4F3"/>
<path d="M30.3833 167.468C30.0957 168.541 29.0066 169.169 27.9328 168.882C26.8589 168.594 26.2299 167.505 26.5175 166.432C26.8051 165.359 27.8942 164.73 28.9681 165.018C30.0061 165.296 30.6709 166.394 30.3833 167.468Z" fill="#53DBEE"/>
<circle cx="110.897" cy="110.603" r="62.3971" fill="#15192C"/>
<line x1="132.215" y1="114.932" x2="128.592" y2="115.235" stroke="#2C3249" stroke-width="1.5" stroke-linecap="round"/>
<line x1="127.852" y1="120.796" x2="129.187" y2="121.225" stroke="#2C3249" stroke-width="1.5" stroke-linecap="round"/>
<line x1="127.684" y1="127.443" x2="124.851" y2="125.047" stroke="#2C3249" stroke-width="1.5" stroke-linecap="round"/>
<path d="M121.645 129.305L121.083 128.221" stroke="#2C3249" stroke-width="1.5" stroke-linecap="round"/>
<line x1="115.782" y1="132.967" x2="115.37" y2="129.016" stroke="#2C3249" stroke-width="1.5" stroke-linecap="round"/>
<line x1="89.5614" y1="106.548" x2="93.1828" y2="106.222" stroke="#2C3249" stroke-width="1.5" stroke-linecap="round"/>
<line x1="93.8866" y1="100.657" x2="92.5483" y2="100.236" stroke="#2C3249" stroke-width="1.5" stroke-linecap="round"/>
<line x1="94.0115" y1="94.0078" x2="96.8604" y2="96.3854" stroke="#2C3249" stroke-width="1.5" stroke-linecap="round"/>
<path d="M100.039 92.1069L100.608 93.1867" stroke="#2C3249" stroke-width="1.5" stroke-linecap="round"/>
<line x1="105.877" y1="88.407" x2="106.314" y2="92.355" stroke="#2C3249" stroke-width="1.5" stroke-linecap="round"/>
<path d="M119 95L119 94L119 95ZM127 103L127.996 103.091L127 103ZM94.9997 119L95.9997 119L94.9997 119ZM103 127L103.091 127.996L103 127ZM99.1789 110.629L99.89 111.332L99.1789 110.629ZM102.73 110.73L103.437 110.023L103.437 110.023L102.73 110.73ZM119.19 111.19L118.483 111.897L118.483 111.897L119.19 111.19ZM122.831 111.216L123.57 111.889L123.57 111.889L122.831 111.216ZM111.19 119.19L110.483 119.897L110.483 119.897L111.19 119.19ZM111.216 122.831L111.889 123.57L111.889 123.57L111.216 122.831ZM110.473 99.2153L109.748 98.5267L109.748 98.5267L110.473 99.2153ZM110.64 102.64L111.347 101.933L111.347 101.933L110.64 102.64ZM90.2929 130.293C89.9024 130.683 89.9024 131.317 90.2929 131.707C90.6834 132.098 91.3166 132.098 91.7071 131.707L90.2929 130.293ZM97.7071 125.707C98.0976 125.317 98.0976 124.683 97.7071 124.293C97.3166 123.902 96.6834 123.902 96.2929 124.293L97.7071 125.707ZM102.293 110.293C101.902 110.683 101.902 111.317 102.293 111.707C102.683 112.098 103.317 112.098 103.707 111.707L102.293 110.293ZM107.707 107.707C108.098 107.317 108.098 106.683 107.707 106.293C107.317 105.902 106.683 105.902 106.293 106.293L107.707 107.707ZM110.293 118.293C109.902 118.683 109.902 119.317 110.293 119.707C110.683 120.098 111.317 120.098 111.707 119.707L110.293 118.293ZM115.707 115.707C116.098 115.317 116.098 114.683 115.707 114.293C115.317 113.902 114.683 113.902 114.293 114.293L115.707 115.707ZM124.293 96.2929C123.902 96.6834 123.902 97.3166 124.293 97.7071C124.683 98.0976 125.317 98.0976 125.707 97.7071L124.293 96.2929ZM131.707 91.7071C132.098 91.3166 132.098 90.6834 131.707 90.2929C131.317 89.9024 130.683 89.9024 130.293 90.2929L131.707 91.7071ZM119 94C114.747 94.0001 111.483 96.7 109.748 98.5267L111.198 99.904C112.822 98.1935 115.59 96 119 96L119 94ZM109.932 103.347L118.483 111.897L119.897 110.483L111.347 101.933L109.932 103.347ZM123.57 111.889C125.255 110.04 127.656 106.822 127.996 103.091L126.004 102.909C125.726 105.965 123.705 108.772 122.091 110.543L123.57 111.889ZM127.996 103.091C128.192 100.93 126.977 98.6559 125.331 96.9862C123.673 95.3031 121.352 93.9999 119 94L119 96C120.647 95.9999 122.486 96.9476 123.907 98.39C125.341 99.8457 126.126 101.571 126.004 102.909L127.996 103.091ZM95.9997 119C95.9991 115.92 98.1537 113.088 99.89 111.332L98.4678 109.926C96.6724 111.742 93.999 115.075 93.9997 119.001L95.9997 119ZM102.023 111.438L110.483 119.897L111.897 118.483L103.437 110.023L102.023 111.438ZM110.542 122.092C108.771 123.705 105.965 125.726 102.909 126.004L103.091 127.996C106.822 127.656 110.04 125.255 111.889 123.57L110.542 122.092ZM102.909 126.004C101.481 126.134 99.7569 125.343 98.3324 123.918C96.9175 122.503 96 120.66 95.9997 119L93.9997 119.001C94.0001 121.34 95.2496 123.664 96.9182 125.332C98.5772 126.991 100.853 128.2 103.091 127.996L102.909 126.004ZM99.89 111.332C100.431 110.785 101.362 110.777 102.023 111.438L103.437 110.023C102.111 108.697 99.902 108.475 98.4678 109.926L99.89 111.332ZM118.483 111.897C119.855 113.27 122.154 113.444 123.57 111.889L122.091 110.543C121.55 111.136 120.58 111.165 119.897 110.483L118.483 111.897ZM110.483 119.897C111.165 120.58 111.136 121.551 110.542 122.092L111.889 123.57C113.444 122.154 113.269 119.856 111.897 118.483L110.483 119.897ZM109.748 98.5267C108.384 99.9629 108.663 102.077 109.932 103.347L111.347 101.933C110.71 101.296 110.705 100.423 111.198 99.904L109.748 98.5267ZM91.7071 131.707L97.7071 125.707L96.2929 124.293L90.2929 130.293L91.7071 131.707ZM103.707 111.707L107.707 107.707L106.293 106.293L102.293 110.293L103.707 111.707ZM111.707 119.707L115.707 115.707L114.293 114.293L110.293 118.293L111.707 119.707ZM125.707 97.7071L131.707 91.7071L130.293 90.2929L124.293 96.2929L125.707 97.7071Z" fill="#2C3249"/>
</svg>