<svg width="14" height="15" viewBox="0 0 14 15" fill="none" xmlns="http://www.w3.org/2000/svg">
<path fill-rule="evenodd" clip-rule="evenodd" d="M7.00028 1.28571C5.46177 1.28571 4.21456 2.53292 4.21456 4.07143C4.21456 5.60994 5.46177 6.85714 7.00028 6.85714C8.53879 6.85714 9.78599 5.60994 9.78599 4.07143C9.78599 2.53292 8.53879 1.28571 7.00028 1.28571ZM2.92885 4.07143C2.92885 1.82284 4.75169 0 7.00028 0C9.24887 0 11.0717 1.82284 11.0717 4.07143C11.0717 6.32002 9.24887 8.14286 7.00028 8.14286C4.75169 8.14286 2.92885 6.32002 2.92885 4.07143ZM1.43561 10.4427C2.12091 9.79008 3.04398 9.42857 4.00028 9.42857H10.0003C10.9566 9.42857 11.8796 9.79008 12.5649 10.4427C13.2513 11.0964 13.6431 11.9899 13.6431 12.9286V14.3571C13.6431 14.7122 13.3553 15 13.0003 15C12.6452 15 12.3574 14.7122 12.3574 14.3571V12.9286C12.3574 12.3517 12.1171 11.7917 11.6782 11.3738C11.2383 10.9548 10.6353 10.7143 10.0003 10.7143H4.00028C3.36528 10.7143 2.76222 10.9548 2.32231 11.3738C1.88346 11.7917 1.64314 12.3517 1.64314 12.9286V14.3571C1.64314 14.7122 1.35532 15 1.00028 15C0.645239 15 0.357422 14.7122 0.357422 14.3571V12.9286C0.357422 11.9899 0.749237 11.0964 1.43561 10.4427Z" fill="white"/>
</svg>
