<svg width="460" height="200" viewBox="0 0 460 200" fill="none" xmlns="http://www.w3.org/2000/svg">
<mask id="mask0" mask-type="alpha" maskUnits="userSpaceOnUse" x="0" y="0" width="460" height="200">
<rect width="460" height="200" rx="4" transform="matrix(1 0 0 -1 0 200)" fill="white"/>
</mask>
<g mask="url(#mask0)">
<path d="M194.978 571.985C196.524 573.563 199.072 573.575 200.634 572.013L341.104 431.543C342.666 429.981 342.653 427.442 341.125 425.846C272.797 354.493 273.995 241.295 343.932 171.357C414.139 101.151 527.076 100.215 598.421 168.55C600.017 170.078 602.556 170.091 604.118 168.529L744.588 28.059C746.15 26.4969 746.138 23.9496 744.56 22.4033C592.497 -126.615 348.709 -125.673 197.805 25.2306C46.9021 176.134 45.9597 419.922 194.978 571.985Z" fill="#F4F4F7"/>
<path d="M132 161C132 110.743 89.9141 69.9998 38 69.9998L38 252C89.9141 252 132 211.257 132 161Z" fill="#A787FF"/>
<path d="M-1 97.9998L-1 138L203 138L203 97.9998L-1 97.9998Z" fill="#414168"/>
<path d="M203.187 137L203 199.779L268 200L203.187 137Z" fill="#41CADD"/>
<path d="M349 113.897C303.713 113.897 267 152.326 267 199.729L431 199.729C431 152.326 394.287 113.897 349 113.897Z" fill="#414168"/>
<path d="M293 170L352 170L352 112L293 112L293 170Z" fill="#A787FF"/>
<path d="M369.814 174.617C369.874 167.06 369.935 159.503 369.995 151.977C370.056 144.481 370.116 136.985 370.177 129.458C370.177 127.569 370.207 125.71 370.207 123.821C370.207 122.389 370.358 120.743 369.663 119.402C368.877 117.909 367.216 118.001 365.765 118.001C363.892 118.001 361.988 118.031 360.115 118.062C352.682 118.153 345.249 118.336 337.816 118.58C330.323 118.854 322.86 119.189 315.397 119.616C314.49 119.677 313.584 119.738 312.678 119.768C312.436 119.799 312.224 119.951 312.224 120.225C311.952 127.965 311.922 135.735 312.164 143.506C312.406 151.245 312.919 158.985 313.705 166.695C314.128 171.022 314.672 175.318 315.276 179.615C315.306 179.797 315.518 179.95 315.699 179.95C322.86 180.041 329.991 180.011 337.152 179.828C344.282 179.676 351.383 179.34 358.514 178.853C362.532 178.579 366.551 178.274 370.569 177.908C371.144 177.847 371.144 176.933 370.569 176.994C363.439 177.634 356.308 178.152 349.147 178.487C342.016 178.853 334.916 179.036 327.785 179.097C323.766 179.127 319.748 179.127 315.699 179.066C315.85 179.188 316.001 179.279 316.122 179.401C315.065 171.783 314.249 164.104 313.705 156.426C313.161 148.747 312.889 141.037 312.859 133.328C312.859 128.971 312.919 124.613 313.07 120.256C312.919 120.408 312.768 120.56 312.617 120.713C319.959 120.256 327.302 119.89 334.674 119.616C341.986 119.342 349.328 119.128 356.671 119.037C358.514 119.006 360.327 118.976 362.17 118.976C363.076 118.976 363.983 118.945 364.889 118.945C365.735 118.945 366.611 118.854 367.427 118.976C368.998 119.189 369.21 120.774 369.27 122.084C369.331 123.882 369.24 125.68 369.24 127.477C369.18 134.882 369.119 142.287 369.059 149.691C369.028 157.096 368.968 164.501 368.938 171.875C368.938 172.789 368.938 173.703 368.908 174.617C368.908 175.227 369.814 175.227 369.814 174.617Z" fill="white"/>
<path d="M157 72.9998C166.389 72.9998 174 80.3871 174 89.4998C174 98.6125 166.389 106 157 106C147.611 106 140 98.6125 140 89.4998C140 80.3871 147.611 72.9998 157 72.9998Z" fill="#41CADD"/>
<path fill-rule="evenodd" clip-rule="evenodd" d="M149.002 85.4369C135.388 85.7334 121.731 86.0302 108.106 85.9973L108.102 85.9973C105.898 85.9973 103.649 85.9973 101.431 85.9311C101.431 85.9311 101.43 85.9311 101.429 85.931L101.45 85.2545L101.433 85.9312C101.433 85.9311 101.432 85.9311 101.431 85.9311C101.093 85.9231 100.785 85.9221 100.497 85.9214L100.453 85.9213C100.184 85.9208 99.9286 85.9202 99.6937 85.9136C99.2085 85.8998 98.7293 85.8601 98.2989 85.6961C97.3318 85.3278 96.8917 84.458 96.5349 83.1193L96.5348 83.1188C95.2596 78.318 96.406 72.5873 98.4853 67.2239C100.572 61.8411 103.64 56.7222 106.346 53.0899L106.903 53.4892L106.347 53.0894C106.347 53.0895 106.347 53.0897 106.346 53.0899C117.639 37.9033 135.837 27.9997 155.476 27.9997C166.461 27.9997 179.412 30.4519 188.854 36.1398L188.855 36.1398C201.008 43.4631 209.126 55.8797 212.809 68.8918C212.809 68.8911 212.808 68.8905 212.808 68.8898L212.146 69.0753L212.809 68.894C212.809 68.8932 212.809 68.8925 212.809 68.8918C213.756 72.1596 214.399 75.4918 214.771 78.8547L214.771 78.8571C214.778 78.9263 214.786 78.9948 214.793 79.0628C214.9 80.0563 214.992 80.9216 215 81.6407C215.007 82.4033 214.923 83.1169 214.57 83.704C214.198 84.3236 213.595 84.6933 212.813 84.9085C212.051 85.118 211.06 85.198 209.809 85.2064C209.809 85.2064 209.809 85.2064 209.809 85.2064L209.804 84.5296L209.809 85.2064C209.809 85.2064 209.809 85.2064 209.809 85.2064C205.68 85.2371 201.553 85.0402 197.445 84.8443C197.12 84.8288 196.794 84.8132 196.469 84.7978C192.031 84.5877 187.614 84.3996 183.194 84.5142L183.19 84.5143C176.995 84.6399 170.807 84.8237 164.611 85.0077C159.417 85.162 154.217 85.3164 149.003 85.4369L149.002 85.4369ZM148.971 84.0836C154.155 83.9638 159.354 83.8094 164.553 83.6551C170.764 83.4707 176.975 83.2864 183.159 83.1609C187.637 83.045 192.1 83.2358 196.535 83.4458C196.859 83.4611 197.182 83.4765 197.505 83.4919C201.621 83.6881 205.71 83.8832 209.799 83.8528L209.799 83.8528C211.023 83.8446 211.863 83.764 212.442 83.6049C213 83.4514 213.246 83.2445 213.384 83.0156C213.541 82.7542 213.629 82.3474 213.622 81.654C213.615 81.0021 213.529 80.1987 213.419 79.1707C213.413 79.1144 213.407 79.0574 213.401 78.9997C213.037 75.7075 212.408 72.4505 211.483 69.2608L211.482 69.2566L211.482 69.2566C207.872 56.5013 199.932 44.4029 188.134 37.2937C178.977 31.7781 166.303 29.3534 155.476 29.3534C136.31 29.3534 118.513 39.0231 107.459 53.8884L107.459 53.8889C104.813 57.4401 101.809 62.4535 99.7729 67.7057C97.7292 72.9773 96.7012 78.3843 97.868 82.777C98.2137 84.0741 98.5095 84.3245 98.7969 84.434C98.9937 84.5089 99.2713 84.5474 99.7333 84.5605C99.9493 84.5666 100.188 84.5671 100.464 84.5677L100.501 84.5678C100.789 84.5684 101.111 84.5695 101.467 84.5779L101.471 84.578C103.666 84.6435 105.897 84.6436 108.107 84.6436L108.109 84.6436C121.714 84.6765 135.354 84.3802 148.971 84.0836Z" fill="#121242"/>
</g>
</svg>
