<svg width="24" height="24" viewBox="0 0 24 24" fill="none" xmlns="http://www.w3.org/2000/svg">
<path fill-rule="evenodd" clip-rule="evenodd" d="M15.3 12.9L13.833 14L15.3 15.1L14.7 15.9L12.7 14.4C12.574 14.306 12.5 14.157 12.5 14C12.5 13.843 12.574 13.694 12.7 13.6L14.7 12.1L15.3 12.9ZM7 6.5C7 6.224 7.224 6 7.5 6H10V7H8.722L10.356 8.648L9.645 9.352L8 7.693V9H7V6.5ZM18.464 12.186L16.464 17.186L15.536 16.815L17.536 11.815L18.464 12.186ZM20 8.5V19.5C20 19.776 19.777 20 19.5 20H11.496C11.363 20 11.237 19.947 11.143 19.854C11.049 19.759 10.996 19.632 10.996 19.499L11 16.999L12 17.001L11.997 19H19V9H13V8H19.5C19.777 8 20 8.224 20 8.5ZM11.5 10C11.776 10 12 10.224 12 10.5C12 10.776 11.776 11 11.5 11C11.225 11 11 10.776 11 10.5C11 10.224 11.225 10 11.5 10ZM5.5 19C5.225 19 5 18.776 5 18.5C5 18.224 5.225 18 5.5 18C5.776 18 6 18.224 6 18.5C6 18.776 5.776 19 5.5 19ZM5.5 12C5.776 12 6 12.224 6 12.5C6 12.776 5.776 13 5.5 13C5.225 13 5 12.776 5 12.5C5 12.224 5.225 12 5.5 12ZM5.5 5C5.776 5 6 5.224 6 5.5C6 5.776 5.776 6 5.5 6C5.225 6 5 5.776 5 5.5C5 5.224 5.225 5 5.5 5ZM12 13.798V11.908C12.581 11.701 13 11.151 13 10.5C13 9.673 12.327 9 11.5 9C10.673 9 10 9.673 10 10.5C10 11.151 10.419 11.701 11 11.908V13.798C11 13.988 10.87 14.163 10.735 14.222C10.675 14.236 9.249 14.587 8.023 15.297C7.431 15.622 6.591 16.521 6.128 17.142C6.086 17.123 6.043 17.108 6 17.092V13.908C6.581 13.701 7 13.151 7 12.5C7 11.849 6.581 11.299 6 11.092V6.908C6.581 6.701 7 6.151 7 5.5C7 4.673 6.327 4 5.5 4C4.673 4 4 4.673 4 5.5C4 6.151 4.419 6.701 5 6.908V11.092C4.419 11.299 4 11.849 4 12.5C4 13.151 4.419 13.701 5 13.908V17.092C4.419 17.299 4 17.849 4 18.5C4 19.327 4.673 20 5.5 20C6.327 20 7 19.327 7 18.5C7 18.266 6.942 18.046 6.845 17.849C7.153 17.419 7.993 16.454 8.514 16.168C9.622 15.526 10.957 15.197 11.037 15.172C11.622 14.94 12 14.401 12 13.798Z" fill="white"/>
</svg>
