<svg width="24" height="22" viewBox="0 0 24 22" fill="none" xmlns="http://www.w3.org/2000/svg">
<path d="M3.6809 3.00005C3.3661 2.99596 3.10758 3.24788 3.10356 3.56269C3.10313 3.59575 3.10557 3.6288 3.11088 3.66143L5.53095 18.3528C5.5932 18.7239 5.91288 18.9968 6.28922 19H17.8993C18.1817 19.0035 18.4242 18.7999 18.4693 18.5211L20.8895 3.6643C20.9399 3.35351 20.7288 3.06072 20.418 3.0103C20.3854 3.005 20.3524 3.00256 20.3193 3.00299L3.6809 3.00005ZM13.8714 13.6181H10.1658L9.16243 8.37609H14.7694L13.8714 13.6181Z" fill="#2684FF"/>
<path d="M20.105 8.36865H14.759L13.8617 13.6065H10.1591L5.78711 18.796C5.92565 18.9158 6.10235 18.9824 6.2855 18.9839H17.8891C18.1713 18.9876 18.4136 18.784 18.4588 18.5055L20.105 8.36865Z" fill="url(#paint0_linear_2820_11742)"/>
<defs>
<linearGradient id="paint0_linear_2820_11742" x1="21.3452" y1="9.84409" x2="15.1692" y2="18.613" gradientUnits="userSpaceOnUse">
<stop offset="0.18" stop-color="#0052CC"/>
<stop offset="1" stop-color="#2684FF"/>
</linearGradient>
</defs>
</svg>
