<svg width="150" height="120" viewBox="0 0 150 120" fill="none" xmlns="http://www.w3.org/2000/svg">
<path d="M3 0.134273H117.946C119.529 0.134273 120.812 1.4173 120.812 3V8.0141H0.134273V3C0.134273 1.4173 1.4173 0.134273 3 0.134273Z" fill="#15192C"/>
<path d="M5.01368 4.07418C5.01368 4.59331 4.59293 5.01409 4.07397 5.01409C3.55502 5.01409 3.13427 4.59331 3.13427 4.07418C3.13427 3.55506 3.55502 3.13427 4.07397 3.13427C4.59293 3.13427 5.01368 3.55506 5.01368 4.07418Z" stroke="#686F8C" stroke-width="0.268546"/>
<path d="M8.23584 4.07431C8.23584 4.59343 7.8151 5.01422 7.29614 5.01422C6.77718 5.01422 6.35644 4.59343 6.35644 4.07431C6.35644 3.55518 6.77718 3.1344 7.29614 3.1344C7.8151 3.1344 8.23584 3.55518 8.23584 4.07431Z" stroke="#686F8C" stroke-width="0.268546"/>
<path d="M11.458 4.07431C11.458 4.59343 11.0373 5.01422 10.5183 5.01422C9.99935 5.01422 9.57861 4.59343 9.57861 4.07431C9.57861 3.55518 9.99935 3.1344 10.5183 3.1344C11.0373 3.1344 11.458 3.55518 11.458 4.07431Z" stroke="#686F8C" stroke-width="0.268546"/>
<path d="M3 0.134273H117.946C119.529 0.134273 120.812 1.4173 120.812 3V8.0141H0.134273V3C0.134273 1.4173 1.4173 0.134273 3 0.134273Z" stroke="#373D57" stroke-width="0.268546"/>
<path d="M0.134273 8.01416H120.812V86.557C120.812 88.1397 119.529 89.4227 117.946 89.4227H3C1.4173 89.4227 0.134273 88.1397 0.134273 86.557V8.01416Z" fill="#2C3249"/>
<rect x="4" y="16.8799" width="0.783479" height="1.9587" rx="0.39174" fill="#373D57"/>
<rect x="6.35034" y="16.88" width="52.4931" height="1.9587" rx="0.979349" fill="#515873"/>
<rect x="4" y="20.9869" width="0.783479" height="1.9587" rx="0.39174" fill="#373D57"/>
<rect x="6.35034" y="20.9868" width="52.4931" height="1.9587" rx="0.979349" fill="#515873"/>
<rect x="4" y="25.094" width="0.783479" height="1.9587" rx="0.39174" fill="#373D57"/>
<rect x="6.35034" y="25.094" width="9.79349" height="1.9587" rx="0.979349" fill="#515873"/>
<rect x="17.7109" y="25.094" width="74.0388" height="1.9587" rx="0.979349" fill="#515873"/>
<rect x="4" y="29.201" width="0.783479" height="1.9587" rx="0.39174" fill="#373D57"/>
<rect x="6.35034" y="29.201" width="81.8736" height="1.9587" rx="0.979349" fill="#515873"/>
<rect x="89.791" y="29.201" width="21.9374" height="1.9587" rx="0.979349" fill="#515873"/>
<rect x="4" y="33.3081" width="0.783479" height="1.9587" rx="0.39174" fill="#373D57"/>
<rect x="6.35034" y="33.3081" width="69.7296" height="1.9587" rx="0.979349" fill="#515873"/>
<rect x="77.647" y="33.3081" width="32.9061" height="1.9587" rx="0.979349" fill="#515873"/>
<rect x="4" y="37.4152" width="0.783479" height="1.9587" rx="0.39174" fill="#373D57"/>
<rect x="6.35034" y="37.415" width="9.79349" height="1.9587" rx="0.979349" fill="#515873"/>
<rect x="17.7109" y="37.415" width="50.1427" height="1.9587" rx="0.979349" fill="#515873"/>
<rect x="4" y="41.5222" width="0.783479" height="1.9587" rx="0.39174" fill="#373D57"/>
<rect x="6.35034" y="41.5221" width="3.9174" height="1.9587" rx="0.979349" fill="#A787FF"/>
<rect x="11.8347" y="41.5221" width="90.4918" height="1.9587" rx="0.979349" fill="#A787FF"/>
<rect x="4" y="45.6294" width="0.783479" height="1.9587" rx="0.39174" fill="#373D57"/>
<rect x="6.35034" y="45.6294" width="9.79349" height="1.9587" rx="0.979349" fill="#A787FF"/>
<rect x="17.7109" y="45.6294" width="74.0388" height="1.9587" rx="0.979349" fill="#A787FF"/>
<rect x="4" y="49.7365" width="0.783479" height="1.9587" rx="0.39174" fill="#373D57"/>
<rect x="6.35034" y="49.7365" width="3.9174" height="1.9587" rx="0.979349" fill="#A787FF"/>
<rect x="11.8347" y="49.7365" width="104.018" height="2.07116" rx="1.03558" fill="#A787FF"/>
<rect x="4" y="53.9559" width="0.783479" height="1.9587" rx="0.39174" fill="#373D57"/>
<rect x="6.35034" y="53.9559" width="3.9174" height="1.9587" rx="0.979349" fill="#A787FF"/>
<rect x="11.8347" y="53.9559" width="3.9174" height="1.9587" rx="0.979349" fill="#A787FF"/>
<rect x="17.3191" y="53.9559" width="22.7209" height="1.9587" rx="0.979349" fill="#A787FF"/>
<rect x="41.6069" y="53.9559" width="47.0087" height="1.9587" rx="0.979349" fill="#A787FF"/>
<rect x="4" y="58.063" width="0.783479" height="1.9587" rx="0.39174" fill="#373D57"/>
<rect x="6.35034" y="58.063" width="9.79349" height="1.9587" rx="0.979349" fill="#515873"/>
<rect x="17.7109" y="58.063" width="65.4205" height="1.9587" rx="0.979349" fill="#515873"/>
<rect x="4" y="62.17" width="0.783479" height="1.9587" rx="0.39174" fill="#373D57"/>
<rect x="6.35034" y="62.1702" width="3.9174" height="1.9587" rx="0.979349" fill="#515873"/>
<rect x="11.8347" y="62.1702" width="90.4918" height="1.9587" rx="0.979349" fill="#515873"/>
<rect x="4" y="66.2771" width="0.783479" height="1.9587" rx="0.39174" fill="#373D57"/>
<rect x="6.35034" y="66.2771" width="9.79349" height="1.9587" rx="0.979349" fill="#515873"/>
<rect x="17.7109" y="66.2771" width="65.4205" height="1.9587" rx="0.979349" fill="#515873"/>
<rect x="4" y="70.3842" width="0.783479" height="1.9587" rx="0.39174" fill="#373D57"/>
<rect x="6.35034" y="70.3842" width="9.79349" height="1.9587" rx="0.979349" fill="#515873"/>
<rect x="17.7109" y="70.3842" width="74.0388" height="1.9587" rx="0.979349" fill="#515873"/>
<rect x="4" y="74.4912" width="0.783479" height="1.9587" rx="0.39174" fill="#373D57"/>
<rect x="6.35034" y="74.4912" width="3.9174" height="1.9587" rx="0.979349" fill="#515873"/>
<rect x="11.8347" y="74.4912" width="3.9174" height="1.9587" rx="0.979349" fill="#515873"/>
<rect x="17.3191" y="74.4912" width="22.7209" height="1.9587" rx="0.979349" fill="#515873"/>
<rect x="41.6069" y="74.4912" width="47.0087" height="1.9587" rx="0.979349" fill="#515873"/>
<rect x="4" y="78.5983" width="0.783479" height="1.9587" rx="0.39174" fill="#373D57"/>
<rect x="6.35034" y="78.5984" width="9.79349" height="1.9587" rx="0.979349" fill="#515873"/>
<rect x="17.7109" y="78.5984" width="65.4205" height="1.9587" rx="0.979349" fill="#515873"/>
<path d="M0.134273 8.01416H120.812V86.557C120.812 88.1397 119.529 89.4227 117.946 89.4227H3C1.4173 89.4227 0.134273 88.1397 0.134273 86.557V8.01416Z" stroke="#373D57" stroke-width="0.268546"/>
<path d="M32.0542 28.279H147C148.583 28.279 149.866 29.5621 149.866 31.1448V36.1589H29.1885V31.1448C29.1885 29.5621 30.4715 28.279 32.0542 28.279Z" fill="#15192C"/>
<path d="M34.0679 32.219C34.0679 32.7381 33.6471 33.1589 33.1282 33.1589C32.6092 33.1589 32.1885 32.7381 32.1885 32.219C32.1885 31.6998 32.6092 31.279 33.1282 31.279C33.6471 31.279 34.0679 31.6998 34.0679 32.219Z" stroke="#686F8C" stroke-width="0.268546"/>
<path d="M37.29 32.2188C37.29 32.738 36.8693 33.1587 36.3503 33.1587C35.8314 33.1587 35.4106 32.738 35.4106 32.2188C35.4106 31.6997 35.8314 31.2789 36.3503 31.2789C36.8693 31.2789 37.29 31.6997 37.29 32.2188Z" stroke="#686F8C" stroke-width="0.268546"/>
<path d="M40.5122 32.2188C40.5122 32.738 40.0915 33.1587 39.5725 33.1587C39.0536 33.1587 38.6328 32.738 38.6328 32.2188C38.6328 31.6997 39.0536 31.2789 39.5725 31.2789C40.0915 31.2789 40.5122 31.6997 40.5122 32.2188Z" stroke="#686F8C" stroke-width="0.268546"/>
<path d="M32.0542 28.279H147C148.583 28.279 149.866 29.5621 149.866 31.1448V36.1589H29.1885V31.1448C29.1885 29.5621 30.4715 28.279 32.0542 28.279Z" stroke="#373D57" stroke-width="0.268546"/>
<path d="M29.1885 36.1589H149.866V115.112C149.866 116.695 148.583 117.978 147 117.978H32.0542C30.4715 117.978 29.1885 116.695 29.1885 115.112V36.1589Z" fill="#2C3249"/>
<path fill-rule="evenodd" clip-rule="evenodd" d="M95.1234 64.5087C92.415 63.3019 89.389 63.003 86.4969 63.6564C83.6047 64.3099 81.0012 65.8807 79.0747 68.1347C77.1483 70.3887 76.002 73.205 75.8069 76.1637C75.6118 79.1223 76.3783 82.0648 77.9922 84.5522C79.606 87.0396 81.9807 88.9387 84.762 89.9663C87.5433 90.9938 90.5823 91.0948 93.4257 90.2541C96.2691 89.4134 98.7646 87.6761 100.54 85.3012C102.315 82.9264 103.275 80.0413 103.277 77.0762V75.6969C103.277 75.0066 103.837 74.4469 104.527 74.4469C105.217 74.4469 105.777 75.0066 105.777 75.6969V77.0769C105.775 80.5811 104.64 83.9915 102.542 86.7981C100.444 89.6047 97.4949 91.6579 94.1346 92.6515C90.7742 93.645 87.1826 93.5257 83.8956 92.3113C80.6086 91.097 77.8022 88.8526 75.8949 85.9129C73.9877 82.9732 73.0818 79.4958 73.3123 75.9992C73.5429 72.5026 74.8976 69.1742 77.1743 66.5104C79.451 63.8466 82.5279 61.9902 85.9459 61.2179C89.3639 60.4456 92.94 60.799 96.1409 62.2252C96.7714 62.5061 97.0549 63.2451 96.7739 63.8757C96.4929 64.5063 95.7539 64.7897 95.1234 64.5087ZM105.422 64.5291C105.904 65.0234 105.894 65.8148 105.4 66.2967L90.0151 81.2967C89.5298 81.7699 88.7558 81.7701 88.2703 81.2971L83.6549 76.8016C83.1604 76.3199 83.15 75.5285 83.6317 75.034C84.1134 74.5395 84.9047 74.5291 85.3993 75.0108L89.1421 78.6563L103.654 64.5067C104.149 64.0248 104.94 64.0348 105.422 64.5291Z" fill="#31C587"/>
<path d="M29.1885 36.1589H149.866V115.112C149.866 116.695 148.583 117.978 147 117.978H32.0542C30.4715 117.978 29.1885 116.695 29.1885 115.112V36.1589Z" stroke="#373D57" stroke-width="0.268546"/>
</svg>
