<svg width="130" height="100" viewBox="0 0 130 100" fill="none" xmlns="http://www.w3.org/2000/svg">
<path d="M90.7141 41.9941H33.1157C31.4948 41.9941 29.9298 42.9416 29.6503 44.1398L22.6636 72.5356C22.2164 74.319 23.5299 75.8238 25.5701 75.8238H98.2877C100.356 75.8238 101.641 74.3469 101.194 72.5356L94.2074 44.1398C93.9 42.9416 92.335 41.9941 90.7141 41.9941Z" fill="#F4F4F7"/>
<path d="M43.0542 48H40.7346C40.3992 48 40.0918 48.2229 40.0359 48.5016L39.7285 50.4244C39.6726 50.703 39.9241 50.9538 40.2595 50.9538H42.635C42.9703 50.9538 43.3057 50.7309 43.3336 50.4244L43.5852 48.5016C43.6411 48.2508 43.4175 48 43.0542 48Z" fill="#E7E7EC"/>
<path d="M72.4653 58H51.9523C51.589 58 51.2816 58.2508 51.2536 58.5573L51.0021 60.7309C50.9742 61.0653 51.2257 61.3161 51.589 61.3161H72.5771C72.9404 61.3161 73.2198 61.0653 73.2198 60.7309L73.136 58.5573C73.136 58.2508 72.8286 58 72.4653 58Z" fill="#E7E7EC"/>
<path d="M47.8045 48H45.4849C45.1495 48 44.8421 48.2229 44.8142 48.5016L44.5627 50.4244C44.5347 50.703 44.7862 50.9538 45.1216 50.9538H47.4971C47.8324 50.9538 48.1399 50.7309 48.1678 50.4244L48.3634 48.5016C48.3914 48.2508 48.1399 48 47.8045 48Z" fill="#E7E7EC"/>
<path d="M88.2439 48H85.9244C85.589 48 85.2816 48.2229 85.2536 48.5016L85.0021 50.4244C84.9742 50.703 85.2257 50.9538 85.5611 50.9538H87.9365C88.2719 50.9538 88.5793 50.7309 88.6073 50.4244L88.8029 48.5016C88.8308 48.2508 88.5793 48 88.2439 48Z" fill="#E7E7EC"/>
<path d="M38.0231 48H33.0206C32.6852 48 32.3499 48.2229 32.294 48.5016L31.8748 50.4244C31.8189 50.703 32.0425 50.9538 32.3778 50.9538H37.4921C37.8274 50.9538 38.1628 50.7309 38.2187 50.4244L38.5541 48.5016C38.61 48.2508 38.3584 48 38.0231 48Z" fill="#E7E7EC"/>
<path d="M40.4266 51.9287H32.2102C31.8749 51.9287 31.5395 52.1795 31.4557 52.4582L31.0085 54.5203C30.9526 54.8268 31.1762 55.0776 31.5395 55.0776H39.9515C40.3148 55.0776 40.6222 54.8268 40.6781 54.5203L40.9855 52.4582C41.0414 52.1795 40.7899 51.9287 40.4266 51.9287Z" fill="#E7E7EC"/>
<path d="M93.3135 1H30.1816V42.7994H93.3135V1Z" fill="#A787FF"/>
<path d="M90.4911 3.9541H33.3398V39.818H90.4911V3.9541Z" fill="white"/>
<path d="M85.2092 60.3857C84.7621 59.4383 84.2869 58.4908 83.8398 57.5712C83.4765 56.8189 83.1411 56.0665 82.694 55.3698C81.8276 54.0044 80.4862 53.029 78.8094 53.1405C77.1046 53.252 75.6514 54.2552 74.6174 55.537C74.0584 56.2337 73.5833 56.9582 73.1362 57.7384C72.8288 58.24 72.2139 59.1318 72.8288 59.6612C73.248 60.0235 73.8069 59.7448 74.2261 59.5497C74.6453 59.3825 75.0645 59.1596 75.4558 58.9088C76.2942 58.3794 77.0767 57.7384 77.9151 57.1811C77.7474 57.1532 77.5797 57.1254 77.412 57.1254C79.2845 59.076 81.3805 61.3611 81.7438 64.1755C81.8276 64.7886 81.7997 65.4574 81.5761 66.0426C81.3525 66.6835 80.9054 67.408 80.1788 67.5474C79.1447 67.7424 78.2784 67.1851 77.6077 66.4327C76.9649 65.7082 76.4898 64.8165 75.9588 64.0083C75.5117 63.3396 75.0645 62.6986 74.5335 62.0856C73.9746 61.4447 73.248 60.7201 72.3816 60.4972C71.4594 60.2743 70.3974 60.8595 70.4812 61.9184C70.5371 62.5314 70.7886 63.1724 70.9563 63.7297C71.152 64.3149 71.3476 64.9001 71.5712 65.4853C72.0183 66.572 72.5493 67.6031 73.22 68.5784C74.785 70.8356 77.0208 72.5633 79.2565 74.0959C81.7717 75.8515 84.5105 77.2169 87.1655 78.7496C89.8204 80.3101 92.2238 82.1771 94.5434 84.1835C99.3782 88.4192 104.073 92.7942 108.852 97.0856C109.439 97.615 110.054 98.1724 110.641 98.7018C111.032 99.0641 111.647 98.4789 111.228 98.1166C106.421 93.7695 101.586 89.3945 96.7792 85.0474C94.5434 83.041 92.2518 81.0346 89.7645 79.3348C87.2214 77.6349 84.4267 76.2974 81.8276 74.709C80.5141 73.9009 79.2286 73.037 78.0269 72.0896C76.9369 71.2257 75.847 70.334 74.9248 69.3029C73.3318 67.5195 72.3537 65.3459 71.6829 63.0609C71.5991 62.7544 71.5153 62.42 71.4035 62.1134C71.3476 61.8626 71.2637 61.584 71.5153 61.3889C71.7668 61.1939 72.1021 61.2217 72.3537 61.3332C73.1362 61.6397 73.779 62.42 74.282 63.0609C75.3999 64.4542 76.0985 66.2376 77.44 67.4359C78.2225 68.1326 79.2286 68.5227 80.2906 68.3555C81.632 68.1326 82.4145 66.6556 82.5822 65.4017C82.7499 64.0919 82.3586 62.7822 81.7997 61.584C81.2128 60.3021 80.3744 59.1596 79.4522 58.1007C78.9771 57.5712 78.502 57.0418 77.9989 56.5123C77.8871 56.373 77.6356 56.3451 77.4959 56.4566C76.2942 57.2926 75.1763 58.2958 73.8069 58.8252C73.7231 58.8531 73.5833 58.881 73.5274 58.9367C73.4715 58.9646 73.4156 59.1318 73.4436 59.0203C73.4715 58.9088 73.4995 58.8252 73.5554 58.7416C73.7231 58.4072 73.9466 58.0728 74.1423 57.7384C74.5335 57.0975 74.9248 56.4845 75.3999 55.9271C76.2942 54.8682 77.5238 54.0044 78.9771 53.9486C80.4303 53.8929 81.4364 54.7846 82.163 55.955C82.5822 56.6517 82.9176 57.3762 83.2809 58.1007C83.728 58.9924 84.1472 59.912 84.5944 60.8037C84.7062 61.3053 85.4328 60.8873 85.2092 60.3857Z" fill="#414168"/>
<path d="M81.7434 54.1723C82.0508 53.5314 82.5818 52.5282 83.4482 52.6397C83.8394 52.6954 84.1469 53.0019 84.3984 53.2806C84.6778 53.5871 84.9573 53.8936 85.2368 54.228C86.2988 55.5377 87.1651 57.0425 87.752 58.603C87.9476 59.1046 88.7581 58.8817 88.5625 58.3801C87.8358 56.4852 86.8018 54.7296 85.4604 53.1691C84.8455 52.4725 84.1469 51.6922 83.1408 51.8037C82.0788 51.9151 81.436 52.8347 81.0168 53.7264C80.7932 54.2559 81.5199 54.6739 81.7434 54.1723Z" fill="#414168"/>
<path d="M86.2427 54.4789C86.2427 53.9215 86.7178 53.5035 87.2488 53.4199C87.8916 53.3363 88.5064 53.7265 88.8977 54.2002C89.3448 54.7297 89.5963 55.3984 89.8199 56.0394C90.0714 56.7918 90.295 57.5441 90.6863 58.2408C90.9378 58.7145 91.6644 58.2965 91.4129 57.8228C90.5745 56.2902 90.5186 54.3117 89.0094 53.1691C88.3667 52.6954 87.5003 52.4167 86.7178 52.7233C85.9632 53.0019 85.4043 53.6707 85.4043 54.4789C85.4043 55.0083 86.2427 55.0083 86.2427 54.4789Z" fill="#414168"/>
<path d="M90.9661 55.8439C91.525 54.6178 93.7328 57.4881 94.0961 57.9061C95.1302 59.1322 96.0804 60.4419 97.0305 61.7516C98.903 64.3989 100.803 67.0183 102.983 69.4148C105.247 71.9228 107.678 74.2635 110.082 76.6322C112.569 79.0844 115.084 81.5645 117.627 83.9889C120.478 86.7197 123.356 89.4228 126.291 92.0422C126.682 92.4045 127.297 91.8193 126.878 91.457C121.456 86.6083 116.258 81.5366 111.06 76.4371C108.545 73.9849 106.029 71.5326 103.654 68.9132C102.48 67.6314 101.362 66.3217 100.328 64.9283C99.3222 63.6186 98.3999 62.2532 97.4498 60.9156C96.3878 59.4108 95.2699 57.9339 94.0402 56.5685C93.4813 55.9554 92.8944 55.203 92.1399 54.8686C91.4971 54.5621 90.5748 54.7014 90.2395 55.426C90.0159 55.9275 90.7425 56.3455 90.9661 55.8439Z" fill="#414168"/>
<path d="M39.5429 62.8381C40.9962 59.5221 43.707 56.9862 46.837 55.2585C48.43 54.3668 50.2186 53.5308 52.0352 53.28C52.5103 53.2243 53.0133 53.1964 53.4884 53.28C53.8797 53.3358 54.4386 53.4751 54.746 53.7816C54.8019 53.8374 54.8298 53.8374 54.746 53.921C54.6622 54.0324 54.5224 54.116 54.4106 54.1717C54.1032 54.3668 53.7958 54.5061 53.4605 54.6455C52.6779 54.9799 51.9513 55.3979 51.2247 55.788C50.3863 56.2617 49.5199 56.7354 48.7654 57.3206C47.4519 58.3517 46.3899 59.7171 45.5795 61.1662C44.7411 62.6709 44.1821 64.3151 43.8468 66.0149C43.6791 66.823 43.5952 67.659 43.5393 68.495C43.5114 69.4703 43.6232 70.4456 44.266 71.2259C45.4118 72.6192 47.1724 72.034 48.5698 71.4767C50.5819 70.6964 52.5103 69.6654 54.5783 69.0245C55.3888 68.7737 56.2272 68.6065 57.0656 68.8294C57.373 68.913 58.2673 69.1638 58.1276 69.5818C58.1276 69.6096 58.0717 69.6654 58.0158 69.7211C57.9319 69.8047 57.8201 69.8883 57.7363 69.944C57.4568 70.1391 57.1494 70.3063 56.842 70.4735C56.2831 70.78 55.6962 71.0308 55.1093 71.3373C54.215 71.8111 53.3766 72.3684 52.5103 72.8979C51.5042 73.5109 50.4981 74.0961 49.52 74.7092C47.6475 75.8517 45.7751 77.0221 43.9306 78.1924C40.2416 80.5053 36.6085 82.874 33.0313 85.3541C29.4541 87.8342 25.9328 90.4257 22.5513 93.1845C19.0859 95.999 21.7861 93.7138 18.4884 96.6676C17.65 97.42 16.7836 98.1724 15.9452 98.9248C15.526 99.2871 16.1409 99.8723 16.5321 99.51C20.0255 96.4447 17.437 98.5627 20.9863 95.5531C24.3958 92.6829 27.945 89.952 31.5781 87.3883C35.2391 84.7967 38.9561 82.3166 42.7568 79.9201C46.6135 77.4679 50.526 75.0714 54.4386 72.7307C55.0814 72.3405 55.7241 71.9783 56.3949 71.6717C57.0376 71.3652 57.6804 71.0587 58.2394 70.6686C58.7145 70.3342 59.1616 69.8883 58.9939 69.2474C58.8262 68.6065 58.1276 68.2721 57.5407 68.1049C55.6682 67.5475 53.684 68.4393 51.9793 69.1638C50.9452 69.6096 49.9112 70.0834 48.8492 70.5014C48.0947 70.78 47.3401 71.1701 46.5296 71.2537C45.6912 71.3652 44.9646 70.9751 44.6013 70.1948C44.238 69.3588 44.3777 68.2999 44.4616 67.4361C44.6572 65.7084 45.1323 63.9807 45.8869 62.4202C46.6135 60.8596 47.6196 59.4106 48.9331 58.2681C49.6597 57.655 50.4701 57.1813 51.3085 56.7076C52.0911 56.2617 52.9015 55.788 53.7399 55.4257C54.3268 55.1749 55.0255 54.8963 55.4447 54.3947C55.6682 54.116 55.7521 53.7538 55.5565 53.4194C55.3329 53.0292 54.8298 52.8063 54.4106 52.6391C52.5941 51.9424 50.526 52.6948 48.8213 53.4194C45.4118 54.8405 42.2817 57.042 40.1578 60.0794C39.6547 60.8039 39.2076 61.5842 38.8722 62.4202C38.5928 62.9217 39.3194 63.3397 39.5429 62.8381Z" fill="#414168"/>
<path d="M44.4071 55.8995C43.429 54.7569 41.2771 54.3389 39.9636 55.1471C39.2929 55.5651 38.7339 56.2617 38.2589 56.8748C37.7279 57.5157 37.2807 58.2123 37.0571 59.0205C36.9174 59.5499 37.7279 59.7728 37.8676 59.2434C38.0632 58.6025 38.3986 58.0173 38.8178 57.5157C39.237 57.0141 39.6841 56.4568 40.2151 56.0109C41.1933 55.2028 43.0378 55.5929 43.8203 56.4846C44.1836 56.9026 44.7705 56.3174 44.4071 55.8995Z" fill="#414168"/>
<path d="M39.656 55.7883C38.7338 54.813 37.1408 54.7294 36.1068 55.5376C35.5199 55.9834 35.1566 56.6522 34.7933 57.2931C34.3741 58.0176 34.0108 58.7422 33.6754 59.4946C33.5916 59.6896 33.6195 59.9404 33.8152 60.0797C33.9828 60.1912 34.2903 60.1355 34.402 59.9404C34.6815 59.2995 34.9889 58.6864 35.3243 58.1012C35.6317 57.5439 35.9391 56.9309 36.3863 56.4571C37.1129 55.6769 38.3146 55.6211 39.0691 56.4014C39.4325 56.7637 40.0193 56.1785 39.656 55.7883Z" fill="#414168"/>
<path d="M35.1002 57.432C34.0382 56.6239 32.557 57.1534 31.7466 58.0451C31.2715 58.5467 30.9361 59.1597 30.6007 59.7728C30.2374 60.4695 29.8462 61.1661 29.4829 61.8349C28.7283 63.2282 27.9458 64.5937 27.1353 65.9591C26.3249 67.2967 25.4865 68.6621 24.5083 69.8604C22.6638 72.1454 20.4281 74.0961 18.3321 76.1582C15.9846 78.4989 13.637 80.8118 11.2615 83.1247C8.57866 85.6884 5.86782 88.2521 3.12903 90.7601C2.73777 91.1223 3.32466 91.7075 3.71591 91.3453C8.46687 86.9981 13.134 82.5674 17.6893 78.0252C18.7513 76.9663 19.7853 75.9074 20.8753 74.8763C21.9093 73.8731 22.9713 72.8699 23.9494 71.7832C25.9895 69.5817 27.5266 67.018 29.0078 64.4543C29.8741 62.9496 30.6846 61.4169 31.523 59.9121C31.8863 59.2712 32.2775 58.6024 32.8924 58.1844C33.4513 57.85 34.15 57.7664 34.681 58.1566C35.1002 58.491 35.5194 57.7664 35.1002 57.432Z" fill="#414168"/>
<path d="M117.928 11L114.989 12.5703L116.583 15.5178L119.522 13.9475L117.928 11Z" fill="#144BC1"/>
<path d="M12.6141 23.4921C10.0602 23.1355 8.29277 20.6767 8.66645 18.0003L17.9149 19.2916C17.5412 21.968 15.1679 23.8486 12.6141 23.4921Z" fill="#F5B82E"/>
<path d="M117.027 69.0316C115.432 70.6919 112.729 70.6831 110.989 69.0121L116.764 62.9996C118.504 64.6707 118.621 67.3713 117.027 69.0316Z" fill="#41CADD"/>
<path d="M117.055 46.0113C117.965 46.2355 118.521 47.1553 118.296 48.0661C118.072 48.9769 117.152 49.533 116.242 49.3088C115.332 49.0846 114.776 48.1647 115.001 47.254C115.225 46.3432 116.145 45.7871 117.055 46.0113Z" stroke="#414168"/>
<path d="M10.1843 59.8683C10.7769 60.0143 11.1349 60.6083 10.9914 61.1905C10.848 61.7726 10.255 62.1323 9.66242 61.9862C9.06986 61.8402 8.71187 61.2462 8.85533 60.6641C8.9988 60.0819 9.59179 59.7223 10.1843 59.8683Z" stroke="#414168"/>
<path d="M41.1355 91.0003L38.9893 93.873L41.8669 96.0301L44.0131 93.1574L41.1355 91.0003Z" fill="#F685A1"/>
<line x1="18.7597" y1="42.4785" x2="13.9885" y2="37.7074" stroke="#414168" stroke-linecap="round" stroke-linejoin="round"/>
<path d="M99.4893 40.4688C105.547 40.4688 110.458 35.5579 110.458 29.5C110.458 23.4421 105.547 18.5312 99.4893 18.5312C93.4314 18.5312 88.5205 23.4421 88.5205 29.5C88.5205 35.5579 93.4314 40.4688 99.4893 40.4688Z" fill="#31C587"/>
<path d="M95.2705 29.8984C96.0786 31.1641 96.8866 32.4297 97.6947 33.7188C99.1954 30.1094 101.573 26.8984 104.552 24.4375" stroke="white" stroke-miterlimit="10" stroke-linecap="round" stroke-linejoin="round"/>
<path d="M63.8472 11.4246C60.9772 10.5971 58.0007 10.7842 55.3383 11.9671C52.4229 13.2648 50.254 15.5834 49.2347 18.486C48.1713 21.4005 48.3959 24.5333 49.8119 27.347C49.9941 27.6738 50.1762 28.0006 50.3584 28.3275" stroke="#414168" stroke-miterlimit="10" stroke-linecap="round" stroke-linejoin="round"/>
<path d="M46.6785 28.8905C48.6308 29.823 50.5273 30.7236 52.4797 31.6561C52.5809 29.5629 52.9027 27.4106 53.3921 25.3542" stroke="#414168" stroke-miterlimit="10" stroke-linecap="round" stroke-linejoin="round"/>
<path d="M58.6044 33.8652C61.4744 34.6927 64.4509 34.5056 67.1133 33.3226C70.0287 32.0249 72.1976 29.7064 73.2169 26.8037C74.2803 23.8892 74.0557 20.7564 72.6397 17.9428C72.4575 17.616 72.2754 17.2891 72.0932 16.9623" stroke="#414168" stroke-miterlimit="10" stroke-linecap="round" stroke-linejoin="round"/>
<path d="M75.8178 16.3877C73.8655 15.4552 71.969 14.5547 70.0166 13.6222C69.9154 15.7154 69.5936 17.8677 69.1042 19.924" stroke="#414168" stroke-miterlimit="10" stroke-linecap="round" stroke-linejoin="round"/>
</svg>
