<svg width="196" height="40" viewBox="0 0 196 40" fill="none" xmlns="http://www.w3.org/2000/svg">
<g filter="url(#filter0_di)">
<path d="M26 2H188C190.209 2 192 3.79086 192 6V30C192 32.2091 190.209 34 188 34H30.7422L26 2Z" fill="#7950ED"/>
</g>
<path d="M44.746 20.284C44.746 21.096 44.34 21.684 43.486 21.684C42.632 21.684 42.24 21.096 42.226 20.284H40.616C40.616 22.048 41.806 23.098 43.486 23.098C45.166 23.098 46.356 22.048 46.356 20.284V13.27H44.746V20.284ZM56.3023 19.136C56.3023 16.714 54.5663 15.16 52.3683 15.16C50.1703 15.16 48.4343 16.714 48.4343 19.136C48.4343 21.558 50.1003 23.126 52.2983 23.126C54.5103 23.126 56.3023 21.558 56.3023 19.136ZM50.0583 19.136C50.0583 17.386 51.1363 16.546 52.3403 16.546C53.5303 16.546 54.6643 17.386 54.6643 19.136C54.6643 20.886 53.4883 21.74 52.2983 21.74C51.0943 21.74 50.0583 20.886 50.0583 19.136ZM57.8801 23H59.4761V15.286H57.8801V23ZM58.6921 14.264C59.2521 14.264 59.7001 13.816 59.7001 13.242C59.7001 12.668 59.2521 12.22 58.6921 12.22C58.1181 12.22 57.6701 12.668 57.6701 13.242C57.6701 13.816 58.1181 14.264 58.6921 14.264ZM67.0455 23H68.6275V18.45C68.6275 16.294 67.2695 15.16 65.4635 15.16C64.5395 15.16 63.6855 15.538 63.1675 16.168V15.286H61.5715V23H63.1675V18.688C63.1675 17.274 63.9375 16.546 65.1135 16.546C66.2755 16.546 67.0455 17.274 67.0455 18.688V23ZM81.65 19.136C81.65 16.714 79.914 15.16 77.716 15.16C75.518 15.16 73.782 16.714 73.782 19.136C73.782 21.558 75.448 23.126 77.646 23.126C79.858 23.126 81.65 21.558 81.65 19.136ZM75.406 19.136C75.406 17.386 76.484 16.546 77.688 16.546C78.878 16.546 80.012 17.386 80.012 19.136C80.012 20.886 78.836 21.74 77.646 21.74C76.442 21.74 75.406 20.886 75.406 19.136ZM90.2137 15.286H88.6177V19.584C88.6177 20.998 87.8477 21.726 86.6717 21.726C85.5097 21.726 84.7397 20.998 84.7397 19.584V15.286H83.1577V19.822C83.1577 21.978 84.5297 23.112 86.3357 23.112C87.2457 23.112 88.1137 22.734 88.6177 22.076V23H90.2137V15.286ZM93.9155 18.94C93.9155 17.302 94.6435 16.812 95.8195 16.812H96.2255V15.16C95.1335 15.16 94.3635 15.636 93.9155 16.406V15.286H92.3195V23H93.9155V18.94ZM100.797 19.136C100.797 21.558 102.365 23.126 104.577 23.126C106.467 23.126 107.699 22.076 108.133 20.564H106.411C106.117 21.362 105.529 21.782 104.577 21.782C103.289 21.782 102.435 20.83 102.435 19.136C102.435 17.456 103.289 16.504 104.577 16.504C105.529 16.504 106.145 16.98 106.411 17.722H108.133C107.699 16.098 106.467 15.16 104.577 15.16C102.365 15.16 100.797 16.728 100.797 19.136ZM117.074 19.136C117.074 16.714 115.338 15.16 113.14 15.16C110.942 15.16 109.206 16.714 109.206 19.136C109.206 21.558 110.872 23.126 113.07 23.126C115.282 23.126 117.074 21.558 117.074 19.136ZM110.83 19.136C110.83 17.386 111.908 16.546 113.112 16.546C114.302 16.546 115.436 17.386 115.436 19.136C115.436 20.886 114.26 21.74 113.07 21.74C111.866 21.74 110.83 20.886 110.83 19.136ZM129.586 23H131.168V18.45C131.168 16.294 129.796 15.16 127.99 15.16C126.87 15.16 125.778 15.748 125.302 16.686C124.77 15.678 123.748 15.16 122.53 15.16C121.606 15.16 120.766 15.538 120.248 16.168V15.286H118.652V23H120.248V18.688C120.248 17.274 121.018 16.546 122.194 16.546C123.356 16.546 124.126 17.274 124.126 18.688V23H125.708V18.688C125.708 17.274 126.478 16.546 127.654 16.546C128.816 16.546 129.586 17.274 129.586 18.688V23ZM144.132 23H145.714V18.45C145.714 16.294 144.342 15.16 142.536 15.16C141.416 15.16 140.324 15.748 139.848 16.686C139.316 15.678 138.294 15.16 137.076 15.16C136.152 15.16 135.312 15.538 134.794 16.168V15.286H133.198V23H134.794V18.688C134.794 17.274 135.564 16.546 136.74 16.546C137.902 16.546 138.672 17.274 138.672 18.688V23H140.254V18.688C140.254 17.274 141.024 16.546 142.2 16.546C143.362 16.546 144.132 17.274 144.132 18.688V23ZM154.731 15.286H153.135V19.584C153.135 20.998 152.365 21.726 151.189 21.726C150.027 21.726 149.257 20.998 149.257 19.584V15.286H147.675V19.822C147.675 21.978 149.047 23.112 150.853 23.112C151.763 23.112 152.631 22.734 153.135 22.076V23H154.731V15.286ZM162.311 23H163.893V18.45C163.893 16.294 162.535 15.16 160.729 15.16C159.805 15.16 158.951 15.538 158.433 16.168V15.286H156.837V23H158.433V18.688C158.433 17.274 159.203 16.546 160.379 16.546C161.541 16.546 162.311 17.274 162.311 18.688V23ZM165.929 23H167.525V15.286H165.929V23ZM166.741 14.264C167.301 14.264 167.749 13.816 167.749 13.242C167.749 12.668 167.301 12.22 166.741 12.22C166.167 12.22 165.719 12.668 165.719 13.242C165.719 13.816 166.167 14.264 166.741 14.264ZM169.872 20.858C169.872 22.426 170.726 23 172.098 23H173.358V21.67H172.378C171.706 21.67 171.482 21.432 171.482 20.858V16.588H173.358V15.286H171.482V13.368H169.872V15.286H168.962V16.588H169.872V20.858ZM177.867 21.166L175.697 15.286H173.919L176.957 22.874L175.389 26.626H177.041L181.773 15.286H180.121L177.867 21.166Z" fill="white"/>
<path d="M2.66663 26.9793C2.66663 19.6861 2.66663 12.3929 2.66663 5.09963C2.6958 4.98476 2.73044 4.8708 2.75414 4.75502C3.03402 3.42947 3.81622 2.55976 5.11442 2.16227C5.32775 2.09664 5.54837 2.05379 5.76625 2C13.0595 2 20.3527 2 27.646 2C27.7463 2.02826 27.8456 2.0629 27.9468 2.08296C29.338 2.35463 30.2177 3.1815 30.6116 4.53531C30.6654 4.72129 30.7009 4.91183 30.7447 5.10054C30.7447 14.734 30.7447 24.3665 30.7447 34C30.6426 33.9371 30.5268 33.8879 30.4402 33.8076C28.1866 31.7063 25.9357 29.6022 23.6839 27.4981C23.5918 27.4124 23.4988 27.3267 23.3129 27.1526C23.6 28.1855 23.8526 29.0926 24.1106 30.0179C23.9811 30.0334 23.9209 30.0471 23.8617 30.0471C17.8922 30.048 11.9236 30.0598 5.95405 30.0398C4.40971 30.0343 3.17442 29.0105 2.79973 27.55C2.75232 27.3604 2.7113 27.169 2.66663 26.9793ZM20.2087 21.6525C20.5132 22.03 20.7457 22.3709 21.0346 22.6563C21.186 22.8058 21.4376 22.9425 21.64 22.9371C23.3302 22.8915 24.7688 22.2542 25.8929 20.9816C26.0606 20.7919 26.1746 20.4738 26.1654 20.2203C26.0542 17.1617 25.3121 14.2572 23.9556 11.5113C23.9036 11.4055 23.838 11.2898 23.7468 11.2223C22.5152 10.2997 21.1358 9.75545 19.5942 9.65243C19.462 9.64331 19.3244 9.72992 19.1895 9.77186C19.6225 10.0226 20.0419 10.1529 20.443 10.3225C20.8478 10.493 21.2443 10.6862 21.6281 10.8996C21.9964 11.1038 22.3438 11.3463 22.7012 11.5724C18.6352 9.8457 14.6066 9.78006 10.557 11.5915C11.1505 11.1959 11.7458 10.8075 12.3812 10.5039C13.0194 10.1985 13.6986 9.97698 14.3595 9.71898C14.354 9.68069 14.3486 9.64331 14.3431 9.60502C14.2036 9.59773 14.0623 9.57038 13.9247 9.58497C12.4924 9.7363 11.1797 10.2122 10.0164 11.0701C9.86596 11.1813 9.73651 11.3481 9.65264 11.5168C8.2806 14.2909 7.54945 17.2265 7.46102 20.3197C7.45646 20.4838 7.5221 20.6844 7.62512 20.8111C8.7656 22.2059 10.2388 22.9453 12.0448 22.9963C12.1688 23 12.3393 22.9681 12.4122 22.8851C12.7368 22.5131 13.0349 22.1175 13.3476 21.7218C11.6154 20.8922 11.2234 20.6251 10.7366 19.8967C14.8445 22.0929 18.874 22.1503 22.899 19.924C22.2152 20.8102 21.3136 21.3335 20.2087 21.6525Z" fill="white"/>
<path d="M15.4393 17.2528C15.4265 18.2574 14.6224 19.0533 13.6378 19.0378C12.6505 19.0214 11.8555 18.1945 11.8765 17.2063C11.8966 16.2181 12.7107 15.4541 13.7235 15.4733C14.7427 15.4915 15.452 16.2272 15.4393 17.2528Z" fill="white"/>
<path d="M21.2733 17.2513C21.2697 18.234 20.5221 19.0354 19.625 19.019C18.7426 19.0016 18.0178 18.2103 18.0078 17.254C17.9987 16.2785 18.7371 15.4772 19.646 15.4772C20.565 15.4772 21.277 16.2539 21.2733 17.2513Z" fill="white"/>
<defs>
<filter id="filter0_di" x="22" y="0" width="174" height="40" filterUnits="userSpaceOnUse" color-interpolation-filters="sRGB">
<feFlood flood-opacity="0" result="BackgroundImageFix"/>
<feColorMatrix in="SourceAlpha" type="matrix" values="0 0 0 0 0 0 0 0 0 0 0 0 0 0 0 0 0 0 127 0"/>
<feOffset dy="2"/>
<feGaussianBlur stdDeviation="2"/>
<feColorMatrix type="matrix" values="0 0 0 0 0.255924 0 0 0 0 0.163972 0 0 0 0 0.516081 0 0 0 0.15 0"/>
<feBlend mode="normal" in2="BackgroundImageFix" result="effect1_dropShadow"/>
<feBlend mode="normal" in="SourceGraphic" in2="effect1_dropShadow" result="shape"/>
<feColorMatrix in="SourceAlpha" type="matrix" values="0 0 0 0 0 0 0 0 0 0 0 0 0 0 0 0 0 0 127 0" result="hardAlpha"/>
<feOffset dx="4"/>
<feGaussianBlur stdDeviation="2"/>
<feComposite in2="hardAlpha" operator="arithmetic" k2="-1" k3="1"/>
<feColorMatrix type="matrix" values="0 0 0 0 0.426822 0 0 0 0 0.271566 0 0 0 0 0.866081 0 0 0 1 0"/>
<feBlend mode="normal" in2="shape" result="effect2_innerShadow"/>
</filter>
</defs>
</svg>
