<svg width="199" height="207" viewBox="0 0 199 207" fill="none" xmlns="http://www.w3.org/2000/svg">
<g clip-path="url(#clip0)">
<path d="M101.858 190.632C151.284 190.632 191.351 150.461 191.351 100.908C191.351 51.3555 151.284 11.1851 101.858 11.1851C52.4329 11.1851 12.3657 51.3555 12.3657 100.908C12.3657 150.461 52.4329 190.632 101.858 190.632Z" fill="white"/>
<path d="M82.6141 159.729C82.7038 160.409 82.8532 161.148 83.3614 161.621C83.3614 161.621 87.1142 163.492 85 163C97.2254 166.104 108.595 161.102 121 158.5C122.226 157.938 124.342 157.837 125.239 156.862C127.54 154.378 127.122 150.535 126.554 147.224C126.016 144.149 125.508 141.075 124.97 138C121.741 142.494 114.597 144.356 109.486 145.775C102.85 147.608 95.8259 147.579 88.9809 147.519C87.3967 147.519 85.8124 147.49 84.3179 146.987C82.8234 146.485 81.4484 145.42 81 143.942C82.4348 148.761 81.8668 154.763 82.6141 159.729Z" fill="#121242"/>
<path d="M75.1608 4.61172L17.9692 14.9353L25.8286 58.7003L83.0202 48.3767L75.1608 4.61172Z" fill="#41CADD"/>
<path d="M68.5401 15.0045C63.6422 16.2473 58.6838 17.2779 53.665 18.0357C53.1812 18.0963 52.9091 18.7328 53.0301 19.1572C53.1812 19.6725 53.665 19.8544 54.1487 19.7937C59.1373 19.0359 64.1259 18.0053 69.0238 16.7626C70.1727 16.4594 69.689 14.7013 68.5401 15.0045Z" fill="#121242"/>
<path d="M69.5381 21.1274C64.0658 22.158 58.5934 23.1583 53.1211 24.1283C47.6185 25.0983 42.1159 26.0682 36.6133 27.0079C33.5295 27.5232 30.4456 28.0385 27.3315 28.5538C26.8477 28.6447 26.5756 29.2207 26.6966 29.6753C26.8477 30.1907 27.3315 30.4028 27.8152 30.3119C33.3178 29.4025 38.7902 28.4629 44.2625 27.5232C49.7651 26.5532 55.2677 25.5832 60.7703 24.583C63.8541 24.007 66.938 23.4614 70.0219 22.8855C70.5056 22.7945 70.7777 22.2186 70.6568 21.7639C70.5056 21.2486 70.0219 21.0365 69.5381 21.1274Z" fill="#121242"/>
<path d="M71.8053 27.3716C70.2332 27.7051 68.6308 28.0385 67.0586 28.4022C66.6051 28.4932 66.2725 29.0691 66.4237 29.5238C66.5748 30.0088 67.0283 30.2512 67.5423 30.1603C69.1145 29.8269 70.7169 29.4934 72.2891 29.1297C72.7426 29.0388 73.0751 28.4628 72.924 28.0082C72.7426 27.5232 72.2891 27.2807 71.8053 27.3716Z" fill="#121242"/>
<path d="M62.0705 29.3117C56.0842 30.3423 50.0978 31.3426 44.1115 32.3732C42.4184 32.646 40.7555 32.9491 39.0624 33.222C38.5787 33.3129 38.3066 33.8888 38.4275 34.3435C38.5787 34.8588 39.0624 35.071 39.5462 34.98C45.5325 33.9494 51.5188 32.9491 57.5052 31.9185C59.1983 31.6457 60.8611 31.3426 62.5542 31.0698C63.038 30.9789 63.3101 30.403 63.1892 29.9483C63.038 29.433 62.5542 29.2208 62.0705 29.3117Z" fill="#121242"/>
<path d="M73.0755 33.7676C67.4823 34.4951 61.889 35.3438 56.3259 36.3138C50.8233 37.2534 45.3208 38.3144 39.8484 39.4965C36.825 40.1331 33.8016 40.8303 30.748 41.4971C30.2642 41.5881 29.9921 42.164 30.1131 42.6187C30.234 43.1037 30.748 43.3461 31.2317 43.2552C36.6134 42.073 41.995 40.8606 47.4069 39.7997C52.8793 38.7387 58.3516 37.7688 63.8542 36.92C66.9078 36.435 69.9917 36.0107 73.0453 35.6166C73.5291 35.556 73.9523 35.2529 73.9523 34.7072C73.9826 34.2526 73.5593 33.707 73.0755 33.7676Z" fill="#121242"/>
<path d="M73.4382 39.9814C68.9938 40.8605 64.5796 41.7092 60.1352 42.5883C59.6515 42.6792 59.3794 43.2551 59.5003 43.7098C59.6515 44.2251 60.1352 44.4373 60.6189 44.3463C65.0633 43.4673 69.4775 42.6186 73.9219 41.7395C74.4056 41.6486 74.6777 41.0727 74.5568 40.618C74.4056 40.1027 73.9219 39.8602 73.4382 39.9814Z" fill="#121242"/>
<path d="M56.4168 43.043C50.3096 44.3161 44.1721 45.4073 38.0043 46.3167C37.5206 46.3773 37.2485 47.0139 37.3694 47.4382C37.5206 47.9535 38.0043 48.1354 38.4881 48.0748C44.6558 47.1654 50.7933 46.0742 56.9006 44.8011C57.3843 44.7102 57.6564 44.1342 57.5355 43.6796C57.4145 43.1946 56.9006 42.9521 56.4168 43.043Z" fill="#121242"/>
<path d="M155.312 120.005L142.251 172.354L180.104 181.841L189.809 142.981L181.041 126.431L155.312 120.005Z" fill="#144BC1"/>
<path d="M189.809 142.981L181.041 126.431L177.685 139.95L189.809 142.981Z" fill="#41CADD"/>
<path d="M160.482 146.588C158.275 147.528 155.887 148.165 153.529 148.468C152.924 148.559 152.319 149.195 152.743 149.832C153.257 150.559 153.922 151.105 154.647 151.651C155.403 152.196 156.159 152.742 156.885 153.287C158.396 154.409 159.938 155.5 161.45 156.622C161.843 156.925 162.448 156.682 162.69 156.288C162.962 155.834 162.75 155.349 162.357 155.045C160.906 153.985 159.485 152.924 158.033 151.893C157.338 151.378 156.643 150.862 155.947 150.347C155.373 149.923 154.738 149.498 154.315 148.892C154.043 149.347 153.801 149.801 153.529 150.256C156.25 149.923 158.88 149.226 161.42 148.134C161.873 147.952 161.964 147.286 161.752 146.892C161.45 146.437 160.936 146.407 160.482 146.588Z" fill="white"/>
<path d="M173.362 147.225C169.704 151.438 165.985 155.743 161.238 158.743C160.241 159.35 161.148 160.926 162.146 160.32C165.955 157.925 169.13 154.742 172.123 151.408C172.969 150.438 173.816 149.498 174.662 148.528C174.995 148.165 175.025 147.619 174.662 147.255C174.33 146.891 173.695 146.861 173.362 147.225Z" fill="white"/>
<path d="M173.876 153.53C175.781 154.47 177.444 155.773 178.895 157.319C178.955 156.834 179.016 156.379 179.076 155.894C177.958 156.531 176.476 156.319 175.237 156.44C173.695 156.561 172.153 156.834 170.641 157.228C169.522 157.531 170.006 159.289 171.125 158.986C172.606 158.592 174.118 158.319 175.66 158.228C177.141 158.137 178.653 158.228 179.983 157.47C180.497 157.167 180.558 156.47 180.165 156.046C178.623 154.379 176.809 152.984 174.783 151.984C174.36 151.772 173.816 151.863 173.544 152.317C173.302 152.681 173.423 153.287 173.876 153.53Z" fill="white"/>
<path d="M43.9608 142.739C43.5979 141.769 43.2654 140.769 42.963 139.769C42.8119 139.253 42.6909 138.738 42.57 138.223C42.5095 137.98 42.4793 137.707 42.4188 137.465C42.4188 137.404 42.3886 137.344 42.3886 137.283C42.3584 137.101 42.3886 137.344 42.3886 137.222C42.3886 137.101 42.3584 136.98 42.3584 136.859C42.3281 136.374 41.9653 135.949 41.4513 135.949C40.9978 135.949 40.5141 136.374 40.5443 136.859C40.7257 139.041 41.4211 141.193 42.2072 143.194C42.3886 143.648 42.8119 143.982 43.3258 143.83C43.7794 143.739 44.1422 143.194 43.9608 142.739Z" fill="#121242"/>
<path d="M1.18009 113.215C3.56858 112.366 5.89659 111.427 8.31531 110.669C9.43397 110.335 8.95022 108.577 7.83157 108.911C5.41285 109.669 3.08483 110.608 0.69635 111.457C0.24284 111.609 -0.0594995 112.063 0.0614364 112.578C0.182372 113.033 0.726584 113.367 1.18009 113.215Z" fill="#121242"/>
<path d="M0.0304965 112.76C1.5422 118.035 3.2353 123.218 5.04934 128.401C6.80291 133.463 8.64718 138.495 10.4008 143.557C11.3985 146.437 12.366 149.317 13.3032 152.227C13.4544 152.681 13.9381 152.984 14.4219 152.863C14.8754 152.742 15.208 152.227 15.0568 151.742C13.4241 146.619 11.6403 141.526 9.82631 136.464C8.01227 131.402 6.22846 126.31 4.53536 121.187C3.56787 118.217 2.66085 115.246 1.78407 112.275C1.48173 111.154 -0.271843 111.609 0.0304965 112.76Z" fill="#121242"/>
<path d="M42.5998 141.799C35.3134 144.77 27.7549 146.952 20.2266 149.225C18.1103 149.862 15.9939 150.529 13.8775 151.196C13.424 151.347 13.1217 151.832 13.2426 152.317C13.3635 152.772 13.8775 153.105 14.3612 152.954C21.829 150.529 29.448 148.498 36.8553 145.891C38.9415 145.164 41.0276 144.376 43.0835 143.557C43.537 143.375 43.8696 142.951 43.7184 142.436C43.5975 141.981 43.0533 141.617 42.5998 141.799Z" fill="#121242"/>
<path d="M31.238 98.559L3.13965 107.889L16.3809 147.973L44.4793 138.643L31.238 98.559Z" fill="#F28C74"/>
<path d="M28.2084 115.216C25.8199 113.791 22.7965 113.427 20.1964 114.518C17.7777 115.519 15.9334 117.55 15.238 120.096C14.8148 121.642 14.8752 123.309 15.3287 124.824C15.6613 125.946 17.4149 125.461 17.0823 124.339C16.4474 122.248 16.8102 119.944 18.1707 118.216C19.4708 116.58 21.436 115.701 23.5221 115.701C24.8524 115.701 26.1525 116.095 27.3014 116.792C28.2991 117.398 29.2061 115.822 28.2084 115.216Z" fill="#121242"/>
<path d="M13.1217 124.946C14.2102 125.886 15.2683 126.795 16.3568 127.735C16.8707 128.189 17.6568 128.007 17.8685 127.341C17.9894 127.007 18.0801 126.674 18.201 126.371C18.2615 126.219 18.322 126.067 18.3824 125.916C18.4127 125.825 18.4429 125.734 18.4731 125.673C18.5941 125.401 18.4127 125.825 18.5336 125.552C18.8057 124.916 19.1081 124.279 19.4406 123.673C19.6523 123.248 19.5616 122.672 19.1081 122.43C18.6848 122.218 18.1103 122.309 17.8685 122.763C17.1731 124.067 16.5684 125.461 16.1149 126.886C16.6289 126.765 17.1126 126.613 17.6266 126.492C16.5382 125.552 15.48 124.643 14.3916 123.703C14.0287 123.4 13.4543 123.309 13.1217 123.703C12.8194 124.006 12.7287 124.612 13.1217 124.946Z" fill="#121242"/>
<path d="M20.0754 130.341C22.4639 131.766 25.4873 132.13 28.0874 131.038C30.5061 130.038 32.3504 128.007 33.0458 125.461C33.4691 123.915 33.4086 122.248 32.9551 120.732C32.6225 119.611 30.8689 120.096 31.2015 121.217C31.8364 123.309 31.4736 125.613 30.1131 127.34C28.813 128.977 26.8478 129.856 24.7617 129.856C23.4314 129.856 22.1313 129.462 20.9824 128.765C19.9847 128.189 19.0777 129.735 20.0754 130.341Z" fill="#121242"/>
<path d="M35.1624 120.611C34.074 119.672 33.0158 118.762 31.9274 117.822C31.4134 117.368 30.6273 117.55 30.4157 118.217C30.2947 118.55 30.204 118.883 30.0831 119.187C30.0226 119.338 29.9622 119.49 29.9017 119.641C29.8715 119.732 29.8412 119.823 29.811 119.884C29.6901 120.157 29.8715 119.732 29.7505 120.005C29.4784 120.642 29.1761 121.278 28.8435 121.884C28.6319 122.309 28.7226 122.885 29.1761 123.127C29.5994 123.339 30.1738 123.248 30.4157 122.794C31.1111 121.49 31.7157 120.096 32.1692 118.671C31.6553 118.792 31.1715 118.944 30.6575 119.065C31.746 120.005 32.8042 120.914 33.8926 121.854C34.2554 122.157 34.8298 122.248 35.1624 121.854C35.4647 121.551 35.5555 120.945 35.1624 120.611Z" fill="#121242"/>
<path d="M91.9417 164.957C86.167 164.957 82.4483 163.775 81.7529 161.441L80.6342 147.861C80.604 147.407 80.9366 147.013 81.3598 146.982C81.8134 146.952 82.2064 147.286 82.2366 147.71L83.3251 161.138C83.96 163.199 92.5162 164.806 108.873 161.077C121.329 158.258 125.139 155.773 126.106 154.166C126.348 153.772 126.439 153.409 126.348 153.045L125.35 140.768C125.32 140.314 125.653 139.92 126.076 139.889C126.56 139.859 126.922 140.193 126.953 140.617L127.92 152.772C128.102 153.439 127.95 154.227 127.467 154.985C125.774 157.713 119.787 160.198 109.205 162.623C102.493 164.2 96.5675 164.957 91.9417 164.957ZM90.9742 148.619C86.0763 148.619 82.6297 147.771 81.2691 146.103C80.5738 145.255 80.4528 144.224 80.9063 143.193C81.0877 142.769 81.5715 142.617 81.9645 142.799C82.3576 142.981 82.539 143.466 82.3576 143.86C82.1459 144.315 82.1762 144.709 82.4785 145.073C84.2925 147.286 92.9999 148.134 107.845 144.77C121.662 141.647 124.685 138.919 125.229 137.586C125.411 137.131 125.381 136.737 125.108 136.282C124.867 135.888 124.987 135.403 125.381 135.161C125.774 134.918 126.257 135.039 126.499 135.434C127.164 136.555 126.983 137.555 126.711 138.222C125.471 141.163 119.394 143.8 108.177 146.346C101.556 147.861 95.6303 148.619 90.9742 148.619Z" fill="#121242"/>
<path d="M84.8668 144.345C84.5342 144.345 84.2319 144.164 84.1109 143.83C83.5063 142.284 82.7806 140.708 81.9341 138.98C75.1617 125.188 73.9221 120.429 71.2313 110.002L70.1126 105.698C69.2963 102.636 66.2124 96.786 62.9472 90.5721C59.7424 84.5097 56.4469 78.2352 54.4816 73.2034C52.0025 66.7773 54.8142 64.716 55.7515 64.2311C58.2307 62.958 61.7076 64.4432 63.8542 67.7472C64.61 68.8991 65.7892 70.6572 67.1497 72.7184C70.4452 77.6592 74.6779 84.0247 76.9455 87.5712C77.0967 85.1766 77.4292 81.6301 78.0944 79.1142C78.6083 77.2652 79.9991 75.8708 82.0248 75.204C84.1714 74.5068 86.8018 74.719 88.0716 75.7496C90.067 77.3258 101.042 95.5433 102.856 100.818C103.672 103.152 103.068 105.273 101.223 106.456C98.8953 107.971 95.3277 107.547 93.1509 105.455C89.8252 102.333 80.7247 89.5112 80.5131 84.8735C80.4829 84.4188 80.8457 84.055 81.2992 84.0247C81.7225 83.9944 82.1155 84.3582 82.1457 84.8128C82.3271 88.7534 90.8531 101.09 94.2695 104.303C96.1138 106.061 98.8651 106.092 100.377 105.122C101.586 104.334 101.919 103 101.344 101.363C99.4698 95.9373 88.646 78.2958 87.0739 77.053C86.318 76.4468 84.3528 76.174 82.5388 76.7802C81.4806 77.1439 80.1201 77.9017 79.6665 79.5689C78.6084 83.4791 78.4572 90.2084 78.4269 90.269C78.4269 90.6327 78.1851 90.9358 77.8223 91.0268C77.4595 91.1177 77.0967 90.9662 76.9152 90.6327C75.7361 88.6018 69.7498 79.5992 65.7892 73.6277C64.4286 71.5665 63.2495 69.8084 62.4936 68.6566C60.6191 65.8073 57.9586 64.9282 56.4771 65.686C54.8445 66.5348 54.6328 69.2022 55.9631 72.6275C57.8679 77.5683 61.1634 83.7822 64.3379 89.8143C67.6637 96.0889 70.7778 102.03 71.6243 105.273L72.743 109.578C75.4943 120.217 76.6129 124.612 83.3249 138.253C84.1714 140.011 84.897 141.617 85.5319 143.194C85.6831 143.618 85.5017 144.073 85.0784 144.254C85.0784 144.315 84.9877 144.345 84.8668 144.345ZM123.022 137.919C122.992 137.919 122.992 137.919 122.962 137.919C122.508 137.889 122.176 137.495 122.206 137.071C122.478 132.706 123.687 129.008 125.955 125.491C128.525 121.49 129.704 117.125 130.943 112.488C131.76 109.396 132.636 106.243 133.937 103.152C137.323 95.2401 145.758 84.6613 149.507 80.7814L150.505 79.7508C153.286 76.9014 156.763 73.3549 156.552 71.6272C156.521 71.4453 156.461 71.2028 156.098 70.9906C151.079 67.7169 141.646 70.6269 131.911 84.4794C129.129 88.42 126.499 88.9049 124.806 88.5715C121.782 88.0259 119.122 84.5703 117.852 79.5386C117.036 76.3558 115.403 68.6869 113.68 60.5633C111.352 49.5904 108.721 37.1928 107.331 32.252C106.182 28.0993 103.823 26.2806 102.1 26.614C100.558 26.9171 99.2279 29.0086 99.6814 33.0704C101.012 45.2255 102.947 56.7743 104.489 66.0498C104.972 68.8991 105.396 71.5059 105.758 73.8096C105.819 74.2643 105.517 74.6584 105.093 74.7493C104.64 74.8099 104.247 74.5068 104.156 74.0824C103.793 71.7787 103.37 69.2022 102.886 66.3529C101.344 57.0774 99.4093 45.4983 98.079 33.2826C97.4743 27.8568 99.7117 25.4621 101.798 25.0681C104.156 24.6134 107.391 26.5231 108.903 31.8579C110.294 36.8291 112.924 49.2873 115.252 60.2602C116.975 68.3535 118.578 75.9921 119.394 79.1445C120.513 83.4791 122.75 86.5406 125.078 86.9953C127.315 87.4197 129.311 85.3585 130.55 83.5701C140.921 68.8385 151.261 65.9588 156.945 69.6569C157.61 70.1116 158.033 70.7178 158.124 71.4756C158.396 73.9612 155.1 77.3561 151.623 80.9329L150.626 81.9332C146.302 86.4194 138.381 96.786 135.358 103.818C134.088 106.789 133.241 109.911 132.455 112.912C131.246 117.459 129.976 122.157 127.255 126.37C125.138 129.644 124.02 133.069 123.748 137.161C123.778 137.586 123.445 137.919 123.022 137.919ZM118.608 133.706C114.889 133.706 109.598 132.069 106.907 127.462C104.942 124.127 103.763 118.095 109.205 108.274C109.417 107.88 109.901 107.729 110.294 107.971C110.687 108.183 110.838 108.668 110.596 109.062C106.575 116.307 105.789 122.4 108.268 126.643C110.626 130.644 115.282 132.069 118.578 132.069C119.031 132.069 119.394 132.433 119.394 132.888C119.424 133.342 119.061 133.706 118.608 133.706ZM107.391 103.242C106.393 103.242 105.365 102.909 104.368 102.272C104.005 102.03 103.884 101.515 104.126 101.151C104.368 100.787 104.851 100.666 105.244 100.908C106.635 101.818 108.026 101.848 109.054 101.03C110.414 99.9385 110.747 97.6954 109.84 95.3311L109.689 94.937C102.312 75.2949 99.7721 71.6272 99.0163 70.9603C98.079 70.1419 96.8394 70.1419 95.9627 70.3238C93.9974 70.6875 91.8206 72.2031 91.0043 73.7793C90.7926 74.1734 90.3089 74.3249 89.9159 74.1127C89.5228 73.9006 89.3716 73.4156 89.5833 73.0215C90.6415 70.9906 93.1811 69.2022 95.6603 68.7172C97.4139 68.3838 98.9558 68.7475 100.074 69.7175C101.949 71.3544 105.668 79.6295 111.17 94.3308L111.322 94.7248C112.47 97.756 111.956 100.696 110.021 102.242C109.296 102.909 108.359 103.242 107.391 103.242ZM72.622 99.9082C72.229 99.9082 71.8662 99.605 71.8359 99.211C71.8057 99.0291 71.4127 95.0583 78.2153 91.8755C78.6084 91.6936 79.0921 91.8755 79.3037 92.2696C79.4851 92.6636 79.3037 93.1486 78.9107 93.3608C73.2872 95.9979 73.4686 99.0291 73.4686 99.0594C73.4988 99.5141 73.1965 99.9082 72.743 99.9385C72.6825 99.9082 72.6523 99.9082 72.622 99.9082ZM106.847 78.4473C106.514 78.4473 106.182 78.2352 106.091 77.9017C105.94 77.4774 106.182 77.0227 106.605 76.8711C107.149 76.6893 111.987 75.0827 114.708 76.2043C115.131 76.3861 115.312 76.8408 115.161 77.2652C115.01 77.6895 114.526 77.8714 114.103 77.7199C112.259 76.9621 108.449 77.9624 107.149 78.417C107.028 78.417 106.938 78.4473 106.847 78.4473Z" fill="#7950ED"/>
<path d="M131.881 43.3763C134.118 43.3763 135.932 41.5577 135.932 39.3145C135.932 37.0712 134.118 35.2527 131.881 35.2527C129.643 35.2527 127.83 37.0712 127.83 39.3145C127.83 41.5577 129.643 43.3763 131.881 43.3763Z" fill="#A787FF"/>
<path d="M177.897 104.182C179.266 104.182 180.376 103.069 180.376 101.697C180.376 100.324 179.266 99.2109 177.897 99.2109C176.527 99.2109 175.417 100.324 175.417 101.697C175.417 103.069 176.527 104.182 177.897 104.182Z" fill="#D0D0D9"/>
<path d="M15.4499 170.383C16.8191 170.383 17.9291 169.27 17.9291 167.898C17.9291 166.525 16.8191 165.412 15.4499 165.412C14.0807 165.412 12.9707 166.525 12.9707 167.898C12.9707 169.27 14.0807 170.383 15.4499 170.383Z" fill="#F85B6E"/>
<path d="M195.1 53.8036C197.254 53.8036 199 52.053 199 49.8934C199 47.7338 197.254 45.9832 195.1 45.9832C192.946 45.9832 191.2 47.7338 191.2 49.8934C191.2 52.053 192.946 53.8036 195.1 53.8036Z" fill="#20A4F3"/>
<path d="M131.548 207C133.702 207 135.448 205.249 135.448 203.089C135.448 200.93 133.702 199.179 131.548 199.179C129.394 199.179 127.648 200.93 127.648 203.089C127.648 205.249 129.394 207 131.548 207Z" fill="#31C587"/>
<path d="M4.98868 54.3794C6.47478 54.3794 7.6795 53.1716 7.6795 51.6816C7.6795 50.1917 6.47478 48.9839 4.98868 48.9839C3.50257 48.9839 2.29785 50.1917 2.29785 51.6816C2.29785 53.1716 3.50257 54.3794 4.98868 54.3794Z" fill="#D0D0D9"/>
<path d="M60.6797 157.41C62.5498 157.41 64.0659 155.89 64.0659 154.015C64.0659 152.14 62.5498 150.62 60.6797 150.62C58.8095 150.62 57.2935 152.14 57.2935 154.015C57.2935 155.89 58.8095 157.41 60.6797 157.41Z" fill="#01015B"/>
<path d="M24.0522 79.5933L21.1875 76.7212L18.3228 79.5933L21.1875 82.4654L24.0522 79.5933Z" fill="#AE82FF"/>
<path d="M123.465 182.118L120.6 179.246L117.735 182.118L120.6 184.99L123.465 182.118Z" fill="#32C9E5"/>
<path d="M158.983 7.17927L151.821 -0.000976562L144.66 7.17926L151.821 14.3595L158.983 7.17927Z" fill="#F5B82E"/>
<path d="M67.4447 187.134L66.7021 177.007L56.6011 177.751L57.3437 187.878L67.4447 187.134Z" fill="#F5B82E"/>
<circle cx="165.5" cy="39.5" r="14.5" fill="#31C587"/>
<path d="M159.172 40.8583C160.641 42.9853 161.958 45.2147 163.12 47.5465C165.336 41.8927 168.817 36.7645 173.246 32.6318" stroke="white" stroke-width="2" stroke-miterlimit="10" stroke-linejoin="round"/>
</g>
<defs>
<clipPath id="clip0">
<rect width="199" height="207" fill="white"/>
</clipPath>
</defs>
</svg>
