<svg width="200" height="200" viewBox="0 0 200 200" fill="none" xmlns="http://www.w3.org/2000/svg">
<circle cx="30.7076" cy="49.5143" r="13.6754" fill="#31C587"/>
<path d="M24.7395 50.7951C26.1258 52.8012 27.3671 54.9038 28.4634 57.1029C30.5531 51.7708 33.8361 46.9342 38.0132 43.0365" stroke="white" stroke-miterlimit="10" stroke-linejoin="round"/>
<path d="M173.924 32.0666L125.492 40.7412L132.148 77.5157L180.58 68.8411L173.924 32.0666Z" fill="#41CADD"/>
<path d="M168.523 41.5117C164.375 42.5815 160.176 43.422 155.926 44.0587" stroke="#121242" stroke-miterlimit="10" stroke-linecap="round" stroke-linejoin="round"/>
<path d="M169.367 46.6826C157.487 48.8985 145.556 50.9616 133.625 52.9228" stroke="#121242" stroke-miterlimit="10" stroke-linecap="round" stroke-linejoin="round"/>
<path d="M171.287 51.9297C169.956 52.2099 168.599 52.49 167.268 52.7957" stroke="#121242" stroke-miterlimit="10" stroke-linecap="round" stroke-linejoin="round"/>
<path d="M163.044 53.5586C156.54 54.6538 150.037 55.749 143.56 56.8442" stroke="#121242" stroke-miterlimit="10" stroke-linecap="round" stroke-linejoin="round"/>
<path d="M172.158 57.3281C162.429 58.6016 152.776 60.2572 143.201 62.3203C142.356 62.4986 141.537 62.6769 140.692 62.8552C139.309 63.1608 137.927 63.4665 136.544 63.7721" stroke="#121242" stroke-miterlimit="10" stroke-linecap="round" stroke-linejoin="round"/>
<path d="M172.671 62.499C168.907 63.2377 165.169 63.9508 161.405 64.6895" stroke="#121242" stroke-miterlimit="10" stroke-linecap="round" stroke-linejoin="round"/>
<path d="M158.255 65.0977C153.084 66.1674 147.886 67.0843 142.663 67.8484" stroke="#121242" stroke-miterlimit="10" stroke-linecap="round" stroke-linejoin="round"/>
<path d="M141.269 145.242L130.208 189.229L162.263 197.227L170.482 164.549L163.057 150.667L141.269 145.242Z" fill="#144BC1"/>
<path d="M170.482 164.548L163.057 150.667L160.215 162.001L170.482 164.548Z" fill="#41CADD"/>
<path d="M146.031 168.242C144.085 169.083 141.96 169.643 139.732 169.923C140.091 170.458 140.68 170.891 141.243 171.299C143.112 172.649 144.981 173.998 146.825 175.374" stroke="white" stroke-miterlimit="10" stroke-linecap="round" stroke-linejoin="round"/>
<path d="M157.091 168.675C153.942 172.292 150.742 175.959 146.671 178.481" stroke="white" stroke-miterlimit="10" stroke-linecap="round" stroke-linejoin="round"/>
<path d="M157.373 172.75C159.011 173.565 160.496 174.686 161.777 176.061C160.983 176.545 160.061 176.52 159.165 176.571C157.578 176.621 156.016 176.876 154.454 177.284" stroke="white" stroke-miterlimit="10" stroke-linecap="round" stroke-linejoin="round"/>
<path d="M51.1986 116.005L23.6338 125.087L36.6236 164.105L64.1884 155.023L51.1986 116.005Z" fill="#A787FF"/>
<path d="M47.7458 132.959C46.0849 131.956 44.1866 131.572 42.3181 131.867C40.2715 132.192 38.5216 133.284 37.3945 134.936C36.2378 136.588 35.8522 138.595 36.2675 140.601C36.3268 140.837 36.3861 141.073 36.4454 141.309" stroke="#121242" stroke-miterlimit="10" stroke-linecap="round" stroke-linejoin="round"/>
<path d="M34.043 141.044C35.1107 141.959 36.1488 142.844 37.2166 143.758C37.6318 142.46 38.1953 141.162 38.8479 139.952" stroke="#121242" stroke-miterlimit="10" stroke-linecap="round" stroke-linejoin="round"/>
<path d="M40.6875 146.177C42.3485 147.18 44.2467 147.564 46.1152 147.269C48.1618 146.944 49.9117 145.853 51.0388 144.2C52.1955 142.548 52.5811 140.542 52.1659 138.535C52.1065 138.299 52.0472 138.063 51.9879 137.827" stroke="#121242" stroke-miterlimit="10" stroke-linecap="round" stroke-linejoin="round"/>
<path d="M54.4201 138.092C53.3524 137.178 52.3143 136.293 51.2465 135.378C50.8313 136.676 50.2678 137.974 49.6152 139.184" stroke="#121242" stroke-miterlimit="10" stroke-linecap="round" stroke-linejoin="round"/>
<g clip-path="url(#clip0)">
<path d="M89.1402 192.766C87.3651 179.794 85.5599 166.821 83.7849 153.849C82.9124 147.529 81.8293 141.269 80.4152 135.04C79.0313 128.841 77.4367 122.702 75.8422 116.564C74.9997 113.298 74.3078 110.062 74.1573 106.675C74.0069 103.5 74.1874 100.023 75.7218 97.1501C76.4138 95.8801 77.3765 94.7613 78.6401 94.0355C80.2046 93.1586 82.07 92.9167 83.8149 93.0981C86.4023 93.3703 88.8694 94.6403 91.0055 96.122C93.2018 97.634 95.1273 99.5088 96.8422 101.565C98.7978 103.893 100.513 106.373 102.258 108.853C102.95 109.851 104.093 111.332 103.1 112.512C102.378 113.358 101.235 113.419 100.182 113.298C97.8651 113.026 95.6688 112.028 93.623 110.969C91.4267 109.82 89.3508 108.49 87.3049 107.099C86.4625 106.524 85.59 105.92 84.7476 105.345C84.2662 105.012 83.8149 105.799 84.2963 106.131C88.2978 108.913 92.4195 111.877 97.0528 113.479C98.9783 114.145 101.686 114.901 103.431 113.419C104.394 112.602 104.574 111.332 104.093 110.213C103.822 109.518 103.371 108.943 102.95 108.339C102.498 107.704 102.077 107.069 101.626 106.464C98.2863 101.716 94.676 97.0594 89.5313 94.1867C85.8909 92.1607 81.047 91.1023 77.4066 93.7331C74.729 95.6684 73.706 98.9947 73.3149 102.17C72.9238 105.617 73.2548 109.125 73.8866 112.512C74.2777 114.568 74.8493 116.594 75.3909 118.59C76.2333 121.795 77.0456 125 77.8278 128.206C79.3923 134.647 80.8364 141.118 81.9195 147.65C83.0026 154.332 83.8149 161.076 84.7476 167.789C85.6803 174.532 86.6129 181.306 87.5456 188.049C87.7863 189.712 87.9969 191.345 88.2376 193.008C88.3579 193.583 89.2304 193.341 89.1402 192.766Z" fill="#121242"/>
<path d="M79.1521 92.7343C77.4071 85.9305 75.7825 79.0964 73.857 72.3531C71.9616 65.7004 69.7352 59.1385 68.0203 52.4557C67.5991 50.7623 67.1779 49.0689 66.8169 47.3755C66.6364 46.5288 66.4859 45.6519 66.3054 44.7749C66.155 43.9887 65.9745 43.1723 66.0045 42.3558C66.0647 40.995 66.9974 40.0274 68.261 39.6645C69.4644 39.3319 70.728 39.725 71.7209 40.4205C72.7438 41.1765 73.496 42.2651 74.0676 43.3839C74.3985 44.0492 74.6392 44.7145 74.9401 45.3797C75.271 46.1659 75.6321 46.9522 75.9931 47.7384C77.4071 50.853 78.4601 54.1188 79.6937 57.3242C82.1908 63.7047 84.9286 69.9944 87.8771 76.1934C88.2381 76.9494 88.5991 77.7054 88.9602 78.4614C89.1708 78.8847 89.7725 78.6428 89.8026 78.2195C89.9229 75.7701 91.8183 73.7441 94.0146 72.8671C95.188 72.4135 96.602 72.1414 97.8355 72.474C99.1593 72.8369 100.212 74.1674 100.904 75.2863C101.747 76.647 102.258 78.1892 102.379 79.7617C102.409 80.2455 103.131 80.3967 103.251 79.8826C103.552 78.6428 103.883 77.403 104.545 76.3144C105.207 75.2258 106.169 74.4396 107.373 74.0162C108.576 73.5929 109.93 73.5022 111.103 74.0162C112.187 74.4698 112.999 75.3467 113.57 76.3446C114.293 77.5844 114.654 79.0057 114.744 80.4269C114.774 81.0015 115.677 81.0015 115.646 80.4269C115.466 77.7356 114.353 74.7117 111.856 73.3812C109.298 72.0204 105.899 72.9881 104.154 75.2258C103.191 76.4958 102.709 78.0683 102.348 79.6105C102.649 79.6407 102.95 79.7012 103.221 79.7314C103.101 78.1287 102.649 76.5865 101.867 75.1955C101.115 73.865 100.002 72.4135 98.5877 71.7483C97.2338 71.1133 95.5189 71.2947 94.1049 71.7483C92.7811 72.2019 91.5776 72.9578 90.6149 73.9557C89.5619 75.1048 88.9 76.5261 88.8097 78.0985C89.0805 78.0078 89.3814 77.9473 89.6521 77.8566C86.6134 71.6878 83.7553 65.1864 81.1378 58.6245C80.4759 56.9613 79.814 55.2982 79.1822 53.6048C78.5805 52.0021 78.0389 50.3692 77.347 48.7665C76.655 47.1336 75.8728 45.5309 75.2109 43.898C74.7295 42.6884 74.0977 41.5393 73.1951 40.5717C72.2925 39.604 71.1493 38.8783 69.8255 38.6969C68.5919 38.5154 67.2682 38.8783 66.3054 39.7552C65.1321 40.7834 65.0117 42.2651 65.2223 43.7166C65.463 45.4704 65.8541 47.1941 66.2452 48.9177C67.8097 55.8727 70.0361 62.6463 72.0819 69.4501C74.1579 76.3749 75.8728 83.3904 77.6478 90.3756C77.8584 91.2525 78.0991 92.0992 78.3097 92.9762C78.4301 93.5205 79.3026 93.2786 79.1521 92.7343Z" fill="#121242"/>
<path d="M88.7194 78.0996C89.5919 81.8795 90.6148 85.6292 91.7581 89.3183C92.6606 92.1911 93.3225 95.1847 94.5561 97.9365C95.1578 99.2368 95.8798 100.507 96.9028 101.535C97.3841 102.049 97.9859 102.442 98.7079 102.291C99.3999 102.14 99.9715 101.626 100.333 101.021C101.265 99.5694 101.506 97.6946 101.747 96.0314C102.017 94.2171 102.258 92.4027 102.469 90.5582C102.95 86.4456 103.311 82.3029 103.01 78.1903C102.98 77.6158 102.078 77.6158 102.108 78.1903C102.348 81.6678 102.138 85.1453 101.777 88.5926C101.596 90.3162 101.386 92.0701 101.145 93.7937C100.904 95.5476 100.694 97.362 100.182 99.0856C99.9114 100.023 98.9486 102.23 97.7151 101.081C96.7222 100.174 96.0002 98.9344 95.4286 97.7248C94.2251 95.1545 93.6535 92.3725 92.8111 89.6812C91.5775 85.7804 90.4945 81.819 89.5618 77.8275C89.4715 77.2831 88.599 77.5251 88.7194 78.0996Z" fill="#121242"/>
<path d="M115.105 84.5412C116.88 77.435 118.926 70.3893 120.61 63.2831C121.423 59.7451 122.175 56.2071 123.047 52.6994C123.469 51.0362 123.89 49.373 124.431 47.7401C124.822 46.5306 125.484 45.1698 126.928 45.0791C128.673 44.9884 129.125 46.8632 129.245 48.2844C129.396 49.9476 129.185 51.5805 129.035 53.2134C128.734 56.3885 128.673 59.5939 128.463 62.769C128.222 66.4582 127.951 70.1474 127.62 73.8063C126.417 87.8675 124.431 101.838 123.168 115.869C122.175 126.755 121.633 137.671 121.633 148.618C121.663 160.472 122.235 172.326 122.837 184.179C122.927 185.963 123.017 187.717 123.108 189.501C123.138 190.076 124.04 190.076 124.01 189.501C123.348 176.861 122.656 164.191 122.536 151.521C122.446 140.393 122.897 129.295 123.83 118.197C125.063 103.894 127.109 89.6819 128.373 75.3787C128.704 71.6593 128.974 67.9399 129.245 64.1902C129.486 60.622 129.606 57.0538 129.877 53.5158C129.997 51.8829 130.208 50.25 130.118 48.6171C130.027 47.1656 129.757 45.2908 128.373 44.5045C127.651 44.1114 126.688 44.0812 125.936 44.3533C124.792 44.7464 124.161 45.8653 123.739 46.9237C123.138 48.4659 122.747 50.1593 122.325 51.7619C121.874 53.5158 121.453 55.2697 121.062 57.0538C119.437 64.3717 117.542 71.6291 115.616 78.8865C115.135 80.7008 114.683 82.4849 114.232 84.2993C114.082 84.8738 114.954 85.1157 115.105 84.5412Z" fill="#121242"/>
<path d="M102.589 79.1586C102.498 86.0532 102.709 93.1896 105.146 99.7213C105.657 101.082 106.169 102.715 107.372 103.622C107.884 104.015 108.546 104.197 109.177 104.015C109.899 103.834 110.411 103.259 110.832 102.685C111.825 101.354 112.397 99.7515 112.818 98.1791C113.299 96.4252 113.66 94.6411 114.021 92.857C114.834 88.7445 115.405 84.5715 115.736 80.3682C115.796 79.7937 114.894 79.7937 114.834 80.3682C114.563 83.9062 114.112 87.4139 113.48 90.8914C113.179 92.6151 112.818 94.369 112.427 96.0624C112.066 97.5743 111.705 99.1467 111.043 100.568C110.712 101.233 110.351 101.929 109.839 102.503C109.448 102.957 108.877 103.38 108.245 103.108C107.673 102.866 107.282 102.292 106.981 101.778C106.62 101.112 106.349 100.387 106.079 99.6911C104.935 96.6369 104.243 93.4315 103.882 90.2262C103.461 86.5672 103.431 82.8781 103.461 79.1889C103.491 78.5841 102.589 78.5841 102.589 79.1586Z" fill="#121242"/>
</g>
<path d="M63.482 73.7422C59.7234 68.7281 55.7769 63.8394 51.6111 59.1701C51.2039 58.7313 50.5461 59.3894 50.9533 59.8282C55.0565 64.4662 58.9717 69.2609 62.6676 74.2123C63.0122 74.7137 63.8265 74.2436 63.482 73.7422Z" fill="#121242"/>
<path d="M59.9117 81.452C56.4037 80.7939 52.8957 80.1358 49.419 79.4464C48.8239 79.3211 48.5733 80.2299 49.1684 80.3552C52.6764 81.0133 56.1845 81.6714 59.6612 82.3608C60.2563 82.4549 60.5069 81.5461 59.9117 81.452Z" fill="#121242"/>
<path d="M59.5988 89.5688C56.0595 91.1671 52.3635 92.4832 48.6049 93.4547C48.0098 93.6114 48.2604 94.5202 48.8555 94.3635C52.7081 93.3607 56.4667 92.0445 60.0687 90.3836C60.6324 90.1329 60.1626 89.3181 59.5988 89.5688Z" fill="#121242"/>
<path d="M136.336 128.302C138.622 124.228 140.878 120.154 143.164 116.049C141.191 115.578 139.249 115.108 137.244 114.638C142.412 109.781 147.549 104.955 152.686 100.129L152.717 100.16C149.961 104.36 147.173 108.559 144.386 112.789C146.171 113.071 147.956 113.322 149.773 113.604C145.294 118.524 140.815 123.413 136.336 128.333C136.367 128.333 136.367 128.333 136.336 128.302Z" stroke="#414168"/>
<path d="M77.1078 192.857C74.8213 188.783 72.5661 184.709 70.2797 180.604C72.2529 180.134 74.1949 179.664 76.1995 179.194C71.0314 174.337 65.8946 169.511 60.7579 164.685L60.7266 164.716C63.4829 168.915 66.2705 173.114 69.0581 177.345C67.2728 177.627 65.4875 177.878 63.6708 178.16C68.1498 183.08 72.6288 187.969 77.1078 192.889C77.0765 192.889 77.1078 192.857 77.1078 192.857Z" stroke="#414168"/>
<rect x="83.136" y="21.4839" width="6.58559" height="6.58559" transform="rotate(-30.5641 83.136 21.4839)" stroke="#414168"/>
<path d="M11.8608 95.0439L7.37393 87.5532L16.1045 87.4128L11.8608 95.0439Z" fill="#FFBD70"/>
<circle cx="35.2776" cy="188.009" r="5.04126" fill="#41CADD"/>
<circle cx="131.715" cy="12.2394" r="2.52063" fill="#144BC1"/>
<path d="M187.414 104.996C183.597 101.179 177.409 101.179 173.592 104.996L187.414 118.818C191.231 115.001 191.231 108.813 187.414 104.996Z" fill="#F685A1"/>
<defs>
<clipPath id="clip0">
<rect width="65.076" height="154.673" fill="white" transform="translate(65.1318 38.668)"/>
</clipPath>
</defs>
</svg>
