<svg width="24" height="24" viewBox="0 0 24 24" fill="none" xmlns="http://www.w3.org/2000/svg">
<path d="M12 2C6.47833 2 2 6.59069 2 12.2528C2 16.7828 4.865 20.6259 8.83917 21.9819C9.33833 22.0767 9.5 21.7589 9.5 21.4889V19.5801C6.71833 20.2004 6.13917 18.3703 6.13917 18.3703C5.68417 17.1853 5.02833 16.87 5.02833 16.87C4.12083 16.2335 5.0975 16.2471 5.0975 16.2471C6.10167 16.3189 6.63 17.304 6.63 17.304C7.52167 18.871 8.96917 18.4182 9.54 18.1559C9.62917 17.4937 9.88833 17.0409 10.175 16.7854C7.95417 16.5248 5.61917 15.6456 5.61917 11.7179C5.61917 10.5978 6.01 9.68362 6.64917 8.96593C6.54583 8.70704 6.20333 7.66382 6.74667 6.25235C6.74667 6.25235 7.58667 5.97723 9.4975 7.30326C10.295 7.07599 11.15 6.96236 12 6.95808C12.85 6.96236 13.7058 7.07599 14.505 7.30326C16.4142 5.97723 17.2525 6.25235 17.2525 6.25235C17.7967 7.66467 17.4542 8.7079 17.3508 8.96593C17.9925 9.68362 18.38 10.5987 18.38 11.7179C18.38 15.6559 16.0408 16.5231 13.8142 16.7769C14.1725 17.0947 14.5 17.7184 14.5 18.6753V21.4889C14.5 21.7614 14.66 22.0818 15.1675 21.981C19.1383 20.6234 22 16.7811 22 12.2528C22 6.59069 17.5225 2 12 2Z" fill="white"/>
</svg>
