<svg width="24" height="22" viewBox="0 0 24 22" fill="none" xmlns="http://www.w3.org/2000/svg">
<path d="M12 19.0001L15.1982 9.15723H8.80176L12 19.0001Z" fill="#E24329"/>
<path d="M11.9997 19.0001L8.80143 9.15723H4.31934L11.9997 19.0001Z" fill="#FC6D26"/>
<path d="M4.31971 9.15723L3.34784 12.1485C3.30463 12.2814 3.30463 12.4247 3.34783 12.5577C3.39103 12.6906 3.47522 12.8065 3.58833 12.8887L12 19.0002L4.31964 9.15729L4.31971 9.15723Z" fill="#FCA326"/>
<path d="M4.31934 9.15711H8.80142L6.87528 3.22877C6.77615 2.92371 6.34461 2.92378 6.24555 3.22877L4.31934 9.15711Z" fill="#E24329"/>
<path d="M12.0001 19.0001L15.1982 9.15723H19.6804L12.0001 19.0001Z" fill="#FC6D26"/>
<path d="M19.6803 9.15723L20.6522 12.1485C20.6954 12.2814 20.6954 12.4247 20.6522 12.5577C20.609 12.6907 20.5248 12.8065 20.4116 12.8887L12 19.0002L19.6803 9.15729V9.15723Z" fill="#FCA326"/>
<path d="M19.6804 9.15711H15.1982L17.1245 3.22877C17.2236 2.92371 17.6551 2.92378 17.7542 3.22877L19.6804 9.15711Z" fill="#E24329"/>
</svg>
