<svg width="16" height="19" viewBox="0 0 16 19" fill="none" xmlns="http://www.w3.org/2000/svg">
<path d="M2.40522 4.4135C2.22269 4.30808 2.02062 4.23958 1.81085 4.21203C1.60109 4.18448 1.38784 4.19842 1.18362 4.25304C0.979398 4.30767 0.788307 4.40187 0.621549 4.53014C0.454791 4.6584 0.315721 4.81814 0.21249 5C0.136654 5.13305 0.0802279 5.27596 0.044873 5.4245C-0.162362 6.28775 0.367916 7.1555 1.22886 7.3625L1.22809 11.6368C0.928643 11.7101 0.657152 11.8671 0.446391 12.089C0.15259 12.3992 -0.00636797 12.8103 0.00345426 13.2343C0.0132765 13.6583 0.1911 14.0618 0.498961 14.3585C0.650081 14.5038 0.829182 14.6179 1.02574 14.694C1.22229 14.7702 1.43233 14.8069 1.64351 14.802C1.85468 14.7971 2.06274 14.7507 2.25543 14.6656C2.44813 14.5804 2.62158 14.4581 2.76559 14.306L6.46306 16.4412C6.41911 16.5896 6.39679 16.7434 6.39678 16.898C6.39754 17.7837 7.11524 18.5007 7.9998 18.5C8.17046 18.5 8.33884 18.4722 8.50189 18.419C9.34302 18.1407 9.80015 17.2325 9.5213 16.3895L13.1952 14.2655C13.3628 14.4545 13.5741 14.6012 13.8113 14.693C14.0485 14.7849 14.3047 14.8193 14.5582 14.7934C14.8117 14.7674 15.0552 14.6819 15.2682 14.5439C15.4811 14.406 15.6573 14.2197 15.7818 14.0007C15.8603 13.865 15.9197 13.718 15.9555 13.565C16.1604 12.7055 15.6302 11.843 14.7723 11.6382V7.364C14.9191 7.32829 15.06 7.27196 15.1905 7.19675C15.5622 6.9804 15.8328 6.62918 15.9442 6.21856C16.0556 5.80794 15.9989 5.37069 15.7863 5.00075C15.7099 4.86884 15.6148 4.74837 15.5037 4.643C15.352 4.49763 15.1723 4.38361 14.9751 4.30765C14.778 4.2317 14.5674 4.19534 14.3557 4.20072C14.1441 4.2061 13.9357 4.25311 13.7428 4.33899C13.5499 4.42486 13.3764 4.54787 13.2325 4.70075L9.53578 2.56325C9.57997 2.414 9.60359 2.25725 9.60282 2.1005C9.60206 1.2155 8.88436 0.499251 7.9998 0.500001C7.84514 0.500001 7.69047 0.521751 7.54266 0.566001C6.6962 0.817251 6.21164 1.709 6.46306 2.55875L2.76407 4.69625C2.6594 4.58496 2.53845 4.48967 2.40522 4.4135ZM9.18531 15.8157C9.03628 15.6512 8.85365 15.5196 8.64935 15.4294C8.44506 15.3391 8.22371 15.2924 7.9998 15.2922C7.54571 15.2922 7.13658 15.479 6.84629 15.782L3.14654 13.643L3.16254 13.5807H12.8371C12.8454 13.6167 12.8546 13.652 12.8653 13.6872L9.18531 15.8157ZM9.15026 3.221L12.8553 5.3645L12.8409 5.4185C12.6283 6.278 13.1502 7.14725 14.0081 7.3595V11.6397C13.9883 11.645 13.9662 11.6503 13.9464 11.657L9.10683 3.2645C9.12225 3.25095 9.13676 3.23642 9.15026 3.221ZM7.55409 3.6455C7.84514 3.7295 8.15446 3.7295 8.44703 3.6455L13.2873 12.035C13.0648 12.2488 12.9081 12.5203 12.8355 12.818H3.16483C3.09205 12.5215 2.93632 12.251 2.71531 12.0373L7.55409 3.6455ZM3.14197 5.35925L6.84706 3.22025L6.89201 3.26525L2.05399 11.657L1.99075 11.6397V7.35875L2.04789 7.343C2.8974 7.09775 3.3873 6.2105 3.14197 5.35925Z" fill="#DF34A6"/>
</svg>
