<svg width="16" height="19" viewBox="0 0 16 19" fill="none" xmlns="http://www.w3.org/2000/svg">
<path d="M2.49267 4.4135C2.31299 4.30808 2.11408 4.23958 1.90759 4.21203C1.70109 4.18448 1.49118 4.19842 1.29014 4.25304C1.08911 4.30767 0.901002 4.40187 0.736847 4.53014C0.572692 4.6584 0.435792 4.81814 0.334173 5C0.259521 5.13305 0.203976 5.27596 0.169173 5.4245C-0.0348275 6.28775 0.487172 7.1555 1.33467 7.3625L1.33392 11.6367C1.03915 11.7101 0.771893 11.8671 0.564422 12.089C0.275208 12.3992 0.118731 12.8103 0.1284 13.2343C0.138069 13.6583 0.313117 14.0618 0.616172 14.3585C0.764933 14.5038 0.941239 14.6179 1.13472 14.694C1.32821 14.7702 1.53497 14.8069 1.74285 14.802C1.95073 14.7971 2.15554 14.7507 2.34523 14.6656C2.53491 14.5804 2.70566 14.4581 2.84742 14.306L6.48717 16.4412C6.4439 16.5896 6.42193 16.7434 6.42192 16.898C6.42267 17.7837 7.12917 18.5007 7.99992 18.5C8.16792 18.5 8.33367 18.4722 8.49417 18.419C9.32217 18.1407 9.77217 17.2325 9.49767 16.3895L13.1142 14.2655C13.2792 14.4545 13.4872 14.6012 13.7207 14.693C13.9542 14.7849 14.2064 14.8193 14.4559 14.7934C14.7055 14.7674 14.9452 14.6819 15.1548 14.5439C15.3644 14.406 15.5378 14.2197 15.6604 14.0007C15.7377 13.865 15.7962 13.718 15.8314 13.565C16.0332 12.7055 15.5112 11.843 14.6667 11.6382V7.364C14.8112 7.32829 14.9499 7.27196 15.0784 7.19675C15.4442 6.9804 15.7106 6.62918 15.8203 6.21856C15.9299 5.80794 15.8742 5.37069 15.6649 5.00075C15.5897 4.86884 15.496 4.74837 15.3867 4.643C15.2373 4.49763 15.0604 4.38361 14.8663 4.30765C14.6723 4.2317 14.465 4.19534 14.2566 4.20072C14.0483 4.2061 13.8431 4.25311 13.6532 4.33899C13.4633 4.42486 13.2926 4.54787 13.1509 4.70075L9.51192 2.56325C9.55542 2.414 9.57867 2.25725 9.57792 2.1005C9.57717 1.2155 8.87067 0.499251 7.99992 0.500001C7.84767 0.500001 7.69542 0.521751 7.54992 0.566001C6.71667 0.817251 6.23967 1.709 6.48717 2.55875L2.84592 4.69625C2.74288 4.58496 2.62382 4.48967 2.49267 4.4135ZM9.16692 15.8157C9.02023 15.6512 8.84044 15.5196 8.63933 15.4294C8.43823 15.3391 8.22034 15.2924 7.99992 15.2922C7.55292 15.2922 7.15017 15.479 6.86442 15.782L3.22242 13.643L3.23817 13.5807H12.7617C12.7699 13.6167 12.7789 13.652 12.7894 13.6872L9.16692 15.8157ZM9.13242 3.221L12.7797 5.3645L12.7654 5.4185C12.5562 6.278 13.0699 7.14725 13.9144 7.3595V11.6397C13.8949 11.645 13.8732 11.6503 13.8537 11.657L9.08967 3.2645C9.10485 3.25095 9.11914 3.23642 9.13242 3.221ZM7.56117 3.6455C7.84767 3.7295 8.15217 3.7295 8.44017 3.6455L13.2049 12.035C12.9858 12.2489 12.8316 12.5203 12.7602 12.818H3.24042C3.16878 12.5215 3.01549 12.251 2.79792 12.0373L7.56117 3.6455ZM3.21792 5.35925L6.86517 3.22025L6.90942 3.26525L2.14692 11.657L2.08467 11.6397V7.35875L2.14092 7.343C2.97717 7.09775 3.45942 6.2105 3.21792 5.35925Z" fill="#DF34A6"/>
</svg>
