<svg width="18" height="19" viewBox="0 0 18 19" fill="none" xmlns="http://www.w3.org/2000/svg">
<path fill-rule="evenodd" clip-rule="evenodd" d="M10.3598 5.34205L10.3425 0.5H7.64062L7.65791 5.34205L9.00884 7.19707L10.3598 5.34205ZM7.65791 13.6407V18.5H10.3598V13.6407L9.00884 11.7856L7.65791 13.6407Z" fill="white"/>
<path fill-rule="evenodd" clip-rule="evenodd" d="M10.3594 13.6407L13.2053 17.5668L15.3829 15.9825L12.537 12.0564L10.3594 11.3536V13.6407ZM7.65751 5.34208L4.79433 1.41602L2.6167 3.00027L5.46259 6.92346L7.65751 7.62629V5.34208Z" fill="#00F2E6"/>
<path fill-rule="evenodd" clip-rule="evenodd" d="M5.46272 6.9266L0.853986 5.43164L0.0244141 7.98661L4.63315 9.49885L6.81078 8.77874L5.46272 6.9266ZM11.1862 10.2017L12.5371 12.0567L17.1459 13.5517L17.9754 10.9967L13.3667 9.50173L11.1862 10.2017Z" fill="#00B9F1"/>
<path fill-rule="evenodd" clip-rule="evenodd" d="M13.3638 9.50178L17.9726 7.98954L17.143 5.43457L12.5343 6.92953L11.1833 8.78455L13.3638 9.50178ZM4.63315 9.50178L0.0244141 10.9967L0.853986 13.5517L5.46272 12.0567L6.81366 10.2017L4.63315 9.50178Z" fill="#D63AFF"/>
<path fill-rule="evenodd" clip-rule="evenodd" d="M5.46259 12.0564L2.6167 15.9825L4.79433 17.5668L7.65751 13.6407V11.3536L5.46259 12.0564ZM12.537 6.92634L15.3829 3.00027L13.2053 1.41602L10.3594 5.3392V7.62629L12.537 6.92634Z" fill="#FB015B"/>
</svg>
