<svg width="16" height="16" viewBox="0 0 16 16" fill="none" xmlns="http://www.w3.org/2000/svg">
<path fill-rule="evenodd" clip-rule="evenodd" d="M8.00277 3.28588C7.00499 3.28588 6.19613 3.95631 6.19613 4.78333V6.80828L9.82082 6.80362L9.80941 4.78333C9.80941 3.95631 9.00055 3.28588 8.00277 3.28588ZM5.08009 4.78333C5.08009 3.44543 6.38862 2.36084 8.00277 2.36084C9.61692 2.36084 10.9255 3.44543 10.9255 4.78333V7.73332H5.08009V4.78333Z" fill="#F85B6E"/>
<path fill-rule="evenodd" clip-rule="evenodd" d="M2.71191 8.33547C2.71191 7.52757 3.47028 6.87264 4.40577 6.87264H11.5939C12.5294 6.87264 13.2877 7.52757 13.2877 8.33547V12.1767C13.2877 12.9846 12.5294 13.6395 11.5939 13.6395H4.40577C3.47028 13.6395 2.71191 12.9846 2.71191 12.1767V8.33547ZM4.40577 7.80636C4.0674 7.80636 3.7931 8.04325 3.7931 8.33547V12.1767C3.7931 12.4689 4.0674 12.7058 4.40577 12.7058H11.5939C11.9323 12.7058 12.2066 12.4689 12.2066 12.1767V8.33547C12.2066 8.04325 11.9323 7.80636 11.5939 7.80636H4.40577Z" fill="#F85B6E"/>
</svg>
