<svg width="190" height="130" viewBox="0 0 190 130" fill="none" xmlns="http://www.w3.org/2000/svg">
<mask id="mask0" mask-type="alpha" maskUnits="userSpaceOnUse" x="0" y="0" width="190" height="130">
<rect width="190" height="130" fill="#C4C4C4"/>
</mask>
<g mask="url(#mask0)">
<rect x="57" y="15.3213" width="5.10628" height="5.10628" transform="rotate(-15 57 15.3213)" fill="#41CADD"/>
<path d="M122.502 21.8407L119.482 16.7982L125.359 16.7038L122.502 21.8407Z" fill="#F685A1"/>
<path d="M72.3048 105.652C69.7354 103.083 65.5696 103.083 63.0002 105.652L72.3048 114.957C74.8741 112.388 74.8741 108.222 72.3048 105.652Z" fill="#FFBD70"/>
<path d="M39.0639 86.5658C39.0639 87.7558 39.149 89.0824 40.1919 89.9407C41.171 90.7601 42.597 90.9356 43.8741 90.9747C45.7258 91.0332 47.5776 90.9747 49.408 90.9551C51.3236 90.9356 53.2392 90.9161 55.1548 90.8966C62.8597 90.7991 70.5858 90.682 78.2907 90.565C85.9531 90.4479 93.6367 90.3504 101.299 90.3309C108.983 90.3309 116.645 90.3504 124.329 90.5455C131.97 90.7406 139.589 90.4089 147.209 90.2333C148.146 90.2138 149.103 90.1943 150.04 90.1748C150.21 90.1748 150.359 90.0383 150.359 89.8822C150.466 82.3325 151.04 74.8023 150.998 67.2527C150.976 63.4681 150.636 59.703 150.423 55.9379C150.21 52.1923 150.232 48.4468 150.338 44.7012C150.381 43.16 150.402 41.6189 150.508 40.0973C150.572 39.0243 150.657 37.9709 150.678 36.8979C150.7 34.8105 150.466 32.5086 149.018 30.7918C147.103 28.5484 143.57 28.2363 140.696 28.1582C136.759 28.0607 132.778 28.1777 128.841 28.1582C120.753 28.1387 112.665 28.0607 104.577 28.0217C96.4675 27.9827 88.3582 27.9827 80.2702 28.1387C72.2034 28.2753 64.1154 28.5679 56.0487 29.0946C52.0472 29.3482 48.0245 29.6799 44.0231 30.07C43.0227 30.1676 42.0224 30.2651 41.022 30.3822C40.426 30.4407 40.211 30.0468 39.8492 30.515C39.3809 31.1002 39.3193 32.0989 39.3618 32.7622C39.4257 33.6595 39.3193 34.9471 39.3405 35.8445C39.6598 43.3161 39.0426 50.8073 39.0213 58.2789C39 65.8481 39 73.4173 39 80.9865C39.0639 82.8397 39.0639 84.7125 39.0639 86.5658C39.0639 86.9365 39.7024 86.9365 39.7024 86.5658C39.7024 79.1722 39.7237 71.7591 39.7237 64.3655C39.7237 60.6589 39.7024 56.9719 39.8088 53.2653C39.9152 49.5977 40.0642 45.9107 40.1068 42.2432C40.1281 40.4484 40.1281 38.6536 40.0642 36.8394C40.0429 35.903 40.0004 34.9861 39.9365 34.0497C39.9152 33.6205 39.8727 33.1914 39.8514 32.7622C39.8301 32.372 39.6598 31.8063 39.8727 31.4356C40.0642 31.104 40.5963 31.0454 40.9582 30.9869C41.4903 30.9089 42.0224 30.8699 42.5758 30.8113C43.5335 30.7138 44.4913 30.6163 45.4704 30.5187C47.4286 30.3432 49.408 30.1676 51.3662 30.0115C59.22 29.4068 67.1165 29.0556 74.9917 28.841C82.9094 28.6459 90.8272 28.5874 98.7449 28.6069C106.705 28.6264 114.644 28.685 122.605 28.7435C126.521 28.763 130.437 28.7825 134.375 28.7825C136.29 28.7825 138.227 28.7435 140.143 28.763C141.952 28.7825 143.804 28.88 145.528 29.3873C146.826 29.7579 147.975 30.3822 148.763 31.4356C149.401 32.3135 149.721 33.3279 149.912 34.3618C150.274 36.4687 149.997 38.6146 149.891 40.7215C149.699 44.2525 149.636 47.803 149.699 51.334C149.742 55.0015 150.125 58.6496 150.295 62.3171C150.657 69.6912 150.189 77.0848 149.934 84.4589C149.87 86.2732 149.827 88.0874 149.785 89.9017C149.891 89.8042 149.997 89.7066 150.104 89.6091C142.654 89.7261 135.205 90.0773 127.755 90.0187C124.031 89.9992 120.285 89.8432 116.56 89.7847C112.814 89.7456 109.068 89.7261 105.3 89.7261C97.7871 89.7261 90.2525 89.8042 82.7392 89.9017C75.2045 89.9992 67.6912 90.1163 60.1566 90.2333C56.3892 90.2919 52.6219 90.3309 48.8759 90.3699C47.1306 90.3894 45.3853 90.4674 43.64 90.3894C42.1714 90.3114 40.5112 89.9797 39.9578 88.5556C39.7237 87.9119 39.7024 87.2291 39.7024 86.5658C39.7024 86.1951 39.0639 86.1951 39.0639 86.5658Z" fill="#414168"/>
<path d="M151 28H40V37H151V28Z" fill="#414168"/>
<path d="M54.6814 32.8274C54.6814 33.6658 53.9935 34.3502 53.1508 34.3502C52.3081 34.3502 51.6201 33.6658 51.6201 32.8274C51.6201 31.9891 52.3081 31.3047 53.1508 31.3047C53.9935 31.3047 54.6814 31.9891 54.6814 32.8274Z" fill="#F9F9FA"/>
<path d="M58.8094 32.8274C58.8094 33.6658 58.1214 34.3502 57.2787 34.3502C56.436 34.3502 55.748 33.6658 55.748 32.8274C55.748 31.9891 56.436 31.3047 57.2787 31.3047C58.1214 31.3047 58.8094 31.9891 58.8094 32.8274Z" fill="#F9F9FA"/>
<path d="M62.867 32.8274C62.867 33.6658 62.179 34.3502 61.3363 34.3502C60.4936 34.3502 59.8057 33.6658 59.8057 32.8274C59.8057 31.9891 60.4936 31.3047 61.3363 31.3047C62.179 31.3047 62.867 31.9891 62.867 32.8274Z" fill="#F9F9FA"/>
<path d="M46.6401 52.7206C48.603 52.6217 50.566 52.5228 52.529 52.4486C52.8703 52.4239 53.169 52.1272 53.169 51.7068C53.169 51.3112 52.8703 50.9403 52.529 50.965C50.566 51.0639 48.603 51.1628 46.6401 51.237C46.2987 51.2618 46 51.5585 46 51.9788C46 52.3745 46.2987 52.7454 46.6401 52.7206Z" fill="#71718E"/>
<path d="M129.64 52.7206C131.603 52.6217 133.566 52.5228 135.529 52.4486C135.87 52.4239 136.169 52.1272 136.169 51.7068C136.169 51.3112 135.87 50.9403 135.529 50.965C133.566 51.0639 131.603 51.1628 129.64 51.237C129.299 51.2618 129 51.5585 129 51.9788C129 52.3745 129.299 52.7454 129.64 52.7206Z" fill="#71718E"/>
<path d="M57.9057 52.6219C62.8984 52.3499 67.8912 52.1273 72.9052 51.9542C77.898 51.7812 82.9121 51.6823 87.9048 51.6328C90.6999 51.6081 93.5163 51.5833 96.3113 51.6081C97.1435 51.6081 97.1435 50.1245 96.3113 50.1245C91.3186 50.0997 86.3045 50.1492 81.3118 50.2481C76.3191 50.347 71.305 50.4954 66.3123 50.7179C63.5172 50.8415 60.7221 50.9899 57.9057 51.1383C57.5643 51.163 57.2656 51.4597 57.2656 51.8801C57.2656 52.2757 57.543 52.6466 57.9057 52.6219Z" fill="#71718E"/>
<path d="M101.475 51.8801C104.932 51.8801 108.388 51.8801 111.845 51.8801C112.677 51.8801 112.677 50.3965 111.845 50.3965C108.388 50.3965 104.932 50.3965 101.475 50.3965C100.664 50.3965 100.664 51.8801 101.475 51.8801Z" fill="#71718E"/>
<path d="M53.7885 57.6666C56.2209 57.7902 58.6746 57.7408 61.1069 57.4935C61.4483 57.4688 61.747 57.172 61.747 56.7517C61.747 56.3808 61.4483 55.9852 61.1069 56.0099C58.6746 56.2572 56.2209 56.3066 53.7885 56.183C53.4471 56.1583 53.1484 56.5292 53.1484 56.9248C53.1484 57.3451 53.4471 57.6419 53.7885 57.6666Z" fill="#71718E"/>
<path d="M65.9286 57.74C72.0522 57.6906 78.1757 57.6411 84.2993 57.5917C86.0276 57.5669 87.7771 57.5669 89.5054 57.5422C90.3375 57.5422 90.3375 56.0586 89.5054 56.0586C83.3818 56.108 77.2583 56.1575 71.1347 56.207C69.4065 56.2317 67.6569 56.2317 65.9286 56.2564C65.1178 56.2564 65.0965 57.74 65.9286 57.74Z" fill="#71718E"/>
<path d="M93.2608 57.8644C97.8695 57.9633 102.457 57.9633 107.066 57.8644C108.367 57.8396 109.647 57.7902 110.949 57.7407C111.781 57.716 111.781 56.2324 110.949 56.2571C106.361 56.4302 101.753 56.5044 97.144 56.455C95.8425 56.4302 94.541 56.4302 93.2608 56.3808C92.4287 56.356 92.4287 57.8396 93.2608 57.8644Z" fill="#71718E"/>
<path d="M108.264 62.6912C110.211 63.1029 112.149 63.1029 114.096 62.6912C114.646 62.5883 115.186 62.3825 115.736 62.1766C116.088 62.0737 116.088 55.8983 115.736 56.0013C113.798 56.7217 111.851 57.0305 109.904 56.8247C109.354 56.7217 108.805 56.7217 108.264 56.5159C107.912 56.413 107.912 62.5883 108.264 62.6912Z" fill="#71718E"/>
<path d="M133.309 67.2637C132.897 69.2107 132.897 71.1487 133.309 73.0958C133.412 73.6456 133.618 74.1865 133.823 74.7363C133.926 75.0879 140.102 75.0879 139.999 74.7363C139.278 72.7983 138.969 70.8513 139.175 68.9042C139.278 68.3544 139.278 67.8045 139.484 67.2637C139.587 66.9121 133.412 66.9121 133.309 67.2637Z" fill="#71718E"/>
<path d="M107.515 62C103.871 62.0723 100.243 62.1446 96.598 62.2168C92.9533 62.2891 89.2921 62.3614 85.6474 62.4337C83.5931 62.4819 81.5388 62.5059 79.4846 62.5541C78.8385 62.5782 78.8385 64.0238 79.4846 63.9997C83.1292 63.9274 86.7574 63.8551 90.402 63.7829C94.0467 63.7106 97.7079 63.6383 101.353 63.566C103.407 63.5178 105.461 63.4938 107.515 63.4456C108.162 63.4456 108.162 62 107.515 62Z" fill="#71718E"/>
<path d="M75.0389 62.2155C71.3477 62.0919 67.6565 62.1413 63.9653 62.4133C63.6239 62.438 63.3252 62.7348 63.3252 63.1551C63.3252 63.526 63.6239 63.9217 63.9653 63.8969C67.6565 63.6497 71.3477 63.5755 75.0389 63.6991C75.871 63.7239 75.871 62.2402 75.0389 62.2155Z" fill="#71718E"/>
<path d="M59.5051 61.8448C57.9049 62.0426 56.2833 62.0673 54.6831 61.9684C54.3417 61.9437 54.043 62.3146 54.043 62.7102C54.043 63.1306 54.3417 63.4273 54.6831 63.452C56.2833 63.5509 57.9049 63.5262 59.5051 63.3284C59.8465 63.279 60.1452 63.007 60.1452 62.5866C60.1452 62.2157 59.8465 61.7954 59.5051 61.8448Z" fill="#71718E"/>
<path d="M53.2543 66.7656C51.6968 66.7656 50.1605 66.7656 48.603 66.7656C48.2616 66.7656 47.9629 67.1118 47.9629 67.5074C47.9629 67.903 48.2616 68.2492 48.603 68.2492C50.1605 68.2492 51.6968 68.2492 53.2543 68.2492C53.5957 68.2492 53.8944 67.903 53.8944 67.5074C53.8944 67.0871 53.5957 66.7656 53.2543 66.7656Z" fill="#71718E"/>
<path d="M142.291 66.7656C140.734 66.7656 139.198 66.7656 137.64 66.7656C137.299 66.7656 137 67.1118 137 67.5074C137 67.903 137.299 68.2492 137.64 68.2492C139.198 68.2492 140.734 68.2492 142.291 68.2492C142.633 68.2492 142.932 67.903 142.932 67.5074C142.932 67.0871 142.633 66.7656 142.291 66.7656Z" fill="#71718E"/>
<path d="M57.544 68.2244C61.8113 68.2738 66.0999 68.2244 70.3672 68.1007C71.5621 68.076 72.7782 68.0265 73.9731 67.9771C74.8052 67.9524 74.8052 66.4687 73.9731 66.4935C69.7058 66.6666 65.4172 66.7655 61.1499 66.7655C59.955 66.7655 58.7389 66.7655 57.544 66.7407C56.7119 66.7407 56.7119 68.2244 57.544 68.2244Z" fill="#71718E"/>
<path d="M135.271 79.7312C137.124 79.7807 138.987 79.7312 140.84 79.6076C141.359 79.5828 141.887 79.5334 142.406 79.4839C142.768 79.4592 142.768 77.9756 142.406 78.0003C140.553 78.1734 138.69 78.2723 136.837 78.2723C136.318 78.2723 135.79 78.2723 135.271 78.2476C134.91 78.2476 134.91 79.7312 135.271 79.7312Z" fill="#71718E"/>
<path d="M77.7276 68.5462C81.2695 68.4967 84.8113 68.4226 88.3532 68.3731C91.9163 68.3237 95.4795 68.2495 99.0427 68.2C101.048 68.1753 103.054 68.1258 105.06 68.1011C105.892 68.0764 105.892 66.5928 105.06 66.6175C101.518 66.6669 97.9759 66.7411 94.434 66.7906C90.8709 66.84 87.3077 66.9142 83.7445 66.9637C81.7389 66.9884 79.7332 67.0379 77.7276 67.0626C76.8955 67.0873 76.8955 68.5709 77.7276 68.5462Z" fill="#71718E"/>
<path d="M48.2403 72.9226C49.6698 72.6753 51.0994 72.5764 52.5503 72.5764C52.8917 72.5764 53.1904 72.2302 53.1904 71.8346C53.1904 71.439 52.8917 71.0928 52.5503 71.0928C50.9927 71.0928 49.4565 71.2164 47.8989 71.4884C47.5575 71.5379 47.3655 72.0571 47.4509 72.4033C47.5362 72.8237 47.8776 72.972 48.2403 72.9226Z" fill="#71718E"/>
<path d="M57.7142 72.8981C64.0511 73.1948 70.388 73.2195 76.7036 72.9475C78.4745 72.8733 80.2455 72.7744 81.9951 72.6508C82.3364 72.6261 82.6351 72.3294 82.6351 71.909C82.6351 71.5134 82.3364 71.1425 81.9951 71.1672C75.6795 71.5875 69.3425 71.7359 63.0056 71.5875C61.2347 71.5381 59.4638 71.4886 57.6928 71.3897C57.3514 71.365 57.0527 71.7359 57.0527 72.1315C57.0741 72.5766 57.3728 72.8733 57.7142 72.8981Z" fill="#71718E"/>
<path d="M85.4415 72.6371C88.0592 72.8034 90.6769 72.9143 93.2947 72.9698C95.8969 73.0252 98.4992 72.9975 101.101 72.9421C102.588 72.9143 104.06 72.8312 105.547 72.748C106.151 72.7203 106.151 71.0568 105.547 71.0845C102.929 71.2232 100.311 71.3063 97.6937 71.334C95.0915 71.3618 92.4892 71.3063 89.887 71.2232C88.4 71.1677 86.9285 71.0845 85.4415 71.0014C84.8528 70.9459 84.8528 72.6094 85.4415 72.6371Z" fill="#71718E"/>
<path d="M47.5362 77.7688C49.2645 77.7688 50.9927 77.7688 52.721 77.7688C53.5531 77.7688 53.5531 76.2852 52.721 76.2852C50.9927 76.2852 49.2645 76.2852 47.5362 76.2852C46.7041 76.2852 46.7041 77.7688 47.5362 77.7688Z" fill="#71718E"/>
<path d="M100.624 78.7688C102.352 78.7688 104.081 78.7688 105.809 78.7688C106.641 78.7688 106.641 77.2852 105.809 77.2852C104.081 77.2852 102.352 77.2852 100.624 77.2852C99.792 77.2852 99.792 78.7688 100.624 78.7688Z" fill="#71718E"/>
<path d="M58.2471 78.3381C62.8771 78.3628 67.5072 78.3876 72.1372 78.437C76.7458 78.4617 81.3545 78.4865 85.9632 78.5359C88.5662 78.5606 91.1693 78.5606 93.7937 78.5854C94.6258 78.5854 94.6258 77.1018 93.7937 77.1018C89.1637 77.077 84.5337 77.0523 79.9036 77.0029C75.295 76.9781 70.6863 76.9534 66.0776 76.9039C63.4746 76.8792 60.8715 76.8792 58.2471 76.8545C57.415 76.8545 57.415 78.3381 58.2471 78.3381Z" fill="#71718E"/>
<path d="M26.4373 68.0485C26.2628 67.4693 25.6464 67.1429 25.0606 67.3194C24.4748 67.4959 24.1414 68.1084 24.3159 68.6876C24.4904 69.2668 25.1067 69.5933 25.6925 69.4168C26.2783 69.2403 26.6118 68.6277 26.4373 68.0485Z" fill="#20A4F3"/>
<path d="M88.7929 17.0004L88 18.457L89.4656 19.2333L90.2585 17.7766L88.7929 17.0004Z" fill="#20A4F3"/>
<path d="M157.588 76.2113C158.464 76.2113 159.175 75.4925 159.175 74.6057C159.175 73.7189 158.464 73 157.588 73C156.711 73 156 73.7189 156 74.6057C156 75.4925 156.711 76.2113 157.588 76.2113Z" fill="#F5B82E"/>
<path d="M161 42.0519C161.896 43.4545 162.791 44.8571 163.687 46.2857C165.35 42.2857 167.985 38.7273 171.286 36" stroke="#31C587" stroke-miterlimit="10" stroke-linecap="round" stroke-linejoin="round"/>
<path d="M32 86L26 92" stroke="#E93C51" stroke-linecap="round" stroke-linejoin="round"/>
<path d="M26 86L32 92" stroke="#E93C51" stroke-linecap="round" stroke-linejoin="round"/>
<path d="M119.284 85.4129L115.074 83.7334L101.469 118.077L105.679 119.757L119.284 85.4129Z" fill="#A787FF"/>
<path d="M108.258 101.293C108.498 101.572 108.776 101.826 109.135 101.939C110.059 102.216 110.922 101.335 111.355 100.462C111.816 99.5827 112.135 98.6214 112.3 97.6412C112.646 98.1448 112.853 98.6851 113.171 99.196C113.272 99.3478 114.347 100.507 114.347 100.507C115.085 98.2903 115.991 96.1483 117.085 94.0909C117.229 93.8001 117.401 93.502 117.429 93.1675C117.468 92.6519 117.139 92.1585 116.738 91.8331C115.925 91.1998 114.618 90.8898 113.65 90.5649C112.827 90.2764 112.068 90.2828 111.212 90.2558C110.911 90.2458 110.628 90.246 110.34 90.3368C109.986 90.4598 109.973 90.6862 109.793 90.9566C109.624 91.2094 109.348 91.401 109.178 91.6538C108.819 92.1945 108.611 92.7994 108.404 93.4042C108.072 94.4284 107.75 95.435 107.4 96.449C106.736 98.4973 106.841 99.7037 108.258 101.293Z" fill="#121242"/>
<path d="M105.433 101.532C107.333 102.816 109.64 103.516 111.952 103.472C112.427 103.466 113.037 103.35 113.219 102.871C113.399 102.437 113.096 101.981 112.795 101.644C111.944 100.709 110.891 99.9601 109.795 99.3271C109.14 98.9494 108.441 98.5687 107.7 98.4218C106.942 98.2647 106.105 98.3662 105.468 98.8165C104.821 99.2845 104.416 100.149 104.637 100.909C104.859 101.668 105.774 102.126 106.472 101.734" fill="#121242"/>
<path d="M165.012 123.468C159.28 120.042 153.54 116.588 147.829 113.127C144.987 111.392 142.135 109.676 139.282 107.959C136.466 106.262 133.715 104.534 131.156 102.472C128.615 100.421 126.135 98.2639 123.574 96.2474C121.013 94.2309 118.328 92.3066 115.387 90.8659C113.308 89.8525 110.43 88.7521 108.623 90.8189C107.247 92.3858 107.023 94.7346 106.854 96.7417C106.762 97.881 106.678 99.0481 106.677 100.193C106.679 101.293 107.12 102.203 108.133 102.694C109.429 103.349 110.626 102.379 111.289 101.313C112.053 100.07 112.449 98.5687 112.766 97.1618C112.936 96.4182 113.088 95.6645 113.195 94.9078C113.253 94.5207 112.659 94.3649 112.601 94.752C112.38 96.2376 112.05 97.7072 111.586 99.1229C111.201 100.28 110.639 101.826 109.362 102.281C108.776 102.48 108.121 102.103 107.735 101.669C107.434 101.332 107.313 100.888 107.311 100.442C107.294 99.9415 107.34 99.4536 107.368 98.9555C107.394 98.3391 107.42 97.7227 107.473 97.099C107.547 96.113 107.639 95.1373 107.85 94.1599C108.05 93.2002 108.362 92.2111 108.972 91.4408C110.664 89.285 113.59 90.6702 115.561 91.6677C121.151 94.5215 125.788 98.9053 130.615 102.838C131.802 103.804 133.009 104.735 134.267 105.578C135.578 106.452 136.92 107.273 138.261 108.094C140.962 109.747 143.665 111.354 146.375 112.989C151.822 116.297 157.268 119.606 162.745 122.861C163.407 123.267 164.097 123.665 164.759 124.07C165.044 124.188 165.348 123.662 165.012 123.468Z" fill="white"/>
<path d="M112.302 98.0868C113.516 100.518 115.951 102.344 118.665 102.789C119.443 102.911 120.217 102.96 120.93 102.624C121.286 102.455 120.978 101.927 120.622 102.095C119.909 102.432 118.986 102.273 118.249 102.081C117.483 101.896 116.75 101.613 116.06 101.215C114.663 100.409 113.535 99.2192 112.831 97.784C112.659 97.4278 112.131 97.7305 112.302 98.0868Z" fill="white"/>
<path d="M104.082 105.381C105.982 106.665 108.289 107.366 110.602 107.322C111.077 107.315 111.686 107.199 111.868 106.72C112.048 106.286 111.745 105.831 111.445 105.494C110.594 104.558 109.54 103.81 108.444 103.177C107.79 102.799 107.09 102.418 106.349 102.271C105.591 102.114 104.755 102.216 104.117 102.666C103.48 103.117 103.065 103.999 103.287 104.758C103.509 105.518 104.423 105.976 105.121 105.584" fill="#121242"/>
<path d="M109.592 90.3262C108.587 89.699 107.566 89.0162 106.393 88.7601C105.835 88.6248 105.269 88.6252 104.698 88.7162C104.098 88.8146 103.446 89.0459 102.986 89.4348C102.199 90.103 101.865 91.336 102.074 92.3217C102.285 93.2622 103.157 93.9991 103.881 94.5813C104.798 95.321 105.776 95.9556 106.822 96.5127C107.168 96.6891 107.472 96.1631 107.126 95.9866C106.327 95.5725 105.552 95.078 104.824 94.5411C104.114 94.0144 103.326 93.4191 102.877 92.6453C102.446 91.8818 102.664 90.7686 103.203 90.1211C103.537 89.706 104.088 89.4865 104.606 89.3648C105.107 89.233 105.637 89.2121 106.143 89.3168C107.308 89.5452 108.328 90.2279 109.334 90.8552C109.614 91.0638 109.918 90.5377 109.592 90.3262Z" fill="white"/>
<path d="M104.414 94.6779C103.019 94.8076 101.782 95.6835 101.518 97.1209C101.412 97.714 101.477 98.3362 101.719 98.8969C101.994 99.5233 102.539 100.049 103.062 100.491C104.317 101.543 105.808 102.31 107.324 102.951C108.036 103.269 108.784 103.607 109.542 103.765C110.399 103.955 111.276 103.947 112.151 103.821C112.924 103.706 114.32 103.249 113.896 102.186C113.737 101.767 113.353 101.452 113.012 101.185C112.558 100.829 112.062 100.543 111.567 100.257C111.231 100.063 110.928 100.589 111.264 100.783C111.635 100.998 112.024 101.222 112.385 101.454C112.683 101.673 113.044 101.905 113.264 102.219C113.772 102.933 112.333 103.178 111.901 103.232C111.165 103.322 110.389 103.318 109.659 103.154C108.992 103.003 108.36 102.708 107.736 102.441C106.435 101.877 105.147 101.25 104.008 100.405C103.113 99.7487 102.131 98.8776 102.134 97.6872C102.11 96.3405 103.178 95.3902 104.482 95.2548C104.821 95.2399 104.819 94.6308 104.414 94.6779Z" fill="white"/>
<path d="M106.592 111.53C112.041 115.12 117.831 118.159 123.873 120.642C126.907 121.879 130.007 122.921 133.022 124.194C136.064 125.459 139.042 126.875 141.978 128.406C145.26 130.114 148.45 131.979 151.55 134.003C151.876 134.214 152.179 133.688 151.854 133.477C146.296 129.871 140.43 126.718 134.341 124.114C132.853 123.465 131.344 122.852 129.816 122.273C128.287 121.694 126.738 121.151 125.202 120.544C122.165 119.352 119.219 118.002 116.326 116.519C113.088 114.859 109.95 113.025 106.904 111.032C106.57 110.793 106.266 111.319 106.592 111.53Z" fill="white"/>
<path d="M131.039 54.2398C122.197 49.1349 110.935 52.1019 105.873 60.8697C100.811 69.6375 103.872 80.8744 112.714 85.9793C121.556 91.0842 132.818 88.1172 137.88 79.3494C142.943 70.5816 139.881 59.3447 131.039 54.2398ZM114.597 82.7177C107.577 78.6644 105.143 69.7304 109.162 62.7688C113.181 55.8071 122.135 53.4482 129.156 57.5014C136.176 61.5547 138.611 70.4887 134.591 77.4504C130.572 84.412 121.618 86.7709 114.597 82.7177Z" fill="#A787FF"/>
<path d="M101.996 108.994C103.896 110.278 106.193 110.996 108.475 111.005C108.95 110.998 109.539 110.917 109.711 110.456C109.881 110.039 109.568 109.601 109.267 109.264C108.406 108.346 107.343 107.615 106.257 106.965C105.602 106.587 104.902 106.206 104.162 106.059C103.404 105.902 102.587 105.969 101.96 106.402C101.333 106.834 100.958 107.647 101.19 108.389C101.432 109.113 102.347 109.571 103.025 109.214" fill="#121242"/>
<path d="M102.206 99.3188C101.134 100.196 99.9224 101.437 100.54 102.94C100.788 103.573 101.298 104.078 101.823 104.475C102.505 105.009 103.217 105.491 103.978 105.93C105.428 106.767 107.042 107.442 108.675 107.8C109.451 107.967 110.249 108.054 111.035 108.04C111.675 108.035 112.398 107.845 112.583 107.157C112.765 106.514 112.356 105.834 111.935 105.38C111.624 105.06 111.258 104.755 110.909 104.46C110.518 104.117 110.126 103.774 109.753 103.442C109.457 103.178 109.022 103.604 109.317 103.869C109.891 104.387 110.492 104.897 111.065 105.415C111.457 105.758 111.891 106.149 112.007 106.684C112.135 107.319 111.481 107.432 111.005 107.438C110.31 107.458 109.603 107.377 108.936 107.225C107.5 106.934 106.098 106.382 104.822 105.692C104.122 105.312 103.443 104.896 102.811 104.438C102.311 104.079 101.793 103.71 101.43 103.196C101.023 102.634 100.905 101.981 101.206 101.337C101.536 100.685 102.112 100.176 102.676 99.7303C102.944 99.511 102.512 99.0746 102.206 99.3188Z" fill="white"/>
<path d="M102.152 104.151C101.705 104.149 101.258 104.148 100.828 104.321C100.464 104.462 100.112 104.703 99.8492 104.995C99.323 105.58 99.191 106.299 99.4962 107.036C99.8014 107.773 100.408 108.357 101.009 108.868C101.734 109.45 102.499 109.962 103.343 110.379C105.005 111.175 106.852 111.61 108.713 111.492C109.327 111.449 110.202 111.323 110.538 110.699C110.763 110.268 110.562 109.801 110.281 109.428C109.933 108.97 109.468 108.632 109.021 108.303C108.276 107.756 107.513 107.199 106.778 106.634C106.647 106.535 106.475 106.506 106.359 106.626C106.252 106.728 106.222 106.944 106.353 107.043C107.017 107.567 107.71 108.084 108.394 108.573C108.728 108.812 109.043 109.041 109.356 109.315C109.627 109.541 109.947 109.843 110.038 110.176C110.068 110.287 110.046 110.368 109.977 110.445C109.82 110.635 109.542 110.708 109.32 110.767C108.551 110.955 107.642 110.897 106.863 110.775C106.075 110.67 105.302 110.458 104.559 110.193C103.798 109.917 103.081 109.526 102.394 109.083C101.759 108.67 101.12 108.184 100.633 107.599C100.214 107.1 99.7622 106.371 100.119 105.712C100.311 105.379 100.61 105.107 100.921 104.936C101.308 104.715 101.755 104.716 102.203 104.717C102.556 104.758 102.554 104.149 102.152 104.151Z" fill="white"/>
<path d="M116.513 66.8321C115.225 67.842 113.809 68.6393 112.289 69.2506C112.031 69.3569 111.877 69.7024 112.109 69.915C112.495 70.2605 112.959 70.4997 113.448 70.6857C113.989 70.9249 114.556 71.1375 115.122 71.3767C116.256 71.8551 117.389 72.3334 118.497 72.7853C118.96 72.9713 119.166 72.2006 118.703 72.0145C117.647 71.5627 116.591 71.1375 115.535 70.6857C115.019 70.4731 114.478 70.2339 113.963 70.0213C113.5 69.8353 113.036 69.6492 112.65 69.3037C112.598 69.5163 112.547 69.7555 112.469 69.9681C114.066 69.3835 115.56 68.5596 116.9 67.5231C117.286 67.2042 116.9 66.5132 116.513 66.8321Z" fill="white"/>
<path d="M124.55 65.2105C122.927 68.506 121.279 71.8546 118.78 74.5654C118.445 74.9375 118.986 75.4956 119.321 75.1236C121.871 72.3862 123.571 68.9844 125.22 65.6092C125.452 65.1574 124.782 64.7321 124.55 65.2105Z" fill="white"/>
<path d="M125.734 68.8246C127.074 69.1435 128.336 69.7016 129.469 70.4723C129.443 70.2597 129.418 70.0471 129.392 69.8345C128.774 70.4457 127.795 70.552 127.022 70.8444C126.095 71.1633 125.193 71.5885 124.318 72.0669C123.88 72.3061 124.266 72.9971 124.704 72.7579C125.606 72.2529 126.533 71.8277 127.486 71.5088C128.336 71.2164 129.263 71.057 129.933 70.3926C130.113 70.2065 130.062 69.9142 129.856 69.7547C128.645 68.9574 127.331 68.3728 125.915 68.0273C125.451 67.9475 125.245 68.7182 125.734 68.8246Z" fill="white"/>
</g>
</svg>
