<svg width="190" height="130" viewBox="0 0 190 130" fill="none" xmlns="http://www.w3.org/2000/svg">
<mask id="mask0" mask-type="alpha" maskUnits="userSpaceOnUse" x="0" y="0" width="190" height="130">
<rect width="190" height="130" fill="#C4C4C4"/>
</mask>
<g mask="url(#mask0)">
<path d="M151 40H39V106H151V40Z" fill="#2A2A55"/>
<path d="M50.5556 49.8962C50.5556 50.9497 49.7166 51.7925 48.6679 51.7925C47.6192 51.7925 46.7803 50.9497 46.7803 49.8962C46.7803 48.8428 47.6192 48 48.6679 48C49.7166 48 50.5556 48.8428 50.5556 49.8962Z" fill="#D0D0D9"/>
<path d="M58.2777 49.8962C58.2777 50.9497 57.4388 51.7925 56.3901 51.7925C55.3414 51.7925 54.5024 50.9497 54.5024 49.8962C54.5024 48.8428 55.3414 48 56.3901 48C57.4388 48 58.2777 48.8428 58.2777 49.8962Z" fill="#D0D0D9"/>
<path d="M65.9999 49.8962C65.9999 50.9497 65.1609 51.7925 64.1123 51.7925C63.0636 51.7925 62.2246 50.9497 62.2246 49.8962C62.2246 48.8428 63.0636 48 64.1123 48C65.1609 48 65.9999 48.8428 65.9999 49.8962Z" fill="#D0D0D9"/>
<path d="M46.6401 67.721C48.603 67.6221 50.566 67.5232 52.529 67.449C52.8703 67.4243 53.169 67.1276 53.169 66.7072C53.169 66.3116 52.8703 65.9407 52.529 65.9654C50.566 66.0644 48.603 66.1633 46.6401 66.2374C46.2987 66.2622 46 66.5589 46 66.9792C46 67.3749 46.2987 67.7458 46.6401 67.721Z" fill="#71718E"/>
<path d="M57.9057 67.6221C62.8984 67.3501 67.8912 67.1276 72.9052 66.9545C77.898 66.7814 82.9121 66.6825 87.9048 66.6331C90.6999 66.6083 93.5163 66.5836 96.3113 66.6083C97.1435 66.6083 97.1435 65.1247 96.3113 65.1247C91.3186 65.1 86.3045 65.1495 81.3118 65.2484C76.3191 65.3473 71.305 65.4956 66.3123 65.7182C63.5172 65.8418 60.7221 65.9902 57.9057 66.1385C57.5643 66.1633 57.2656 66.46 57.2656 66.8803C57.2656 67.276 57.543 67.6469 57.9057 67.6221Z" fill="#71718E"/>
<path d="M101.475 66.8803C104.932 66.8803 108.388 66.8803 111.845 66.8803C112.677 66.8803 112.677 65.3967 111.845 65.3967C108.388 65.3967 104.932 65.3967 101.475 65.3967C100.664 65.3967 100.664 66.8803 101.475 66.8803Z" fill="#71718E"/>
<path d="M116.133 67.3254C120.913 67.276 125.692 67.0782 130.471 66.7814C131.837 66.6825 133.181 66.6083 134.547 66.4847C134.888 66.46 135.187 66.1633 135.187 65.7429C135.187 65.372 134.888 64.9764 134.547 65.0011C129.767 65.372 125.009 65.644 120.23 65.7676C118.864 65.7924 117.52 65.8418 116.155 65.8418C115.301 65.8418 115.301 67.3254 116.133 67.3254Z" fill="#71718E"/>
<path d="M53.788 72.6664C56.2204 72.79 58.6741 72.7406 61.1064 72.4933C61.4478 72.4686 61.7465 72.1719 61.7465 71.7515C61.7465 71.3806 61.4478 70.985 61.1064 71.0097C58.6741 71.257 56.2204 71.3064 53.788 71.1828C53.4467 71.1581 53.1479 71.529 53.1479 71.9246C53.1479 72.345 53.4467 72.6417 53.788 72.6664Z" fill="#71718E"/>
<path d="M65.9286 72.7406C72.0522 72.6911 78.1757 72.6417 84.2993 72.5922C86.0276 72.5675 87.7771 72.5675 89.5054 72.5428C90.3375 72.5428 90.3375 71.0592 89.5054 71.0592C83.3818 71.1086 77.2583 71.1581 71.1347 71.2075C69.4065 71.2322 67.6569 71.2322 65.9286 71.257C65.1178 71.257 65.0965 72.7406 65.9286 72.7406Z" fill="#71718E"/>
<path d="M93.2603 72.8642C97.869 72.9631 102.456 72.9631 107.065 72.8642C108.367 72.8395 109.647 72.79 110.948 72.7406C111.78 72.7158 111.78 71.2322 110.948 71.257C106.361 71.4301 101.752 71.5042 97.1436 71.4548C95.842 71.4301 94.5405 71.4301 93.2603 71.3806C92.4282 71.3559 92.4282 72.8395 93.2603 72.8642Z" fill="#71718E"/>
<path d="M115.237 72.6664C121.937 72.9137 128.636 72.9137 135.336 72.6911C137.213 72.617 139.091 72.5428 140.969 72.4439C141.31 72.4191 141.609 72.1224 141.609 71.7021C141.609 71.3064 141.31 70.9355 140.969 70.9603C134.269 71.3064 127.569 71.4301 120.87 71.3064C118.992 71.2817 117.114 71.2323 115.237 71.1581C114.405 71.1581 114.405 72.6417 115.237 72.6664Z" fill="#71718E"/>
<path d="M138.28 76.6968C133.97 76.8452 129.66 76.9688 125.35 77.1172C124.134 77.1667 122.896 77.1914 121.68 77.2408C120.848 77.2656 120.848 78.7492 121.68 78.7245C125.99 78.5761 130.3 78.4525 134.61 78.3041C135.826 78.2546 137.064 78.2299 138.28 78.1805C139.091 78.1557 139.091 76.6721 138.28 76.6968Z" fill="#71718E"/>
<path d="M115.941 76.9936C111.247 77.0678 106.574 77.1419 101.88 77.2161C97.186 77.2903 92.4706 77.3645 87.7766 77.4387C85.1309 77.4881 82.4851 77.5128 79.8394 77.5623C79.0073 77.587 79.0073 79.0706 79.8394 79.0459C84.5334 78.9717 89.2061 78.8975 93.9002 78.8234C98.5942 78.7492 103.31 78.675 108.004 78.6008C110.649 78.5514 113.295 78.5266 115.941 78.4772C116.773 78.4772 116.773 76.9936 115.941 76.9936Z" fill="#71718E"/>
<path d="M75.0389 77.2161C71.3477 77.0925 67.6565 77.1419 63.9653 77.4139C63.6239 77.4386 63.3252 77.7354 63.3252 78.1557C63.3252 78.5266 63.6239 78.9223 63.9653 78.8975C67.6565 78.6503 71.3477 78.5761 75.0389 78.6997C75.871 78.7245 75.871 77.2408 75.0389 77.2161Z" fill="#71718E"/>
<path d="M59.5056 76.8452C57.9054 77.043 56.2838 77.0678 54.6836 76.9688C54.3422 76.9441 54.0435 77.315 54.0435 77.7106C54.0435 78.131 54.3422 78.4277 54.6836 78.4524C56.2838 78.5514 57.9054 78.5266 59.5056 78.3288C59.847 78.2794 60.1457 78.0074 60.1457 77.587C60.1457 77.2161 59.847 76.7958 59.5056 76.8452Z" fill="#71718E"/>
<path d="M53.2543 81.7659C51.6968 81.7659 50.1605 81.7659 48.603 81.7659C48.2616 81.7659 47.9629 82.112 47.9629 82.5077C47.9629 82.9033 48.2616 83.2495 48.603 83.2495C50.1605 83.2495 51.6968 83.2495 53.2543 83.2495C53.5957 83.2495 53.8944 82.9033 53.8944 82.5077C53.8944 82.0873 53.5957 81.7659 53.2543 81.7659Z" fill="#71718E"/>
<path d="M57.5435 83.2247C61.8108 83.2742 66.0994 83.2247 70.3667 83.1011C71.5616 83.0764 72.7778 83.0269 73.9726 82.9775C74.8047 82.9527 74.8047 81.4691 73.9726 81.4938C69.7053 81.6669 65.4167 81.7658 61.1494 81.7658C59.9545 81.7658 58.7384 81.7658 57.5435 81.7411C56.7114 81.7411 56.7114 83.2247 57.5435 83.2247Z" fill="#71718E"/>
<path d="M77.7271 83.5462C81.269 83.4967 84.8108 83.4225 88.3527 83.3731C91.9159 83.3236 95.479 83.2495 99.0422 83.2C101.048 83.1753 103.053 83.1258 105.059 83.1011C105.891 83.0764 105.891 81.5927 105.059 81.6175C101.517 81.6669 97.9754 81.7411 94.4336 81.7906C90.8704 81.84 87.3072 81.9142 83.744 81.9637C81.7384 81.9884 79.7327 82.0378 77.7271 82.0626C76.895 82.0873 76.895 83.5709 77.7271 83.5462Z" fill="#71718E"/>
<path d="M110.415 83.4473C113.935 83.4473 117.434 83.4473 120.955 83.4473C121.787 83.4473 121.787 81.9637 120.955 81.9637C117.434 81.9637 113.935 81.9637 110.415 81.9637C109.582 81.9637 109.582 83.4473 110.415 83.4473Z" fill="#71718E"/>
<path d="M48.2403 87.9228C49.6698 87.6755 51.0994 87.5766 52.5503 87.5766C52.8917 87.5766 53.1904 87.2305 53.1904 86.8348C53.1904 86.4392 52.8917 86.093 52.5503 86.093C50.9927 86.093 49.4565 86.2167 47.8989 86.4887C47.5575 86.5381 47.3655 87.0574 47.4509 87.4036C47.5362 87.8239 47.8776 87.9723 48.2403 87.9228Z" fill="#71718E"/>
<path d="M57.7142 87.8981C64.0511 88.1948 70.388 88.2195 76.7036 87.9475C78.4745 87.8734 80.2455 87.7745 81.9951 87.6508C82.3364 87.6261 82.6351 87.3294 82.6351 86.909C82.6351 86.5134 82.3364 86.1425 81.9951 86.1672C75.6795 86.5876 69.3425 86.7359 63.0056 86.5876C61.2347 86.5381 59.4638 86.4887 57.6928 86.3897C57.3514 86.365 57.0527 86.7359 57.0527 87.1316C57.0741 87.5766 57.3728 87.8734 57.7142 87.8981Z" fill="#71718E"/>
<path d="M85.5793 87.6755C89.1851 87.8239 92.791 87.9228 96.3969 87.9723C99.9814 88.0217 103.566 87.997 107.15 87.9475C109.199 87.9228 111.226 87.8486 113.274 87.7744C114.106 87.7497 114.106 86.2661 113.274 86.2908C109.668 86.4145 106.062 86.4887 102.456 86.5134C98.8719 86.5381 95.2874 86.4887 91.7028 86.4145C89.6545 86.365 87.6276 86.2908 85.5793 86.2167C84.7685 86.1672 84.7685 87.6508 85.5793 87.6755Z" fill="#71718E"/>
<path d="M116.303 88.1206C122.256 88.1701 128.209 88.1206 134.162 88.0464C135.826 88.0217 137.49 87.997 139.155 87.9475C139.987 87.9228 139.987 86.4392 139.155 86.4639C133.202 86.5876 127.249 86.6617 121.296 86.6617C119.632 86.6617 117.968 86.6617 116.303 86.637C115.471 86.637 115.471 88.1206 116.303 88.1206Z" fill="#71718E"/>
<path d="M47.5367 92.7693C49.2649 92.7693 50.9932 92.7693 52.7214 92.7693C53.5536 92.7693 53.5536 91.2856 52.7214 91.2856C50.9932 91.2856 49.2649 91.2856 47.5367 91.2856C46.7046 91.2856 46.7046 92.7693 47.5367 92.7693Z" fill="#71718E"/>
<path d="M58.2471 93.338C62.8771 93.3627 67.5072 93.3874 72.1372 93.4369C76.7458 93.4616 81.3545 93.4863 85.9632 93.5358C88.5662 93.5605 91.1693 93.5605 93.7937 93.5852C94.6258 93.5852 94.6258 92.1016 93.7937 92.1016C89.1637 92.0769 84.5337 92.0522 79.9036 92.0027C75.295 91.978 70.6863 91.9533 66.0776 91.9038C63.4746 91.8791 60.8715 91.8791 58.2471 91.8544C57.415 91.8544 57.415 93.338 58.2471 93.338Z" fill="#71718E"/>
<path d="M98.6159 93.338C105.614 93.3874 112.613 93.4369 119.611 93.4863C121.595 93.5111 123.601 93.5111 125.585 93.5358C126.417 93.5358 126.417 92.0522 125.585 92.0522C118.587 92.0027 111.588 91.9533 104.59 91.9038C102.606 91.8791 100.6 91.8791 98.6159 91.8544C97.8051 91.8296 97.8051 93.3132 98.6159 93.338Z" fill="#71718E"/>
<path d="M129.34 93.3874C133.799 93.3874 138.28 93.3874 142.739 93.3874C143.571 93.3874 143.571 91.9038 142.739 91.9038C138.28 91.9038 133.799 91.9038 129.34 91.9038C128.529 91.9038 128.529 93.3874 129.34 93.3874Z" fill="#71718E"/>
<path d="M53.4253 98.7531C56.5617 99.124 59.7408 99.2477 62.8986 99.1735C63.7308 99.1488 63.7308 97.6652 62.8986 97.6899C59.7408 97.7888 56.583 97.6404 53.4253 97.2695C53.0839 97.2201 52.7852 97.6404 52.7852 98.0113C52.7852 98.4564 53.0839 98.7284 53.4253 98.7531Z" fill="#71718E"/>
<path d="M144.19 98.2091C141.523 98.6295 138.813 98.6295 136.146 98.2586C135.805 98.2091 135.506 98.6295 135.506 99.0004C135.506 99.4455 135.805 99.6928 136.146 99.7422C138.942 100.138 141.758 100.064 144.532 99.6186C144.873 99.5691 145.065 99.0499 144.98 98.7037C144.873 98.308 144.532 98.1597 144.19 98.2091Z" fill="#71718E"/>
<path d="M117 25.0519C117.896 26.4545 118.791 27.8571 119.687 29.2857C121.35 25.2857 123.985 21.7273 127.286 19" stroke="#31C587" stroke-width="2" stroke-miterlimit="10" stroke-linecap="round" stroke-linejoin="round"/>
<path d="M156 53.0519C156.896 54.4545 157.791 55.8571 158.687 57.2857C160.35 53.2857 162.985 49.7273 166.286 47" stroke="#31C587" stroke-width="2" stroke-miterlimit="10" stroke-linecap="round" stroke-linejoin="round"/>
<path d="M32 86L26 92" stroke="#E93C51" stroke-width="2" stroke-linecap="round" stroke-linejoin="round"/>
<path d="M26 86L32 92" stroke="#E93C51" stroke-width="2" stroke-linecap="round" stroke-linejoin="round"/>
<circle opacity="0.2" cx="122.307" cy="69.5857" r="19" transform="rotate(-0.886684 122.307 69.5857)" fill="white"/>
<path d="M103.374 69.882C103.313 65.9574 104.46 62.1041 106.662 58.8467C107.668 57.3545 109.047 55.8746 110.431 54.7547C111.184 54.1488 111.974 53.6144 112.8 53.1334C113.644 52.6522 114.454 52.2615 115.336 51.9237C119.021 50.4981 123.045 50.2918 126.839 51.3135C130.491 52.3014 133.77 54.4295 136.246 57.3624C137.402 58.7311 138.476 60.4972 139.176 62.161C139.563 63.0734 139.861 64.0052 140.106 64.9558C140.352 65.9424 140.508 66.8583 140.595 67.8474C140.768 69.8615 140.656 71.826 140.207 73.7778C139.776 75.7112 139.094 77.4505 138.126 79.1401C136.226 82.4289 133.358 85.0843 129.942 86.7398C126.473 88.3962 122.401 88.9094 118.629 88.1934C114.875 87.4772 111.441 85.6216 108.755 82.854C106.087 80.1042 104.293 76.5665 103.649 72.7229C103.476 71.8613 103.389 70.8362 103.374 69.882C103.363 69.1799 102.299 69.1964 102.31 69.8985C102.342 71.9868 102.694 74.0702 103.363 76.0407C104.013 77.9574 104.946 79.7797 106.124 81.4001C107.303 83.0386 108.726 84.4571 110.324 85.6749C111.921 86.8747 113.674 87.8199 115.547 88.4932C117.491 89.1834 119.537 89.5479 121.578 89.6064C123.636 89.6466 125.725 89.3801 127.703 88.7733C129.61 88.1856 131.423 87.3112 133.073 86.1872C134.706 85.0635 136.174 83.6902 137.41 82.1224C138.662 80.5364 139.664 78.7562 140.397 76.8721C141.148 74.9517 141.578 72.9102 141.706 70.8554C141.833 68.7466 141.622 66.607 141.111 64.562C140.602 62.6071 139.81 60.7106 138.755 58.9983C137.717 57.3036 136.417 55.7751 134.924 54.4657C133.431 53.1562 131.729 52.0661 129.907 51.266C128.014 50.4309 126.037 49.9213 123.994 49.7008C121.933 49.4806 119.824 49.6213 117.791 50.067C115.793 50.494 113.889 51.2438 112.148 52.2611C110.443 53.2599 108.884 54.5266 107.558 55.9877C106.215 57.449 105.088 59.1231 104.246 60.9189C103.37 62.7692 102.78 64.7591 102.51 66.7981C102.367 67.8268 102.294 68.8543 102.31 69.8985C102.321 70.6006 103.385 70.5841 103.374 69.882Z" fill="white"/>
<path d="M103.374 69.882C103.313 65.9574 104.46 62.1041 106.662 58.8467C107.668 57.3545 109.047 55.8746 110.431 54.7547C111.184 54.1488 111.974 53.6144 112.8 53.1334C113.644 52.6522 114.454 52.2615 115.336 51.9237C119.021 50.4981 123.045 50.2918 126.839 51.3135C130.491 52.3014 133.77 54.4295 136.246 57.3624C137.402 58.7311 138.476 60.4972 139.176 62.161C139.563 63.0734 139.861 64.0052 140.106 64.9558C140.352 65.9424 140.508 66.8583 140.595 67.8474C140.768 69.8615 140.656 71.826 140.207 73.7778C139.776 75.7112 139.094 77.4505 138.126 79.1401C136.226 82.4289 133.358 85.0843 129.942 86.7398C126.473 88.3962 122.401 88.9094 118.629 88.1934C114.875 87.4772 111.441 85.6216 108.755 82.854C106.087 80.1042 104.293 76.5665 103.649 72.7229C103.476 71.8613 103.389 70.8362 103.374 69.882ZM103.374 69.882C103.363 69.1799 102.299 69.1964 102.31 69.8985C102.342 71.9868 102.694 74.0702 103.363 76.0407C104.013 77.9574 104.946 79.7797 106.124 81.4001C107.303 83.0386 108.726 84.4571 110.324 85.6749C111.921 86.8747 113.674 87.8199 115.547 88.4932C117.491 89.1834 119.537 89.5479 121.578 89.6064C123.636 89.6466 125.725 89.3801 127.703 88.7733C129.61 88.1856 131.423 87.3112 133.073 86.1872C134.706 85.0635 136.174 83.6902 137.41 82.1224C138.662 80.5364 139.664 78.7562 140.397 76.8721C141.148 74.9517 141.578 72.9102 141.706 70.8554C141.833 68.7466 141.622 66.607 141.111 64.562C140.602 62.6071 139.81 60.7106 138.755 58.9983C137.717 57.3036 136.417 55.7751 134.924 54.4657C133.431 53.1562 131.729 52.0661 129.907 51.266C128.014 50.4309 126.037 49.9213 123.994 49.7008C121.933 49.4806 119.824 49.6213 117.791 50.067C115.793 50.494 113.889 51.2438 112.148 52.2611C110.443 53.2599 108.884 54.5266 107.558 55.9877C106.215 57.449 105.088 59.1231 104.246 60.9189C103.37 62.7692 102.78 64.7591 102.51 66.7981C102.367 67.8268 102.294 68.8543 102.31 69.8985C102.321 70.6006 103.385 70.5841 103.374 69.882Z" stroke="white"/>
<path d="M135.195 83.3997C138.075 86.1103 140.711 89.0947 143.066 92.2816C143.737 93.1896 144.39 94.1158 145.007 95.0607C145.171 95.3102 145.491 95.3953 145.738 95.2474C145.966 95.0998 146.085 94.7559 145.921 94.5063C143.669 91.1198 141.136 87.9357 138.341 85.0077C137.566 84.1914 136.755 83.3936 135.945 82.6138C135.423 82.1357 134.69 82.9214 135.195 83.3997Z" fill="white" stroke="white"/>
<path d="M146.5 87.5002L139.5 93.5002C139.5 93.5002 142 97.5502 145.5 102C148.239 105.483 153.001 110.5 153.001 110.5L159 103.5L146.5 87.5002Z" fill="#7950ED"/>
<path d="M139.431 93.2136C140.929 92.368 142.364 91.3532 143.706 90.1694C144.377 89.5869 145.033 88.948 145.642 88.2903C145.782 88.14 145.922 87.9896 146.063 87.8393C146.188 87.7078 146.344 87.5386 146.531 87.5762C146.89 87.6326 147.171 88.1212 147.389 88.4218C149.917 91.7854 152.461 95.1303 154.989 98.4939C155.614 99.3207 156.253 100.166 156.878 100.993C157.19 101.407 157.502 101.82 157.814 102.252C157.97 102.459 158.126 102.666 158.266 102.853C158.376 103.004 158.516 103.192 158.532 103.398C158.563 103.849 158.095 104.282 157.861 104.563C157.533 104.996 157.205 105.409 156.878 105.841C156.238 106.668 155.614 107.495 154.974 108.322C154.646 108.754 154.318 109.167 153.991 109.599C153.85 109.787 153.71 109.975 153.569 110.144C153.538 110.182 153.382 110.445 153.319 110.445C153.241 110.445 153.101 110.22 153.054 110.182C152.368 109.412 151.681 108.66 150.994 107.889C149.621 106.367 148.248 104.845 146.89 103.323C145.61 101.895 144.299 100.486 143.051 99.0012C141.927 97.6671 140.851 96.2389 140.008 94.6041C139.805 94.1907 139.618 93.7773 139.431 93.3451C139.29 93.0257 138.9 93.3075 139.025 93.627C140.554 97.3664 143.316 100.11 145.813 102.891C147.265 104.507 148.7 106.104 150.152 107.72C150.869 108.528 151.603 109.336 152.321 110.126C152.492 110.314 152.664 110.501 152.836 110.689C152.992 110.858 153.163 111.046 153.398 110.99C153.6 110.952 153.725 110.765 153.85 110.595C154.022 110.37 154.209 110.144 154.381 109.9C155.723 108.153 157.065 106.405 158.407 104.676C158.672 104.338 158.984 103.943 159 103.455C159.016 102.947 158.703 102.59 158.454 102.233C157.783 101.35 157.127 100.467 156.456 99.6026C153.803 96.0886 151.166 92.5935 148.513 89.0795C148.185 88.6473 147.858 88.1963 147.514 87.7641C147.265 87.4447 146.984 87.0876 146.593 87.0125C146.188 86.9373 145.891 87.2192 145.61 87.5386C145.298 87.8957 144.971 88.2339 144.627 88.5721C143.301 89.9063 141.849 91.0526 140.32 92.0297C139.93 92.274 139.54 92.4995 139.15 92.725C138.931 92.8753 139.165 93.3639 139.431 93.2136Z" fill="#7950ED" stroke="#7950ED"/>
<path d="M26.4373 68.0487C26.2628 67.4695 25.6464 67.1431 25.0606 67.3196C24.4748 67.496 24.1414 68.1086 24.3159 68.6878C24.4904 69.267 25.1067 69.5934 25.6925 69.417C26.2783 69.2405 26.6118 68.6279 26.4373 68.0487Z" fill="#D0D0D9"/>
<path d="M61.7929 31L61 32.4567L62.4656 33.2329L63.2585 31.7763L61.7929 31Z" fill="#20A4F3"/>
<path d="M157.588 76.2113C158.464 76.2113 159.175 75.4925 159.175 74.6057C159.175 73.7189 158.464 73 157.588 73C156.711 73 156 73.7189 156 74.6057C156 75.4925 156.711 76.2113 157.588 76.2113Z" fill="#F5B82E"/>
</g>
</svg>
