<svg width="214" height="85" viewBox="0 0 214 85" fill="none" xmlns="http://www.w3.org/2000/svg">
<path d="M201.574 5.32255C202.179 3.72033 202.678 2.09833 203.041 0.420848C203.135 0.0203125 203.766 0.0914954 203.672 0.492031C203.293 2.20917 202.789 3.89859 202.16 5.56029C201.999 5.95688 201.413 5.71914 201.574 5.32255Z" fill="#11104B"/>
<path d="M196.254 5.46024C195.745 3.82507 195.14 2.2393 194.394 0.693903C194.222 0.320108 194.763 -0.0117825 194.935 0.362013C195.693 1.94858 196.335 3.59033 196.862 5.28726C196.979 5.69894 196.371 5.87192 196.254 5.46024Z" fill="#11104B"/>
<path d="M206.143 9.01583C207.486 8.02435 208.846 7.02015 210.189 6.02867C210.516 5.78715 210.891 6.2957 210.564 6.53722C209.221 7.5287 207.861 8.53289 206.518 9.52437C206.191 9.76589 205.816 9.25734 206.143 9.01583Z" fill="#11104B"/>
<path d="M208.107 14.0234C209.721 14.4516 211.355 14.8854 212.968 15.3136C213.361 15.4179 213.199 16.0289 212.806 15.9246C211.192 15.4963 209.558 15.0626 207.945 14.6344C207.552 14.5301 207.714 13.9191 208.107 14.0234Z" fill="#11104B"/>
<path d="M68.2174 36.0378C72.6611 36.084 77.1048 36.0378 81.5485 35.9221C85.9922 35.8065 90.4359 35.6215 94.8796 35.367C97.3922 35.2283 99.9049 35.0432 102.418 34.8582C102.86 34.8119 102.86 34.1181 102.418 34.1643C97.9739 34.5113 93.5534 34.7888 89.1097 34.9738C84.666 35.182 80.2223 35.2977 75.7786 35.3439C73.266 35.367 70.7533 35.367 68.2406 35.3439C67.7753 35.3439 67.7753 36.0378 68.2174 36.0378Z" fill="#121242"/>
<path d="M69.2874 32.4066C67.9147 33.4243 66.542 34.4651 65.1694 35.4828C64.9832 35.6215 64.9367 35.8528 65.0996 36.0379C66.0767 37.1481 67.1469 38.1658 68.3335 39.0909C68.4731 39.2066 68.729 39.1141 68.822 38.9753C68.9384 38.7903 68.8453 38.6052 68.7057 38.4896C67.5657 37.6338 66.542 36.6161 65.6114 35.5522C65.5881 35.7372 65.5649 35.9222 65.5416 36.1073C66.9143 35.0896 68.2869 34.0488 69.6596 33.0311C69.9853 32.7535 69.6363 32.1522 69.2874 32.4066Z" fill="#121242"/>
<path d="M102.278 38.559C103.465 37.0556 104.651 35.5521 105.861 34.0487C106.07 33.7712 106.396 33.4243 106.187 33.0542C106.094 32.8923 105.931 32.8229 105.768 32.7535C105.535 32.6379 105.326 32.5222 105.093 32.4066C104.209 31.9671 103.325 31.5277 102.464 31.0882C102.069 30.88 101.72 31.4814 102.115 31.6896C102.883 32.0828 103.627 32.4528 104.395 32.846C104.767 33.0311 105.14 33.2855 105.535 33.4243C105.558 33.4474 105.605 33.4705 105.628 33.4705C105.582 33.3549 105.558 33.3317 105.512 33.4243C105.442 33.4474 105.349 33.6324 105.303 33.6787C105.163 33.8406 105.047 34.0025 104.907 34.1644C103.86 35.4828 102.836 36.778 101.789 38.0964C101.51 38.4202 101.999 38.929 102.278 38.559Z" fill="#121242"/>
<path d="M121 9.39504H202C202.359 9.39504 202.65 9.68606 202.65 10.045V60.5174C202.65 60.8764 202.359 61.1674 202 61.1674H121C120.641 61.1674 120.35 60.8764 120.35 60.5174V10.045C120.35 9.68606 120.641 9.39504 121 9.39504Z" stroke="#121242" stroke-width="0.7"/>
<circle cx="142" cy="33.045" r="4" fill="#41CADD"/>
<rect x="138" y="40.045" width="19" height="4" fill="#414168"/>
<path d="M136 26.395H159C159.359 26.395 159.65 26.6861 159.65 27.045V46.045C159.65 46.404 159.359 46.695 159 46.695H136C135.641 46.695 135.35 46.404 135.35 46.045V27.045C135.35 26.6861 135.641 26.395 136 26.395Z" stroke="#B8B8C6" stroke-width="0.7"/>
<path d="M174.5 37.045C170.358 37.045 167 40.6268 167 45.045L182 45.045C182 40.6268 178.642 37.045 174.5 37.045Z" fill="#414168"/>
<rect x="177" y="32.045" width="8" height="8" fill="#A787FF"/>
<path d="M164 26.395H187C187.359 26.395 187.65 26.6861 187.65 27.045V46.045C187.65 46.404 187.359 46.695 187 46.695H164C163.641 46.695 163.35 46.404 163.35 46.045V27.045C163.35 26.6861 163.641 26.395 164 26.395Z" stroke="#B8B8C6" stroke-width="0.7"/>
<path d="M128.304 15.6767C128.304 16.5755 127.562 17.3084 126.652 17.3084C125.742 17.3084 125 16.5755 125 15.6767C125 14.7779 125.742 14.045 126.652 14.045C127.562 14.045 128.304 14.7779 128.304 15.6767Z" fill="#D0D0D9"/>
<path d="M134.394 15.6767C134.394 16.5755 133.652 17.3084 132.742 17.3084C131.832 17.3084 131.09 16.5755 131.09 15.6767C131.09 14.7779 131.832 14.045 132.742 14.045C133.652 14.045 134.394 14.7779 134.394 15.6767Z" fill="#D0D0D9"/>
<path d="M140.482 15.6767C140.482 16.5755 139.74 17.3084 138.831 17.3084C137.921 17.3084 137.179 16.5755 137.179 15.6767C137.179 14.7779 137.921 14.045 138.831 14.045C139.74 14.045 140.482 14.7779 140.482 15.6767Z" fill="#D0D0D9"/>
<path d="M163.706 61.6706L181.12 69.028H143.879L161.293 61.6706C162.034 61.364 162.965 61.364 163.706 61.6706Z" fill="#7950ED"/>
<path d="M31.487 34.3101H16.7531C15.458 34.3101 14.3965 33.273 14.3965 32.0076V2.30256C14.3965 1.03719 15.458 0 16.7531 0H31.487C32.7821 0 33.8436 1.03719 33.8436 2.30256V32.0076C33.8436 33.273 32.7821 34.3101 31.487 34.3101Z" fill="#A787FF"/>
<path d="M30.2986 32.3187H17.9424C17.072 32.3187 16.3926 31.6341 16.3926 30.8044V3.75453C16.3926 2.90403 17.0932 2.24023 17.9424 2.24023H30.2986C31.169 2.24023 31.8484 2.92478 31.8484 3.75453V30.8044C31.8696 31.6549 31.169 32.3187 30.2986 32.3187Z" fill="#F4F4F7"/>
<path d="M14.4394 19.5821C13.2293 19.4784 12.3801 18.5657 12.4013 17.3833C12.4225 16.4083 12.9533 15.4956 13.4841 14.6866C14.0148 13.8568 14.588 13.0478 14.949 12.1144C15.3311 11.1602 15.5222 10.1437 15.5222 9.12727C15.5222 7.94487 15.2886 6.80397 14.8216 5.72529C14.7367 5.51786 14.3757 5.5386 14.2696 5.72529C12.2739 9.62512 9.00442 12.7159 6.71152 16.4291C5.54385 18.3375 4.69463 20.3704 4.41863 22.59C4.24879 23.9383 4.27002 25.3074 4.29125 26.6557C4.31248 28.0041 4.33371 29.3524 4.33371 30.7215C4.31248 36.1564 4.07894 41.612 3.71802 47.0261C3.3571 52.4817 2.89003 57.9165 2.42296 63.3722C1.95589 68.807 1.48882 74.2419 1.1279 79.6767C1.08544 80.3613 1.04298 81.0251 1.00052 81.7096C0.979289 82.1037 1.6162 82.1037 1.63743 81.7096C1.95589 76.3162 2.40173 70.9436 2.8688 65.571C3.33587 60.1154 3.82418 54.6805 4.20632 49.2249C4.58847 43.8315 4.8857 38.4382 4.97062 33.0241C5.01308 30.3689 4.92816 27.6929 4.94939 25.0377C4.97062 23.6686 5.05554 22.2788 5.39523 20.9512C5.67123 19.9348 6.05338 18.9598 6.54168 18.0263C8.55858 14.168 11.8068 11.1187 14.0573 7.42628C14.3333 6.96992 14.6093 6.51356 14.8428 6.03645C14.6517 6.03645 14.4819 6.03645 14.2908 6.03645C15.2037 8.13157 15.1188 10.6416 14.0148 12.6537C13.1019 14.3547 11.361 16.0349 11.8493 18.1093C12.1253 19.3332 13.2081 20.08 14.4394 20.1837C14.8428 20.2252 14.8428 19.6029 14.4394 19.5821Z" fill="#121242" stroke="#121242" stroke-width="0.2"/>
<path d="M20.0269 35.3103C20.0108 40.8651 19.975 46.4421 19.9166 52.0001C19.8566 57.5373 19.7315 63.0586 19.543 68.5845C19.433 71.7126 19.3019 74.8423 19.127 77.9544C19.1136 78.3506 19.7488 78.3037 19.7622 77.9075C20.0762 72.3516 20.2617 66.7843 20.4049 61.2201C20.5299 55.6989 20.6111 50.16 20.6499 44.6244C20.6751 41.5025 20.6792 38.3822 20.7029 35.2396C20.6528 34.8481 20.0191 34.9157 20.0269 35.3103Z" fill="#121242" stroke="#121242" stroke-width="0.2"/>
<path d="M32.0967 39.3203C30.7707 39.1023 30.0422 37.9181 29.0042 37.2084C27.7965 36.3801 26.311 35.9459 24.8434 35.8962C24.0098 35.8619 23.1911 35.9805 22.3875 36.2522C22.1954 36.3096 22.1591 36.545 22.2524 36.6903C22.5864 37.2757 23.146 37.7425 23.6804 38.1538C24.2791 38.6167 24.876 39.0606 25.4393 39.5656C26.7161 40.6962 27.9752 41.8478 29.1439 43.0855C31.4132 45.4711 33.4112 48.1149 34.8107 51.107C36.1868 54.0627 37.067 57.2021 37.6554 60.3893C38.2858 63.8042 38.5851 67.2708 38.9433 70.7316C39.2856 74.2326 39.6689 77.7489 40.4596 81.1868C40.5595 81.6019 40.6613 82.0362 40.7612 82.4514C40.8554 82.8091 41.4083 82.6005 41.314 82.2428C40.4431 78.7935 40.0187 75.2619 39.655 71.7436C39.2931 68.2445 39.0096 64.7378 38.4323 61.2597C37.9027 58.0667 37.1186 54.8986 35.858 51.9123C34.5741 48.8896 32.7448 46.1521 30.5464 43.6823C29.415 42.4217 28.2128 41.2452 26.9537 40.0935C26.3456 39.5349 25.7375 38.9763 25.094 38.4598C24.5148 37.995 23.9021 37.5913 23.3779 37.0825C23.1382 36.8548 22.9358 36.6042 22.7707 36.3306C22.7251 36.4703 22.6813 36.6291 22.6357 36.7688C23.994 36.3076 25.5027 36.3726 26.8492 36.801C27.5216 37.0057 28.1837 37.3079 28.7377 37.7173C29.2487 38.0922 29.689 38.5514 30.1646 38.9684C30.7046 39.4371 31.3117 39.7833 32.0334 39.8866C32.3757 39.9497 32.4781 39.3796 32.0967 39.3203Z" fill="#121242" stroke="#121242" stroke-width="0.2"/>
<path d="M32.326 39.8388C33.1967 39.4446 33.8632 38.7807 34.1688 37.8624C34.5377 36.7834 34.4161 35.5399 34.3859 34.4226C34.2947 31.6696 33.9097 28.9453 33.3504 26.2574C33.0806 24.9125 32.7716 23.5714 32.4448 22.2514C32.2815 21.5913 32.0593 20.9371 31.9743 20.2694C31.8986 19.6974 31.9665 18.9761 32.551 18.6872C33.1355 18.3983 33.6318 19.0257 33.9648 19.3988C34.3425 19.8254 34.7026 20.273 35.0076 20.7647C35.6568 21.7442 36.1942 22.7925 36.616 23.8715C37.6088 26.3432 38.1233 28.9776 38.6145 31.5756C38.7851 31.501 38.9772 31.4436 39.1478 31.3689C38.52 30.4067 38.8338 28.9661 39.8192 28.3289C40.8614 27.6669 42.345 28.082 42.957 29.0844C43.0503 29.2298 43.3281 29.2413 43.4325 29.0959C43.9191 28.411 44.7917 28.0359 45.6207 28.2253C46.4692 28.4127 47.0764 29.1645 47.1764 29.9853C47.2008 30.234 47.5253 30.3181 47.7061 30.1459C48.1703 29.637 48.9974 29.8072 49.473 30.2243C50.056 30.7274 50.3089 31.4945 50.5562 32.2043C51.1357 33.8859 51.58 35.6 51.9283 37.3429C52.6249 40.8286 52.9728 44.387 53.5519 47.8842C54.1562 51.4368 54.878 54.978 55.5038 58.5478C56.1314 62.1368 56.7003 65.7316 57.1928 69.3531C57.7497 73.4319 58.2301 77.5374 58.6108 81.6334C58.6464 81.9969 59.2338 81.9395 59.1982 81.576C58.479 74.0173 57.4856 66.4853 56.1809 59.0031C55.5401 55.2802 54.7623 51.5707 54.1393 47.8267C53.5257 44.1784 53.1843 40.4842 52.414 36.8512C52.0078 34.9209 51.555 32.9178 50.747 31.1234C50.4409 30.4194 49.9745 29.6924 49.1968 29.4208C48.5189 29.1587 47.718 29.2563 47.2165 29.7882C47.4002 29.8475 47.5624 29.8896 47.7461 29.9489C47.6237 28.8986 46.843 27.9899 45.7874 27.7068C44.7318 27.4237 43.5515 27.8868 42.9448 28.7573C43.1033 28.7611 43.2618 28.7649 43.4203 28.7687C42.6237 27.4946 40.7429 27.0605 39.4592 27.8813C38.1755 28.7021 37.8562 30.4909 38.6491 31.7267C38.8105 31.962 39.23 31.8051 39.1824 31.5201C38.7313 29.1306 38.2588 26.7239 37.4218 24.4301C37.014 23.2918 36.512 22.2014 35.8963 21.1607C35.5894 20.6499 35.2648 20.1601 34.9047 19.7125C34.5447 19.2648 34.1809 18.7789 33.7304 18.4174C33.3229 18.0902 32.7951 17.9487 32.2833 18.1726C31.8106 18.3926 31.4797 18.8499 31.3484 19.3262C31.191 19.9404 31.3525 20.5813 31.5102 21.1839C31.6969 21.8803 31.864 22.5785 32.033 23.296C32.7033 26.1082 33.2794 28.9683 33.56 31.838C33.7152 33.4259 33.8351 35.0559 33.7358 36.6687C33.6718 37.8338 33.176 38.8286 32.0601 39.3433C31.7738 39.4486 31.9652 39.99 32.326 39.8388Z" fill="#121242" stroke="#121242" stroke-width="0.2"/>
</svg>
