<svg width="1099" height="350" viewBox="0 0 1099 350" fill="none" xmlns="http://www.w3.org/2000/svg">
<mask id="mask0" mask-type="alpha" maskUnits="userSpaceOnUse" x="0" y="0" width="1099" height="350">
<rect width="1099" height="350" fill="#C4C4C4"/>
</mask>
<g mask="url(#mask0)">
<path d="M1050 305.5C1050 237.846 992.692 183 922 183L922 428C992.692 428 1050 373.154 1050 305.5Z" fill="#A787FF"/>
<path fill-rule="evenodd" clip-rule="evenodd" d="M999.025 268.894C998.959 257.97 998.891 246.579 1000.64 235.839L1000.81 234.834L1001.81 235.016C1007.21 235.999 1013.03 235.969 1018.8 235.94C1021.11 235.928 1023.4 235.917 1025.66 235.97L1025.64 236.969L1025.66 235.97C1025.66 235.97 1025.66 235.97 1025.66 235.97C1026.94 235.996 1028.21 236.024 1029.49 236.052C1039.91 236.28 1050.36 236.508 1060.72 235.971L1060.75 235.969L1060.77 235.969C1060.8 235.969 1060.84 235.969 1060.89 235.97C1061.31 235.971 1062.42 235.976 1063.48 235.903C1064.08 235.863 1064.61 235.801 1064.98 235.714C1065.17 235.671 1065.26 235.634 1065.29 235.62C1065.24 235.653 1065.06 235.793 1065.01 236.09L1067 236.24C1067.06 259.694 1053.61 282.246 1033.45 294.232C1033.45 294.231 1033.45 294.231 1033.45 294.23L1032.93 293.374L1033.44 294.234C1033.45 294.233 1033.45 294.233 1033.45 294.232C1028.75 297.066 1023.68 299.221 1018.43 300.698L1018.43 300.7L1018.43 300.7C1017.49 300.959 1013.3 301.784 1009.35 302.368C1007.37 302.661 1005.41 302.9 1003.91 302.975C1003.17 303.012 1002.5 303.013 1001.98 302.944C1001.72 302.911 1001.44 302.854 1001.18 302.736C1000.95 302.629 1000.5 302.357 1000.4 301.785L1000.4 301.769L1000.4 301.753C999.171 293.012 999.05 283.741 999.05 275.017C999.05 272.997 999.038 270.954 999.025 268.894ZM1001.03 268.84C1001.04 270.91 1001.05 272.971 1001.05 275.017C1001.05 283.571 1001.17 292.53 1002.31 300.97C1002.65 301.006 1003.15 301.011 1003.81 300.977C1005.21 300.907 1007.1 300.68 1009.06 300.39C1012.99 299.808 1017.07 298.998 1017.9 298.772C1022.98 297.341 1027.88 295.256 1032.42 292.518L1032.42 292.514C1051.58 281.129 1064.48 259.92 1064.98 237.75C1064.55 237.821 1064.07 237.868 1063.61 237.899C1062.47 237.976 1061.29 237.971 1060.88 237.97C1060.85 237.97 1060.82 237.969 1060.8 237.969C1050.37 238.509 1039.85 238.279 1029.45 238.051C1028.17 238.023 1026.89 237.996 1025.62 237.969L1025.62 237.969C1023.49 237.919 1021.27 237.93 1019.01 237.942C1013.51 237.969 1007.78 237.998 1002.46 237.155C1000.9 247.421 1000.96 258.255 1001.03 268.84Z" fill="#121242"/>
<path d="M52 353L130.964 353C130.964 317.009 162.196 287.913 200.5 287.913C238.951 287.913 270.036 317.009 270.036 353L349 353C349 276.191 282.558 214 200.5 214C118.442 214 52 276.191 52 353Z" fill="#E7E7EC"/>
<path d="M374 118.5C374 131.462 363.463 142 350.5 142C337.538 142 327 131.462 327 118.5C327 105.538 337.538 95 350.5 95C363.509 95 374 105.538 374 118.5Z" fill="#41CADD"/>
<path d="M348.934 232.585C348.845 211.253 348.712 189.922 348.489 168.53C348.356 157.805 348.222 147.139 348.045 136.413C347.956 132.159 347.867 127.845 347.511 123.59C347.289 121.254 347.244 117.658 346.044 115.741C345.688 115.202 345.199 114.842 344.666 115.142C344.621 115.202 344.532 115.202 344.488 115.262C344.666 114.722 344.488 113.943 343.91 114.003C326.126 116.4 308.254 118.797 290.426 121.194C290.07 121.254 289.759 121.553 289.759 122.092C289.537 148.937 289.27 175.841 289.003 202.685C288.737 229.349 288.514 256.013 288.248 282.678C287.981 309.522 287.758 336.426 287.492 363.27C287.358 376.632 287.225 389.934 287.136 403.296C287.092 406.712 287.092 410.127 287.047 413.543C287.003 416.239 286.914 418.995 287.225 421.632C287.403 423.31 287.758 425.167 289.137 425.587C291.449 426.186 293.938 426.306 296.339 426.605C304.119 427.564 311.944 428.103 319.769 427.983C327.06 427.924 334.396 427.384 341.687 426.905C343.688 426.785 345.688 426.605 347.689 426.485C348.045 426.485 348.356 426.066 348.356 425.587C348.489 404.135 348.623 382.624 348.712 361.173C348.8 339.781 348.889 318.39 348.934 297.059C349.023 275.547 349.023 254.096 348.934 232.585ZM303.541 425.527C299.229 425.167 294.872 424.628 290.559 423.969C290.026 423.909 289.403 423.969 289.048 423.43C288.781 423.01 288.692 422.111 288.648 421.572C288.47 420.194 288.425 418.816 288.425 417.438C288.381 414.262 288.47 411.146 288.514 407.97C288.648 394.848 288.737 381.725 288.87 368.603C289.092 342.238 289.359 315.873 289.581 289.509C289.804 263.264 290.07 237.019 290.293 210.774C290.515 184.529 290.782 158.284 291.004 131.979C291.048 128.983 291.048 125.927 291.093 122.871C308.699 120.535 326.349 118.198 343.954 115.801C344.088 115.801 344.221 115.741 344.31 115.621C344.088 116.28 344.443 117.179 345.021 116.879C345.066 116.939 345.155 117.059 345.155 117.179C345.288 117.718 345.466 118.198 345.555 118.797C345.866 120.475 346.044 122.212 346.177 123.89C346.533 127.965 346.622 132.099 346.711 136.174C346.889 146.6 347.022 156.966 347.111 167.392C347.333 188.244 347.511 209.036 347.556 229.888C347.645 250.74 347.645 271.593 347.645 292.445C347.6 313.417 347.556 334.389 347.422 355.361C347.333 376.213 347.2 397.065 347.067 417.917C347.067 420.194 347.022 422.531 347.022 424.808C332.573 425.707 318.079 426.845 303.541 425.527Z" fill="#121242"/>
<path d="M698.06 353L824.438 353L824.438 36.6373L698.06 36.6373L698.06 353Z" fill="#E7E7EC"/>
<path d="M757 292L757 353L972 353L972 292L757 292Z" fill="#414168"/>
<path d="M810.209 177.827C810.209 191.232 799.343 202.098 785.938 202.098C772.534 202.098 761.667 191.232 761.667 177.827C761.667 164.422 772.534 153.556 785.938 153.556C799.343 153.556 810.209 164.422 810.209 177.827Z" fill="#7950ED"/>
<path fill-rule="evenodd" clip-rule="evenodd" d="M794.139 165.883C793.701 146.122 793.263 126.298 793.311 106.521L793.311 106.514C793.311 103.315 793.311 100.05 793.409 96.8314C793.409 96.8303 793.409 96.8292 793.409 96.8282L794.409 96.8585L793.409 96.8344C793.409 96.8334 793.409 96.8324 793.409 96.8314C793.421 96.3408 793.422 95.8931 793.423 95.4759L793.423 95.4109C793.424 95.0212 793.425 94.6503 793.435 94.3092C793.455 93.605 793.514 92.9094 793.756 92.2846C794.3 90.8808 795.586 90.242 797.563 89.7241L797.564 89.7239C804.657 87.8729 813.124 89.537 821.049 92.5552C829.002 95.5843 836.565 100.038 841.931 103.966L841.341 104.774L841.932 103.967C841.932 103.967 841.932 103.966 841.931 103.966C864.369 120.358 879.001 146.773 879.001 175.281C879.001 191.226 875.378 210.024 866.975 223.731L866.975 223.732C856.155 241.373 837.809 253.156 818.584 258.502C818.585 258.502 818.586 258.502 818.587 258.502L818.313 257.54L818.581 258.503C818.582 258.503 818.583 258.503 818.584 258.502C813.756 259.878 808.833 260.811 803.864 261.35L803.861 261.351C803.759 261.361 803.657 261.372 803.557 261.383C802.089 261.537 800.81 261.672 799.748 261.682C798.621 261.694 797.567 261.572 796.7 261.059C795.784 260.519 795.238 259.644 794.92 258.509C794.61 257.403 794.492 255.964 794.48 254.148C794.48 254.148 794.48 254.148 794.48 254.148L795.48 254.141L794.48 254.147C794.48 254.148 794.48 254.148 794.48 254.148C794.434 248.155 794.725 242.164 795.015 236.202C795.038 235.729 795.061 235.257 795.083 234.784C795.394 228.343 795.672 221.931 795.503 215.514L795.502 215.508C795.317 206.517 795.045 197.535 794.773 188.54C794.545 181.001 794.317 173.453 794.139 165.884L794.139 165.883ZM796.139 165.838C796.316 173.363 796.544 180.91 796.772 188.456C797.044 197.472 797.317 206.487 797.502 215.464C797.673 221.963 797.391 228.443 797.081 234.881C797.058 235.35 797.036 235.819 797.013 236.288C796.723 242.262 796.435 248.199 796.48 254.133L796.48 254.134C796.492 255.911 796.611 257.13 796.846 257.97C797.073 258.78 797.378 259.138 797.717 259.337C798.103 259.566 798.704 259.693 799.728 259.683C800.691 259.673 801.878 259.548 803.397 259.388C803.481 259.38 803.565 259.371 803.65 259.362C808.514 258.833 813.326 257.921 818.039 256.578L818.045 256.576L818.045 256.576C836.891 251.336 854.766 239.812 865.27 222.686C873.419 209.394 877.001 190.996 877.001 175.281C877.001 147.461 862.715 121.626 840.751 105.581L840.751 105.581C835.504 101.74 828.097 97.3799 820.337 94.4243C812.548 91.4576 804.559 89.9654 798.069 91.6591C796.153 92.161 795.783 92.5903 795.621 93.0075C795.51 93.2932 795.453 93.6962 795.434 94.3668C795.425 94.6803 795.424 95.0266 795.423 95.4268L795.423 95.4805C795.422 95.8989 795.421 96.3669 795.408 96.8827L795.408 96.8889C795.311 100.076 795.311 103.314 795.311 106.522L795.311 106.524C795.263 126.273 795.701 146.073 796.139 165.838Z" fill="#121242"/>
<path d="M609.598 265.622L609.343 352.693L697.879 353L609.598 265.622Z" fill="#41CADD"/>
<path d="M446.999 352.437L577.562 352.91L577.562 348.178C577.562 277.201 519.376 219 447.472 219L446.999 352.437Z" fill="#E7E7EC"/>
<path d="M492.171 142.49C427.46 142.49 375 197.574 375 265.52L609.343 265.52C609.343 197.574 556.882 142.49 492.171 142.49Z" fill="#414168"/>
<path d="M498.334 278.858L498.334 202.164L421.784 202.164L421.784 278.858L498.334 278.858Z" fill="#A787FF"/>
<path d="M504.619 182.558C494.793 182.478 484.966 182.399 475.18 182.319C465.433 182.24 455.686 182.161 445.899 182.081C443.443 182.081 441.026 182.042 438.569 182.042C436.707 182.042 434.567 181.843 432.824 182.756C430.882 183.788 431.001 185.972 431.001 187.877C431.001 190.338 431.041 192.839 431.081 195.3C431.199 205.066 431.437 214.831 431.754 224.596C432.111 234.441 432.547 244.246 433.101 254.051C433.18 255.242 433.26 256.433 433.299 257.624C433.339 257.942 433.537 258.22 433.894 258.22C443.958 258.577 454.061 258.616 464.165 258.299C474.229 257.981 484.293 257.306 494.317 256.274C499.944 255.719 505.53 255.004 511.117 254.21C511.355 254.17 511.553 253.893 511.553 253.654C511.672 244.246 511.632 234.878 511.394 225.47C511.196 216.101 510.76 206.773 510.126 197.404C509.77 192.125 509.374 186.845 508.898 181.565C508.819 180.811 507.63 180.811 507.709 181.565C508.541 190.934 509.215 200.302 509.651 209.71C510.126 219.079 510.364 228.407 510.443 237.776C510.483 243.055 510.483 248.335 510.404 253.654C510.562 253.456 510.681 253.257 510.84 253.099C500.934 254.488 490.949 255.56 480.965 256.274C470.98 256.989 460.955 257.346 450.931 257.386C445.265 257.386 439.599 257.306 433.933 257.108C434.131 257.306 434.33 257.505 434.528 257.703C433.933 248.057 433.458 238.411 433.101 228.725C432.745 219.118 432.467 209.472 432.348 199.826C432.309 197.404 432.269 195.022 432.269 192.601C432.269 191.41 432.23 190.219 432.23 189.028C432.23 187.917 432.111 186.765 432.269 185.694C432.547 183.629 434.607 183.352 436.311 183.272C438.648 183.193 440.986 183.312 443.324 183.312C452.952 183.391 462.58 183.471 472.208 183.55C481.836 183.59 491.464 183.669 501.053 183.709C502.242 183.709 503.43 183.709 504.619 183.749C505.411 183.749 505.411 182.558 504.619 182.558Z" fill="white"/>
</g>
</svg>
