<svg width="130" height="100" viewBox="0 0 130 100" fill="none" xmlns="http://www.w3.org/2000/svg">
<path d="M43.5606 32.6641L45.0356 32.3982C45.1552 32.5414 45.2947 32.6641 45.3944 32.7664C45.514 32.8892 45.6336 32.9914 45.7731 33.1142C45.6934 33.7484 45.5937 34.403 45.6136 35.0576C45.6136 35.1804 45.6336 35.3031 45.6934 35.4054C45.793 35.61 45.9924 35.6305 46.1718 35.6918C46.5903 35.7941 47.0089 35.8964 47.4275 35.9987C47.7464 36.0805 48.0653 36.1624 48.3843 36.2237C48.7032 36.3056 49.0221 36.4078 49.341 36.3874C49.5005 36.3874 49.6799 36.3465 49.7995 36.2237C49.9589 36.0805 50.0386 35.8759 50.1184 35.6918C50.218 35.4463 50.3177 35.1804 50.3576 34.9144C50.3974 34.669 50.4572 34.4439 50.6765 34.3007C50.9555 34.1166 51.2944 34.0143 51.6133 34.0552C51.713 34.0757 51.8126 34.0961 51.8724 34.1575C51.8924 34.178 51.9322 34.2189 51.9522 34.2393C52.1515 34.5258 52.4505 34.7508 52.7295 34.9554C52.9488 35.0986 53.188 35.2213 53.4471 35.2213C53.8258 35.2213 54.0451 34.9144 54.3042 34.669C54.5434 34.4439 54.7826 34.2189 55.0217 33.9734C55.4802 33.5233 56.0184 32.971 56.1778 32.3163C56.2376 32.0709 56.1978 31.8254 56.0782 31.6208C55.9187 31.3548 55.6994 31.1094 55.4603 30.8843C55.2609 30.7002 55.0217 30.4956 55.0217 30.2297C55.0217 29.1454 55.9586 28.9613 56.7559 28.634L56.8356 28.6135C57.2143 28.4294 57.4136 27.9794 57.294 27.5498C57.2542 27.3656 57.1944 27.1815 57.1346 26.9974C56.9751 26.4451 56.8356 25.9132 56.6761 25.3608C56.5366 24.8903 56.3971 24.1538 55.819 24.0515C55.7194 24.0311 55.5998 24.0515 55.5001 24.072C55.0616 24.1538 54.6231 24.2357 54.1846 24.3175C54.0251 24.3379 53.766 24.4402 53.6065 24.3993C53.467 24.3584 53.3275 24.1947 53.2478 24.0925C53.2079 24.0311 53.168 23.9902 53.1481 23.9288C53.0883 23.7651 53.1481 23.5606 53.188 23.3969C53.2677 23.0287 53.3673 22.6604 53.4072 22.2922C53.4271 22.0058 53.467 21.5353 53.3076 21.2898C53.2478 21.2079 53.1481 21.1466 53.0684 21.1057C52.5701 20.9215 52.012 20.8193 51.4937 20.6965C51.0153 20.5738 50.517 20.451 50.0386 20.3487C49.9988 20.3283 49.9589 20.3283 49.919 20.3078C49.5005 20.226 49.062 20.4306 48.9025 20.8397L48.3643 22.4354C48.0055 22.4968 47.6866 22.5991 47.3478 22.7423L46.092 21.7194C45.7532 21.433 45.2349 21.433 44.916 21.7603L42.863 23.9492C42.5241 24.2766 42.5441 24.8085 42.863 25.1562L43.9194 26.4041C43.7998 26.7519 43.7201 27.0997 43.6802 27.4679L42.2251 28.0407L42.1454 28.0612C41.7667 28.2453 41.5674 28.6954 41.687 29.125L42.4843 32.0504L42.5042 32.0709C42.6039 32.3368 42.7832 32.5414 43.0224 32.6437C43.2018 32.7255 43.3812 32.7255 43.5606 32.6641ZM47.7066 26.6087C48.6633 25.5858 50.238 25.5449 51.2346 26.5269C52.2312 27.5088 52.2711 29.125 51.3143 30.1479C50.3576 31.1707 48.763 31.2116 47.7663 30.2297C46.7498 29.2682 46.7299 27.652 47.6667 26.6292C47.6866 26.6087 47.6866 26.6087 47.7066 26.6087Z" stroke="#F4F4F7" stroke-width="0.8" stroke-miterlimit="10"/>
<path d="M87.9778 85.4144L91.0334 84.9067C91.2881 85.2029 91.5427 85.4356 91.7549 85.6471C92.0095 85.901 92.243 86.1125 92.5188 86.3241C92.3491 87.5933 92.1369 88.9049 92.2005 90.1953C92.2217 90.4492 92.243 90.703 92.3703 90.9146C92.5825 91.3165 92.9644 91.3588 93.3464 91.4858C94.2164 91.6973 95.0864 91.8877 95.9352 92.0992C96.593 92.2473 97.2508 92.4166 97.9086 92.5646C98.5452 92.7127 99.2454 92.9031 99.882 92.9031C100.222 92.9031 100.561 92.8185 100.816 92.5858C101.134 92.3108 101.304 91.9088 101.473 91.5069C101.664 91.0204 101.877 90.4915 101.962 89.9626C102.046 89.4761 102.174 89.0318 102.619 88.7357C103.171 88.3549 103.871 88.1645 104.55 88.2491C104.741 88.2703 104.954 88.3337 105.102 88.4818C105.166 88.5453 105.208 88.6088 105.251 88.6722C105.675 89.2222 106.269 89.6876 106.842 90.0896C107.288 90.3857 107.797 90.6184 108.327 90.6184C109.113 90.6184 109.579 90.0049 110.089 89.5184C110.577 89.053 111.086 88.6088 111.574 88.1222C112.508 87.2126 113.632 86.1125 113.929 84.801C114.035 84.3144 113.993 83.8278 113.717 83.3836C113.378 82.8336 112.953 82.347 112.465 81.9239C112.062 81.5643 111.553 81.1624 111.553 80.6124C111.553 78.4546 113.463 78.095 115.118 77.4392L115.266 77.3757C116.051 77.0161 116.433 76.1065 116.221 75.2603C116.136 74.9007 116.009 74.541 115.924 74.1814C115.627 73.1025 115.309 72.0025 115.012 70.9236C114.736 69.9717 114.439 68.4909 113.25 68.3216C113.038 68.2793 112.805 68.3216 112.571 68.3639C111.68 68.512 110.768 68.6813 109.876 68.8293C109.537 68.8928 109.028 69.0832 108.688 68.9986C108.391 68.914 108.115 68.5966 107.945 68.3851C107.861 68.2793 107.797 68.1736 107.754 68.0466C107.627 67.7082 107.733 67.3274 107.818 66.9678C108.009 66.2485 108.179 65.5081 108.264 64.7677C108.327 64.1965 108.391 63.2446 108.052 62.7369C107.924 62.5676 107.733 62.4407 107.542 62.3772C106.503 61.9965 105.399 61.8061 104.317 61.5311C103.32 61.2984 102.322 61.0657 101.325 60.8118C101.24 60.7907 101.155 60.7695 101.07 60.7484C100.222 60.558 99.3303 60.981 98.9908 61.7849L97.9086 64.9581C97.1871 65.1062 96.5081 65.2966 95.8079 65.5504L93.1978 63.4984C92.4764 62.9061 91.4366 62.9273 90.8 63.6042L86.5773 67.9832C85.8983 68.639 85.9195 69.6967 86.5773 70.3736L88.7417 72.8698C88.5083 73.5679 88.3386 74.2449 88.2325 74.9853L85.2405 76.1488L85.092 76.2122C84.3068 76.5719 83.9249 77.4815 84.1371 78.3277L85.7922 84.1663L85.8346 84.2086C86.0256 84.7375 86.4076 85.1394 86.9168 85.3298C87.2776 85.5202 87.6383 85.5202 87.9778 85.4144ZM96.5081 73.2929C98.4603 71.2621 101.728 71.1775 103.765 73.1449C105.802 75.1122 105.887 78.3488 103.914 80.3797C101.94 82.4105 98.6937 82.4951 96.6566 80.5278C94.5771 78.6027 94.5135 75.4084 96.4657 73.3352C96.4869 73.3141 96.4869 73.3141 96.5081 73.2929Z" stroke="#F4F4F7" stroke-width="0.8" stroke-miterlimit="10"/>
<rect x="23.8574" y="35.542" width="79.6526" height="43.6394" fill="white"/>
<path d="M22.8628 76.8024C22.8628 77.7413 22.9247 78.788 23.6829 79.4653C24.3946 80.1118 25.4313 80.2503 26.3596 80.2811C27.7057 80.3273 29.0518 80.2811 30.3825 80.2657C31.775 80.2503 33.1675 80.235 34.5601 80.2196C40.1611 80.1426 45.7776 80.0502 51.3787 79.9579C56.9488 79.8655 62.5344 79.7886 68.1045 79.7732C73.6901 79.7732 79.2602 79.7886 84.8458 79.9425C90.4004 80.0964 95.9396 79.8347 101.479 79.6962C102.16 79.6808 102.856 79.6654 103.537 79.65C103.66 79.65 103.769 79.5423 103.769 79.4191C103.846 73.4622 104.264 67.5206 104.233 61.5636C104.217 58.5774 103.97 55.6066 103.815 52.6358C103.66 49.6805 103.676 46.7251 103.753 43.7697C103.784 42.5536 103.8 41.3376 103.877 40.137C103.923 39.2904 103.985 38.4592 104.001 37.6126C104.016 35.9656 103.846 34.1492 102.794 32.7947C101.401 31.0245 98.8329 30.7782 96.7441 30.7166C93.8817 30.6397 90.9884 30.732 88.1259 30.7166C82.2464 30.7013 76.3668 30.6397 70.4873 30.6089C64.5922 30.5781 58.6972 30.5781 52.8176 30.7013C46.9536 30.809 41.074 31.0399 35.2099 31.4555C32.3011 31.6556 29.3768 31.9173 26.4679 32.2251C25.7407 32.3021 25.0135 32.3791 24.2863 32.4714C23.8531 32.5176 23.6968 32.2068 23.4337 32.5762C23.0933 33.038 23.0485 33.826 23.0794 34.3493C23.1259 35.0574 23.0485 36.0733 23.064 36.7814C23.2961 42.6768 22.8474 48.5876 22.8319 54.483C22.8164 60.4553 22.8164 66.4277 22.8164 72.4001C22.8628 73.8624 22.8628 75.3401 22.8628 76.8024C22.8628 77.0948 23.327 77.0948 23.327 76.8024C23.327 70.9686 23.3425 65.1193 23.3425 59.2855C23.3425 56.3609 23.327 53.4517 23.4044 50.527C23.4817 47.6332 23.59 44.724 23.621 41.8302C23.6364 40.414 23.6365 38.9979 23.59 37.5664C23.5746 36.8275 23.5436 36.1041 23.4972 35.3652C23.4817 35.0266 23.4508 34.688 23.4353 34.3493C23.4198 34.0415 23.2961 33.5951 23.4508 33.3026C23.59 33.0409 23.9768 32.9948 24.2399 32.9486C24.6267 32.887 25.0135 32.8562 25.4158 32.8101C26.1121 32.7331 26.8083 32.6561 27.5201 32.5792C28.9435 32.4406 30.3825 32.3021 31.8059 32.179C37.5153 31.7018 43.2556 31.4247 48.9805 31.2554C54.7362 31.1015 60.492 31.0553 66.2478 31.0707C72.0345 31.0861 77.8058 31.1323 83.5925 31.1784C86.4394 31.1938 89.2864 31.2092 92.1488 31.2092C93.5413 31.2092 94.9493 31.1784 96.3419 31.1938C97.657 31.2092 99.0031 31.2862 100.256 31.6864C101.2 31.9788 102.036 32.4714 102.608 33.3026C103.072 33.9953 103.304 34.7957 103.444 35.6115C103.707 37.2739 103.506 38.9671 103.428 40.6295C103.289 43.4156 103.243 46.2171 103.289 49.0032C103.32 51.897 103.598 54.7754 103.722 57.6693C103.985 63.4877 103.645 69.3215 103.459 75.14C103.413 76.5715 103.382 78.003 103.351 79.4345C103.428 79.3576 103.506 79.2806 103.583 79.2036C98.1676 79.296 92.7522 79.5731 87.3369 79.5269C84.6292 79.5115 81.906 79.3884 79.1983 79.3422C76.4751 79.3114 73.752 79.296 71.0133 79.296C65.5515 79.296 60.0743 79.3576 54.6125 79.4345C49.1352 79.5115 43.6734 79.6039 38.1961 79.6962C35.4575 79.7424 32.7188 79.7732 29.9957 79.804C28.7269 79.8194 27.4582 79.8809 26.1894 79.8194C25.1218 79.7578 23.915 79.4961 23.5127 78.3724C23.3425 77.8645 23.327 77.3257 23.327 76.8024C23.327 76.5099 22.8628 76.5099 22.8628 76.8024Z" fill="#414168"/>
<path d="M103.934 30.8818H23.0107V37.2371H103.934V30.8818Z" fill="#414168"/>
<path d="M33.9919 34.1118C33.9919 34.7228 33.4905 35.2216 32.8763 35.2216C32.2621 35.2216 31.7607 34.7228 31.7607 34.1118C31.7607 33.5007 32.2621 33.002 32.8763 33.002C33.4905 33.002 33.9919 33.5007 33.9919 34.1118Z" fill="white"/>
<path d="M37.0007 34.1108C37.0007 34.7218 36.4993 35.2206 35.8851 35.2206C35.2709 35.2206 34.7695 34.7218 34.7695 34.1108C34.7695 33.4998 35.2709 33.001 35.8851 33.001C36.4993 33.001 37.0007 33.4998 37.0007 34.1108Z" fill="white"/>
<path d="M39.9577 34.1108C39.9577 34.7218 39.4563 35.2206 38.8421 35.2206C38.2279 35.2206 37.7266 34.7218 37.7266 34.1108C37.7266 33.4998 38.2279 33.001 38.8421 33.001C39.4563 33.001 39.9577 33.4998 39.9577 34.1108Z" fill="white"/>
<path d="M69.1878 52.1289H32.2549V63.0731H69.1878V52.1289Z" fill="#AE82FF"/>
<path d="M82.8036 64.6885H32.2549V75.6327H82.8036V64.6885Z" fill="#AE82FF"/>
<path d="M109.849 52.0195H72.916V62.9637H109.849V52.0195Z" fill="#AE82FF"/>
<path d="M34.947 56.5457C39.1092 56.5611 43.2867 56.5611 47.4488 56.5457C51.5955 56.5303 55.7266 56.4995 59.8733 56.4379C62.2096 56.4071 64.5615 56.3764 66.8978 56.3456C67.1918 56.3456 67.1918 55.8838 66.8978 55.8838C62.7357 55.9454 58.5581 56.0069 54.396 56.0377C50.2494 56.0685 46.1182 56.0993 41.9716 56.0993C39.6352 56.0993 37.2834 56.0993 34.947 56.0839C34.6531 56.0839 34.6531 56.5457 34.947 56.5457Z" fill="white" stroke="white" stroke-width="0.3"/>
<path d="M78.0994 55.8684C81.8438 55.7145 85.6036 55.6221 89.348 55.6221C93.0923 55.6221 96.8521 55.6837 100.596 55.8376C102.701 55.93 104.805 56.0377 106.909 56.1763C107.203 56.1917 107.203 55.7299 106.909 55.7145C103.165 55.4682 99.4206 55.2989 95.6762 55.2219C91.9319 55.145 88.1721 55.145 84.4277 55.2065C82.3234 55.2527 80.2192 55.3143 78.1149 55.4066C77.8055 55.422 77.8055 55.8838 78.0994 55.8684Z" fill="white" stroke="white" stroke-width="0.3"/>
<path d="M78.0086 59.8407C79.8498 59.6406 81.691 59.5791 83.5323 59.5791C84.4451 59.5791 85.358 59.5944 86.2709 59.5791C87.1528 59.5637 88.0502 59.5175 88.9322 59.5021C89.9224 59.4713 90.9281 59.4559 91.9184 59.5175C92.2123 59.5329 92.2123 59.0711 91.9184 59.0557C90.1545 58.9479 88.3752 59.0711 86.6113 59.1173C84.7855 59.1634 82.9598 59.1019 81.134 59.1634C80.0974 59.1942 79.0452 59.2712 78.0086 59.3789C77.7146 59.4097 77.7146 59.8715 78.0086 59.8407Z" fill="white" stroke="white" stroke-width="0.3"/>
<path d="M34.947 67.9671C40.8111 68.0286 46.6597 68.0132 52.5238 67.9671C58.3725 67.9209 64.2211 67.8593 70.0542 67.8439C73.3344 67.8439 76.6146 67.8439 79.8947 67.8901C80.1887 67.8901 80.1887 67.4283 79.8947 67.4283C74.0307 67.3667 68.182 67.3821 62.318 67.4283C56.4693 67.4745 50.6207 67.5361 44.7876 67.5514C41.5074 67.5514 38.2272 67.5514 34.947 67.5053C34.6531 67.5053 34.6531 67.9671 34.947 67.9671Z" fill="white" stroke="white" stroke-width="0.3"/>
<path d="M35.195 73.7251C39.5738 73.6635 43.9525 73.6327 48.3312 73.6019C52.7099 73.5712 57.0887 73.5712 61.4674 73.5712C63.943 73.5712 66.4186 73.5865 68.8942 73.6019C69.1882 73.6019 69.1882 73.1402 68.8942 73.1402C64.5155 73.1094 60.1368 73.1094 55.758 73.1094C51.3793 73.1248 47.0006 73.1402 42.6218 73.1863C40.1462 73.2017 37.6861 73.2325 35.2105 73.2633C34.8856 73.2633 34.8856 73.7251 35.195 73.7251Z" fill="white" stroke="white" stroke-width="0.3"/>
<path d="M34.8845 70.6618C37.6541 70.7542 40.4237 70.7695 43.1933 70.7388C45.9474 70.708 48.7015 70.6464 51.4556 70.631C53.0184 70.6156 54.5811 70.6156 56.1438 70.6464C56.4378 70.6464 56.4378 70.1846 56.1438 70.1846C53.3897 70.1538 50.6201 70.1846 47.866 70.2154C45.1119 70.2616 42.3423 70.3078 39.5882 70.2924C38.0255 70.2924 36.4473 70.2616 34.8845 70.2C34.5906 70.2 34.5906 70.6618 34.8845 70.6618Z" fill="white" stroke="white" stroke-width="0.3"/>
<path d="M91.1915 74.5129C93.5414 74.5129 95.4464 72.6177 95.4464 70.2799C95.4464 67.942 93.5414 66.0469 91.1915 66.0469C88.8415 66.0469 86.9365 67.942 86.9365 70.2799C86.9365 72.6177 88.8415 74.5129 91.1915 74.5129Z" fill="#FFBD70"/>
<path d="M91.129 68.2651C91.0516 69.8505 90.9742 71.436 90.8969 73.0214C90.8814 73.3139 91.3456 73.3139 91.361 73.0214C91.4384 71.436 91.5158 69.8505 91.5931 68.2651C91.6086 67.9572 91.1444 67.9572 91.129 68.2651Z" fill="white" stroke="white" stroke-width="0.3"/>
<path d="M89.1794 70.7587C90.4945 70.7587 91.8097 70.7587 93.1248 70.7587C93.4188 70.7587 93.4188 70.2969 93.1248 70.2969C91.8097 70.2969 90.4945 70.2969 89.1794 70.2969C88.8699 70.2969 88.8699 70.7587 89.1794 70.7587Z" fill="white" stroke="white" stroke-width="0.3"/>
<path d="M35.3504 60.0402C38.1818 59.8709 41.0133 59.717 43.8603 59.6092C44.6648 59.5784 45.4849 59.5476 46.2894 59.5168C46.5834 59.5015 46.5834 59.0397 46.2894 59.0551C43.458 59.1474 40.611 59.2706 37.7796 59.4245C36.975 59.4707 36.1704 59.5168 35.3504 59.563C35.0564 59.5938 35.0564 60.0556 35.3504 60.0402Z" fill="white" stroke="white" stroke-width="0.3"/>
<path d="M44.5573 42.9697C44.5573 42.7542 44.5573 42.5387 44.5573 42.3232C44.5418 42.0615 44.3252 41.846 44.0776 41.8152C43.9848 41.7998 43.9074 41.7998 43.8146 41.7998C41.4783 41.7998 39.1419 41.7998 36.8055 41.7998C36.558 41.7998 36.3568 41.7382 36.1712 41.5689C35.9546 41.3842 35.7379 41.1995 35.5213 41.0148C35.3821 40.8917 35.2274 40.8301 35.0262 40.8301C34.1752 40.8301 33.3242 40.8301 32.4578 40.8301C32.071 40.8301 31.8389 41.061 31.8389 41.4458C31.8389 41.9845 31.8389 42.5387 31.8389 43.0774C31.8389 43.2006 31.8389 43.3237 31.8543 43.4622V42.9543H44.5573V42.9697Z" fill="#414168"/>
<path d="M44.5584 42.9697H31.8555V43.4777V50.3428H44.5739V42.9697H44.5584Z" fill="#41CADD"/>
<path d="M61.6383 42.9697C61.6383 42.7542 61.6383 42.5387 61.6383 42.3232C61.6229 42.0615 61.4063 41.846 61.1587 41.8152C61.0659 41.7998 60.9885 41.7998 60.8957 41.7998C58.5593 41.7998 56.223 41.7998 53.8866 41.7998C53.639 41.7998 53.4379 41.7382 53.2522 41.5689C53.0356 41.3842 52.819 41.1995 52.6024 41.0148C52.4631 40.8917 52.3084 40.8301 52.1073 40.8301C51.2563 40.8301 50.4053 40.8301 49.5388 40.8301C49.152 40.8301 48.9199 41.061 48.9199 41.4458C48.9199 41.9845 48.9199 42.5387 48.9199 43.0774C48.9199 43.2006 48.9199 43.3237 48.9354 43.4622V42.9543H61.6383V42.9697Z" fill="#414168"/>
<path d="M61.6374 42.9697H48.9189V43.4777V50.3428H61.6374V42.9697Z" fill="#41CADD"/>
<path d="M78.2418 42.9697C78.2418 42.7542 78.2418 42.5387 78.2418 42.3232C78.2264 42.0615 78.0098 41.846 77.7622 41.8152C77.6694 41.7998 77.592 41.7998 77.4992 41.7998C75.1628 41.7998 72.8265 41.7998 70.4901 41.7998C70.2426 41.7998 70.0414 41.7382 69.8557 41.5689C69.6391 41.3842 69.4225 41.1995 69.2059 41.0148C69.0666 40.8917 68.9119 40.8301 68.7108 40.8301C67.8598 40.8301 67.0088 40.8301 66.1423 40.8301C65.7555 40.8301 65.5234 41.061 65.5234 41.4458C65.5234 41.9845 65.5234 42.5387 65.5234 43.0774C65.5234 43.2006 65.5234 43.3237 65.5389 43.4622V42.9543H78.2418V42.9697Z" fill="#414168"/>
<path d="M78.2409 42.9697H65.5225V43.4777V50.3428H78.2409V42.9697Z" fill="#41CADD"/>
<path d="M30.8775 49.8183C30.7537 49.4797 30.63 49.141 30.5062 48.8178C30.3515 48.4176 29.8873 48.2021 29.4695 48.3098C29.3303 48.3406 29.191 48.3868 29.0672 48.433C25.4621 49.7414 21.857 51.0344 18.2519 52.3427C17.8806 52.4813 17.5247 52.4967 17.1379 52.3427C16.7047 52.1734 16.256 52.0195 15.8073 51.8502C15.5133 51.7424 15.2503 51.7424 14.9563 51.8502C13.6411 52.3273 12.3105 52.8045 10.9953 53.2817C10.3919 53.4972 10.1598 53.9897 10.3764 54.5901C10.6859 55.4367 10.9953 56.2679 11.2893 57.1145C11.3512 57.2992 11.4286 57.4993 11.5214 57.6994L11.2429 56.9144L30.8775 49.8183Z" fill="#414168"/>
<path d="M30.8768 49.8174L11.2422 56.9134L11.5207 57.6984L15.4043 68.3194L35.0544 61.208L30.8923 49.8174H30.8768Z" fill="#41CADD"/>
<path d="M96.0807 42.9697C96.0807 42.7542 96.0807 42.5387 96.0807 42.3232C96.0652 42.0615 95.8486 41.846 95.6011 41.8152C95.5082 41.7998 95.4309 41.7998 95.338 41.7998C93.0017 41.7998 90.6653 41.7998 88.329 41.7998C88.0814 41.7998 87.8803 41.7382 87.6946 41.5689C87.478 41.3842 87.2614 41.1995 87.0448 41.0148C86.9055 40.8917 86.7508 40.8301 86.5496 40.8301C85.6987 40.8301 84.8477 40.8301 83.9812 40.8301C83.5944 40.8301 83.3623 41.061 83.3623 41.4458C83.3623 41.9845 83.3623 42.5387 83.3623 43.0774C83.3623 43.2006 83.3623 43.3237 83.3778 43.4622V42.9543H96.0807V42.9697Z" fill="#414168"/>
<path d="M96.0797 42.9697H83.3613V43.4777V50.3428H96.0797V42.9697Z" fill="#41CADD"/>
<path d="M26.2551 41.6373L15.3086 45.5625L18.4514 54.2369L29.3979 50.3117L26.2551 41.6373Z" fill="#D0D0D9"/>
<path d="M18.5005 47.5728C20.6512 46.834 22.7554 46.0182 24.8288 45.11C25.1073 44.9868 24.8597 44.5866 24.5967 44.7098C22.5543 45.6025 20.481 46.403 18.3767 47.1264C18.0982 47.2188 18.222 47.6652 18.5005 47.5728Z" fill="#414168" stroke="#414168" stroke-width="0.3"/>
<path d="M19.3676 49.7735C20.265 49.3733 21.1779 48.9884 22.0753 48.5882C22.9418 48.2034 23.8082 47.7724 24.7211 47.5723C25.0151 47.5107 24.8913 47.0644 24.5973 47.1259C23.6535 47.3414 22.787 47.7724 21.9051 48.1572C20.9768 48.5575 20.0484 48.9731 19.1201 49.3733C18.857 49.4964 19.1046 49.8966 19.3676 49.7735Z" fill="#414168" stroke="#414168" stroke-width="0.3"/>
<path d="M20.3555 51.4199C21.3303 50.835 22.3824 50.404 23.481 50.1115C23.7749 50.0346 23.6512 49.5882 23.3572 49.6651C22.2277 49.973 21.1291 50.4348 20.1234 51.0197C19.8759 51.1736 20.1079 51.5738 20.3555 51.4199Z" fill="#414168" stroke="#414168" stroke-width="0.3"/>
<path d="M112.941 43.3865C113.704 43.3865 114.322 42.7685 114.322 42.0062C114.322 41.2439 113.704 40.626 112.941 40.626C112.179 40.626 111.561 41.2439 111.561 42.0062C111.561 42.7685 112.179 43.3865 112.941 43.3865Z" fill="#144BC1"/>
<path d="M74.3867 16.2713C75.1494 16.2713 75.7676 15.6533 75.7676 14.891C75.7676 14.1287 75.1494 13.5107 74.3867 13.5107C73.6241 13.5107 73.0059 14.1287 73.0059 14.891C73.0059 15.6533 73.6241 16.2713 74.3867 16.2713Z" stroke="#414168" stroke-width="0.8"/>
<path d="M20.9458 25.4795C22.1455 25.4795 23.1182 24.5073 23.1182 23.3081C23.1182 22.1089 22.1455 21.1367 20.9458 21.1367C19.746 21.1367 18.7734 22.1089 18.7734 23.3081C18.7734 24.5073 19.746 25.4795 20.9458 25.4795Z" fill="#7950ED"/>
<path d="M117.957 55.4839L122.708 54.6475L123.571 59.4261L118.819 60.2624L117.957 55.4839Z" stroke="#414168" stroke-width="0.8"/>
<path d="M90.2031 20.1485L86.8506 15.6289L82.3262 19.018L85.6787 23.5376L90.2031 20.1485Z" fill="#F685A1"/>
<path d="M34.5442 88.1917L35.8145 85.9785L33.6016 84.6907L32.3313 86.9038L34.5442 88.1917Z" stroke="#414168" stroke-width="0.8"/>
<path d="M70.6823 83.8829L74.034 86.6397L69.987 88.1771L70.6823 83.8829Z" stroke="#414168" stroke-width="0.8"/>
<path d="M34.6075 7.03239L34.4136 13.7225L28.7506 10.2084L34.6075 7.03239Z" stroke="#414168" stroke-width="0.8"/>
<path d="M104.756 27.605L103.785 23.9592L107.409 24.9361L104.756 27.605Z" stroke="#414168" stroke-width="0.8"/>
<line x1="0.4" y1="-0.4" x2="2.03355" y2="-0.4" transform="matrix(0.707108 0.707106 -0.707108 0.707106 17.0791 34.6953)" stroke="#414168" stroke-width="0.8" stroke-linecap="round" stroke-linejoin="round"/>
<line x1="36.8395" y1="24.5924" x2="35.7868" y2="28.521" stroke="#414168" stroke-width="0.8" stroke-linecap="round" stroke-linejoin="round"/>
<line x1="0.4" y1="-0.4" x2="2.03355" y2="-0.4" transform="matrix(-0.707106 0.707108 -0.707106 -0.707108 83.624 83.8418)" stroke="#414168" stroke-width="0.8" stroke-linecap="round" stroke-linejoin="round"/>
<path d="M7.5971 41.3658C7.5971 42.2573 6.8792 42.9761 5.99855 42.9761C5.1179 42.9761 4.4 42.2573 4.4 41.3658C4.4 40.4742 5.11791 39.7555 5.99855 39.7555C6.8792 39.7555 7.5971 40.4742 7.5971 41.3658Z" stroke="#414168" stroke-width="0.8"/>
<path d="M18.5652 88.3266L16.4902 87.4492L15.607 89.5287L17.682 90.4061L18.5652 88.3266Z" fill="#F5B82E"/>
<line x1="8.67222" y1="79.0661" x2="11.2896" y2="76.9973" stroke="#414168" stroke-width="0.8" stroke-linecap="round" stroke-linejoin="round"/>
</svg>
