<svg width="60" height="60" viewBox="0 0 60 60" fill="none" xmlns="http://www.w3.org/2000/svg">
<path d="M32.2222 47.7778C31.8835 48.4537 31.3973 49.0147 30.8123 49.4047C30.2273 49.7947 29.564 50 28.8889 50C28.2138 50 27.5505 49.7947 26.9655 49.4047C26.3805 49.0147 25.8943 48.4537 25.5556 47.7778M43.3333 32.2222C41.7698 28.6031 41.0243 24.8623 41.1191 21.1111M18.4317 18.8889C18.1008 19.9384 17.9339 21.0308 17.9365 22.1291C17.9365 35.1645 12.2222 38.8889 12.2222 38.8889H38.8889M41.1111 21.1111C41.1142 19.1012 40.5546 17.1283 39.4921 15.4031C38.4296 13.6778 36.9042 12.2651 35.0787 11.3157C33.2532 10.3664 31.1963 9.91604 29.1276 10.0129C27.0589 10.1097 25.0562 10.7501 23.3333 11.8656M10 10L50 50" stroke="#686F8C" stroke-width="1.5" stroke-linecap="round" stroke-linejoin="round"/>
</svg>
