<svg width="130" height="100" viewBox="0 0 130 100" fill="none" xmlns="http://www.w3.org/2000/svg">
<path d="M50.3511 73.5209L42.9863 77.7666L49.4667 88.9735L56.8315 84.7278L50.3511 73.5209Z" fill="#A787FF"/>
<path d="M38.5005 54.0687L31.1357 58.3145L34.2811 63.7539L41.6459 59.5082L38.5005 54.0687Z" fill="#A787FF"/>
<path d="M11.8755 86.286C15.1411 83.7046 18.4408 81.2251 21.8086 78.8136C23.2373 77.7946 24.6661 76.7077 26.1968 75.8246C27.2174 75.2132 28.5781 74.432 28.6801 73.1073C28.7482 72.3601 28.6461 71.5449 28.6461 70.7976C28.6461 69.9485 28.6801 69.0994 28.7482 68.2502C28.9182 66.6878 29.3605 65.0574 30.449 63.8686C31.5716 62.6119 33.2045 61.8986 34.8033 61.4571C35.6537 61.2193 36.6062 60.9476 37.5247 61.0834C38.2731 61.1853 38.8854 61.6269 39.3276 62.2383C39.8039 62.9176 40.11 63.7328 40.4162 64.514C40.7564 65.3971 41.1646 66.2802 41.6408 67.0954C42.6273 68.7937 43.886 70.3221 45.3487 71.6128C45.3487 71.3751 45.3487 71.1373 45.3487 70.8995C44.1241 72.0204 42.015 70.7977 40.8924 70.0844C39.3616 69.1333 38.035 67.8766 36.9804 66.4161C36.6062 65.9066 35.7218 66.3821 36.096 66.9256C36.8784 68.0804 37.4567 69.3711 37.8308 70.7297C38.171 71.9525 38.5792 73.5828 37.8989 74.7377C37.2525 75.8246 35.9939 76.6398 34.9734 77.353C33.8168 78.1343 32.5921 78.7796 31.2995 79.3231C30.6872 79.5608 30.9593 80.5458 31.5716 80.3081C33.0004 79.7306 34.327 79.0174 35.5857 78.1682C36.7423 77.387 38.137 76.436 38.8174 75.1792C39.5317 73.8206 39.2256 72.1223 38.8514 70.7297C38.4772 69.2352 37.8308 67.7747 36.9804 66.484C36.6742 66.6538 36.4021 66.8237 36.096 66.9935C37.3546 68.6918 38.9194 70.1523 40.7564 71.2392C42.2871 72.1563 44.5323 73.1073 46.0971 71.6808C46.3012 71.5109 46.3012 71.1373 46.0971 70.9675C44.7364 69.7787 43.5798 68.3861 42.6613 66.8576C42.2191 66.0764 41.8109 65.2612 41.4707 64.4461C41.1986 63.7328 40.9264 62.9855 40.5522 62.3062C40.1781 61.6609 39.7358 61.0495 39.0895 60.6419C38.3411 60.1664 37.4226 60.0305 36.5722 60.1324C34.8373 60.3022 33.0004 60.9476 31.5036 61.8307C30.0408 62.7138 28.9523 64.0385 28.3399 65.6688C27.7617 67.2312 27.6596 68.9635 27.6596 70.6278C27.6596 71.443 27.7616 72.3261 27.6936 73.1413C27.6256 73.7187 27.1153 74.1603 26.6731 74.466C26.1288 74.8396 25.5505 75.1453 24.9722 75.4849C24.1558 75.9944 23.3734 76.5718 22.625 77.1153C18.747 79.8665 14.937 82.7196 11.1951 85.6747C10.6508 85.9464 11.3652 86.6597 11.8755 86.286Z" fill="#414168"/>
<path d="M39.4973 60.9809C41.2662 59.5204 43.7835 58.7052 45.9607 59.6902C46.8111 60.0639 48.1718 61.0149 48.0698 62.1018C47.9677 63.0868 46.4369 63.5284 45.6885 63.868C44.3278 64.4794 42.9671 65.1587 41.6064 65.7701C40.9941 66.0418 41.5384 66.9249 42.1167 66.6532C43.5454 66.0079 44.9742 65.3286 46.4369 64.6492C47.5255 64.1397 48.9202 63.5963 49.0903 62.2377C49.2604 60.913 48.0698 59.7242 47.0152 59.1128C45.8586 58.4335 44.4639 58.1618 43.1372 58.2976C41.5044 58.5014 40.0416 59.2487 38.783 60.2677C38.2727 60.6752 38.9871 61.3885 39.4973 60.9809Z" fill="#414168"/>
<path d="M48.5803 63.3247C48.5123 63.4605 48.4442 63.3247 48.5803 63.3926C48.6143 63.4266 48.7164 63.4266 48.7504 63.4266C48.9205 63.4605 49.0906 63.5624 49.2607 63.6643C49.6348 63.8681 49.941 64.2078 50.1451 64.5474C50.6554 65.3286 50.5873 66.2457 49.907 66.925C49.2266 67.6044 48.3082 67.978 47.4917 68.3856C46.5393 68.8271 45.5868 69.3026 44.6343 69.7442C44.056 70.0159 44.5662 70.899 45.1445 70.6273C46.097 70.1858 47.0155 69.7442 47.968 69.3026C48.8184 68.8951 49.7029 68.5214 50.4513 67.8761C51.1316 67.2647 51.6079 66.4155 51.5398 65.4645C51.4378 64.4795 50.8595 63.5964 50.0771 62.985C49.4988 62.5434 48.2061 62 47.7299 62.8491C47.3897 63.3926 48.2741 63.9021 48.5803 63.3247Z" fill="#414168"/>
<path d="M50.5524 67.6387C50.9606 67.3331 51.6409 67.7067 52.0151 67.9784C52.5594 68.386 52.9336 69.0313 52.8315 69.6767C52.5934 71.0353 51.4368 72.1562 50.3823 72.9374C49.1576 73.8545 47.7969 74.6697 46.3342 75.0773C45.5858 75.2811 44.7694 75.349 43.987 75.2131C43.5107 75.1112 43.3066 75.0433 43.4767 74.6017C43.8169 73.7526 44.6333 73.1412 45.1776 72.4279C45.5858 71.9184 44.7013 71.409 44.2931 71.9184C43.7148 72.6657 42.6603 73.4809 42.4222 74.5678C42.014 76.4359 44.6673 76.4359 45.8239 76.2321C47.7969 75.9264 49.5658 74.8395 51.1307 73.6507C52.4233 72.6657 53.8861 71.1033 53.8861 69.371C53.8861 68.42 53.2057 67.5369 52.4573 67.0274C51.811 66.6198 50.7565 66.2462 50.0761 66.7556C49.4978 67.1293 50.0081 68.0463 50.5524 67.6387Z" fill="#414168"/>
<path d="M53.1725 71.7826C53.1725 71.7146 53.2405 71.5788 53.2405 71.5109C53.2065 71.409 53.0024 71.5788 53.1045 71.6467C53.1385 71.6807 53.2405 71.6807 53.2745 71.7146C53.5807 71.8165 53.8528 72.0543 54.0229 72.326C54.3631 72.8355 54.3971 73.5148 54.2611 74.0922C53.9549 75.3829 52.8663 76.3 51.8118 76.9793C50.7232 77.6926 49.4646 78.1681 48.1719 78.338C47.7297 78.4059 45.2804 78.6437 45.6546 77.6247C45.8247 77.1831 46.2669 76.8435 46.6071 76.5717C46.9473 76.2661 47.3555 76.0283 47.6957 75.7566C48.2059 75.349 47.6957 74.4659 47.1854 74.8735C46.301 75.5528 45.0423 76.2321 44.6681 77.3869C44.464 77.9983 44.7021 78.5757 45.1784 78.9494C45.8927 79.4928 46.8793 79.4928 47.7297 79.4249C49.4986 79.289 51.1995 78.6776 52.6622 77.6587C54.0569 76.6736 55.4176 75.2471 55.3836 73.4129C55.3496 72.4619 54.9414 71.5448 54.159 71.0014C53.8188 70.7636 53.2405 70.5258 52.8323 70.6277C52.4241 70.7296 52.288 71.1372 52.22 71.5109C52.186 71.7826 52.288 72.0543 52.5602 72.1222C52.7643 72.2241 53.1045 72.0543 53.1725 71.7826Z" fill="#414168"/>
<path d="M45.1782 83.1601C43.2732 84.4508 40.926 83.5337 39.1231 82.5827C38.3066 82.1411 37.3882 81.4958 36.4017 81.5977C35.6533 81.6656 35.109 82.1751 34.5647 82.6846C32.8298 84.3829 30.8568 85.8773 29.0198 87.4398C27.0808 89.0701 25.1418 90.6665 23.2028 92.2969C20.9577 94.165 18.6785 96.0331 16.4334 97.9012C15.9231 98.3088 16.6375 99.0221 17.1477 98.6145C21.1278 95.3538 25.0738 92.0931 28.9858 88.7984C30.8908 87.202 32.8298 85.6396 34.7008 84.0092C35.0069 83.7375 35.3131 83.4318 35.6193 83.1261C35.8234 82.9223 36.0955 82.6846 36.4017 82.6166C36.7418 82.5487 37.116 82.6846 37.3882 82.8204C37.9665 83.0582 38.4767 83.3978 39.021 83.6696C41.0621 84.6885 43.6474 85.4358 45.6884 84.0432C46.2327 83.6696 45.7225 82.7865 45.1782 83.1601Z" fill="#414168"/>
<path d="M32.709 48.8994L48.8673 12.9297L72.2034 49.375L32.709 48.8994Z" fill="#A787FF"/>
<path d="M100.738 39.6259L102.107 37.2393L99.7211 35.8505L98.3512 38.2371L100.738 39.6259Z" stroke="#414168" stroke-width="0.8"/>
<path d="M98.0869 15.7678L103.528 10.861L105.03 18.0003L98.0869 15.7678Z" stroke="#414168" stroke-width="0.8"/>
<path d="M84.7421 7.55412C85.5645 7.55412 86.2312 6.88771 86.2312 6.06564C86.2312 5.24357 85.5645 4.57715 84.7421 4.57715C83.9196 4.57715 83.2529 5.24357 83.2529 6.06564C83.2529 6.88771 83.9196 7.55412 84.7421 7.55412Z" stroke="#414168" stroke-width="0.8"/>
<rect x="74.626" y="9.00781" width="4.61933" height="4.61933" transform="rotate(-15 74.626 9.00781)" fill="#41CADD"/>
<path d="M101.319 56.3901L96.2972 54.6421L100.322 51.1671L101.319 56.3901Z" fill="#20A4F3"/>
<circle cx="86.9451" cy="26.6014" r="1.53497" fill="#F685A1"/>
<path d="M57.7275 18.7496C59.0492 15.4938 60.7899 12.3992 62.853 9.59466C63.2076 9.07889 62.3695 8.59536 62.0149 9.11113C59.8873 12.0123 58.1466 15.1714 56.7927 18.4917C56.567 19.072 57.5019 19.3298 57.7275 18.7496Z" fill="#414168"/>
<path d="M63.6914 27.872C65.5288 26.4859 67.4629 25.2287 69.4938 24.1327C70.0418 23.8425 69.5582 23.0044 69.0102 23.2945C66.9794 24.3905 65.0453 25.6477 63.2078 27.0339C63.0144 27.195 62.8855 27.4529 63.0466 27.7108C63.1756 27.9042 63.4979 28.0332 63.6914 27.872Z" fill="#414168"/>
<path d="M68.624 39.7998C71.2351 38.9939 73.8784 38.3814 76.5862 38.0268C77.1987 37.9623 77.1987 36.9953 76.5862 37.0597C73.7817 37.4143 71.0417 38.0268 68.3661 38.8649C67.7859 39.0583 68.0438 39.9932 68.624 39.7998Z" fill="#414168"/>
<path d="M39.2425 33.9229L12.9248 49.0947L21.6503 64.1843L47.968 49.0124L39.2425 33.9229Z" fill="#414168"/>
<path d="M78.5 54L94 80.7241H63L78.5 54Z" fill="#F7AA50"/>
<path d="M78.181 63.9348C78.07 66.2286 78.0977 68.5362 78.2781 70.83C78.3336 71.4933 78.3891 72.1427 78.4724 72.806C78.5001 73.0685 78.9164 73.0685 78.8887 72.806C78.625 70.5122 78.514 68.2184 78.5418 65.9108C78.5556 65.2475 78.5695 64.5843 78.5973 63.9348C78.6111 63.6584 78.1949 63.6584 78.181 63.9348Z" fill="#121242" stroke="#121242" stroke-width="0.2"/>
<path d="M78.7776 74.3536C78.3336 74.5746 78.1254 75.1135 78.2364 75.5834C78.3336 76.0394 78.7637 76.3572 79.2355 76.3157C79.6796 76.2881 80.1236 76.0117 80.2763 75.5834C80.4289 75.155 80.1791 74.699 79.8045 74.4779C79.3882 74.243 78.7915 74.243 78.4723 74.6437C78.403 74.7266 78.3891 74.851 78.4723 74.9339C78.5417 75.003 78.6944 75.0168 78.7637 74.9339C78.7915 74.9063 78.8193 74.8786 78.847 74.851C78.8886 74.8095 78.8331 74.8648 78.8609 74.8372C78.8748 74.8234 78.9025 74.8095 78.9164 74.7957C78.9303 74.7819 78.9441 74.7819 78.958 74.7681C78.9858 74.7543 78.958 74.7681 78.9441 74.7681C78.958 74.7681 78.958 74.7543 78.9719 74.7543C79.0135 74.7405 79.0552 74.7266 79.0829 74.7266C79.0968 74.7266 79.1245 74.7266 79.069 74.7266C79.0829 74.7266 79.0829 74.7266 79.0968 74.7266C79.1107 74.7266 79.1384 74.7266 79.1523 74.7266C79.1939 74.7266 79.2355 74.7266 79.2772 74.7266C79.3049 74.7266 79.2355 74.7128 79.2633 74.7266C79.2772 74.7266 79.2772 74.7266 79.2911 74.7266C79.3049 74.7266 79.3327 74.7405 79.3466 74.7405C79.3882 74.7543 79.4298 74.7681 79.4714 74.7819C79.4992 74.7957 79.4437 74.7681 79.4853 74.7819C79.4992 74.7957 79.527 74.7957 79.5408 74.8095C79.5825 74.8234 79.6102 74.851 79.6518 74.8786C79.6935 74.9063 79.638 74.8648 79.6657 74.8925C79.6796 74.9063 79.6935 74.9201 79.7073 74.9339C79.7212 74.9477 79.7351 74.9615 79.749 74.9754C79.7628 74.9892 79.7906 75.0445 79.7629 75.003C79.7767 75.0306 79.8045 75.0583 79.8184 75.0859C79.8322 75.0997 79.8461 75.155 79.8322 75.0997C79.8322 75.1135 79.8461 75.1412 79.8461 75.155C79.8461 75.1688 79.86 75.1965 79.86 75.2103C79.8739 75.2517 79.86 75.1826 79.86 75.2241C79.86 75.2517 79.86 75.2655 79.86 75.2932C79.86 75.307 79.8461 75.3761 79.86 75.3208C79.86 75.3623 79.8461 75.3899 79.8322 75.4314C79.8322 75.4452 79.8045 75.5005 79.8184 75.459C79.8045 75.4728 79.8045 75.5005 79.7906 75.5143C79.7767 75.5281 79.7629 75.5557 79.7629 75.5695C79.7629 75.5834 79.749 75.5834 79.749 75.5972C79.749 75.5972 79.7767 75.5695 79.7629 75.5834C79.7351 75.611 79.7073 75.6524 79.6796 75.6801C79.6657 75.6939 79.6518 75.7077 79.638 75.7215C79.6241 75.7354 79.6518 75.7077 79.6518 75.7077C79.638 75.7077 79.638 75.7215 79.6241 75.7215C79.5825 75.7492 79.5547 75.763 79.5131 75.7906C79.4992 75.8044 79.4714 75.8044 79.4576 75.8183C79.4992 75.8044 79.4576 75.8183 79.4437 75.8183C79.4021 75.8321 79.3604 75.8459 79.3188 75.8597C79.3049 75.8597 79.2772 75.8735 79.2633 75.8735C79.2217 75.8874 79.2633 75.8735 79.2772 75.8735C79.2633 75.8735 79.2494 75.8735 79.2494 75.8735C79.2078 75.8735 79.1662 75.8735 79.1245 75.8735C79.1107 75.8735 79.0552 75.8735 79.0829 75.8735C79.1107 75.8735 79.0552 75.8735 79.0413 75.8597C79.0274 75.8597 78.9996 75.8459 78.9858 75.8459C78.9719 75.8459 78.9719 75.8459 78.958 75.8321C78.958 75.8321 78.9164 75.8183 78.9441 75.8321C78.9719 75.8459 78.9164 75.8183 78.9164 75.8183C78.9025 75.8044 78.8748 75.8044 78.8609 75.7906C78.847 75.7906 78.8054 75.7492 78.8331 75.763C78.8609 75.7768 78.8331 75.763 78.8193 75.7492C78.8054 75.7354 78.8054 75.7354 78.7915 75.7215C78.7776 75.7077 78.7637 75.6939 78.7499 75.6801C78.736 75.6524 78.7637 75.7077 78.7499 75.6801C78.7499 75.6663 78.736 75.6663 78.736 75.6525C78.7221 75.6386 78.7082 75.611 78.6944 75.5972C78.6805 75.5834 78.6666 75.5281 78.6805 75.5695C78.6666 75.5143 78.6527 75.4728 78.6389 75.4175C78.6389 75.4037 78.6389 75.3899 78.6389 75.3761C78.6389 75.3899 78.6389 75.4037 78.6389 75.3761C78.6389 75.3485 78.6389 75.3208 78.6389 75.2932C78.6389 75.2655 78.6389 75.2379 78.6389 75.2103C78.6389 75.1965 78.6527 75.1412 78.6389 75.1826C78.6527 75.1274 78.6666 75.0721 78.6805 75.0306C78.6805 75.0168 78.7082 74.9615 78.6944 75.003C78.7082 74.9754 78.7221 74.9615 78.736 74.9339C78.7499 74.9063 78.7637 74.8925 78.7776 74.8648C78.7776 74.851 78.7915 74.851 78.7915 74.8372C78.7776 74.851 78.7776 74.851 78.7915 74.8372C78.8193 74.7957 78.8609 74.7543 78.9025 74.7266C78.8748 74.7543 78.9164 74.7128 78.9303 74.7128C78.958 74.699 78.9858 74.6852 79.0135 74.6714C79.1107 74.6161 79.1384 74.4779 79.0829 74.3812C78.9996 74.3259 78.8748 74.2983 78.7776 74.3536Z" fill="#121242" stroke="#121242" stroke-width="0.2"/>
</svg>
