<svg width="639" height="1080" viewBox="0 0 639 1080" fill="none" xmlns="http://www.w3.org/2000/svg">
<mask id="mask0" mask-type="alpha" maskUnits="userSpaceOnUse" x="0" y="0" width="639" height="1081">
<rect width="639" height="1081" fill="white"/>
</mask>
<g mask="url(#mask0)">
<rect width="639" height="1081" fill="white"/>
<path opacity="0.5" d="M197.534 -545.276C167.682 -553.636 142.012 -529.16 106.194 -489.76C89.4791 -470.657 -114.087 -234.85 -118.863 -239.626C-10.2 -130.963 26.2284 34.4121 -25.7024 178.289C-110.463 411.118 -447.172 510.201 -641.808 359.741C-687.78 324.514 -693.153 319.141 -739.718 359.734C-771.358 386.598 -794.639 423.014 -823.891 452.266C-876.424 505.994 -927.167 561.513 -971.939 623.002C-894.314 824.797 -583.863 895.265 -393.416 893.486C-258.491 892.301 -104.466 833.804 13.7388 770.528C130.749 708.446 232.236 627.259 306.259 517.413C471.018 272.649 495.475 -49.1394 371.279 -316.609C339.633 -384.074 299.629 -449.151 250.67 -505.273C230.37 -529.155 213.056 -541.693 197.534 -545.276Z" stroke="#F4F4F7" stroke-width="2" stroke-miterlimit="10"/>
<path d="M-226 891.164L-97.5149 965.345C-61.3315 902.673 18.7389 881.348 81.0637 917.331C143.628 953.453 164.956 1033.32 128.772 1095.99L257.257 1170.17C334.476 1036.43 288.89 865.714 155.371 788.626C21.8525 711.539 -148.781 757.416 -226 891.164Z" fill="#F4F4F7"/>
<path d="M187.858 1038.43L188.152 957.349H185.219C141.233 957.349 105.164 993.482 105.164 1038.13L187.858 1038.43Z" fill="#41CADD"/>
<path d="M-31.3116 930.698C-59.9537 930.818 -88.5959 930.999 -117.318 931.3C-131.72 931.481 -146.041 931.661 -160.443 931.902C-166.155 932.022 -171.948 932.143 -177.66 932.624C-180.798 932.925 -185.625 932.985 -188.2 934.611C-188.924 935.092 -189.407 935.754 -189.004 936.477C-188.924 936.537 -188.924 936.657 -188.843 936.717C-189.567 936.477 -190.613 936.717 -190.533 937.5C-187.315 961.577 -184.096 985.774 -180.878 1009.91C-180.798 1010.39 -180.396 1010.81 -179.671 1010.81C-143.627 1011.11 -107.503 1011.48 -71.4588 1011.84C-35.6562 1012.2 0.146515 1012.5 35.9492 1012.86C71.9932 1013.22 108.118 1013.52 144.162 1013.88C162.103 1014.06 179.964 1014.24 197.906 1014.37C202.492 1014.43 207.078 1014.43 211.664 1014.49C215.284 1014.55 218.985 1014.67 222.525 1014.24C224.778 1014 227.272 1013.52 227.835 1011.66C228.64 1008.53 228.801 1005.16 229.203 1001.91C230.491 991.372 231.215 980.778 231.054 970.184C230.973 960.313 230.249 950.381 229.605 940.509C229.445 937.801 229.203 935.092 229.042 932.383C229.042 931.902 228.479 931.481 227.835 931.481C199.032 931.3 170.149 931.119 141.346 930.999C112.623 930.879 83.9006 930.758 55.2585 930.698C26.375 930.578 -2.42806 930.578 -31.3116 930.698ZM227.755 992.154C227.272 997.993 226.548 1003.89 225.663 1009.73C225.583 1010.45 225.663 1011.3 224.939 1011.78C224.376 1012.14 223.169 1012.26 222.445 1012.32C220.594 1012.56 218.744 1012.62 216.894 1012.62C212.629 1012.68 208.446 1012.56 204.182 1012.5C186.562 1012.32 168.942 1012.2 151.322 1012.02C115.922 1011.72 80.5215 1011.36 45.1211 1011.05C9.88162 1010.75 -25.3578 1010.39 -60.5974 1010.09C-95.8368 1009.79 -131.076 1009.43 -166.396 1009.13C-170.419 1009.07 -174.522 1009.07 -178.626 1009.01C-181.763 985.172 -184.901 961.276 -188.119 937.44C-188.119 937.259 -188.2 937.078 -188.361 936.958C-187.476 937.259 -186.269 936.777 -186.671 935.995C-186.591 935.935 -186.43 935.814 -186.269 935.814C-185.545 935.634 -184.901 935.393 -184.096 935.273C-181.844 934.851 -179.511 934.611 -177.258 934.43C-171.787 933.948 -166.235 933.828 -160.764 933.708C-146.765 933.467 -132.846 933.286 -118.847 933.166C-90.8486 932.865 -62.9306 932.624 -34.9321 932.564C-6.93357 932.444 21.0649 932.444 49.0634 932.444C77.2228 932.504 105.382 932.564 133.542 932.745C161.54 932.865 189.539 933.046 217.537 933.226C220.594 933.226 223.732 933.286 226.79 933.286C227.996 952.849 229.525 972.471 227.755 992.154Z" fill="#414168"/>
</g>
</svg>
