<svg width="640" height="1080" viewBox="0 0 640 1080" fill="none" xmlns="http://www.w3.org/2000/svg">
<rect width="639" height="1081" fill="white"/>
<path d="M639.029 670.388C638.95 323.483 358.435 36.683 -0.122497 0.073364L0.124139 1081.07L639.124 1080.93L639.034 690.401C639.032 683.73 639.031 677.059 639.029 670.388Z" fill="#121242"/>
<path d="M639.435 156L640 0L634.346 0C549.541 0 480 69.5217 480 155.435L639.435 156Z" fill="#41CADD"/>
<path d="M415.5 845C292.066 845 192 950.215 192 1080L639 1080C639 950.215 538.934 845 415.5 845Z" fill="#A787FF"/>
<path d="M272.611 984.732C270.498 984.405 270.661 972.149 270.661 970.678C269.035 939.304 270.011 907.602 270.661 876.227C271.148 855.311 269.523 832.27 273.261 811.68C239.29 806.124 202.88 807.432 168.583 807.432C145.177 807.432 120.47 807.758 97.2261 811.027C93.4876 811.68 100.965 851.389 102.265 856.128C106.166 870.018 111.855 883.417 119.332 895.837C151.028 949.272 210.682 984.895 272.611 984.732Z" stroke="white" stroke-width="4" stroke-miterlimit="10"/>
</svg>
