<svg width="768" height="132" viewBox="0 0 768 132" fill="none" xmlns="http://www.w3.org/2000/svg">
<mask id="mask0" mask-type="alpha" maskUnits="userSpaceOnUse" x="0" y="0" width="768" height="132">
<rect width="768" height="132" fill="white"/>
</mask>
<g mask="url(#mask0)">
<rect width="768" height="135" fill="white"/>
<path d="M915.044 37.8299L843.471 79.1526C823.315 44.2412 778.711 32.3619 743.993 52.4065C709.141 72.5282 697.261 117.018 717.417 151.93L645.844 193.252C602.829 118.748 628.223 23.6529 702.6 -19.2888C776.977 -62.2304 872.029 -36.6743 915.044 37.8299Z" fill="#F4F4F7"/>
<path d="M684.166 119L684 74H685.661C710.572 74 731 94.0543 731 118.837L684.166 119Z" fill="#41CADD"/>
<path d="M806.873 59.0516C822.905 59.1205 838.938 59.2237 855.015 59.3958C863.077 59.4991 871.093 59.6024 879.154 59.74C882.352 59.8089 885.594 59.8777 888.792 60.1531C890.548 60.3252 893.25 60.3596 894.692 61.2889C895.097 61.5643 895.367 61.9429 895.142 62.3559C895.097 62.3904 895.097 62.4592 895.052 62.4936C895.457 62.3559 896.043 62.4936 895.998 62.9411C894.196 76.7089 892.395 90.5457 890.593 104.348C890.548 104.623 890.323 104.864 889.918 104.864C869.742 105.036 849.521 105.243 829.345 105.449C809.305 105.656 789.264 105.828 769.223 106.035C749.047 106.241 728.826 106.413 708.651 106.62C698.608 106.723 688.61 106.826 678.567 106.895C676 106.929 673.433 106.929 670.866 106.964C668.839 106.998 666.768 107.067 664.786 106.826C663.525 106.689 662.129 106.413 661.814 105.346C661.363 103.556 661.273 101.629 661.048 99.7701C660.328 93.7467 659.922 87.6888 660.012 81.631C660.057 75.9861 660.463 70.3069 660.823 64.662C660.913 63.1132 661.048 61.5643 661.138 60.0154C661.138 59.74 661.454 59.4991 661.814 59.4991C677.936 59.3958 694.104 59.2926 710.227 59.2237C726.304 59.1549 742.382 59.0861 758.415 59.0516C774.582 58.9828 790.705 58.9828 806.873 59.0516ZM661.859 94.1942C662.129 97.5329 662.534 100.906 663.03 104.245C663.075 104.658 663.03 105.14 663.435 105.415C663.75 105.621 664.426 105.69 664.831 105.725C665.867 105.862 666.903 105.897 667.939 105.897C670.326 105.931 672.667 105.862 675.054 105.828C684.917 105.725 694.78 105.656 704.642 105.553C724.458 105.381 744.274 105.174 764.089 105.002C783.815 104.83 803.54 104.623 823.265 104.451C842.991 104.279 862.716 104.073 882.487 103.901C884.739 103.866 887.036 103.866 889.332 103.832C891.089 90.2015 892.845 76.5368 894.646 62.9066C894.646 62.8034 894.692 62.7001 894.782 62.6313C894.286 62.8034 893.611 62.528 893.836 62.0806C893.791 62.0462 893.701 61.9773 893.611 61.9773C893.205 61.8741 892.845 61.7364 892.395 61.6675C891.134 61.4266 889.828 61.2889 888.567 61.1857C885.504 60.9103 882.397 60.8415 879.334 60.7726C871.498 60.6349 863.707 60.5317 855.871 60.4628C840.199 60.2907 824.572 60.1531 808.899 60.1186C793.227 60.0498 777.555 60.0498 761.882 60.0498C746.12 60.0842 730.358 60.1186 714.595 60.2219C698.923 60.2907 683.251 60.394 667.578 60.4973C665.867 60.4973 664.111 60.5317 662.399 60.5317C661.724 71.7181 660.868 82.9389 661.859 94.1942Z" fill="#414168"/>
</g>
</svg>
