<svg width="20" height="21" viewBox="0 0 20 21" fill="none" xmlns="http://www.w3.org/2000/svg">
<path d="M10.001 20.0236C4.74983 20.0236 0.477539 15.7517 0.477539 10.5003C0.477539 5.24894 4.74983 0.977051 10.001 0.977051C15.2522 0.977051 19.5245 5.24934 19.5245 10.5005C19.5245 15.7517 15.2522 20.0236 10.001 20.0236Z" fill="#85EA2D"/>
<path d="M10 1.45329C14.9965 1.45329 19.0467 5.5035 19.0467 10.5C19.0467 15.4963 14.9965 19.5467 10 19.5467C5.0037 19.5467 0.953285 15.4963 0.953285 10.5C0.953285 5.5037 5.0037 1.45329 10 1.45329ZM10 0.5C4.48598 0.5 0 4.98598 0 10.5C0 16.014 4.48598 20.5 10 20.5C15.514 20.5 20.0002 16.014 20.0002 10.5C20.0002 4.98598 15.514 0.5 10 0.5Z" fill="#173647"/>
<path d="M6.29602 7.26715C6.26524 7.60936 6.30742 7.96317 6.28463 8.30918C6.25764 8.6554 6.21527 8.99761 6.1461 9.33983C6.04996 9.82816 5.74612 10.1974 5.32715 10.505C6.14251 11.0357 6.23466 11.8585 6.28843 12.693C6.31541 13.143 6.30382 13.5967 6.34999 14.0427C6.38457 14.3887 6.5191 14.4773 6.87691 14.4886C7.02303 14.4924 7.17275 14.4886 7.34226 14.4886V15.5577C6.28483 15.7384 5.4119 15.4385 5.19642 14.5426C5.12705 14.2158 5.08088 13.8812 5.06569 13.5428C5.0425 13.1851 5.08088 12.8275 5.05409 12.4699C4.97713 11.4893 4.8502 11.1586 3.91211 11.1125V9.89353C3.98127 9.87814 4.04664 9.86654 4.1158 9.85895C4.63112 9.83196 4.8502 9.67424 4.96174 9.16672C5.01571 8.88227 5.0465 8.59383 5.05789 8.30159C5.09647 7.74409 5.08108 7.175 5.17703 6.62129C5.31155 5.82532 5.80389 5.44073 6.62305 5.39456C6.85372 5.38296 7.08839 5.39456 7.35365 5.39456V6.48677C7.24211 6.49456 7.14596 6.50975 7.04602 6.50975C6.38078 6.48657 6.346 6.71344 6.29602 7.26715ZM7.57653 9.79738H7.56114C7.17655 9.77819 6.84593 10.078 6.82654 10.4626C6.80735 10.851 7.10718 11.1818 7.49178 11.2008H7.53795C7.91875 11.224 8.24537 10.9316 8.26856 10.551V10.5126C8.27635 10.1242 7.96492 9.80517 7.57653 9.79738ZM9.98763 9.79738C9.61463 9.78579 9.303 10.078 9.2916 10.4472C9.2916 10.4704 9.2916 10.4896 9.2956 10.5126C9.2956 10.9318 9.58005 11.201 10.0108 11.201C10.4338 11.201 10.6992 10.9242 10.6992 10.4896C10.6952 10.0704 10.4144 9.79358 9.98763 9.79738ZM12.4565 9.79738C12.0643 9.78958 11.7373 10.1012 11.7259 10.4934C11.7259 10.8856 12.0411 11.2008 12.4333 11.2008H12.4411C12.7949 11.2624 13.1525 10.9202 13.1757 10.5088C13.1947 10.128 12.8487 9.79738 12.4565 9.79738ZM15.8443 9.85495C15.3981 9.83576 15.175 9.68584 15.0637 9.26267C14.9943 8.99361 14.9521 8.71276 14.9368 8.43591C14.906 7.92059 14.9098 7.40147 14.8752 6.88615C14.7944 5.66341 13.9101 5.23664 12.6256 5.44793V6.50935C12.8293 6.50935 12.987 6.50936 13.1447 6.51315C13.4178 6.51695 13.6255 6.62089 13.6522 6.92473C13.6792 7.20158 13.6792 7.48223 13.7062 7.76308C13.7602 8.32078 13.7908 8.88587 13.8869 9.43577C13.9717 9.88953 14.2831 10.2279 14.6713 10.5048C13.9909 10.9623 13.7908 11.616 13.7562 12.3506C13.737 12.8543 13.7254 13.3619 13.6986 13.8696C13.6754 14.3309 13.5141 14.4808 13.0488 14.4924C12.918 14.4962 12.7911 14.5078 12.645 14.5156V15.6038C12.918 15.6038 13.1679 15.6192 13.4178 15.6038C14.1946 15.5577 14.6637 15.1809 14.8176 14.4271C14.883 14.0117 14.9214 13.5927 14.933 13.1736C14.9597 12.789 14.9561 12.4006 14.9945 12.02C15.0521 11.4239 15.3251 11.1778 15.9212 11.1395C15.979 11.1317 16.0328 11.1203 16.0867 11.1011V9.88193C15.9866 9.87034 15.9172 9.85895 15.8443 9.85495Z" fill="#173647"/>
</svg>
