<svg width="150" height="150" viewBox="0 0 150 150" fill="none" xmlns="http://www.w3.org/2000/svg">
<path d="M129.787 36.2096C135.053 34.7985 140.521 38.1286 142 43.6474L122.93 48.7574C121.451 43.2386 124.521 37.6207 129.787 36.2096Z" fill="#F685A1"/>
<path d="M120.497 109.6C119.503 110.593 119.503 112.203 120.496 113.196C121.488 114.188 123.098 114.188 124.091 113.195C125.085 112.202 125.085 110.592 124.092 109.599C123.1 108.607 121.49 108.607 120.497 109.6Z" fill="#31C587"/>
<path d="M20.3209 33.7125C18.3153 35.7181 18.3145 38.9691 20.3192 40.9738C22.3239 42.9784 25.5749 42.9777 27.5805 40.9721C29.5861 38.9665 29.5868 35.7156 27.5821 33.7109C25.5774 31.7062 22.3264 31.7069 20.3209 33.7125Z" fill="#7950ED"/>
<path d="M10.4282 75.4639C9.58167 74.6174 9.58175 73.2442 10.4291 72.3969C11.2764 71.5496 12.6495 71.5495 13.4961 72.3961C14.3427 73.2426 14.3426 74.6158 13.4953 75.4631C12.648 76.3104 11.2748 76.3105 10.4282 75.4639Z" stroke="#414168"/>
<path d="M116.256 74.7464C115.311 73.8015 115.309 72.2782 116.244 71.3438C117.178 70.4095 118.701 70.411 119.646 71.3559C120.591 72.3008 120.592 73.8242 119.658 74.7585C118.724 75.6928 117.2 75.6913 116.256 74.7464Z" stroke="#414168"/>
<path d="M90.0652 130.984C89.4997 130.419 89.5001 129.509 90.0572 128.952C90.6144 128.394 91.5244 128.394 92.0899 128.96C92.6554 129.525 92.6551 130.435 92.0979 130.992C91.5408 131.549 90.6307 131.55 90.0652 130.984Z" stroke="#414168"/>
<path d="M81.4724 26.0526L85.5078 24.4156L83.8726 20.366L79.8372 22.0029L81.4724 26.0526Z" fill="#41CADD"/>
<path d="M11.8315 111.681L14.458 116.343L19.1339 113.679L16.5074 109.016L11.8315 111.681Z" fill="#144BC1"/>
<path d="M80.5806 123.706L70.8653 132.56L67.9906 119.738L80.5806 123.706Z" fill="#FFBD70"/>
<line x1="106.859" y1="20.6836" x2="100.868" y2="27.9699" stroke="#414168"/>
<line y1="-0.5" x2="9.40838" y2="-0.5" transform="matrix(-0.635241 -0.772314 0.772315 -0.63524 104.03 119.926)" stroke="#414168"/>
<line x1="25.6679" y1="59.7845" x2="33.0283" y2="68.6474" stroke="#414168"/>
<line x1="41.8784" y1="120.34" x2="36.3965" y2="127.449" stroke="#414168"/>
<line y1="-0.5" x2="9.40838" y2="-0.5" transform="matrix(-0.866025 -0.5 0.500001 -0.866025 126.844 93.0759)" stroke="#414168"/>
<path d="M40.3242 17.4808L45.4881 21.7069L39.2512 24.0344L40.3242 17.4808Z" stroke="#414168"/>
<path d="M47.0498 44.1612C48.864 44.0773 50.6439 44.0438 52.3896 43.9096C61.1525 43.2554 69.419 40.9908 76.9153 36.3778C77.4287 36.059 77.7539 36.0926 78.2502 36.3945C84.6854 40.3198 91.7196 42.5844 99.1989 43.5238C101.852 43.8592 104.556 43.9263 107.243 44.1109C107.414 44.1276 107.585 44.1276 107.876 44.1444C107.962 45.6038 108.099 47.0464 108.15 48.489C108.304 53.8569 108.099 59.208 107.226 64.5088C106.113 71.2354 104.248 77.7105 100.945 83.7493C96.991 90.9792 91.4116 96.6322 83.9837 100.423C82.0497 101.413 79.9617 102.101 77.9422 102.889C77.7368 102.973 77.463 102.956 77.2576 102.872C67.1084 98.88 58.9789 92.6063 53.9471 82.9106C51.7906 78.8008 50.4214 74.3891 49.4459 69.8767C48.3505 64.7437 47.7857 59.5603 47.4777 54.3266C47.2894 51.1394 47.1867 47.9523 47.0498 44.7483C47.0498 44.547 47.0498 44.3457 47.0498 44.1612Z" fill="#A787FF"/>
<path d="M85.839 61.7301C85.8016 60.4689 85.7643 59.1892 85.727 57.928C85.6896 56.7409 85.671 55.5725 85.5776 54.3854C85.391 52.1969 84.8497 50.0268 83.4684 48.2834C82.2364 46.7254 80.3698 45.7981 78.3539 45.8722C76.3753 45.9464 74.4527 46.8552 73.1834 48.3947C71.7648 50.1381 71.1302 52.438 71.3729 54.6636C71.4102 54.9604 71.6155 55.2201 71.9328 55.2201C72.2128 55.2201 72.5301 54.9604 72.4928 54.6636C72.3062 52.8831 72.6608 51.084 73.6874 49.5817C74.6394 48.1721 76.1887 47.2262 77.8313 47.0222C78.6899 46.9109 79.5112 47.0036 80.3325 47.2818C81.1165 47.56 81.8258 48.0979 82.3858 48.7471C83.655 50.1752 84.1964 52.1041 84.4017 53.9588C84.5323 55.2201 84.551 56.4813 84.5883 57.7425C84.6257 59.0779 84.663 60.3947 84.7003 61.7301C84.7377 62.4349 85.8576 62.4349 85.839 61.7301Z" fill="white"/>
<path d="M78.7253 65.9775C77.1013 64.7163 74.8987 66.1815 74.0774 67.7024C73.1815 69.3716 73.4801 71.3376 74.6934 72.7472C75.944 74.1939 78.0346 74.6762 79.8265 74.0455C80.7598 73.7302 81.5811 73.1553 82.1411 72.3392C82.7384 71.4489 82.8131 70.3732 82.5891 69.3531C82.3465 68.2959 81.8238 67.1831 81.0958 66.3855C80.3492 65.5695 79.1172 65.0501 78.0346 65.4582C77.7546 65.5695 77.5493 65.8291 77.6426 66.1444C77.7173 66.4226 78.0533 66.6452 78.3333 66.5339C79.8639 65.9775 80.9278 67.8322 81.3385 69.0378C81.5998 69.7797 81.7491 70.6143 81.4318 71.3562C81.1518 72.0239 80.5732 72.5061 79.9572 72.8214C78.7066 73.452 77.0827 73.3408 76 72.4505C75.4774 72.0239 75.0667 71.4489 74.8614 70.8183C74.6374 70.1692 74.6187 69.52 74.8241 68.8709C75.0294 68.2032 75.4587 67.554 76.0187 67.146C76.5227 66.775 77.456 66.3484 77.9786 66.7565C78.2213 66.942 78.5386 66.979 78.7626 66.7565C78.9306 66.571 78.9679 66.163 78.7253 65.9775Z" fill="white"/>
<path d="M89.385 59.6343C83.2813 59.0593 77.1402 58.8553 70.9991 59.0408C69.2818 59.0964 67.5459 59.1706 65.8286 59.3005C65.5486 59.319 65.2313 59.5416 65.2686 59.8569C65.6233 63.0285 65.8659 66.2 66.0339 69.3902C66.1833 72.5617 66.2393 75.7333 66.2019 78.9049C66.1833 79.7024 66.1833 80.5 66.1459 81.2975C66.1273 81.9467 66.0713 82.5958 66.2206 83.2264C66.3513 83.8199 66.7246 84.3578 67.3219 84.5433C67.7139 84.6731 68.1432 84.5989 68.5352 84.5247C68.9272 84.4505 69.3191 84.3763 69.6925 84.3207C72.7723 83.8014 75.8896 83.4675 79.0068 83.3006C82.1613 83.1337 85.3159 83.1522 88.4704 83.3377C88.8624 83.3563 89.2544 83.3933 89.6464 83.4119C89.9264 83.4304 90.225 83.1337 90.2063 82.8555C89.9264 79.5726 89.8144 76.2897 89.833 73.0069C89.8517 71.3562 89.889 69.7055 89.9824 68.0548C90.0757 66.4782 90.225 64.9017 90.337 63.3252C90.4303 61.9898 90.281 60.4504 89.0491 59.6529C88.7877 59.4859 88.4331 59.5972 88.2838 59.8569C88.1344 60.1351 88.2278 60.4504 88.4891 60.6173C88.6571 60.7286 88.8064 60.877 88.8997 61.0439C89.0304 61.2665 89.0864 61.4148 89.1424 61.6931C89.2544 62.1753 89.2544 62.7502 89.2171 63.3067C89.1237 64.8275 88.9557 66.3484 88.8811 67.8878C88.7131 71.078 88.6757 74.2866 88.7691 77.4768C88.8251 79.2759 88.9371 81.0749 89.0864 82.874C89.2731 82.6885 89.4597 82.5031 89.6464 82.3176C86.5665 82.095 83.4866 82.0208 80.4067 82.1321C77.3082 82.2434 74.2096 82.5402 71.1484 82.9853C70.3831 83.0966 69.6178 83.2264 68.8525 83.3563C68.5165 83.4119 68.1619 83.5232 67.8259 83.5232C67.7512 83.5232 67.7139 83.5232 67.6392 83.5046C67.5459 83.4861 67.6392 83.5232 67.5645 83.4675C67.4899 83.4119 67.5832 83.4861 67.5085 83.4304C67.5085 83.4304 67.4525 83.3748 67.4899 83.4119C67.5272 83.449 67.4525 83.3748 67.4525 83.3563C67.3406 83.1893 67.2846 82.9668 67.2659 82.7627C67.2472 82.5587 67.2472 82.262 67.2472 82.0208C67.2659 81.2419 67.2846 80.4629 67.3032 79.6839C67.3592 76.568 67.3219 73.4706 67.1912 70.3546C67.0606 67.2387 66.8366 64.1413 66.5193 61.0439C66.4819 60.6544 66.4446 60.2835 66.3886 59.894C66.2019 60.0794 66.0153 60.2649 65.8286 60.4504C71.951 60.0423 78.0921 60.0238 84.2146 60.3947C85.9318 60.506 87.6678 60.6359 89.385 60.8028C89.6837 60.8399 89.945 60.5246 89.945 60.2464C89.945 59.8569 89.6837 59.6714 89.385 59.6343Z" fill="white"/>
<path d="M77.7567 73.9158C78.1114 75.5109 78.3354 77.1059 78.4287 78.7381C78.4474 79.0348 78.6714 79.2945 78.9887 79.2945C79.2873 79.2945 79.5673 79.0348 79.5487 78.7381C79.4553 77.0132 79.2127 75.3068 78.8393 73.619C78.7647 73.3223 78.4287 73.1554 78.1487 73.2296C77.85 73.3223 77.7007 73.6376 77.7567 73.9158Z" fill="white"/>
<rect x="25.1904" y="81.0854" width="52.2187" height="26.7165" rx="1" fill="#41CADD"/>
<path d="M49.5965 89.5066C52.7344 89.6272 55.864 89.597 59.0019 89.5066C62.1316 89.4161 65.2612 89.2955 68.3826 89.2654C70.1378 89.2654 71.893 89.2654 73.6483 89.3558C73.8056 89.3558 73.8056 88.4513 73.6483 88.4513C70.5104 88.3307 67.3807 88.3608 64.2428 88.4513C61.1132 88.5417 57.9836 88.6623 54.8622 88.6925C53.107 88.6925 51.3517 88.6925 49.5965 88.602C49.4392 88.602 49.4392 89.5066 49.5965 89.5066Z" fill="white"/>
<path d="M49.6013 99.3011C51.9369 99.1797 54.2726 99.119 56.6082 99.0583C58.9439 98.9975 61.2795 98.9976 63.6152 98.9976C64.9357 98.9976 66.2562 99.0279 67.5767 99.0583C67.7335 99.0583 67.7335 98.1475 67.5767 98.1475C65.2411 98.0868 62.9054 98.0868 60.5698 98.0868C58.2341 98.1171 55.8985 98.1475 53.5628 98.2386C52.2423 98.2689 50.9301 98.3296 49.6096 98.3904C49.4362 98.3904 49.4362 99.3011 49.6013 99.3011Z" fill="white"/>
<path d="M49.6019 94.2527C51.1518 94.4457 52.7017 94.4778 54.2516 94.4135C55.7929 94.3492 57.3342 94.2206 58.8754 94.1884C59.7499 94.1562 60.6245 94.1562 61.499 94.2206C61.6635 94.2206 61.6635 93.2559 61.499 93.2559C59.9577 93.1915 58.4078 93.2559 56.8666 93.3202C55.3253 93.4166 53.7754 93.5131 52.2342 93.4809C51.3596 93.4809 50.4764 93.4166 49.6019 93.288C49.4374 93.288 49.4374 94.2527 49.6019 94.2527Z" fill="white"/>
<path d="M29.7443 100.843C31.2099 97.945 34.3308 95.9902 37.5333 95.9484C40.7357 95.9067 43.8939 97.8146 45.4092 100.689" stroke="white" stroke-miterlimit="10" stroke-linecap="round" stroke-linejoin="round"/>
<path d="M37.6408 94.4318C39.524 94.5146 41.1189 93.028 41.2032 91.1115C41.2874 89.1949 39.8291 87.5742 37.9459 87.4914C36.0627 87.4086 34.4678 88.8952 34.3836 90.8117C34.2993 92.7283 35.7577 94.349 37.6408 94.4318Z" stroke="white" stroke-miterlimit="10" stroke-linecap="round" stroke-linejoin="round"/>
<rect x="45.835" y="75.0134" width="10.9295" height="6.07194" fill="#414168"/>
</svg>
