<svg width="150" height="150" viewBox="0 0 150 150" fill="none" xmlns="http://www.w3.org/2000/svg">
<path d="M70.4828 38.9269H31.3066V86.5723H70.4828V38.9269Z" fill="#A787FF"/>
<path d="M82.6139 108.737C84.424 108.1 86.1955 107.362 87.9478 106.585C88.1211 106.506 88.1403 106.227 88.0055 106.107C86.2533 104.533 84.4047 103.059 82.4791 101.684C82.1711 101.465 81.8822 101.983 82.1903 102.202C84.0581 103.537 85.8681 104.991 87.5819 106.526C87.6012 106.366 87.6204 106.207 87.6397 106.047C85.9452 106.824 84.1929 107.522 82.4406 108.139C82.1133 108.279 82.2673 108.857 82.6139 108.737Z" fill="#414168" stroke="#414168" stroke-width="0.5"/>
<path d="M72.5439 75.2041C73.3527 75.1643 74.1421 75.0049 74.9509 74.9451C75.4323 74.9052 75.8944 74.8853 76.3758 74.9252C76.7224 74.9451 77.1075 75.0049 77.4156 75.2041C77.82 75.4631 77.82 76.0409 77.82 76.4992C77.82 77.336 77.8007 78.1729 77.8007 79.0097C77.8007 80.7033 77.8007 82.4168 77.82 84.1104C77.8585 87.4976 77.9355 90.8847 78.0318 94.2719C78.0896 95.9655 78.1473 97.6392 78.2244 99.3328C78.2629 100.17 78.3014 101.026 78.3399 101.863C78.3784 102.68 78.3784 103.497 78.4747 104.314C78.571 105.151 79.4952 105.37 80.1692 105.43C81.0164 105.509 81.8637 105.43 82.7109 105.39C82.865 105.39 82.9998 105.37 83.1538 105.39C83.5197 105.41 83.5197 104.812 83.1538 104.792C82.3836 104.752 81.6134 104.872 80.8239 104.872C80.4195 104.872 79.9959 104.852 79.5915 104.732C79.3219 104.653 79.0716 104.533 79.0331 104.294C78.9753 103.975 78.9946 103.557 78.9753 103.218C78.9561 102.8 78.9368 102.401 78.9176 101.983C78.879 101.146 78.8405 100.289 78.802 99.4523C78.725 97.7587 78.648 96.0452 78.5902 94.3516C78.4747 90.9644 78.3977 87.5773 78.3591 84.1901C78.3399 82.4965 78.3399 80.8228 78.3399 79.1292C78.3399 78.2924 78.3399 77.4357 78.3591 76.5988C78.3591 76.021 78.3591 75.3436 77.9548 74.9252C77.3964 74.3274 76.3951 74.3274 75.6633 74.3474C74.7968 74.3274 73.9111 74.4669 73.0253 74.5665C72.8713 74.5864 72.7172 74.6064 72.5439 74.6064C72.1781 74.6263 72.1781 75.224 72.5439 75.2041Z" fill="#414168" stroke="#414168" stroke-width="0.5"/>
<path d="M35.8723 47.1356C39.779 46.8495 43.7076 46.7834 47.6362 46.7614C49.5675 46.7614 51.4989 46.7834 53.4303 46.7614C55.3617 46.7394 57.2711 46.6734 59.2025 46.6514C61.3314 46.6074 63.4603 46.5854 65.5672 46.6734C65.9842 46.6954 65.9842 46.0352 65.5672 46.0132C61.7703 45.8591 57.9734 46.0352 54.1545 46.1012C50.2698 46.1672 46.3632 46.0792 42.4785 46.1672C40.2838 46.2333 38.0671 46.3213 35.8723 46.4753C35.4553 46.4973 35.4553 47.1576 35.8723 47.1356Z" fill="white"/>
<path d="M36.7278 54.2218C40.4808 54.1338 44.2119 54.0457 47.9649 53.9797C51.7179 53.8917 55.449 53.8257 59.202 53.7376C61.3309 53.6936 63.4378 53.6496 65.5667 53.6056C65.9837 53.6056 65.9837 52.9454 65.5667 52.9454C61.8137 53.0334 58.0827 53.1214 54.3296 53.1875C50.5766 53.2755 46.8456 53.3635 43.0925 53.4295C40.9636 53.4735 38.8567 53.5176 36.7278 53.5616C36.3108 53.5836 36.3108 54.2438 36.7278 54.2218Z" fill="white"/>
<path d="M36.7277 61.7702C40.5026 61.8582 44.2776 61.9023 48.0306 61.9023C51.8275 61.9023 55.6025 61.8362 59.3774 61.6822C61.4624 61.5942 63.5913 61.5722 65.6544 61.242C66.0714 61.176 65.8958 60.5378 65.4788 60.6038C63.6572 60.8899 61.7697 60.9119 59.9261 61C58.0606 61.088 56.1731 61.132 54.3076 61.176C50.5545 61.2641 46.8015 61.2641 43.0485 61.22C40.9416 61.198 38.8127 61.154 36.7057 61.11C36.3107 61.11 36.3107 61.7702 36.7277 61.7702Z" fill="white"/>
<path d="M37.0354 68.2183C40.7665 68.3504 44.4975 68.3944 48.2067 68.3944C51.9377 68.3944 55.6688 68.3063 59.3779 68.1743C61.4849 68.0863 63.5918 67.9982 65.6988 67.8662C66.1158 67.8442 66.1158 67.184 65.6988 67.206C61.9677 67.4261 58.2586 67.5581 54.5275 67.6461C50.7965 67.7342 47.0654 67.7562 43.3563 67.6901C41.2493 67.6681 39.1424 67.6241 37.0354 67.5361C36.6184 67.5361 36.6184 68.1963 37.0354 68.2183Z" fill="white"/>
<path d="M36.7278 74.9965C40.5247 74.9745 44.3216 74.9525 48.1405 74.9304C51.9374 74.9084 55.7343 74.9084 59.5531 74.8424C61.704 74.8204 63.8548 74.7544 65.9837 74.6664C66.4007 74.6444 66.4007 73.9841 65.9837 74.0062C62.1868 74.1602 58.3899 74.2042 54.5711 74.2262C50.7742 74.2482 46.9772 74.2702 43.1584 74.2922C41.0075 74.3143 38.8567 74.3143 36.7278 74.3363C36.3108 74.3363 36.3108 74.9965 36.7278 74.9965Z" fill="white"/>
<path d="M36.7278 80.5863C40.4369 80.3882 44.168 80.2562 47.899 80.1682C51.6301 80.0801 55.3831 80.0581 59.1142 80.1022C61.2211 80.1242 63.3061 80.1682 65.4131 80.2122C65.8301 80.2342 65.8301 79.574 65.4131 79.552C61.682 79.4419 57.9729 79.3979 54.2418 79.4199C50.5108 79.4419 46.7578 79.508 43.0267 79.64C40.9198 79.706 38.8347 79.8161 36.7278 79.9261C36.3108 79.9481 36.3108 80.6083 36.7278 80.5863Z" fill="white"/>
<path d="M129.978 70.4444H90.8018V118.09H129.978V70.4444Z" fill="#A787FF"/>
<path d="M95.3665 78.653C99.2731 78.3669 103.202 78.3009 107.13 78.2789C109.062 78.2789 110.993 78.3009 112.924 78.2789C114.856 78.2569 116.765 78.1909 118.697 78.1689C120.826 78.1248 122.954 78.1028 125.061 78.1909C125.478 78.2129 125.478 77.5527 125.061 77.5307C121.264 77.3766 117.468 77.5527 113.649 77.6187C109.764 77.6847 105.857 77.5967 101.973 77.6847C99.7779 77.7507 97.5612 77.8388 95.3665 77.9928C94.9495 78.0148 94.9495 78.675 95.3665 78.653Z" fill="white"/>
<path d="M96.2229 85.7393C99.9759 85.6513 103.707 85.5632 107.46 85.4972C111.213 85.4092 114.944 85.3212 118.697 85.2551C120.826 85.2111 122.933 85.1671 125.062 85.1231C125.479 85.1231 125.479 84.4629 125.062 84.4629C121.309 84.5509 117.578 84.6389 113.825 84.705C110.072 84.793 106.341 84.881 102.588 84.947C100.459 84.9911 98.3518 85.0351 96.2229 85.0791C95.8059 85.1011 95.8059 85.7613 96.2229 85.7393Z" fill="white"/>
<path d="M96.2238 93.2877C99.9987 93.3757 103.774 93.4197 107.527 93.4197C111.324 93.4197 115.099 93.3537 118.874 93.1997C120.959 93.1116 123.087 93.0896 125.15 92.7595C125.567 92.6935 125.392 92.0553 124.975 92.1213C123.153 92.4074 121.266 92.4294 119.422 92.5174C117.557 92.6055 115.669 92.6495 113.804 92.6935C110.051 92.7815 106.298 92.7815 102.545 92.7375C100.438 92.7155 98.3088 92.6715 96.2018 92.6275C95.8068 92.6275 95.8068 93.2877 96.2238 93.2877Z" fill="white"/>
<path d="M96.5528 99.7358C100.284 99.8679 104.015 99.9119 107.724 99.9119C111.455 99.9119 115.186 99.8239 118.895 99.6918C121.002 99.6038 123.109 99.5158 125.216 99.3837C125.633 99.3617 125.633 98.7015 125.216 98.7235C121.485 98.9436 117.776 99.0756 114.045 99.1636C110.314 99.2517 106.583 99.2737 102.874 99.2077C100.767 99.1856 98.6598 99.1416 96.5528 99.0536C96.1139 99.0536 96.1139 99.7138 96.5528 99.7358Z" fill="white"/>
<path d="M96.2229 106.514C100.02 106.492 103.817 106.47 107.636 106.448C111.432 106.426 115.229 106.426 119.048 106.36C121.199 106.338 123.35 106.272 125.479 106.184C125.896 106.162 125.896 105.502 125.479 105.524C121.682 105.678 117.885 105.722 114.066 105.744C110.269 105.766 106.472 105.788 102.654 105.81C100.503 105.832 98.3518 105.832 96.2229 105.854C95.8059 105.854 95.8059 106.514 96.2229 106.514Z" fill="white"/>
<path d="M96.2229 112.082C99.932 111.884 103.663 111.752 107.394 111.664C111.125 111.576 114.878 111.554 118.609 111.598C120.716 111.62 122.801 111.664 124.908 111.708C125.325 111.73 125.325 111.069 124.908 111.047C121.177 110.937 117.468 110.893 113.737 110.915C110.006 110.937 106.253 111.003 102.522 111.135C100.415 111.202 98.3299 111.312 96.2229 111.422C95.8059 111.444 95.8059 112.104 96.2229 112.082Z" fill="white"/>
<path d="M130 65.9279H90.8955V73.3764H130V65.9279Z" fill="#414168"/>
<path d="M70.4116 34.2715H31.3066V41.7201H70.4116V34.2715Z" fill="#414168"/>
<path d="M93.3141 134.844C97.2851 138.072 97.7621 144.062 94.3797 148.224L79.9994 136.535C83.3819 132.374 89.3432 131.617 93.3141 134.844Z" fill="#F5B82E"/>
<path d="M59.2903 10.4175C62.2121 9.63467 65.2458 11.4822 66.0662 14.5441L55.4855 17.3792C54.6651 14.3173 56.3686 11.2004 59.2903 10.4175Z" fill="#41CADD"/>
<path d="M120.38 30.379C117.961 32.7975 117.96 36.7177 120.378 39.1351C122.795 41.5525 126.715 41.5516 129.134 39.1332C131.552 36.7147 131.553 32.7945 129.136 30.3771C126.718 27.9597 122.798 27.9606 120.38 30.379Z" fill="#31C587"/>
<path d="M38.5605 127.477C37.8979 126.815 37.898 125.74 38.5612 125.077C39.2245 124.413 40.2994 124.413 40.962 125.076C41.6246 125.739 41.6246 126.813 40.9613 127.477C40.298 128.14 39.2232 128.14 38.5605 127.477Z" stroke="#414168"/>
<path d="M91.7041 16.8866C90.9602 16.1426 90.9596 14.9441 91.6942 14.2095C92.4288 13.4749 93.6273 13.4755 94.3713 14.2194C95.1152 14.9634 95.1158 16.1619 94.3812 16.8965C93.6466 17.6311 92.4481 17.6305 91.7041 16.8866Z" stroke="#414168"/>
<path d="M117.139 135.196C116.707 134.765 116.708 134.071 117.132 133.647C117.556 133.223 118.25 133.222 118.681 133.654C119.113 134.085 119.112 134.779 118.688 135.203C118.264 135.627 117.57 135.628 117.139 135.196Z" stroke="#414168"/>
<path d="M138.346 113.683L141.669 112.335L140.322 109L136.999 110.348L138.346 113.683Z" fill="#F685A1"/>
<path d="M7.65294 68.3943L13.8418 68.7228L14.1416 62.4973L7.95271 62.1688L7.65294 68.3943Z" fill="#144BC1"/>
<path d="M85.6189 36.4736L88.654 40.6815L83.5024 41.1833L85.6189 36.4736Z" stroke="#414168"/>
<path d="M21.7657 96.3767L28.209 102.849L19.4125 105.159L21.7657 96.3767Z" stroke="#414168"/>
<line x1="137.32" y1="54.3176" x2="132.386" y2="60.3176" stroke="#414168"/>
<line x1="30.8745" y1="15.6579" x2="29.1704" y2="9.29821" stroke="#414168"/>
<line y1="-0.5" x2="7.74743" y2="-0.5" transform="matrix(0.608338 -0.793678 0.793677 0.608339 102 52.149)" stroke="#414168"/>
<line y1="-0.5" x2="7.74743" y2="-0.5" transform="matrix(0.17491 -0.984584 0.984584 0.174912 60.6533 129.797)" stroke="#414168"/>
<line y1="-0.5" x2="7.74743" y2="-0.5" transform="matrix(0.965926 0.258819 -0.25882 0.965925 9.65332 37.1688)" stroke="#414168"/>
<line x1="54.0859" y1="103.442" x2="47.2336" y2="107.057" stroke="#414168"/>
</svg>
