<svg width="150" height="150" viewBox="0 0 150 150" fill="none" xmlns="http://www.w3.org/2000/svg">
<path d="M89.162 56L79 96.7658L108.43 104.164L115.972 73.9132L109.169 61.0242L89.162 56Z" fill="#414168"/>
<path d="M115.971 73.9132L109.169 61.0242L106.549 71.5389L115.971 73.9132Z" fill="#121242"/>
<path d="M95.494 64.9073L85.332 105.673L114.762 113.072L122.304 82.7993L115.501 69.9315L95.494 64.9073Z" fill="#41CADD"/>
<path d="M122.303 82.7993L115.501 69.9315L112.881 80.4462L122.303 82.7993Z" fill="#414168"/>
<path d="M99.8457 86.2124C98.05 86.9755 96.1063 87.5055 94.0781 87.7599C94.4162 88.2687 94.9443 88.6503 95.4725 89.0318C97.1838 90.2826 98.895 91.5333 100.606 92.8053" stroke="white" stroke-miterlimit="10" stroke-linecap="round" stroke-linejoin="round"/>
<path d="M110.028 86.6151C107.134 89.9646 104.197 93.3564 100.458 95.6883" stroke="white" stroke-miterlimit="10" stroke-linecap="round" stroke-linejoin="round"/>
<path d="M110.261 90.3886C111.761 91.1305 113.134 92.1693 114.318 93.4412C113.578 93.8864 112.733 93.8652 111.909 93.9076C110.451 93.9712 109.015 94.1832 107.578 94.5648" stroke="white" stroke-miterlimit="10" stroke-linecap="round" stroke-linejoin="round"/>
<path d="M125.062 55.0506C127.382 49.8416 127.768 44.0537 126.162 38.6923C124.403 32.8619 120.515 28.142 115.203 25.4338C109.895 22.7049 103.785 22.3058 98.0365 24.2894C97.3516 24.5208 96.7033 24.7823 96.0454 25.085" stroke="#414168" stroke-miterlimit="10" stroke-linecap="round" stroke-linejoin="round"/>
<path d="M95.8683 17.9733C93.5898 21.4133 91.3319 24.8581 89.0533 28.2981C93.1024 29.043 97.0654 30.1583 100.906 31.6139" stroke="#414168" stroke-miterlimit="10" stroke-linecap="round" stroke-linejoin="round"/>
<path d="M38.5848 99.4689C37.7651 105.15 38.9499 110.886 41.9767 115.64C45.2597 120.82 50.3018 124.313 56.1795 125.477C62.0572 126.642 68.0707 125.356 73.1201 121.842C73.7169 121.425 74.2693 120.991 74.8227 120.527" stroke="#414168" stroke-miterlimit="10" stroke-linecap="round" stroke-linejoin="round"/>
<path d="M76.9009 127.365C78.161 123.418 79.422 119.441 80.6821 115.493C76.5676 115.889 72.4353 115.895 68.314 115.542" stroke="#414168" stroke-miterlimit="10" stroke-linecap="round" stroke-linejoin="round"/>
<path d="M98.8202 53.6341C97.9153 49.1033 93.7788 45.9354 89.1436 46.2301C84.0467 45.9538 79.6886 49.84 79.4116 54.9234C79.153 59.5463 82.3663 63.6351 86.9276 64.5008L86.946 68.0555C86.9645 70.5971 84.8962 72.6784 82.3478 72.6968L71.3231 72.7521C69.698 72.7521 68.1098 73.1941 66.7064 74.0229L66.614 56.139C71.5447 54.8497 74.4994 49.8032 73.1882 44.8671C71.8955 39.9495 66.8356 37.0026 61.8865 38.3103C56.9374 39.618 54.0012 44.6461 55.3123 49.5821C56.1618 52.8237 58.7287 55.347 61.9789 56.1758L62.1081 83.2872C58.0085 84.3739 54.9984 88.1127 55.0169 92.5331C55.0353 97.7822 59.3381 102.018 64.6011 102C69.8642 101.982 74.1116 97.6901 74.0931 92.441C74.0746 87.947 70.9353 84.2081 66.7248 83.2319V81.9979C66.7064 79.4562 68.7747 77.375 71.3231 77.3566L82.3478 77.3013C87.4446 77.2829 91.5627 73.1204 91.5443 68.037L91.5258 64.4824C96.5673 63.4694 99.8174 58.6254 98.8202 53.6341Z" fill="#A787FF"/>
<path d="M10.0332 115.778C6.70118 113.317 6.09044 108.492 8.66908 105L20.7355 113.911C18.1569 117.403 13.3652 118.239 10.0332 115.778Z" fill="#F685A1"/>
<path d="M53.1112 16.0147C54.8292 17.0066 57.0257 16.4186 58.0171 14.7014C59.0086 12.9841 58.4196 10.7879 56.7016 9.796C54.9836 8.80409 52.7871 9.39211 51.7956 11.1094C50.8042 12.8266 51.3932 15.0228 53.1112 16.0147Z" fill="#41CADD"/>
<path d="M142.822 83.4861C141.816 85.2292 139.586 85.8264 137.842 84.8193C136.097 83.8122 135.5 81.5826 136.506 79.8395C137.512 78.0964 139.742 77.4992 141.487 78.5063C143.231 79.5134 143.829 81.743 142.822 83.4861Z" stroke="#414168"/>
<path d="M80.901 17.2144C80.3749 18.1256 79.2173 18.4363 78.3177 17.9169C77.418 17.3975 77.1083 16.2396 77.6344 15.3285C78.1604 14.4173 79.318 14.1066 80.2177 14.626C81.1173 15.1454 81.427 16.3033 80.901 17.2144Z" stroke="#414168"/>
<path d="M15.1217 70.7263C14.8165 71.2548 14.1464 71.4334 13.6271 71.1336C13.1079 70.8338 12.9275 70.1642 13.2326 69.6356C13.5378 69.1071 14.2079 68.9285 14.7271 69.2283C15.2464 69.5281 15.4268 70.1978 15.1217 70.7263Z" stroke="#414168"/>
<path d="M135.036 65.8609L132.874 63L130.001 65.1637L132.164 68.0246L135.036 65.8609Z" fill="#F5B82E"/>
<path d="M103.593 124.863L109.435 123.595L110.666 129.405L104.824 130.673L103.593 124.863Z" stroke="#414168"/>
<path d="M22.7861 88.6471L26.0651 84.6263L27.8831 89.4726L22.7861 88.6471Z" stroke="#414168"/>
<line x1="33.3791" y1="23.674" x2="37.6717" y2="28.6663" stroke="#414168"/>
<line y1="-0.5" x2="7.74743" y2="-0.5" transform="matrix(-0.924084 -0.38219 0.382192 -0.924083 35.1592 52.961)" stroke="#414168"/>
<line x1="129.998" y1="106.533" x2="137.745" y2="106.5" stroke="#414168"/>
</svg>
