<svg width="29" height="25" viewBox="0 0 29 25" fill="none" xmlns="http://www.w3.org/2000/svg">
<path d="M13.635 1.49143C14.0203 0.827057 14.9797 0.827057 15.365 1.49143L28.129 23.4983C28.5157 24.1649 28.0347 25 27.264 25H1.73603C0.965343 25 0.484331 24.1649 0.870997 23.4983L13.635 1.49143Z" fill="#F7AA50"/>
<path d="M14.2016 9.29424C14.0978 11.4401 14.1238 13.5988 14.2925 15.7446C14.3444 16.3651 14.3964 16.9726 14.4742 17.5931C14.5002 17.8387 14.8896 17.8387 14.8637 17.5931C14.617 15.4473 14.5132 13.3015 14.5392 11.1427C14.5521 10.5223 14.5651 9.90179 14.5911 9.29424C14.6041 9.03571 14.2146 9.03571 14.2016 9.29424Z" fill="#121242" stroke="#121242" stroke-width="0.2"/>
<path d="M14.7599 19.0409C14.3445 19.2477 14.1497 19.7518 14.2536 20.1913C14.3445 20.6179 14.7469 20.9152 15.1882 20.8764C15.6036 20.8506 16.019 20.592 16.1618 20.1913C16.3046 19.7906 16.071 19.364 15.7205 19.1572C15.331 18.9374 14.7728 18.9374 14.4743 19.3123C14.4094 19.3899 14.3964 19.5062 14.4743 19.5838C14.5392 19.6484 14.682 19.6613 14.7469 19.5838C14.7728 19.5579 14.7988 19.5321 14.8248 19.5062C14.8637 19.4674 14.8118 19.5191 14.8377 19.4933C14.8507 19.4804 14.8767 19.4674 14.8897 19.4545C14.9026 19.4416 14.9156 19.4416 14.9286 19.4287C14.9546 19.4157 14.9286 19.4287 14.9156 19.4287C14.9286 19.4287 14.9286 19.4157 14.9416 19.4157C14.9805 19.4028 15.0195 19.3899 15.0454 19.3899C15.0584 19.3899 15.0844 19.3899 15.0325 19.3899C15.0454 19.3899 15.0454 19.3899 15.0584 19.3899C15.0714 19.3899 15.0974 19.3899 15.1103 19.3899C15.1493 19.3899 15.1882 19.3899 15.2272 19.3899C15.2531 19.3899 15.1882 19.3769 15.2142 19.3899C15.2272 19.3899 15.2272 19.3899 15.2402 19.3899C15.2531 19.3899 15.2791 19.4028 15.2921 19.4028C15.331 19.4157 15.37 19.4287 15.4089 19.4416C15.4349 19.4545 15.383 19.4287 15.4219 19.4416C15.4349 19.4545 15.4608 19.4545 15.4738 19.4674C15.5128 19.4804 15.5387 19.5062 15.5777 19.5321C15.6166 19.5579 15.5647 19.5191 15.5906 19.545C15.6036 19.5579 15.6166 19.5708 15.6296 19.5838C15.6426 19.5967 15.6556 19.6096 15.6685 19.6226C15.6815 19.6355 15.7075 19.6872 15.6815 19.6484C15.6945 19.6743 15.7205 19.7001 15.7334 19.726C15.7464 19.7389 15.7594 19.7906 15.7464 19.7389C15.7464 19.7518 15.7594 19.7777 15.7594 19.7906C15.7594 19.8035 15.7724 19.8294 15.7724 19.8423C15.7854 19.8811 15.7724 19.8165 15.7724 19.8552C15.7724 19.8811 15.7724 19.894 15.7724 19.9199C15.7724 19.9328 15.7594 19.9974 15.7724 19.9457C15.7724 19.9845 15.7594 20.0104 15.7464 20.0491C15.7464 20.0621 15.7205 20.1138 15.7334 20.075C15.7205 20.0879 15.7205 20.1138 15.7075 20.1267C15.6945 20.1396 15.6815 20.1655 15.6815 20.1784C15.6815 20.1913 15.6685 20.1913 15.6685 20.2042C15.6685 20.2042 15.6945 20.1784 15.6815 20.1913C15.6556 20.2172 15.6296 20.256 15.6036 20.2818C15.5906 20.2947 15.5777 20.3077 15.5647 20.3206C15.5517 20.3335 15.5777 20.3077 15.5777 20.3077C15.5647 20.3077 15.5647 20.3206 15.5517 20.3206C15.5128 20.3464 15.4868 20.3594 15.4479 20.3852C15.4349 20.3981 15.4089 20.3981 15.3959 20.4111C15.4349 20.3981 15.3959 20.4111 15.383 20.4111C15.344 20.424 15.3051 20.4369 15.2661 20.4499C15.2531 20.4499 15.2272 20.4628 15.2142 20.4628C15.1753 20.4757 15.2142 20.4628 15.2272 20.4628C15.2142 20.4628 15.2012 20.4628 15.2012 20.4628C15.1623 20.4628 15.1233 20.4628 15.0844 20.4628C15.0714 20.4628 15.0195 20.4628 15.0454 20.4628C15.0714 20.4628 15.0195 20.4628 15.0065 20.4499C14.9935 20.4499 14.9676 20.4369 14.9546 20.4369C14.9416 20.4369 14.9416 20.4369 14.9286 20.424C14.9286 20.424 14.8897 20.4111 14.9156 20.424C14.9416 20.4369 14.8897 20.4111 14.8897 20.4111C14.8767 20.3981 14.8507 20.3981 14.8377 20.3852C14.8248 20.3852 14.7858 20.3464 14.8118 20.3594C14.8377 20.3723 14.8118 20.3594 14.7988 20.3464C14.7858 20.3335 14.7858 20.3335 14.7728 20.3206C14.7599 20.3077 14.7469 20.2947 14.7339 20.2818C14.7209 20.256 14.7469 20.3077 14.7339 20.2818C14.7339 20.2689 14.7209 20.2689 14.7209 20.256C14.7079 20.243 14.6949 20.2172 14.682 20.2042C14.669 20.1913 14.656 20.1396 14.669 20.1784C14.656 20.1267 14.643 20.0879 14.63 20.0362C14.63 20.0233 14.63 20.0104 14.63 19.9974C14.63 20.0104 14.63 20.0233 14.63 19.9974C14.63 19.9716 14.63 19.9457 14.63 19.9199C14.63 19.894 14.63 19.8682 14.63 19.8423C14.63 19.8294 14.643 19.7777 14.63 19.8165C14.643 19.7647 14.656 19.713 14.669 19.6743C14.669 19.6613 14.6949 19.6096 14.682 19.6484C14.6949 19.6226 14.7079 19.6096 14.7209 19.5838C14.7339 19.5579 14.7469 19.545 14.7599 19.5191C14.7599 19.5062 14.7728 19.5062 14.7728 19.4933C14.7599 19.5062 14.7599 19.5062 14.7728 19.4933C14.7988 19.4545 14.8377 19.4157 14.8767 19.3899C14.8507 19.4157 14.8897 19.3769 14.9026 19.3769C14.9286 19.364 14.9546 19.3511 14.9805 19.3382C15.0714 19.2865 15.0974 19.1572 15.0454 19.0667C14.9676 19.015 14.8507 18.9892 14.7599 19.0409Z" fill="#121242" stroke="#121242" stroke-width="0.2"/>
</svg>
