<svg width="200" height="41" viewBox="0 0 200 41" fill="none" xmlns="http://www.w3.org/2000/svg">
<path d="M0 20.3384C0 30.8284 7.68471 39.4451 17.5725 40.6493V0.0275269C7.68471 1.23173 0 9.84847 0 20.3384Z" fill="#7950ED"/>
<path d="M39.8919 20.3377C39.8919 9.79418 32.1285 1.12392 22.1357 0V40.7021H39.8657V20.8996C39.8919 20.7123 39.8919 20.525 39.8919 20.3377Z" fill="#7950ED"/>
<path d="M57.5837 20.3644C59.7344 20.3644 61.2031 21.4081 61.9899 22.532V20.5785H65.3995V34.1994H61.9899V32.2192C61.2031 33.3966 59.6819 34.4402 57.5575 34.4402C54.1741 34.4402 51.4727 31.6037 51.4727 27.3488C51.4727 23.094 54.1741 20.3644 57.5837 20.3644ZM58.4492 23.3883C56.6395 23.3883 54.9347 24.7799 54.9347 27.3488C54.9347 29.9178 56.6395 31.4164 58.4492 31.4164C60.3114 31.4164 61.9899 29.9981 61.9899 27.4023C61.9899 24.8066 60.3114 23.3883 58.4492 23.3883Z" fill="white"/>
<path d="M87.5099 26.6798C87.5099 24.5122 86.3297 23.3883 84.5462 23.3883C82.7365 23.3883 81.5562 24.5122 81.5562 26.6798V34.1994H78.1729V26.6798C78.1729 24.5122 76.9926 23.3883 75.2091 23.3883C73.3732 23.3883 72.1929 24.5122 72.1929 26.6798V34.1994H68.8096V20.5785H72.1929V22.2376C73.0322 21.1137 74.4485 20.3912 76.1271 20.3912C78.1991 20.3912 79.9039 21.301 80.8218 22.9869C81.6874 21.4348 83.4446 20.3912 85.4117 20.3912C88.6115 20.3912 90.8933 22.4517 90.8933 26.2249V34.2261H87.5099V26.6798Z" fill="white"/>
<path d="M102.013 20.3644C105.449 20.3644 108.124 23.094 108.124 27.3488C108.124 31.6037 105.449 34.4402 102.013 34.4402C99.915 34.4402 98.4201 33.3698 97.607 32.2727V40.7021H94.2236V20.5785H97.607V22.5588C98.3938 21.3813 99.9413 20.3644 102.013 20.3644ZM101.122 23.3883C99.3118 23.3883 97.607 24.8066 97.607 27.4023C97.607 29.9981 99.3118 31.4164 101.122 31.4164C102.957 31.4164 104.662 29.9445 104.662 27.3488C104.662 24.7531 102.957 23.3883 101.122 23.3883Z" fill="white"/>
<path d="M110.695 16.0025H114.078V34.2261H110.695V16.0025Z" fill="white"/>
<path d="M117.146 16.9391C117.146 15.8152 118.012 14.9321 119.218 14.9321C120.399 14.9321 121.29 15.8152 121.29 16.9391C121.29 18.0631 120.399 18.9461 119.218 18.9461C118.012 18.9461 117.146 18.0631 117.146 16.9391ZM117.514 20.5785H120.897V34.1994H117.514V20.5785Z" fill="white"/>
<path d="M130.077 20.3644C133.408 20.3644 135.637 22.1306 136.372 25.1813H132.726C132.333 24.0306 131.441 23.2813 130.051 23.2813C128.163 23.2813 126.904 24.7263 126.904 27.4023C126.904 30.0516 128.163 31.4966 130.051 31.4966C131.441 31.4966 132.306 30.8544 132.726 29.6234H136.372C135.637 32.5403 133.408 34.4402 130.077 34.4402C126.222 34.4402 123.468 31.684 123.468 27.4023C123.468 23.1207 126.222 20.3644 130.077 20.3644Z" fill="white"/>
<path d="M144.214 20.3644C146.364 20.3644 147.833 21.4081 148.62 22.532V20.5785H152.029V34.1994H148.62V32.2192C147.833 33.3966 146.312 34.4402 144.187 34.4402C140.804 34.4402 138.103 31.6037 138.103 27.3488C138.103 23.094 140.804 20.3644 144.214 20.3644ZM145.079 23.3883C143.269 23.3883 141.565 24.7799 141.565 27.3488C141.565 29.9178 143.269 31.4164 145.079 31.4164C146.941 31.4164 148.62 29.9981 148.62 27.4023C148.62 24.8066 146.941 23.3883 145.079 23.3883Z" fill="white"/>
<path d="M155.99 23.4151H154.39V20.5785H155.99V17.2067H159.399V20.5785H162.389V23.4151H159.373V29.998C159.373 30.9079 159.74 31.3093 160.789 31.3093H162.363V34.2261H160.238C157.694 34.2261 155.963 33.129 155.963 29.998V23.4151H155.99Z" fill="white"/>
<path d="M164.566 16.9391C164.566 15.8152 165.432 14.9321 166.638 14.9321C167.819 14.9321 168.71 15.8152 168.71 16.9391C168.71 18.0631 167.819 18.9461 166.638 18.9461C165.432 18.9461 164.566 18.0631 164.566 16.9391ZM164.934 20.5785H168.317V34.1994H164.934V20.5785Z" fill="white"/>
<path d="M177.68 34.4402C173.824 34.4402 170.913 31.684 170.913 27.4023C170.913 23.094 173.929 20.3644 177.785 20.3644C181.64 20.3644 184.656 23.094 184.656 27.4023C184.656 31.684 181.588 34.4402 177.68 34.4402ZM177.68 31.4431C179.463 31.4431 181.168 30.1051 181.168 27.4023C181.168 24.6728 179.516 23.3616 177.706 23.3616C175.896 23.3616 174.296 24.6728 174.296 27.4023C174.349 30.1051 175.87 31.4431 177.68 31.4431Z" fill="white"/>
<path d="M196.616 26.6798C196.616 24.4855 195.436 23.308 193.653 23.308C191.817 23.308 190.636 24.4855 190.636 26.6798V34.1994H187.253V20.5785H190.636V22.2644C191.502 21.1137 192.944 20.3644 194.675 20.3644C197.796 20.3644 200 22.425 200 26.1981V34.1994H196.616V26.6798Z" fill="white"/>
</svg>
