<svg width="32" height="32" viewBox="0 0 32 32" fill="none" xmlns="http://www.w3.org/2000/svg">
<path d="M19.9999 7H15.9999V13" stroke="#7950ED" stroke-miterlimit="10"/>
<path d="M22.9999 10C24.6568 10 25.9999 8.65685 25.9999 7C25.9999 5.34315 24.6568 4 22.9999 4C21.3431 4 19.9999 5.34315 19.9999 7C19.9999 8.65685 21.3431 10 22.9999 10Z" stroke="#7950ED" stroke-miterlimit="10"/>
<path d="M11.9999 25H15.9999V19" stroke="#7950ED" stroke-miterlimit="10"/>
<path d="M8.99994 28C10.6568 28 11.9999 26.6569 11.9999 25C11.9999 23.3431 10.6568 22 8.99994 22C7.34308 22 5.99994 23.3431 5.99994 25C5.99994 26.6569 7.34308 28 8.99994 28Z" stroke="#7950ED" stroke-miterlimit="10"/>
<path d="M15.9999 19.1937C17.6568 19.1937 18.9999 17.8506 18.9999 16.1937C18.9999 14.5369 17.6568 13.1937 15.9999 13.1937C14.3431 13.1937 12.9999 14.5369 12.9999 16.1937C12.9999 17.8506 14.3431 19.1937 15.9999 19.1937Z" stroke="#7950ED" stroke-miterlimit="10"/>
</svg>
