<svg width="32" height="32" viewBox="0 0 32 32" fill="none" xmlns="http://www.w3.org/2000/svg">
<path d="M10.8217 19.5365L6 22.6944L15.983 29.2818L25.9999 22.6944L21.1782 19.5365L15.983 22.9321L10.8217 19.5365Z" stroke="#7950ED" stroke-miterlimit="10"/>
<path d="M21.1783 19.5364L26 16.3445L20.8727 12.9829" stroke="#7950ED" stroke-miterlimit="10"/>
<path d="M11.1273 12.9829L6 16.3445L10.8217 19.5364" stroke="#7950ED" stroke-miterlimit="10"/>
<path d="M10.8217 19.5365L15.983 22.9321L21.1782 19.5365" stroke="#7950ED" stroke-miterlimit="10"/>
<path d="M20.8726 12.983L25.9999 9.58741L15.983 3L6 9.58741L11.1273 12.983" stroke="#7950ED" stroke-miterlimit="10"/>
<path d="M11.1276 12.9829L15.9153 16.1408M15.9153 16.1408H15.9804H16.0512M15.9153 16.1408L15.9804 16.1835L16.0512 16.1408M16.0512 16.1408L20.8729 12.9829" stroke="#7950ED" stroke-miterlimit="10"/>
</svg>
