<svg width="32" height="32" viewBox="0 0 32 32" fill="none" xmlns="http://www.w3.org/2000/svg">
<path d="M16.3972 16.218H23.5V20.299" stroke="#7950ED" stroke-miterlimit="10"/>
<path d="M15.8754 11.5452V16.2181H7.99994V20.2679" stroke="#7950ED" stroke-miterlimit="10"/>
<path d="M8 26.2368C9.65685 26.2368 11 24.8937 11 23.2368C11 21.58 9.65685 20.2368 8 20.2368C6.34315 20.2368 5 21.58 5 23.2368C5 24.8937 6.34315 26.2368 8 26.2368Z" stroke="#7950ED" stroke-miterlimit="10"/>
<path d="M23.2368 26.2368C24.8937 26.2368 26.2368 24.8937 26.2368 23.2368C26.2368 21.58 24.8937 20.2368 23.2368 20.2368C21.58 20.2368 20.2368 21.58 20.2368 23.2368C20.2368 24.8937 21.58 26.2368 23.2368 26.2368Z" stroke="#7950ED" stroke-miterlimit="10"/>
<path d="M16 12C17.6569 12 19 10.6569 19 9C19 7.34315 17.6569 6 16 6C14.3431 6 13 7.34315 13 9C13 10.6569 14.3431 12 16 12Z" stroke="#7950ED" stroke-miterlimit="10"/>
</svg>
