<svg width="32" height="32" viewBox="0 0 32 32" fill="none" xmlns="http://www.w3.org/2000/svg">
<path d="M24.6144 17.7082L23.0707 16.5694C23.1058 16.3203 23.0707 16.1068 23.0707 15.9288C23.0707 15.7153 23.0707 15.5018 23.0356 15.2883L24.6144 14.0783L24.6846 14.0071C25.0354 13.6868 25.1407 13.1174 24.9653 12.6548L23.0005 9.3452C22.7198 8.88256 22.1584 8.66904 21.6322 8.88256L19.7726 9.77224C19.3867 9.52313 19.0358 9.30961 18.6148 9.09609L18.4043 7.03203C18.3692 6.46263 17.878 6 17.3167 6L13.5976 6.07117C13.0012 6.07117 12.5451 6.53381 12.5451 7.13879L12.3696 9.20285C11.9486 9.41637 11.5977 9.62989 11.2118 9.91459L9.42245 9.0605L9.3172 9.02491C8.826 8.81139 8.26464 9.0605 7.98395 9.52313L6.12443 12.8327V12.8683C5.98409 13.1886 5.949 13.5445 6.08934 13.8292C6.15951 14.0427 6.33494 14.2206 6.54545 14.2918L8.08921 15.4306C8.05412 15.6797 8.08921 15.8932 8.08921 16.0712C8.08921 16.2847 8.08921 16.4982 8.12429 16.7117L6.51037 17.9217L6.4402 17.9929C6.08934 18.3132 5.98409 18.8826 6.15951 19.3452L8.12429 22.6548C8.40498 23.1174 8.96634 23.331 9.49262 23.1174L11.3521 22.2278C11.7381 22.4769 12.0889 22.6904 12.51 22.9039L12.7205 24.968C12.7556 25.5374 13.2468 26 13.8081 26L17.5623 25.9644C18.1587 25.9644 18.6148 25.5018 18.6148 24.8968L18.7903 22.8327C19.2113 22.6192 19.5621 22.4057 19.9481 22.121L21.7374 22.9395L21.8076 22.9751C22.2988 23.153 22.8602 22.9395 23.1408 22.4769L25.0004 19.1673V19.1317C25.1407 18.8114 25.1758 18.4555 25.0354 18.1708C24.9653 17.9573 24.7899 17.8149 24.6144 17.7082ZM15.5975 19.2028C13.8432 19.2028 12.4047 17.7794 12.4047 16.0356C12.4047 14.2918 13.8081 12.7972 15.5273 12.7972C17.2816 12.7972 18.7201 14.2206 18.7201 15.9644C18.7552 17.7438 17.3868 19.1673 15.6326 19.2028C15.5975 19.2028 15.5975 19.2028 15.5975 19.2028Z" fill="#7950ED"/>
</svg>
