<svg width="72" height="73" viewBox="0 0 72 73" fill="none" xmlns="http://www.w3.org/2000/svg">
<path d="M34 60C47.8071 60 59 48.8071 59 35C59 21.1929 47.8071 10 34 10C20.1929 10 9 21.1929 9 35C9 48.8071 20.1929 60 34 60Z" fill="#F4F4F7"/>
<path d="M42.3498 62.1793C43.8176 62.6369 45.3634 62.7639 46.8722 62.5711C48.2922 62.3877 49.6771 61.8769 50.8537 61.1074C51.9718 60.3635 52.9079 59.3923 53.5631 58.2416C54.2504 57.0339 54.6186 55.6612 54.6276 54.276C54.6345 52.8332 54.2419 51.4001 53.545 50.1077C53.4457 49.9266 53.3444 49.7532 53.2412 49.5874C53.1379 49.4216 52.8976 49.3506 52.7244 49.4522C52.5591 49.5558 52.487 49.7655 52.5963 49.941C52.8048 50.2649 52.9852 50.5978 53.1453 50.9417C53.1514 50.9514 53.1717 51.0057 53.1514 50.9514C53.1555 50.9688 53.1696 50.9807 53.1737 50.9981C53.1879 51.0426 53.2122 51.0816 53.2264 51.1261C53.265 51.2097 53.2954 51.2911 53.3319 51.3823C53.3928 51.5451 53.4537 51.708 53.5045 51.8764C53.6101 52.1978 53.6896 52.5206 53.7569 52.8565C53.765 52.8913 53.7712 52.9337 53.7793 52.9685C53.7814 52.9935 53.7855 53.0109 53.7875 53.0359C53.7773 52.9761 53.7895 53.0283 53.7855 53.0436C53.7978 53.1284 53.8101 53.2133 53.8204 53.3057C53.8369 53.4733 53.8535 53.6408 53.8619 53.8063C53.8788 54.1372 53.8795 54.4638 53.854 54.7918C53.8501 54.8724 53.8382 54.9509 53.8344 55.0315C53.8284 55.0544 53.8324 55.0718 53.8264 55.0947C53.8205 55.1503 53.8324 55.0392 53.8264 55.0947C53.8245 55.135 53.8125 55.1809 53.8106 55.2212C53.7847 55.3858 53.7588 55.5504 53.7249 55.713C53.655 56.0456 53.5609 56.372 53.4527 56.6864C53.4246 56.7607 53.3945 56.8426 53.3664 56.9169C53.3604 56.9398 53.3444 56.9682 53.3384 56.9911C53.3323 57.0141 53.3203 57.0272 53.3143 57.0501C53.3123 57.0578 53.2741 57.1376 53.2942 57.0938C53.3143 57.0501 53.2922 57.1015 53.2902 57.1091C53.2842 57.132 53.2721 57.1452 53.2661 57.1681C53.248 57.2042 53.23 57.2403 53.22 57.2785C53.1838 57.3506 53.1557 57.4249 53.1196 57.497C52.987 57.7725 52.8302 58.0416 52.6593 58.2989C52.5728 58.4313 52.4884 58.5561 52.3938 58.6865C52.3516 58.7489 52.3013 58.8092 52.2611 58.8639C52.249 58.8771 52.245 58.8924 52.2349 58.8979C52.2751 58.8431 52.247 58.8847 52.2349 58.8979C52.2088 58.9319 52.1745 58.9637 52.1464 59.0053C51.7459 59.48 51.2808 59.9051 50.7833 60.2891C50.7732 60.2947 50.7289 60.332 50.7833 60.2891C50.7631 60.3002 50.7511 60.3133 50.7309 60.3244C50.6987 60.3486 50.6685 60.3652 50.6463 60.3839C50.5819 60.4323 50.5093 60.4786 50.4368 60.5249C50.3018 60.612 50.1668 60.6991 50.0258 60.7765C49.7416 60.9388 49.4434 61.0893 49.141 61.2224C49.0725 61.2534 49.004 61.2844 48.9374 61.3078C48.9273 61.3134 48.8124 61.3567 48.8709 61.3312C48.8326 61.3457 48.7842 61.3657 48.7459 61.3801C48.5826 61.4435 48.4133 61.4971 48.2439 61.5508C47.9052 61.658 47.5563 61.7381 47.2114 61.8029C47.038 61.8392 46.8585 61.8656 46.681 61.8845C46.681 61.8845 46.6184 61.8926 46.6628 61.8879C46.7072 61.8832 46.6366 61.8892 46.6265 61.8947C46.5902 61.9015 46.5458 61.9062 46.5035 61.9033C46.4147 61.9127 46.3179 61.92 46.2291 61.9295C45.868 61.9574 45.5129 61.9624 45.1538 61.95C44.9742 61.9438 44.7966 61.93 44.611 61.9141C44.5262 61.9082 44.4334 61.9003 44.3506 61.8868C44.3264 61.8804 44.3002 61.8817 44.284 61.8775C44.2759 61.8754 44.2255 61.8703 44.2679 61.8733C44.3183 61.8783 44.2436 61.8669 44.2336 61.8724C44.2093 61.8661 44.175 61.8653 44.1508 61.859C43.7936 61.8063 43.4323 61.7362 43.077 61.6432C42.9074 61.5988 42.7297 61.5523 42.5641 61.4927C42.3723 61.4343 42.1487 61.5635 42.1107 61.7413C42.0345 61.9336 42.1499 62.1189 42.3498 62.1793Z" fill="#7950ED"/>
<path d="M56.0521 48.6707C54.4981 47.8761 52.9503 47.092 51.3962 46.2974C51.1164 46.152 50.8233 46.3357 50.8081 46.6374C50.7437 47.5105 50.6591 48.2524 50.5182 49.1054C50.3817 49.9415 50.2091 50.7772 49.9939 51.6017C49.9412 51.8036 50.0714 52.0356 50.2775 52.0807C50.4836 52.1258 50.7038 52.0129 50.7587 51.8025C51.1915 50.1092 51.4713 48.3758 51.6001 46.6296C51.4076 46.7409 51.2044 46.8583 51.012 46.9696C52.566 47.7643 54.1138 48.5483 55.6679 49.3429C55.8523 49.4363 56.1081 49.3956 56.2033 49.2049C56.2941 49.0309 56.2514 48.777 56.0521 48.6707Z" fill="#7950ED"/>
<path d="M22.5901 6.79515C20.8621 6.44069 19.0812 6.48999 17.3776 6.91538C15.7744 7.31803 14.2471 8.10613 12.9864 9.17512C11.7896 10.2061 10.8259 11.4841 10.2029 12.9395C9.5494 14.4669 9.27876 16.1495 9.42006 17.8002C9.57012 19.5193 10.1758 21.175 11.1139 22.6237C11.2472 22.8264 11.3819 23.0198 11.5181 23.2038C11.6543 23.3878 11.9367 23.4412 12.1237 23.2978C12.3012 23.1529 12.3608 22.8939 12.2166 22.699C11.9427 22.3403 11.7002 21.9674 11.4795 21.5786C11.4715 21.5678 11.4423 21.5058 11.4715 21.5678C11.4649 21.5476 11.4474 21.5353 11.4409 21.5151C11.4197 21.4639 11.3877 21.4206 11.3666 21.3694C11.3134 21.275 11.2697 21.1819 11.2179 21.0781C11.1305 20.8921 11.0431 20.706 10.9666 20.5121C10.8106 20.143 10.6845 19.7689 10.5708 19.3776C10.5577 19.3373 10.546 19.2875 10.5329 19.2472C10.5278 19.2176 10.5212 19.1975 10.5161 19.1679C10.5343 19.2378 10.5146 19.1773 10.5175 19.1586C10.4942 19.0591 10.4709 18.9597 10.449 18.8509C10.4118 18.6535 10.3745 18.4561 10.3468 18.2602C10.2913 17.8683 10.2547 17.4794 10.2479 17.0855C10.2435 16.989 10.2486 16.894 10.2442 16.7975C10.2485 16.7695 10.242 16.7493 10.2463 16.7212C10.247 16.6542 10.2456 16.7882 10.2463 16.7212C10.2441 16.673 10.2528 16.6168 10.2506 16.5686C10.2621 16.3692 10.2737 16.1698 10.2947 15.9718C10.3382 15.5666 10.41 15.1657 10.4993 14.7772C10.5233 14.6851 10.5487 14.5837 10.5727 14.4916C10.5771 14.4635 10.5923 14.4276 10.5967 14.3995C10.601 14.3714 10.6134 14.3542 10.6178 14.3261C10.6192 14.3168 10.6541 14.2168 10.6359 14.2715C10.6178 14.3261 10.6374 14.2621 10.6388 14.2527C10.6432 14.2247 10.6555 14.2074 10.6599 14.1794C10.6766 14.1341 10.6933 14.0887 10.7006 14.042C10.734 13.9513 10.758 13.8593 10.7914 13.7686C10.9128 13.4234 11.0625 13.0826 11.2298 12.754C11.3141 12.5851 11.397 12.4255 11.4908 12.258C11.5323 12.1782 11.5832 12.0999 11.6232 12.0294C11.6355 12.0122 11.6384 11.9935 11.6493 11.9856C11.6094 12.056 11.637 12.0028 11.6493 11.9856C11.6755 11.9418 11.7112 11.8994 11.7388 11.8462C12.1446 11.2289 12.6298 10.6623 13.1564 10.1405C13.1674 10.1326 13.2139 10.0823 13.1564 10.1405C13.1783 10.1247 13.1906 10.1074 13.2125 10.0917C13.2467 10.0587 13.2794 10.035 13.3027 10.0099C13.3711 9.94383 13.4489 9.87926 13.5267 9.8147C13.6715 9.69346 13.8163 9.57221 13.9691 9.4618C14.2761 9.2316 14.6006 9.0137 14.9316 8.81599C15.0066 8.77013 15.0815 8.72428 15.155 8.68778C15.1659 8.6799 15.2925 8.61332 15.2285 8.65129C15.2707 8.62909 15.3238 8.59901 15.366 8.57682C15.5458 8.48017 15.7335 8.39434 15.9212 8.3085C16.2967 8.13684 16.6867 7.99619 17.0739 7.87424C17.2681 7.80859 17.4704 7.75376 17.6713 7.70829C17.6713 7.70829 17.7419 7.69051 17.6917 7.70187C17.6415 7.71324 17.7215 7.69693 17.7324 7.68904C17.7732 7.6762 17.8234 7.66483 17.8722 7.66282C17.9726 7.64009 18.0825 7.61882 18.1829 7.59609C18.5926 7.51597 18.998 7.46392 19.4099 7.43205C19.6159 7.41612 19.8204 7.40954 20.0344 7.40443C20.1319 7.40041 20.2389 7.39785 20.3349 7.40319C20.3633 7.40759 20.3932 7.40264 20.4121 7.40558C20.4216 7.40705 20.4798 7.40651 20.431 7.40852C20.3728 7.40906 20.4594 7.41292 20.4703 7.40504C20.4987 7.40944 20.538 7.40596 20.5664 7.41037C20.9805 7.42675 21.4012 7.46331 21.8176 7.52794C22.0163 7.55878 22.2244 7.5911 22.4202 7.64065C22.6459 7.68526 22.8874 7.50239 22.9113 7.28574C22.9774 7.04689 22.8252 6.84123 22.5901 6.79515Z" fill="#7950ED"/>
<path d="M8.46949 23.9772C10.1287 24.6213 11.7804 25.2552 13.4396 25.8992C13.7386 26.0175 14.0172 25.8001 14.0015 25.492C13.9769 24.5983 13.9863 23.8357 14.0414 22.9544C14.0938 22.0906 14.1829 21.2236 14.3164 20.3634C14.349 20.1527 14.193 19.9308 13.9792 19.9066C13.7653 19.8824 13.5535 20.0203 13.5195 20.2397C13.2547 22.0053 13.1493 23.7957 13.1985 25.5831C13.3824 25.4499 13.5765 25.3092 13.7603 25.1759C12.1011 24.5319 10.4494 23.898 8.79022 23.254C8.59338 23.1785 8.33798 23.2467 8.26103 23.4505C8.18681 23.6367 8.2563 23.8902 8.46949 23.9772Z" fill="#7950ED"/>
<path d="M51.0983 24.684C50.5385 21.8478 47.97 19.8613 45.0941 20.0489C41.9328 19.8724 39.2216 22.3113 39.046 25.4896C38.8923 28.381 40.8791 30.9413 43.7111 31.471L43.733 33.7003C43.744 35.2894 42.4597 36.5917 40.8791 36.6027L34.0407 36.6358C33.0308 36.6358 32.0429 36.9227 31.1758 37.4304L31.1209 26.2511C34.1834 25.4344 36.0165 22.2892 35.2042 19.2102C34.3919 16.1312 31.2636 14.2882 28.2011 15.1049C25.1386 15.9215 23.3056 19.0668 24.1178 22.1458C24.6447 24.1763 26.2363 25.7545 28.256 26.2621L28.3438 43.2132C25.7972 43.8864 23.9312 46.226 23.9422 48.996C23.9532 52.2846 26.6205 54.9333 29.8915 54.9112C33.1625 54.9001 35.7969 52.2184 35.775 48.9297C35.764 46.1266 33.8102 43.776 31.2087 43.169V42.3965C31.1977 40.8074 32.482 39.5051 34.0626 39.4941L40.901 39.461C44.0733 39.45 46.6199 36.8455 46.6089 33.6672L46.5979 31.4379C49.6933 30.842 51.713 27.8071 51.0983 24.684Z" fill="#144BC1"/>
<path d="M43.3928 31.8463C43.4148 32.9719 43.4367 34.1859 42.8659 35.1901C42.6244 35.5985 42.3061 35.9516 41.878 36.1613C41.3951 36.4041 40.8133 36.4041 40.2755 36.3599C39.6498 36.3048 39.0241 36.2165 38.4094 36.1392C37.7728 36.062 37.1361 35.9737 36.4995 35.9075C35.3031 35.775 34.0298 35.7199 32.8772 36.1392C31.8015 36.5255 30.8575 37.2869 30.4514 38.3905C30.3855 38.5561 30.5173 38.7547 30.6819 38.7989C30.8685 38.854 31.0222 38.7326 31.088 38.5671C31.3954 37.7063 32.2077 37.0883 33.0529 36.7793C34.1834 36.371 35.4128 36.4482 36.5873 36.5806C37.2349 36.6579 37.8826 36.7351 38.5302 36.8234C39.1558 36.9007 39.7815 37 40.4181 37.0442C41.0219 37.0883 41.6256 37.0331 42.1744 36.7683C42.6464 36.5475 43.0306 36.1723 43.3269 35.7419C44.1063 34.6052 44.1063 33.1816 44.0843 31.8573C44.0404 31.4159 43.3818 31.4159 43.3928 31.8463Z" fill="white"/>
<path d="M46.3782 31.3938C46.2794 33.1154 46.1806 34.9142 45.4232 36.4924C45.1049 37.1545 44.6988 37.7615 44.1609 38.2581C43.6011 38.7768 42.9096 39.1079 42.1632 39.2844C41.3509 39.472 40.5167 39.472 39.6825 39.4389C38.7495 39.4058 37.8165 39.3506 36.8834 39.2955C36.4005 39.2734 35.9175 39.2403 35.4345 39.2182C35.0174 39.1961 34.6003 39.1741 34.1832 39.2072C33.7661 39.2403 33.338 39.3065 32.9428 39.461C32.5806 39.6045 32.2513 39.8141 31.944 40.068C30.9012 40.9508 30.7036 42.3524 30.7036 43.6546C30.7036 43.8312 30.7036 44.0078 30.7146 44.1843C30.7256 44.6147 31.3842 44.6147 31.3732 44.1843C31.3622 43.8312 31.3622 43.478 31.3732 43.1249C31.3842 42.7828 31.4171 42.5179 31.472 42.2089C31.5049 42.0655 31.5378 41.911 31.5817 41.7785C31.6366 41.613 31.6696 41.5357 31.7354 41.4033C31.8781 41.1164 32.0098 40.9288 32.2294 40.7081C32.7343 40.2004 33.4039 39.9245 34.1393 39.8693C35.0284 39.8031 35.9395 39.9024 36.8286 39.9466C37.7616 39.9907 38.6946 40.0569 39.6386 40.09C40.4947 40.1232 41.3619 40.1121 42.2071 39.9355C43.0194 39.77 43.7658 39.4279 44.4134 38.9092C44.9952 38.4347 45.4671 37.8167 45.8294 37.1545C46.6746 35.5985 46.8831 33.7996 47.0039 32.056C47.0148 31.8352 47.0368 31.6035 47.0478 31.3828C47.0588 31.2062 46.8941 31.0517 46.7185 31.0517C46.5209 31.0627 46.3892 31.2172 46.3782 31.3938Z" fill="white"/>
<path d="M31.154 26.2952C31.154 29.3742 31.0223 32.4532 30.7699 35.5322C30.693 36.393 30.6162 37.2649 30.5174 38.1257C30.4954 38.3022 30.682 38.4567 30.8467 38.4567C31.0443 38.4567 31.154 38.3022 31.176 38.1257C31.5053 35.0577 31.7029 31.9897 31.7797 28.9107C31.8017 28.0389 31.8126 27.1781 31.8126 26.3063C31.8126 25.8649 31.154 25.8648 31.154 26.2952Z" fill="white"/>
<path d="M27.6522 26.4165C27.5754 28.6789 27.5315 30.9412 27.5095 33.2036C27.4876 35.4218 27.4985 37.64 27.5424 39.8472C27.5644 41.1384 27.5973 42.4296 27.6412 43.7208C27.6522 44.1512 28.3108 44.1512 28.2998 43.7208C28.234 41.4584 28.1791 39.1961 28.1681 36.9337C28.1571 34.7155 28.1681 32.4973 28.212 30.2901C28.234 28.9989 28.2669 27.7077 28.3108 26.4165C28.3218 25.9862 27.6632 25.9862 27.6522 26.4165Z" fill="white"/>
<path d="M28.8879 43.9399C27.835 43.0791 26.5376 44.3044 25.8038 44.9829C25.3678 45.388 24.9425 45.8437 24.6553 46.3602C24.3256 46.9273 24.1768 47.5653 24.1661 48.2134C24.1342 50.33 25.3678 52.3959 27.2076 53.5402C28.1009 54.0972 29.1537 54.4314 30.2172 54.4415C31.2594 54.4516 32.3015 54.1579 33.1948 53.6415C34.0669 53.1351 34.8219 52.4161 35.2792 51.5351C35.7897 50.5426 35.8854 49.4287 35.6408 48.3552C35.3749 47.2109 34.7475 46.1678 33.9712 45.2665C33.5883 44.8209 33.1629 44.3855 32.6844 44.0209C32.1952 43.6563 31.5678 43.4234 30.9829 43.7373C30.7383 43.8589 30.5468 44.0817 30.4937 44.345C30.4618 44.507 30.5468 44.669 30.717 44.7196C30.8765 44.7602 31.0786 44.669 31.1105 44.507C31.1211 44.4766 31.1211 44.4563 31.1317 44.426C31.153 44.3753 31.0998 44.4766 31.1424 44.3956C31.1636 44.3652 31.1636 44.3652 31.2062 44.3247C31.2594 44.2741 31.3338 44.2336 31.4189 44.2133C31.4508 44.2032 31.472 44.2032 31.5039 44.193C31.4933 44.193 31.4508 44.193 31.5252 44.193C31.5571 44.193 31.5784 44.193 31.6103 44.193C31.6209 44.193 31.6954 44.2032 31.6422 44.193C31.7698 44.2032 31.8868 44.2538 32.0038 44.3146C32.2377 44.4361 32.4292 44.6083 32.6099 44.7804C32.812 44.9627 33.0034 45.1551 33.1948 45.3475C33.918 46.1172 34.5348 47.0185 34.8751 48.0109C35.1835 48.9426 35.2367 49.935 34.8857 50.8667C34.5986 51.6363 34.0031 52.3452 33.3225 52.8313C33.131 52.963 32.9396 53.0845 32.7269 53.1959C32.5355 53.2972 32.3015 53.4086 32.1314 53.4693C31.9187 53.5503 31.6954 53.6212 31.472 53.6719C31.3657 53.7022 31.2594 53.7225 31.153 53.7427C31.0467 53.763 30.9084 53.7832 30.8446 53.7934C29.9088 53.8946 28.9942 53.7427 28.1647 53.3579C26.4526 52.568 25.2189 50.968 24.868 49.1856C24.7723 48.659 24.7404 48.1122 24.8361 47.5856C24.9425 47.0488 25.187 46.5627 25.5274 46.1374C25.857 45.7222 26.2718 45.3576 26.6759 45.0032C27.0375 44.6893 27.4416 44.3551 27.9414 44.2639C28.1009 44.2336 28.2817 44.2639 28.4093 44.3652C28.5369 44.4766 28.7283 44.4867 28.856 44.3652C28.9942 44.2639 29.0155 44.0513 28.8879 43.9399Z" fill="white"/>
<path d="M31.5489 26.6373C33.4478 25.8538 34.5564 23.9556 34.9406 21.9912C35.1601 20.8656 35.215 19.6296 34.8748 18.526C34.5564 17.4665 33.832 16.5837 32.9209 15.9657C31.0329 14.6855 28.4315 14.6855 26.4777 15.8222C24.5677 16.9258 23.3493 19.0998 23.3932 21.3181C23.4152 22.4879 23.7774 23.6797 24.4909 24.6178C25.1714 25.5117 26.1374 26.1849 27.2241 26.4608C27.4985 26.527 27.7729 26.5711 28.0473 26.5822C28.2229 26.5932 28.3766 26.4166 28.3766 26.2511C28.3766 26.0635 28.2229 25.931 28.0473 25.92C27.0924 25.8538 26.1593 25.4124 25.4678 24.7281C24.7104 23.9887 24.2604 23.0065 24.1067 21.9692C23.8213 20.0269 24.6885 17.9852 26.2362 16.7823C27.8388 15.5463 30.1658 15.2814 31.966 16.1753C32.8221 16.5947 33.5576 17.2458 33.9966 18.0846C34.4906 19.0336 34.5125 20.1924 34.4028 21.2408C34.2162 22.9403 33.4258 24.7833 31.933 25.7103C31.7574 25.8207 31.5489 25.931 31.3842 25.9973C31.2196 26.0635 31.0988 26.218 31.1537 26.4056C31.1866 26.5601 31.3842 26.7035 31.5489 26.6373Z" fill="white"/>
<path d="M47.048 31.6255C49.0567 31.2062 50.5825 29.4183 51.0105 27.4429C51.4716 25.324 50.6154 23.139 49.1555 21.627C48.7823 21.2408 48.3542 20.8876 47.9042 20.5786C47.4102 20.2476 46.8724 19.9606 46.3016 19.8172C45.0502 19.4971 43.766 19.9606 42.6573 20.5345C41.6914 21.0311 40.7803 21.6822 40.1217 22.5651C39.4412 23.47 39.1229 24.5846 39.1997 25.7213C39.2765 26.8801 39.7156 28.0058 40.4071 28.9328C41.0987 29.8598 41.9878 30.6102 42.9647 31.2282C43.1952 31.3717 43.4367 31.5152 43.6782 31.6476C44.0514 31.8462 44.3807 31.2834 44.0075 31.0737C42.1853 30.0805 40.473 28.6017 39.9681 26.5049C39.7266 25.5227 39.7924 24.4522 40.2644 23.5473C40.7145 22.6754 41.4609 22.0133 42.2841 21.4946C42.7122 21.2297 43.1513 20.998 43.6123 20.8104C44.1502 20.5786 44.7319 20.4021 45.3137 20.38C46.3784 20.3469 47.3663 20.9428 48.1456 21.605C49.6055 22.852 50.5934 24.7171 50.4507 26.6594C50.319 28.403 49.1555 30.1688 47.509 30.8089C47.3004 30.8861 47.0809 30.9523 46.8614 30.9965C46.6858 31.0296 46.587 31.2393 46.6309 31.4048C46.6858 31.5814 46.8724 31.6586 47.048 31.6255Z" fill="white"/>
</svg>
