<svg width="200" height="200" viewBox="0 0 200 200" fill="none" xmlns="http://www.w3.org/2000/svg">
<ellipse cx="108.5" cy="185.5" rx="45.5" ry="5.5" fill="#E7E7EC"/>
<rect x="94" y="40.082" width="8.04299" height="8.04299" transform="rotate(-15 94 40.082)" fill="#F5B82E"/>
<circle cx="138.5" cy="43.5" r="3" stroke="#414168"/>
<circle cx="125.673" cy="21.6726" r="2.67262" fill="#144BC1"/>
<path d="M25.9791 71.7143C33.4113 71.7848 40.8082 72.102 48.2404 72.4191C55.6374 72.7363 63.0696 73.0887 70.4665 73.3353C74.2002 73.4411 77.9339 73.5115 81.6676 73.5115C85.2252 73.5115 88.7828 73.5115 92.3404 73.0534C95.898 72.5953 99.3499 71.6086 102.731 70.4457C104.422 69.8819 106.078 69.2828 107.768 68.6837C108.614 68.4018 109.459 68.0847 110.304 67.8027C110.692 67.6618 111.115 67.5561 111.502 67.4151C111.713 67.3446 112.383 67.0275 112.559 67.1684C112.911 67.4151 112.664 68.2256 112.559 68.5428C112.383 69.0714 112.136 69.5295 111.854 69.9876C111.22 70.9391 110.375 71.7143 109.459 72.3486C107.522 73.723 105.303 74.6744 103.119 75.6612C102.626 75.8726 102.133 76.1193 101.639 76.3307C101.041 76.6126 101.569 77.5289 102.168 77.2469C104.352 76.1897 106.606 75.3088 108.684 74.0754C110.727 72.8772 112.7 71.2915 113.51 68.9656C113.862 67.9789 114.003 66.1465 112.559 66.0055C112.171 65.9703 111.819 66.1112 111.432 66.217C110.974 66.3579 110.516 66.4989 110.093 66.6398C109.212 66.9217 108.332 67.2389 107.451 67.5208C103.964 68.719 100.512 70.0228 96.9547 70.9391C93.3619 71.8553 89.6986 72.1724 86.0001 72.2429C82.196 72.3134 78.4271 72.2429 74.6229 72.1724C67.0146 72.2077 59.3711 71.8553 51.7276 71.5029C44.084 71.1505 36.4405 70.8333 28.7618 70.6924C27.8107 70.6924 26.8949 70.6571 25.9439 70.6571C25.3098 70.6219 25.3098 71.6791 25.9791 71.7143Z" fill="#414168"/>
<path d="M102.169 77.8109C105.127 77.6347 108.086 77.4938 111.01 77.2471C113.933 77.0004 116.822 76.648 119.745 76.4366C121.225 76.3309 122.669 76.2604 124.148 76.2252C124.712 76.2252 125.522 76.0842 126.015 76.4718C126.367 76.7537 126.402 77.2119 126.156 77.529C125.451 78.4452 123.866 78.4805 122.845 78.6919C121.436 78.9738 120.027 79.15 118.618 79.3615C115.448 79.8196 112.278 80.3482 109.143 81.0882C108.685 81.1939 108.65 81.8282 109.002 82.0397C109.425 82.3216 109.953 82.3921 110.446 82.4626C111.01 82.533 111.538 82.674 112.102 82.7797C113.44 83.0616 114.814 83.2731 116.152 83.4493C118.865 83.8017 121.612 84.1188 124.254 84.8941C124.747 85.035 125.275 85.2112 125.768 85.3874C126.085 85.5284 126.508 85.7046 126.614 86.0922C126.896 86.9027 125.874 87.0789 125.31 87.1847C122.774 87.5371 120.203 87.0437 117.667 86.6561C116.082 86.4094 114.462 86.2332 112.877 85.9865C111.327 85.7751 109.777 85.5284 108.227 85.7398C107.769 85.8103 107.452 86.4446 107.945 86.7265C112.383 89.0524 117.35 89.9686 122.07 91.4486C122.422 91.5544 124.113 92.1182 123.444 92.7173C123.021 93.0697 122.316 93.2106 121.788 93.2811C120.59 93.3868 119.358 93.2106 118.16 92.9992C116.892 92.7525 115.659 92.5058 114.391 92.2592C112.947 91.9772 111.503 91.7306 110.059 91.4134C108.967 91.202 107.91 90.9553 106.818 90.8496C106.149 90.7791 106.149 91.8363 106.818 91.9068C107.84 92.0125 108.791 92.2239 109.777 92.4353C111.186 92.7173 112.63 92.9992 114.039 93.2459C115.413 93.4925 116.751 93.7745 118.125 94.0211C119.358 94.2326 120.661 94.444 121.929 94.303C122.669 94.2326 123.444 94.0211 124.042 93.5983C124.747 93.0697 124.817 92.2239 124.289 91.5544C123.549 90.6029 122.105 90.3915 121.048 90.0743C119.745 89.6867 118.407 89.3343 117.103 88.9819C114.145 88.1714 111.221 87.2904 108.509 85.8456C108.403 86.1627 108.333 86.5151 108.227 86.8323C109.706 86.6561 111.186 86.8323 112.665 87.0437C114.215 87.2551 115.765 87.4666 117.315 87.678C120.027 88.0656 122.774 88.6295 125.522 88.2418C126.332 88.1361 127.318 87.819 127.635 86.9732C127.987 85.9865 127.353 85.035 126.473 84.6122C125.381 84.0836 124.113 83.7664 122.915 83.4845C121.471 83.1673 119.992 82.9207 118.548 82.7445C116.927 82.533 115.272 82.3216 113.651 82.0397C112.877 81.8987 112.102 81.7225 111.327 81.5816C110.763 81.4758 110.059 81.5111 109.566 81.1939C109.53 81.5111 109.495 81.8282 109.425 82.1454C112.454 81.4406 115.518 80.912 118.583 80.4539C120.097 80.2425 121.612 80.031 123.127 79.7139C124.359 79.4672 125.768 79.3615 126.719 78.4452C127.565 77.67 127.6 76.3661 126.649 75.6261C126.121 75.2384 125.451 75.168 124.817 75.168C124.042 75.168 123.267 75.168 122.493 75.2032C119.322 75.3089 116.152 75.6966 112.982 76.0137C109.389 76.3661 105.761 76.5071 102.133 76.7537C101.499 76.789 101.499 77.8462 102.169 77.8109Z" fill="#414168"/>
<path d="M106.923 91.8714C109.107 92.7877 111.291 93.7744 113.475 94.7611C114.672 95.2897 115.87 95.8535 117.067 96.4173C117.561 96.6288 118.054 96.8754 118.547 97.1221C119.005 97.3336 119.568 97.545 119.956 97.8621C120.273 98.1088 120.449 98.6374 120.097 98.8841C119.78 99.0955 119.286 99.0603 118.899 99.0251C117.913 98.9546 116.962 98.6374 116.011 98.426C111.995 97.5802 107.98 96.664 103.999 95.6421C100.054 94.6201 96.1445 93.4572 92.1643 92.4705C88.3954 91.519 84.5912 90.6733 80.7518 90.039C76.9125 89.3694 73.0731 88.9113 69.1633 88.5941C65.0773 88.277 60.9562 88.1713 56.835 87.9951C48.5222 87.6074 40.1742 87.255 31.8614 86.8674C30.8047 86.8322 29.7833 86.7617 28.7265 86.7264C28.0573 86.6912 28.0573 87.7484 28.7265 87.7836C37.3563 88.1713 45.9861 88.5589 54.6159 88.9465C58.878 89.1227 63.14 89.2637 67.4021 89.5456C71.4176 89.7923 75.4331 90.2504 79.4486 90.8847C83.4288 91.519 87.3739 92.3648 91.2837 93.3515C95.3696 94.3734 99.3851 95.5716 103.436 96.5935C107.522 97.6507 111.678 98.6022 115.799 99.4832C117.243 99.8003 120.66 101.104 121.259 98.9193C121.646 97.4745 120.273 96.7697 119.181 96.2411C118.089 95.7125 116.997 95.2192 115.905 94.7258C113.439 93.5982 110.974 92.5057 108.508 91.4133C108.05 91.2371 107.627 91.0257 107.17 90.8495C106.571 90.6028 106.289 91.6247 106.923 91.8714Z" fill="#414168"/>
<path d="M160.497 56.5L144 66V129.255L160.497 122V56.5Z" fill="#7950ED"/>
<path d="M144.189 66H67.1201V129.255H144.189V66Z" fill="#A787FF"/>
<path d="M160.5 56.5H83L67.5 66H144L160.5 56.5Z" fill="#414168"/>
<path d="M58.2789 118.965C58.8073 123.334 59.0186 127.775 58.8425 132.179C58.8073 132.849 59.864 132.849 59.8992 132.179C60.0401 127.775 59.864 123.37 59.3356 118.965C59.2299 118.33 58.1732 118.295 58.2789 118.965Z" fill="#414168"/>
<path d="M53.9104 126.189C54.0161 129.431 53.9457 132.673 53.6991 135.88C53.6639 136.549 54.7206 136.549 54.7558 135.88C55.0024 132.638 55.0728 129.431 54.9671 126.189C54.9319 125.519 53.8752 125.519 53.9104 126.189Z" fill="#414168"/>
<path d="M170.431 87.6018C170.255 94.3325 170.114 101.063 169.938 107.794C169.903 109.732 169.832 111.67 169.797 113.573C169.797 114.243 170.854 114.243 170.854 113.573C171.03 106.843 171.171 100.112 171.347 93.3811C171.382 91.4429 171.452 89.5047 171.488 87.6018C171.488 86.9322 170.431 86.9322 170.431 87.6018Z" fill="#414168"/>
<path d="M175.361 103.671C175.432 107.301 175.502 110.966 175.608 114.595C175.608 115.265 176.664 115.265 176.664 114.595C176.594 110.966 176.524 107.301 176.418 103.671C176.383 103.002 175.326 103.002 175.361 103.671Z" fill="#414168"/>
<path d="M11.264 98.1034C17.9213 98.5263 17.5786 98.491 24.2358 98.1034C30.8931 97.7158 37.5151 97.011 44.1019 96.13C47.3425 95.6719 50.5831 95.249 53.8237 94.6499C56.9586 94.0861 60.0582 93.3813 63.017 92.2184C65.9758 91.0555 68.7937 89.5754 71.6116 88.0954C73.0205 87.3553 74.4295 86.5801 75.8384 85.84C76.5077 85.4877 77.2121 85.1353 77.8814 84.8181C78.0575 84.7124 78.5154 84.4305 78.6915 84.5362C78.8677 84.6067 78.9029 84.9238 78.9381 85.1C79.079 86.0515 78.6211 87.1439 78.1632 87.9544C77.6348 88.9059 76.8951 89.7164 76.1202 90.4564C74.4647 92.007 72.5274 93.2051 70.6253 94.4385C70.2026 94.7204 69.78 95.0023 69.3925 95.2842C68.8289 95.6719 69.3573 96.5881 69.9209 96.2005C71.7877 94.8966 73.7602 93.7337 75.5566 92.3241C77.3178 90.9498 79.0085 89.2583 79.713 87.0734C80.03 86.122 80.2766 84.7476 79.5369 83.9019C79.1142 83.4085 78.4802 83.4085 77.9166 83.6552C77.1769 83.9724 76.4372 84.36 75.7327 84.7476C72.774 86.2629 69.9209 87.8839 66.9268 89.3288C63.9681 90.7736 60.9741 91.9717 57.7687 92.747C54.5281 93.5575 51.2523 94.0156 47.9413 94.509C41.1079 95.5309 34.2393 96.3414 27.3707 96.8348C20.5373 97.3281 20.6687 97.5043 13.8001 97.1872C12.9548 97.1519 12.0742 97.0815 11.2288 97.0462C10.5596 96.9757 10.5948 98.0329 11.264 98.1034Z" fill="#414168"/>
<path d="M70.0632 96.518C72.9163 95.9189 75.7694 95.3198 78.5873 94.6503C81.4052 93.9807 84.1879 93.2055 86.9706 92.5712C88.3443 92.254 89.7532 91.9721 91.1269 91.7254C91.761 91.6197 92.6063 91.3378 93.2404 91.5844C93.663 91.7606 93.8392 92.1835 93.663 92.6064C93.2051 93.6636 91.5849 93.9455 90.6338 94.2979C89.2953 94.7912 87.9216 95.1789 86.5831 95.6018C83.5186 96.5532 80.4542 97.5399 77.4602 98.7733C77.1079 98.9143 76.8614 99.5486 77.3193 99.7248C77.7772 99.9362 78.2703 99.9715 78.7635 99.9715C79.327 99.9715 79.8554 100.007 80.419 100.042C81.8631 100.112 83.3073 100.112 84.7515 100.077C87.6046 100.042 90.4929 99.901 93.3108 100.359C93.9801 100.465 95.2833 100.5 95.5299 101.275C95.7412 102.015 94.7198 102.262 94.1914 102.403C91.6905 103.073 89.1192 103.002 86.5479 103.002C84.9628 103.002 83.3777 103.073 81.7927 103.073C80.2428 103.073 78.693 103.108 77.1784 103.531C76.65 103.672 76.6853 104.376 77.1784 104.553C81.9688 106.209 87.0762 106.279 92.0428 107.09C92.4302 107.16 93.9096 107.477 93.346 108.112C92.9234 108.605 92.1132 108.817 91.5144 108.958C90.352 109.204 89.1192 109.204 87.9568 109.169C86.6888 109.134 85.4207 109.063 84.1174 109.028C82.7085 108.993 81.2996 108.958 79.8554 108.852C78.7987 108.781 77.7772 108.711 76.6853 108.781C76.016 108.817 76.016 109.874 76.6853 109.839C77.7067 109.768 78.693 109.839 79.7145 109.909C81.1234 109.979 82.5324 110.015 83.9413 110.085C85.315 110.12 86.724 110.191 88.0977 110.261C89.3658 110.297 90.7043 110.297 91.9371 109.979C92.6768 109.803 93.4869 109.486 94.0153 108.958C94.6493 108.323 94.6493 107.477 94.0153 106.843C93.1699 106.033 91.7962 106.033 90.7043 105.856C89.3305 105.68 87.9568 105.539 86.5831 105.363C83.4834 105.011 80.419 104.553 77.4602 103.531C77.4602 103.883 77.4602 104.2 77.4602 104.553C78.8691 104.13 80.3485 104.13 81.7927 104.13C83.3073 104.13 84.8571 104.059 86.3718 104.059C89.084 104.059 91.8666 104.165 94.5084 103.425C95.2833 103.213 96.2344 102.826 96.5162 101.98C96.8684 100.993 96.1639 100.077 95.2833 99.7248C94.1914 99.3019 92.8881 99.1962 91.761 99.1257C90.2464 98.9848 88.7317 98.9848 87.2171 98.9848C85.5264 99.02 83.8357 99.0552 82.1097 99.0552C81.2643 99.0552 80.4542 98.9848 79.6088 98.9495C79.0805 98.9143 78.376 99.0905 77.8829 98.879C77.8476 99.1962 77.8124 99.5133 77.742 99.8305C80.6303 98.6676 83.5539 97.6809 86.5479 96.7647C88.0273 96.3065 89.5419 95.8837 91.0213 95.3198C92.2189 94.8617 93.5926 94.5798 94.4027 93.4874C95.1072 92.5712 94.8959 91.1968 93.8039 90.6682C93.1347 90.3511 92.4302 90.4568 91.7257 90.5977C90.9508 90.7035 90.1407 90.8797 89.3658 91.0206C86.3013 91.6197 83.2721 92.4654 80.2076 93.2407C76.7557 94.1217 73.2333 94.7912 69.7462 95.5665C69.1474 95.637 69.4292 96.6589 70.0632 96.518Z" fill="#414168"/>
<path d="M76.7551 109.733C79.1151 110.332 81.4398 110.966 83.7646 111.636C85.0326 111.988 86.3007 112.341 87.5687 112.728C88.0971 112.869 88.6254 113.045 89.1538 113.186C89.6469 113.327 90.1753 113.433 90.598 113.68C90.9502 113.856 91.2672 114.314 90.9854 114.702C90.7741 114.984 90.281 115.019 89.9287 115.054C89.0481 115.124 88.1323 114.984 87.2517 114.913C83.0953 114.702 78.9389 114.384 74.7826 113.962C70.6614 113.539 66.5754 112.975 62.4543 112.622C58.3683 112.235 54.2472 112.023 50.126 111.847C41.8837 111.565 33.6414 111.671 25.399 111.847C17.1215 112.023 19.8439 112.27 11.5664 112.27C10.5449 112.27 9.52342 112.27 8.50194 112.27C7.83269 112.27 7.83269 113.327 8.50194 113.327C17.0613 113.398 14.6206 113.151 23.18 112.975C31.6688 112.799 40.1577 112.658 48.6466 112.904C52.9087 113.045 57.1707 113.257 61.4328 113.609C65.6949 113.962 69.9569 114.561 74.219 114.984C78.4458 115.406 82.7079 115.724 86.9699 115.97C88.4141 116.041 91.866 116.781 92.1126 114.596C92.2887 113.081 90.8093 112.587 89.6469 112.27C88.5198 111.953 87.4278 111.636 86.3007 111.319C83.6589 110.579 81.0171 109.839 78.3754 109.134C77.9174 109.028 77.4595 108.887 77.0369 108.781C76.3676 108.535 76.0858 109.557 76.7551 109.733Z" fill="#414168"/>
<path d="M66.2047 129.079C65.2537 132.427 64.1617 135.739 62.9289 139.016C62.3301 140.637 61.6961 142.258 60.9916 143.879C60.6746 144.655 60.3224 145.465 59.9701 146.241C59.7588 146.734 59.477 147.157 59.2304 147.65C58.7725 148.566 58.3498 149.87 59.3713 150.575C60.2167 151.174 61.4847 151.033 62.471 150.963C63.9152 150.857 65.3946 150.927 66.8387 150.927C68.6351 150.927 70.4668 150.927 72.2632 150.963C79.5192 150.998 86.7401 150.998 93.9961 150.998C101.252 150.998 108.473 151.033 115.729 150.927C122.915 150.822 130.136 150.54 137.321 150.681C138.237 150.681 139.118 150.716 140.033 150.751C140.245 150.751 140.491 150.575 140.527 150.364C141.196 147.086 141.337 143.739 142.041 140.461C142.746 137.149 143.45 133.871 144.155 130.559C144.295 129.889 143.274 129.607 143.133 130.277C142.429 133.59 141.724 136.867 141.02 140.179C140.315 143.457 140.21 146.804 139.505 150.082C139.681 149.941 139.857 149.835 139.998 149.694C132.953 149.483 125.873 149.694 118.829 149.835C111.784 149.976 104.704 149.941 97.6594 149.976C90.5794 149.976 83.4643 149.976 76.3843 149.941C72.862 149.941 69.3044 149.905 65.782 149.905C64.4787 149.905 63.1755 149.905 61.8722 149.976C61.2734 150.011 59.6531 150.187 59.7588 149.201C59.8292 148.672 60.111 148.143 60.3928 147.685C60.6746 147.157 60.9212 146.628 61.1677 146.1C61.837 144.549 62.471 143.034 63.105 141.448C64.3379 138.276 65.465 135.07 66.4513 131.828C66.6978 131.017 66.9444 130.207 67.1557 129.396C67.4023 128.691 66.3808 128.409 66.2047 129.079Z" fill="#414168"/>
<path d="M65 50L67.5981 54.5H62.4019L65 50Z" fill="#41CADD"/>
<path d="M174.656 41.3274C170.609 37.2804 164.047 37.2804 160 41.3274L174.656 55.9831C178.703 51.9361 178.703 45.3744 174.656 41.3274Z" fill="#F685A1"/>
<path d="M81.1586 25.198L77.5007 31.7755L73.6334 25.319L81.1586 25.198Z" stroke="#414168"/>
<path d="M160.039 123.12C162.287 128.612 163.133 134.572 165.712 139.953C165.803 139.721 165.893 139.488 165.948 139.253C164.218 140.244 162.487 141.234 160.76 142.191C159.295 142.998 157.765 143.731 156.336 144.54C154.494 145.591 152.714 146.749 150.775 147.654C150.328 147.858 149.843 148.093 149.366 148.226C149.182 148.279 149.034 148.336 148.853 148.355C148.672 148.375 148.491 148.395 148.455 148.392C148.419 148.389 148.384 148.386 148.348 148.383C148.348 148.383 148.452 148.426 148.348 148.383C148.244 148.341 148.348 148.383 148.28 148.343C148.244 148.341 148.11 148.227 148.211 148.304C148.145 148.23 148.08 148.156 148.047 148.119C147.852 147.864 147.674 147.404 147.523 147.049C146.75 145.068 146.496 142.889 146.161 140.807C145.918 139.383 145.633 138.024 145.389 136.6C145.024 134.446 144.734 132.265 144.554 130.057C144.499 129.402 143.443 129.591 143.498 130.246C143.687 132.351 143.919 134.357 144.223 136.368C144.467 137.793 144.782 139.223 145.026 140.647C145.39 142.8 145.678 145.016 146.407 147.096C146.67 147.837 146.985 148.821 147.739 149.259C148.458 149.694 149.417 149.36 150.119 149.109C152.264 148.323 154.236 147.009 156.194 145.865C157.551 145.05 158.969 144.376 160.395 143.601C162.457 142.5 164.486 141.362 166.486 140.153C166.749 140.003 166.878 139.739 166.721 139.452C164.104 134.102 163.255 128.176 161.007 122.684C160.771 122.049 159.803 122.484 160.039 123.12Z" fill="#414168"/>
</svg>
