<svg width="100" height="75" viewBox="0 0 100 75" fill="none" xmlns="http://www.w3.org/2000/svg">
<path d="M50.1767 11.6767L96.8534 40.2901L50.1767 69.2052L3.5 40.2901L50.1767 11.6767Z" fill="#F4F4F7"/>
<path d="M40.9025 26.0871C41.4717 26.0871 41.4717 25.1816 40.9025 25.1816C40.3033 25.1816 40.3033 26.0871 40.9025 26.0871Z" fill="#414168"/>
<path d="M49.632 43.1814C50.2012 43.1814 50.2012 42.2759 49.632 42.2759C49.0628 42.2759 49.0628 43.1814 49.632 43.1814Z" fill="#414168"/>
<path d="M62.2736 43.6701C62.8428 43.6701 62.8428 42.7646 62.2736 42.7646C61.7044 42.7646 61.7044 43.6701 62.2736 43.6701Z" fill="#414168"/>
<path d="M57.4338 50.9963C58.003 50.9963 58.003 50.0908 57.4338 50.0908C56.8346 50.0908 56.8346 50.9963 57.4338 50.9963Z" fill="#414168"/>
<path d="M59.464 22.4814C60.0333 22.4814 60.0333 21.5759 59.464 21.5759C58.8948 21.5759 58.8948 22.4814 59.464 22.4814Z" fill="#414168"/>
<path d="M52.1847 16.1435C52.754 16.1435 52.754 15.238 52.1847 15.238C51.6155 15.238 51.6155 16.1435 52.1847 16.1435Z" fill="#414168"/>
<path d="M55.2101 29.5445C55.7794 29.5445 55.7794 28.639 55.2101 28.639C54.6109 28.639 54.6109 29.5445 55.2101 29.5445Z" fill="#414168"/>
<path d="M55.8713 36.571C56.4405 36.571 56.4405 35.6655 55.8713 35.6655C55.2721 35.6655 55.2721 36.571 55.8713 36.571Z" fill="#414168"/>
<path d="M47.4211 22.4814C47.9903 22.4814 47.9903 21.5759 47.4211 21.5759C46.8518 21.5759 46.8518 22.4814 47.4211 22.4814Z" fill="#414168"/>
<path d="M34.8683 34.1018C35.4376 34.1018 35.4376 33.1964 34.8683 33.1964C34.2991 33.1964 34.2991 34.1018 34.8683 34.1018Z" fill="#414168"/>
<path d="M27.1086 34.3436C27.6778 34.3436 27.6778 33.4381 27.1086 33.4381C26.5393 33.4381 26.5393 34.3436 27.1086 34.3436Z" fill="#414168"/>
<path d="M28.6066 46.9897C29.1758 46.9897 29.1758 46.0842 28.6066 46.0842C28.0374 46.0842 28.0374 46.9897 28.6066 46.9897Z" fill="#414168"/>
<path d="M39.3918 38.9012C39.961 38.9012 39.961 37.9958 39.3918 37.9958C38.8225 37.9958 38.8225 38.9012 39.3918 38.9012Z" fill="#414168"/>
<path d="M37.6545 50.0086C38.2237 50.0086 38.2237 49.1031 37.6545 49.1031C37.0553 49.1031 37.0553 50.0086 37.6545 50.0086Z" fill="#414168"/>
<path d="M14.5558 36.8785C15.1251 36.8785 15.1251 35.973 14.5558 35.973C13.9866 35.973 13.9866 36.8785 14.5558 36.8785Z" fill="#414168"/>
<path d="M29.3556 28.0352C29.9249 28.0352 29.9249 27.1297 29.3556 27.1297C28.7864 27.1297 28.7864 28.0352 29.3556 28.0352Z" fill="#414168"/>
<path d="M22.3459 42.432C22.9151 42.432 22.9151 41.5265 22.3459 41.5265C21.7766 41.5265 21.7766 42.432 22.3459 42.432Z" fill="#414168"/>
<path d="M43.4064 32.5928C43.9756 32.5928 43.9756 31.6873 43.4064 31.6873C42.8372 31.6873 42.8372 32.5928 43.4064 32.5928Z" fill="#414168"/>
<path d="M47.9816 38.6687C48.5508 38.6687 48.5508 37.7632 47.9816 37.7632C47.4124 37.7632 47.4124 38.6687 47.9816 38.6687Z" fill="#414168"/>
<path d="M49.8781 5.88731C49.5799 8.04859 49.4904 10.2099 49.6097 12.3712C49.6395 12.9495 50.5341 12.9495 50.5043 12.3712C50.385 10.3012 50.4447 8.2008 50.7429 6.13083C50.7727 5.88731 50.6832 5.64378 50.4447 5.5829C50.2359 5.49158 49.9079 5.64378 49.8781 5.88731Z" fill="#414168"/>
<path d="M50.1468 12.5843C55.5143 15.8719 60.8819 19.1595 66.2494 22.4471C68.9331 24.0909 71.5871 25.7043 74.2708 27.3481C75.5233 28.1091 76.7757 28.8701 77.9685 29.7224C79.1612 30.5748 80.2348 31.6097 81.4275 32.4621C82.7992 33.4362 84.2902 34.2276 85.7514 35.08C87.302 35.9628 88.8228 36.876 90.3734 37.7588C90.8803 38.0632 91.3276 37.2717 90.8207 36.9673C88.1668 35.4148 85.4532 33.9232 82.829 32.3099C81.5766 31.5184 80.4733 30.5139 79.3103 29.6007C78.1474 28.6874 76.9248 27.9264 75.6724 27.135C70.3347 23.8474 64.9671 20.5902 59.6294 17.3026C56.6177 15.4458 53.6059 13.6193 50.5941 11.7624C50.0872 11.5189 49.6399 12.2799 50.1468 12.5843Z" fill="#414168"/>
<path d="M50.2063 6.31361C51.7271 7.13551 53.3076 7.89653 54.8284 8.71843C56.379 9.57076 57.8401 10.5144 59.2715 11.5494C62.2236 13.6194 65.2354 15.598 68.277 17.5462C74.4198 21.4731 80.6521 25.2173 86.8247 29.1137C88.3753 30.0878 89.926 31.0619 91.5064 32.0055C92.9676 32.8579 94.3989 33.7711 95.5917 34.9887C96.0091 35.4149 96.6354 34.7756 96.2179 34.3495C95.1742 33.2536 93.892 32.4013 92.5799 31.6098C91.2678 30.8183 89.926 30.0269 88.6437 29.205C85.5425 27.2263 82.3816 25.3086 79.2506 23.3604C73.0481 19.5249 66.8456 15.6893 60.8221 11.5494C59.182 10.4231 57.5718 9.23592 55.8422 8.26182C54.1425 7.31816 52.3533 6.46582 50.6238 5.52216C50.1467 5.24819 49.6994 6.03965 50.2063 6.31361Z" fill="#414168"/>
<path d="M9.38369 37.7895C14.7512 34.5019 20.1187 31.2143 25.4862 27.9267C28.17 26.2829 30.8239 24.6695 33.5077 23.0257C34.7601 22.2647 36.0125 21.5037 37.2053 20.6514C38.3981 19.799 39.4716 18.764 40.6644 17.9117C42.0361 16.9376 43.5271 16.1462 44.9882 15.2938C46.5388 14.411 48.0596 13.4978 49.6103 12.615C50.1172 12.3106 49.6699 11.5496 49.163 11.8236C46.509 13.3761 43.7954 14.8676 41.1713 16.481C39.9189 17.2725 38.8156 18.277 37.6526 19.1902C36.4897 20.1034 35.2671 20.8645 34.0146 21.6559C28.6769 24.9435 23.3392 28.2006 17.9717 31.4882C14.9599 33.3451 11.9482 35.1716 8.9364 37.0284C8.45929 37.3024 8.90658 38.0939 9.38369 37.7895Z" fill="#414168"/>
<path d="M4.67195 34.7453C6.22256 33.9234 7.803 33.1624 9.35361 32.31C10.8744 31.4881 12.3057 30.514 13.7371 29.5399C16.719 27.47 19.7606 25.4609 22.8022 23.5127C28.9749 19.5554 35.2668 15.7808 41.4991 11.8539C43.0497 10.8798 44.6003 9.93616 46.1509 8.9925C47.6121 8.10972 49.0732 7.1965 50.266 5.94844C50.6537 5.52227 50.0275 4.88301 49.6398 5.30918C48.5961 6.40505 47.3139 7.22694 46.0317 8.0184C44.6898 8.8403 43.3181 9.63176 42.006 10.4841C38.9048 12.4627 35.8035 14.3501 32.6725 16.2983C26.4999 20.0729 20.3272 23.878 14.3335 27.9875C12.6934 29.1138 11.0831 30.2705 9.35361 31.2446C7.6539 32.1883 5.92437 33.0102 4.19483 33.9234C3.6879 34.2278 4.16501 35.0193 4.67195 34.7453Z" fill="#414168"/>
<path d="M45.6035 25.7526L60.3576 -6.10352e-05L75.1118 25.7526L45.6035 25.7526Z" fill="#144BC1"/>
<path d="M61.8457 25.6699L61.8457 50.3254L86.461 50.3651L86.461 25.7096L61.8457 25.6699Z" fill="#41CADD"/>
<path d="M31.2149 14.8934L40.4072 22.7259L48.2418 13.478L39.0495 5.64552L31.2149 14.8934Z" fill="#F685A1"/>
<ellipse cx="51.6353" cy="49.6023" rx="10.2105" ry="10.2567" fill="#A787FF"/>
<path d="M42.0172 42.2822C39.5447 51.5514 29.7008 56.9558 20.0306 54.3529L28.9845 20.7857C38.6547 23.3885 44.4897 33.013 42.0172 42.2822Z" fill="#F5B82E"/>
<path d="M3.5 46.0363V33.9731L50.1767 62.3321V74.9999L3.5 46.0363Z" fill="#414168"/>
<path d="M96.3672 46.0363V33.9731L50.1768 62.3321V74.9999L96.3672 46.0363Z" fill="#414168"/>
</svg>
