<svg width="264" height="216" viewBox="0 0 264 216" fill="none" xmlns="http://www.w3.org/2000/svg">
<path d="M187.963 121.763C187.078 122.258 186.762 123.375 187.257 124.259C187.751 125.144 188.869 125.459 189.754 124.964C190.638 124.47 190.954 123.352 190.46 122.468C189.965 121.584 188.847 121.268 187.963 121.763Z" stroke="#414168"/>
<path d="M143.308 0.89584C142.423 1.39059 142.107 2.50835 142.602 3.39241C143.096 4.27647 144.214 4.59206 145.099 4.09731C145.983 3.60255 146.299 2.4848 145.805 1.60074C145.31 0.716682 144.192 0.401085 143.308 0.89584Z" stroke="#414168"/>
<path d="M16.3197 102.517L18.5549 102.27L18.311 100.028L16.0758 100.275L16.3197 102.517Z" stroke="#414168"/>
<path d="M182.41 23.7667C183.187 22.8075 184.632 22.6901 185.637 23.5044L182.823 26.978C181.818 26.1637 181.633 24.7259 182.41 23.7667Z" stroke="#414168"/>
<path d="M10.0202 75.0462C8.41638 73.9634 6.28926 74.2269 5.12511 75.6639C3.96096 77.101 4.14471 79.2365 5.53684 80.5806L10.0202 75.0462Z" stroke="#414168" stroke-width="0.7"/>
<line y1="-0.5" x2="7.59325" y2="-0.5" transform="matrix(0.937254 0.348648 -0.348646 0.937254 0 30.3656)" stroke="#414168"/>
<line y1="-0.5" x2="7.59325" y2="-0.5" transform="matrix(0.526341 -0.850274 0.850275 0.526339 167.082 12.2921)" stroke="#414168"/>
<line y1="-0.5" x2="7.59325" y2="-0.5" transform="matrix(0.966652 0.256094 -0.256092 0.966652 199.46 116.699)" stroke="#414168"/>
<line x1="21.8463" y1="12.2199" x2="24.6772" y2="16.3296" stroke="#414168"/>
<line x1="10.6318" y1="114.628" x2="7.53715" y2="118.543" stroke="#414168"/>
<path d="M90.2893 78.3618C87.2992 90.1707 87.4293 102.239 84.6992 114.048C81.9257 125.987 79.239 138.012 78.2423 150.253C78.3723 148.696 87.0392 150.556 87.9926 150.945C92.6728 152.675 98.8263 157.434 99.693 162.495C89.8993 163.273 79.759 163.057 69.8787 163.23C59.2183 163.403 63.9851 147.268 64.4618 140.694C65.3719 128.495 66.6286 116.341 68.1886 104.229" stroke="#414168" stroke-width="0.7" stroke-miterlimit="10"/>
<path d="M60.1718 133.729L37.291 94.1935L14.4536 54.6576H60.1718H105.933L83.0526 94.1935L60.1718 133.729Z" fill="#121242"/>
<path d="M49.4246 103.364C50.0747 115.562 50.4213 127.803 50.4213 140.001C50.4213 145.927 53.1081 155.141 48.818 160.115C45.9145 163.489 39.4143 162.148 35.5575 162.148C27.9739 162.148 20.4337 162.148 12.8501 162.148C15.8402 152.892 25.4605 146.23 35.2108 146.663C33.9541 146.62 35.0808 126.462 35.1675 124.559C35.6009 117.033 35.4708 109.117 35.2108 101.46C34.9508 93.8474 34.4741 81.9521 34.4741 81.9521" stroke="#414168" stroke-width="0.7" stroke-miterlimit="10"/>
<path d="M90.9394 120.061C86.9093 90.6033 106.757 63.5683 135.228 59.7186C163.699 55.8688 190.046 76.6316 194.033 106.089L90.9394 120.061Z" fill="#121242"/>
<path d="M116.81 100.033C119.67 116.989 123.744 134.811 124.307 151.983C124.264 150.426 115.51 151.897 114.514 152.2C109.747 153.714 103.377 158.169 102.293 163.187C112.044 164.441 122.184 164.701 132.021 165.306C142.681 165.998 138.651 149.648 138.478 143.029C138.131 130.831 137.481 118.59 136.484 106.435" stroke="#414168" stroke-width="0.7" stroke-miterlimit="10"/>
<path d="M160.578 96.8321C164.002 113.659 166.602 131.783 172.235 148.004C171.715 146.533 180.382 144.76 181.466 144.716C186.449 144.414 193.99 146.317 196.806 150.599C188.139 155.228 178.779 159.121 169.809 163.23C160.102 167.685 157.978 150.988 155.768 144.76C151.695 133.21 147.925 121.574 144.501 109.852" stroke="#414168" stroke-width="0.7" stroke-miterlimit="10"/>
<path d="M198.453 38.653C199.103 35.7981 199.406 34.933 199.927 32.0348C200.403 29.3962 200.88 26.7143 201.703 24.1622C201.79 23.8594 201.92 23.5567 202.137 23.3404C202.527 22.9511 203.22 22.9511 203.653 23.2971C204.347 23.7729 204.52 24.7678 204.433 25.5464C204.347 26.325 204.347 27.1469 204.26 27.9255C203.913 30.6506 203.35 33.419 203.22 36.1441C203.22 36.5767 203.22 36.9227 203.437 37.2688C203.61 37.2688 203.74 37.1823 203.87 37.0525C204.953 35.4953 205.69 33.765 206.383 31.9916C207.033 30.3478 207.38 28.7041 208.247 27.0604C208.507 26.6278 208.767 26.1088 209.2 25.8925C211.497 24.5948 210.674 28.6609 210.544 29.526C210.11 31.8618 209.417 34.1111 208.507 36.2739" stroke="#414168" stroke-width="0.7" stroke-miterlimit="10"/>
<path d="M210.11 41.3348C210.544 40.859 211.064 40.0372 211.757 39.9939C212.32 39.9939 212.927 40.2967 213.23 40.7725C213.707 41.4646 213.534 42.2865 213.144 43.0218C210.197 48.299 206.903 53.2735 204.13 58.6372C201.4 63.9144 199.016 69.3646 196.59 74.8149C195.506 77.1939 194.466 79.573 193.34 81.9521C192.95 82.774 192.56 83.6391 191.866 84.2447C191.216 84.8502 190.35 85.153 189.569 85.4558C182.593 87.8782 175.399 89.4786 168.162 90.1707" stroke="#414168" stroke-width="0.7" stroke-miterlimit="10"/>
<path d="M208.55 36.1874C207.337 38.4367 204.65 43.7139 204.477 46.2227C204.433 46.612 204.52 47.1311 204.867 47.2609C205.04 47.3041 205.257 47.2609 205.43 47.1311C206.08 46.7851 206.6 46.2227 207.033 45.6604C208.203 44.2762 209.287 42.8055 210.24 41.2483" stroke="#414168" stroke-width="0.7" stroke-miterlimit="10"/>
<path d="M205.733 45.7037C205.907 45.7469 206.123 45.7902 206.253 45.6604C206.34 45.6172 206.34 45.5307 206.383 45.4441C206.513 45.0548 206.47 44.6655 206.383 44.2762C206.253 43.5409 205.95 42.892 205.517 42.2865C205.343 42.0269 205.083 41.7674 204.78 41.7241C204.347 41.6376 203.957 41.9404 203.697 42.2865C202.267 44.1032 204.043 45.2279 205.733 45.7037Z" fill="white"/>
<path d="M199.06 48.9479C200.143 47.4339 200.316 45.6172 200.49 43.8437C200.576 43.0651 200.533 43.0218 201.183 43.2813C201.53 43.4111 201.92 43.7572 202.223 43.9734C202.96 44.4925 206.253 46.8283 206.557 44.7953C206.73 43.5409 205.473 41.8539 204.65 41.032C203.567 39.9506 202.223 39.2153 200.793 38.7395C197.196 37.4418 195.463 41.5079 194.813 44.3627C192.43 54.7441 187.836 64.9093 183.806 74.7716C177.436 76.0693 171.066 77.367 164.695 78.7079" stroke="#414168" stroke-width="0.7" stroke-miterlimit="10"/>
<path d="M208.16 36.9227C208.464 36.0576 209.547 35.625 210.414 35.9711C211.28 36.3171 211.757 37.2688 211.714 38.1771C211.67 38.8692 211.28 39.5181 210.934 40.1669C210.587 40.7725 210.197 41.3781 209.807 41.9836" stroke="#414168" stroke-width="0.7" stroke-miterlimit="10"/>
<path d="M212.277 44.406C211.454 45.5739 210.327 46.5255 208.984 47.0879C208.507 47.2609 208.03 47.4339 207.51 47.3474C207.033 47.2609 206.513 46.9148 206.427 46.439" stroke="#414168" stroke-width="0.7" stroke-miterlimit="10"/>
<path d="M61.4718 48.4288C70.9494 48.4288 78.6324 40.4692 78.6324 30.6506C78.6324 20.832 70.9494 12.8725 61.4718 12.8725C51.9943 12.8725 44.3113 20.832 44.3113 30.6506C44.3113 40.4692 51.9943 48.4288 61.4718 48.4288Z" fill="#A787FF"/>
<path d="M57.2683 38.653C57.2683 38.653 60.3884 43.8004 64.5052 43.2813C68.622 42.8055 70.8321 37.6581 70.2687 34.1111L57.2683 38.653Z" stroke="#414168" stroke-width="0.7" stroke-miterlimit="10"/>
<path d="M61.4285 28.7474L61.6451 34.0246L59.0884 32.4674L61.4285 28.7474Z" stroke="#414168" stroke-width="0.7" stroke-miterlimit="10"/>
<path d="M105.89 54.6576C112.563 53.6628 119.237 52.6246 125.911 51.6297" stroke="#414168" stroke-width="0.7" stroke-miterlimit="10"/>
<path d="M149.441 49.64C154.555 49.3804 159.972 50.2455 164.652 52.4083C169.332 54.5711 174.446 59.1995 173.926 64.8228C173.796 66.5098 173.146 68.1102 172.409 69.6242" stroke="#414168" stroke-width="0.7" stroke-miterlimit="10"/>
<path d="M113.69 68.3698C107.97 69.0186 102.25 69.3646 96.4863 69.4079" stroke="#414168" stroke-width="0.7" stroke-miterlimit="10"/>
<path d="M172.495 69.5376C171.932 70.9218 171.282 72.3925 169.895 73.1279C169.505 73.3442 168.942 73.4739 168.552 73.1711C168.292 72.9548 168.205 72.5223 168.205 72.1762C168.205 71.3544 168.422 70.5325 168.509 69.7539C168.639 68.8888 167.902 69.8404 167.729 70.1C167.339 70.5325 166.949 70.9218 166.515 71.2679C165.735 71.8302 164.825 72.2195 163.872 72.3493C163.612 72.3925 163.352 72.3925 163.178 72.2628C162.962 72.133 162.832 71.8302 162.788 71.5707C162.442 70.1432 162.918 68.5428 163.958 67.5046C163.352 68.24 162.528 68.8023 161.662 69.1916C161.055 69.4511 159.582 70.0135 158.975 69.4944C158.758 69.3214 158.672 68.9753 158.715 68.6725C158.758 68.3697 158.888 68.1102 158.975 67.8507C159.452 66.6395 159.842 65.0823 159.365 63.8279C158.975 62.7897 158.108 61.7948 156.938 61.7516" stroke="#414168" stroke-width="0.7" stroke-miterlimit="10"/>
<path d="M136.441 55.5228C145.919 55.5228 153.602 47.5632 153.602 37.7446C153.602 27.926 145.919 19.9664 136.441 19.9664C126.964 19.9664 119.281 27.926 119.281 37.7446C119.281 47.5632 126.964 55.5228 136.441 55.5228Z" fill="#A787FF"/>
<path d="M129.594 42.9353C129.594 42.9353 130.417 48.9046 134.404 50.0725C138.391 51.2404 142.421 47.3906 143.331 43.9302L129.594 42.9353Z" stroke="#414168" stroke-width="0.7" stroke-miterlimit="10"/>
<path d="M136.398 35.7981L136.614 41.1185L134.101 39.5181L136.398 35.7981Z" stroke="#414168" stroke-width="0.7" stroke-miterlimit="10"/>
<path d="M51.7648 23.8162C48.7747 23.9892 45.6112 23.7729 42.9678 22.3455C40.5844 21.0478 38.7643 18.712 38.071 16.0734C37.3776 13.4348 37.811 10.5366 39.241 8.20083C40.8011 5.60547 43.7045 3.78873 46.7379 3.78873C49.7714 3.78873 52.8048 5.69199 53.8015 8.54687C58.395 6.73013 63.4218 5.51896 68.2753 6.51385C74.3855 7.76827 78.6757 11.445 79.5424 17.8036C79.889 20.4855 79.7157 23.2106 79.499 25.8925C79.369 27.4929 79.5424 29.526 79.0223 30.9967C76.0322 30.3911 73.0855 26.9739 72.0454 24.292C71.2654 22.3455 72.1321 19.5339 68.9253 20.5288C63.3785 22.1725 57.5283 23.4701 51.7648 23.8162Z" stroke="#414168" stroke-width="0.7" stroke-miterlimit="10"/>
<path d="M119.237 30.6506C123.527 30.4776 130.417 30.2613 134.707 30.0883C136.181 30.0451 137.741 29.9585 138.997 29.1367C140.254 28.3148 140.991 26.5413 140.124 25.3302C140.861 25.806 141.078 26.8874 141.121 27.7525C141.164 28.6176 141.208 29.6125 141.814 30.2613C142.161 29.1799 142.464 28.1418 142.811 27.0604C142.941 28.0553 143.158 29.0069 143.418 29.9585C143.504 30.2181 143.548 30.4344 143.721 30.6074C143.981 30.8669 144.328 30.9102 144.674 30.9967C148.704 31.6888 152.908 33.2892 155.161 36.7065" stroke="#414168" stroke-width="0.7" stroke-miterlimit="10"/>
<path d="M113.04 53.6195C109.963 51.9325 106.497 50.0725 105.89 50.2888C112.997 47.6069 117.634 40.2967 118.89 32.8134C119.757 27.839 119.497 22.259 122.704 18.366C124.871 15.7273 128.251 14.3864 131.631 13.8673C140.818 12.4832 150.958 17.6306 154.035 26.3683C156.592 33.5055 154.685 42.8055 155.292 50.2888" stroke="#414168" stroke-width="0.7" stroke-miterlimit="10"/>
<path d="M59 66.25C51.9599 66.25 46.25 72.1031 46.25 79.3223C46.25 85.0981 49.9029 89.9981 54.9699 91.7269C55.6064 91.8478 55.8125 91.4425 55.8125 91.0983V88.6647C52.2659 89.4556 51.5274 87.1221 51.5274 87.1221C50.9473 85.6112 50.1111 85.2092 50.1111 85.2092C48.9541 84.3977 50.1993 84.4151 50.1993 84.4151C51.4796 84.5066 52.1533 85.7626 52.1533 85.7626C53.2901 87.7605 55.1357 87.1831 55.8635 86.8487C55.9772 86.0045 56.3076 85.4271 56.6731 85.1014C53.8416 84.7691 50.8644 83.6482 50.8644 78.6404C50.8644 77.2122 51.3628 76.0466 52.1777 75.1316C52.0459 74.8015 51.6093 73.4714 52.302 71.6717C52.302 71.6717 53.373 71.321 55.8093 73.0117C56.8261 72.7219 57.9163 72.577 59 72.5716C60.0837 72.577 61.1749 72.7219 62.1939 73.0117C64.6281 71.321 65.6969 71.6717 65.6969 71.6717C66.3907 73.4725 65.9541 74.8026 65.8223 75.1316C66.6404 76.0466 67.1345 77.2133 67.1345 78.6404C67.1345 83.6612 64.1521 84.7669 61.3131 85.0905C61.7699 85.4957 62.1875 86.291 62.1875 87.511V91.0983C62.1875 91.4458 62.3915 91.8543 63.0386 91.7258C68.1014 89.9948 71.75 85.0959 71.75 79.3223C71.75 72.1031 66.0412 66.25 59 66.25Z" fill="white"/>
<path d="M124.625 84.9861C124.625 90.8643 129.006 95.6687 134.652 96.347V73.6252C129.006 74.3034 124.625 79.136 124.625 84.9861Z" fill="white"/>
<path d="M147.375 84.986C147.375 79.1077 142.938 74.2468 137.264 73.6251V96.3751H147.375V85.3251C147.375 85.2121 147.375 85.099 147.375 84.986Z" fill="white"/>
</svg>
