<svg width="150" height="150" viewBox="0 0 150 150" fill="none" xmlns="http://www.w3.org/2000/svg">
<path d="M75.0899 81.755C79.4197 84.2548 84.8458 83.0913 87.8378 79.2533L70.8643 69.4536C69.0729 73.9849 70.7783 79.2656 75.0899 81.755Z" fill="#414168"/>
<path d="M101.226 69.3833C110.526 60.0821 120.494 43.4046 113.589 17.1319L113.147 15.4608L111.411 15.9474C85.4283 23.3059 76.1525 40.2123 72.9139 52.964C66.5395 51.3586 59.3508 55.2391 55.2771 60.6983L70.7771 69.6472L87.7507 79.4469L103.251 88.3958C105.921 82.175 105.699 74.1139 101.226 69.3833ZM104.537 30.4573C107.729 32.3242 108.814 36.3682 107.004 39.5459C105.183 42.7419 101.088 43.8684 97.9299 42.0696C94.772 40.2708 93.6532 36.1587 95.4636 32.981C97.274 29.8033 101.361 28.648 104.537 30.4573Z" fill="#A787FF"/>
<path d="M109.374 24.0873C110.389 24.9911 111.062 26.1301 111.372 27.4354C111.511 28.0645 111.572 28.6768 111.525 29.3717C111.487 29.8984 111.287 30.7066 111.081 31.1653C110.925 31.5373 110.994 31.9813 111.371 32.1989C111.703 32.3909 112.255 32.3053 112.411 31.9332C113.713 28.9605 112.954 25.2591 110.454 23.0361C110.136 22.7663 109.682 22.7348 109.371 23.0173C109.095 23.2909 109.069 23.7959 109.374 24.0873Z" fill="white"/>
<path d="M18.2987 104.155C20.0167 105.147 22.2132 104.559 23.2046 102.842C24.1961 101.125 23.6071 98.9286 21.8891 97.9367C20.1711 96.9448 17.9746 97.5328 16.9831 99.2501C15.9917 100.967 16.5807 103.164 18.2987 104.155Z" fill="#41CADD"/>
<path d="M64.8725 138.737C65.9238 139.344 67.268 138.984 67.8747 137.933C68.4814 136.882 68.1209 135.538 67.0696 134.931C66.0183 134.324 64.6742 134.684 64.0675 135.735C63.4608 136.786 63.8212 138.13 64.8725 138.737Z" fill="#144BC1"/>
<path d="M68.2825 37.008C67.8139 37.8195 66.7757 38.0977 65.9633 37.6287C65.151 37.1596 64.8728 36.1214 65.3413 35.3099C65.8098 34.4984 66.8481 34.2202 67.6604 34.6892C68.4728 35.1582 68.751 36.1964 68.2825 37.008Z" stroke="#414168"/>
<path d="M96.0431 106.086C97.697 107.041 99.8116 106.475 100.766 104.821C101.72 103.168 101.153 101.054 99.4995 100.099C97.8456 99.1441 95.7311 99.7102 94.7767 101.363C93.8222 103.017 94.3892 105.131 96.0431 106.086Z" fill="#7950ED"/>
<path d="M55.628 100.763C54.3288 103.013 51.4651 103.786 49.234 102.498C47.003 101.21 46.2408 98.3436 47.54 96.0932C48.8393 93.8428 51.703 93.0696 53.934 94.3577C56.1651 95.6457 56.9273 98.5124 55.628 100.763Z" stroke="#414168"/>
<path d="M73.5592 107.882C72.8122 109.176 71.1671 109.618 69.8871 108.879C68.6071 108.14 68.1681 106.494 68.915 105.201C69.662 103.907 71.3071 103.464 72.5871 104.203C73.8672 104.942 74.3061 106.588 73.5592 107.882Z" stroke="#414168"/>
<path d="M78.1148 92.0372C77.5888 92.9484 76.4312 93.2591 75.5315 92.7397C74.6319 92.2203 74.3222 91.0624 74.8482 90.1513C75.3743 89.2401 76.5319 88.9294 77.4315 89.4488C78.3312 89.9682 78.6409 91.1261 78.1148 92.0372Z" stroke="#414168"/>
<path d="M119.001 65.7593C118.695 66.2878 118.025 66.4664 117.506 66.1666C116.987 65.8668 116.806 65.1971 117.112 64.6686C117.417 64.1401 118.087 63.9615 118.606 64.2613C119.125 64.5611 119.306 65.2308 119.001 65.7593Z" stroke="#414168"/>
<path d="M96.126 125.55L93.9639 122.689L91.0913 124.853L93.2533 127.714L96.126 125.55Z" fill="#F5B82E"/>
<path d="M67.5611 114.07L75.0339 116.792L72.3268 124.323L64.854 121.6L67.5611 114.07Z" stroke="#414168"/>
<path d="M43.6035 85.0608L42.5791 76.1621L33.6446 77.2332L34.669 86.1319L43.6035 85.0608Z" fill="#F685A1"/>
<path d="M61.0281 93.8208L68.8494 92.1236L70.4976 99.9035L62.6763 101.601L61.0281 93.8208Z" stroke="#414168"/>
<path d="M69.4283 82.2707L70.9568 84.9394L68.309 86.4771L66.7805 83.8084L69.4283 82.2707Z" stroke="#414168"/>
<path d="M114.589 88.3384L117.868 84.3177L119.686 89.1639L114.589 88.3384Z" stroke="#414168"/>
<path d="M63.1872 109.234L57.3459 118.706L52.1128 108.938L63.1872 109.234Z" stroke="#414168"/>
<path d="M62.0773 87.8689L57.9673 88.9831L59.0783 84.861L62.0773 87.8689Z" stroke="#414168"/>
<line x1="106.307" y1="101.035" x2="106.73" y2="107.605" stroke="#414168"/>
<line y1="-0.5" x2="3.87372" y2="-0.5" transform="matrix(0.25882 0.965925 -0.965926 0.258818 87.71 95.8899)" stroke="#414168"/>
<line y1="-0.5" x2="7.74743" y2="-0.5" transform="matrix(-0.965926 0.25882 -0.258818 -0.965926 41.4248 62.8412)" stroke="#414168"/>
<line x1="32.7618" y1="113.866" x2="27.2835" y2="119.345" stroke="#414168"/>
<line y1="-0.5" x2="3.87372" y2="-0.5" transform="matrix(-0.965925 0.25882 -0.258818 -0.965926 56.5381 76.8383)" stroke="#414168"/>
<line x1="80.7744" y1="129" x2="80.7744" y2="136.747" stroke="#414168"/>
</svg>
