<svg width="1440" height="250" viewBox="0 0 1440 250" fill="none" xmlns="http://www.w3.org/2000/svg">
<mask id="mask0" mask-type="alpha" maskUnits="userSpaceOnUse" x="0" y="0" width="1440" height="250">
<rect width="1440" height="250" rx="4" transform="matrix(1 0 0 -1 0 250)" fill="white"/>
</mask>
<g mask="url(#mask0)">
<path d="M869.605 827.465C871.158 829.037 873.706 829.051 875.268 827.489L1107 595.753C1108.57 594.191 1108.55 591.648 1107.01 590.065C994.251 474.26 995.623 289.039 1109.83 174.831C1224.48 60.1837 1409.27 59.2431 1525.07 172.009C1526.65 173.551 1529.19 173.565 1530.75 172.003L1762.49 -59.7326C1764.05 -61.2947 1764.04 -63.8428 1762.47 -65.3951C1515.56 -309.25 1118.18 -308.306 872.439 -62.5611C626.695 183.184 625.75 580.555 869.605 827.465Z" fill="#F9F9FA"/>
<path d="M165.841 -531.934C163.935 -533.051 161.47 -532.404 160.366 -530.491L-3.49572 -246.675C-4.60027 -244.761 -3.92832 -242.309 -2.03006 -241.179C136.86 -158.503 183.472 20.7611 102.715 160.637C21.647 301.051 -156.601 349.786 -297.64 270.833C-299.568 269.754 -302.028 270.399 -303.133 272.312L-466.994 556.128C-468.099 558.042 -467.426 560.499 -465.506 561.592C-163.894 733.233 219.692 629.473 393.46 328.499C567.228 27.5241 465.293 -356.552 165.841 -531.934Z" fill="#F9F9FA"/>
<path d="M1008 194.5C1008 127.398 951.587 73 882 73L882 316C951.587 316 1008 261.602 1008 194.5Z" fill="#144BC1"/>
<path d="M135 57C172.555 57 203 25.6594 203 -13L67 -13C67 25.6594 97.4451 57 135 57Z" fill="#144BC1"/>
<path d="M842 103L842 162L1125 162L1125 103L842 103Z" fill="#E7E7EC"/>
<path d="M1125.27 160L1125 252.673L1220 253L1125.27 160Z" fill="#8DD9B9"/>
<path d="M1328.5 135C1266.92 135 1217 187.384 1217 252L1440 252C1440 187.384 1390.08 135 1328.5 135Z" fill="#E7E7EC"/>
<path d="M1255 206L1342 206L1342 120L1255 120L1255 206Z" fill="#144BC1"/>
<path d="M1367.27 232.1C1367.36 221.008 1367.45 209.917 1367.54 198.87C1367.62 187.867 1367.71 176.865 1367.8 165.818C1367.8 163.045 1367.84 160.317 1367.84 157.544C1367.84 155.442 1368.07 153.027 1367.05 151.059C1365.91 148.867 1363.48 149.002 1361.37 149.002C1358.64 149.002 1355.87 149.046 1353.13 149.091C1342.3 149.225 1331.47 149.494 1320.63 149.851C1309.71 150.254 1298.83 150.746 1287.95 151.372C1286.63 151.461 1285.31 151.551 1283.99 151.596C1283.64 151.64 1283.33 151.864 1283.33 152.266C1282.93 163.627 1282.89 175.031 1283.24 186.436C1283.59 197.796 1284.34 209.156 1285.49 220.472C1286.1 226.822 1286.9 233.129 1287.78 239.435C1287.82 239.703 1288.13 239.927 1288.39 239.927C1298.83 240.061 1309.22 240.016 1319.66 239.748C1330.06 239.524 1340.41 239.032 1350.8 238.317C1356.66 237.914 1362.52 237.467 1368.37 236.93C1369.21 236.841 1369.21 235.499 1368.37 235.588C1357.98 236.528 1347.59 237.288 1337.15 237.78C1326.75 238.317 1316.4 238.585 1306.01 238.674C1300.15 238.719 1294.29 238.719 1288.39 238.63C1288.61 238.809 1288.83 238.943 1289.01 239.122C1287.47 227.941 1286.28 216.67 1285.49 205.399C1284.69 194.129 1284.3 182.813 1284.25 171.498C1284.25 165.102 1284.34 158.707 1284.56 152.311C1284.34 152.535 1284.12 152.758 1283.9 152.982C1294.6 152.311 1305.31 151.775 1316.05 151.372C1326.71 150.969 1337.41 150.656 1348.11 150.522C1350.8 150.478 1353.44 150.433 1356.13 150.433C1357.45 150.433 1358.77 150.388 1360.09 150.388C1361.33 150.388 1362.6 150.254 1363.79 150.433C1366.08 150.746 1366.39 153.072 1366.48 154.995C1366.57 157.633 1366.44 160.272 1366.44 162.911C1366.35 173.779 1366.26 184.647 1366.17 195.515C1366.13 206.383 1366.04 217.251 1366 228.075C1366 229.416 1366 230.758 1365.95 232.1C1365.95 232.994 1367.27 232.994 1367.27 232.1Z" fill="white"/>
<path d="M1057 66C1070.81 66 1082 76.969 1082 90.5C1082 104.031 1070.81 115 1057 115C1043.19 115 1032 104.031 1032 90.5C1032 76.969 1043.19 66 1057 66Z" fill="#8DD9B9"/>
<path fill-rule="evenodd" clip-rule="evenodd" d="M1045.82 80.2528C1027.63 80.6464 1009.38 81.0404 991.176 80.9967L991.17 80.9967C988.225 80.9967 985.22 80.9967 982.257 80.9089C982.256 80.9088 982.255 80.9088 982.254 80.9088L982.282 80.0106L982.26 80.9089C982.259 80.9089 982.258 80.9089 982.257 80.9089C981.805 80.8982 981.393 80.8969 981.009 80.896L980.949 80.8959C980.591 80.8951 980.249 80.8944 979.935 80.8856C979.287 80.8674 978.647 80.8145 978.072 80.5969C976.779 80.1079 976.191 78.9531 975.715 77.176L975.715 77.1753C974.011 70.8018 975.542 63.1939 978.321 56.0734C981.109 48.9273 985.208 42.1315 988.824 37.3093L989.568 37.8394L988.825 37.3086C988.825 37.3089 988.824 37.3091 988.824 37.3093C1003.91 17.1479 1028.23 3.99999 1054.47 3.99999C1069.15 3.99999 1086.45 7.25539 1099.07 14.8066L1099.07 14.8066C1115.3 24.5289 1126.15 41.013 1131.07 58.2878C1131.07 58.2868 1131.07 58.2859 1131.07 58.285L1130.19 58.5313L1131.07 58.2906C1131.07 58.2896 1131.07 58.2887 1131.07 58.2878C1132.34 62.626 1133.2 67.0498 1133.69 71.5143L1133.69 71.5175C1133.7 71.6093 1133.71 71.7004 1133.72 71.7906C1133.87 73.1096 1133.99 74.2583 1134 75.2129C1134.01 76.2254 1133.9 77.1728 1133.43 77.9522C1132.93 78.7747 1132.12 79.2656 1131.08 79.5512C1130.06 79.8294 1128.74 79.9357 1127.06 79.9467C1127.06 79.9467 1127.06 79.9467 1127.06 79.9467L1127.06 79.0482L1127.06 79.9467C1127.06 79.9467 1127.06 79.9467 1127.06 79.9467C1121.55 79.9875 1116.03 79.7261 1110.54 79.466C1110.11 79.4454 1109.67 79.4248 1109.24 79.4044C1103.31 79.1254 1097.41 78.8757 1091.5 79.0278L1091.5 79.0279C1083.22 79.1947 1074.95 79.4387 1066.67 79.683C1059.73 79.8878 1052.79 80.0928 1045.82 80.2527L1045.82 80.2528ZM1045.78 78.4561C1052.7 78.2971 1059.65 78.0922 1066.6 77.8873C1074.89 77.6425 1083.19 77.3978 1091.46 77.2312C1097.44 77.0773 1103.4 77.3306 1109.33 77.6093C1109.76 77.6297 1110.19 77.6501 1110.62 77.6706C1116.12 77.9311 1121.59 78.19 1127.05 78.1497L1127.05 78.1497C1128.69 78.1389 1129.81 78.0318 1130.58 77.8207C1131.33 77.6168 1131.66 77.3422 1131.84 77.0382C1132.05 76.6912 1132.17 76.1512 1132.16 75.2307C1132.15 74.3652 1132.03 73.2987 1131.89 71.9338C1131.88 71.8591 1131.87 71.7834 1131.86 71.7068C1131.38 67.3361 1130.54 63.0122 1129.3 58.7775L1129.3 58.772L1129.3 58.772C1124.48 41.8383 1113.87 25.7766 1098.1 16.3385C1085.87 9.01608 1068.93 5.79709 1054.47 5.79709C1028.86 5.79709 1005.08 18.6344 990.311 38.3694L990.31 38.3701C986.775 43.0846 982.762 49.7404 980.041 56.713C977.31 63.7116 975.937 70.8898 977.496 76.7215C977.958 78.4435 978.353 78.776 978.737 78.9213C979 79.0208 979.371 79.0719 979.988 79.0892C980.277 79.0973 980.596 79.098 980.964 79.0988L981.013 79.0989C981.399 79.0998 981.829 79.1012 982.304 79.1124L982.31 79.1125C985.243 79.1995 988.224 79.1996 991.177 79.1996L991.179 79.1996C1009.36 79.2433 1027.58 78.8499 1045.78 78.4561Z" fill="#414168"/>
</g>
</svg>
