<svg width="1440" height="149" viewBox="0 0 1440 149" fill="none" xmlns="http://www.w3.org/2000/svg">
<mask id="mask0" mask-type="alpha" maskUnits="userSpaceOnUse" x="-1" y="-1" width="1442" height="150">
<rect x="-0.5" y="0.5" width="1441" height="149" transform="matrix(1 0 0 -1 0 149)" fill="#90DBE6" stroke="#E7E7EC"/>
</mask>
<g mask="url(#mask0)">
<path opacity="0.2" d="M1479.38 -190.085C1474.59 -203.361 1476.91 -221.766 1476.36 -235.596C1476.1 -242.133 1475.8 -248.771 1473.38 -254.856C1469.91 -263.706 1462.25 -270.445 1453.74 -274.669C1420.95 -290.962 1382.11 -272.809 1350.63 -254.051C1251.95 -195.164 1159.27 -126.32 1074.14 -49.1283C1018.53 1.31042 966.191 55.3699 917.532 112.547C893.202 141.111 869.83 170.479 847.414 200.601C836.232 215.637 825.251 230.874 814.521 246.313C809.232 253.906 804.497 263.914 797.999 270.501C791.35 277.24 790.293 275.983 780.269 276.636C748.182 278.748 713.325 381.386 710 413.319L1523 445C1522.65 438.211 1522.29 431.473 1521.99 424.684C1518.52 355.739 1514.99 286.794 1511.52 217.85C1506.98 128.438 1502.45 39.0766 1497.91 -50.3351C1496.35 -81.5136 1494.74 -112.742 1493.18 -143.921C1492.78 -152.168 1493.38 -161.32 1491.87 -169.467C1490.51 -176.96 1487.59 -177.06 1483.41 -182.592C1481.64 -184.805 1480.34 -187.319 1479.38 -190.085Z" fill="white"/>
<circle opacity="0.05" cx="925" cy="85" r="151" fill="white"/>
<g style="mix-blend-mode:soft-light" opacity="0.1">
<circle cx="1361" cy="202" r="151" fill="white"/>
</g>
<path opacity="0.2" d="M910.5 498C680.281 498 493 310.943 493 81C493 -148.909 680.281 -336 910.5 -336C1140.72 -336 1328 -148.943 1328 81C1328 310.943 1140.72 498 910.5 498ZM910.5 -169.831C772.028 -169.831 659.368 -57.306 659.368 81C659.368 219.306 772.028 331.866 910.5 331.866C1048.97 331.866 1161.67 219.341 1161.67 81C1161.67 -57.3407 1048.97 -169.831 910.5 -169.831Z" fill="white"/>
<path opacity="0.2" d="M181 323L438.5 323L696 323C696 180.498 580.726 65 438.5 65C296.274 65 181 180.498 181 323Z" fill="white"/>
<path opacity="0.1" d="M-17 -332V51.5V435C195.097 435 367 263.32 367 51.5C367 -160.32 195.097 -332 -17 -332Z" fill="white"/>
<g style="mix-blend-mode:soft-light" opacity="0.1">
<circle cx="100" cy="95" r="151" fill="white"/>
</g>
</g>
</svg>
